<?xml version="1.0" encoding="utf-8"?>
<!-- Generator: Adobe Illustrator 23.0.2, SVG Export Plug-In . SVG Version: 6.00 Build 0)  -->
<svg version="1.1" id="Layer_1" xmlns="http://www.w3.org/2000/svg" xmlns:xlink="http://www.w3.org/1999/xlink" x="0px" y="0px"
	 viewBox="0 0 211.45 211.45" style="enable-background:new 0 0 211.45 211.45;" xml:space="preserve">
<style type="text/css">
	.st0{fill-rule:evenodd;clip-rule:evenodd;fill:#7BC687;enable-background:new    ;}
	.st1{fill-rule:evenodd;clip-rule:evenodd;fill:#23BCB7;enable-background:new    ;}
	.st2{fill-rule:evenodd;clip-rule:evenodd;fill:#1AA89A;enable-background:new    ;}
	.st3{fill-rule:evenodd;clip-rule:evenodd;fill:#F4D138;enable-background:new    ;}
	.st4{fill-rule:evenodd;clip-rule:evenodd;fill:#3C97D3;enable-background:new    ;}
	.st5{fill-rule:evenodd;clip-rule:evenodd;fill:#22778C;enable-background:new    ;}
	.st6{fill-rule:evenodd;clip-rule:evenodd;fill:#5B77B1;enable-background:new    ;}
	.st7{fill-rule:evenodd;clip-rule:evenodd;fill:#33467D;enable-background:new    ;}
</style>
<g id="bird">
	<path class="st0" d="M75.68,135.78c-0.03-0.01-23.26-6.33-38.84-17.92c0,0-3.05-2.31-3.83-3.08l-21.07,8.55
		c8.34,20.65,29.29,32.62,50.44,30.66c1.94-0.07,3.88-0.26,5.81-0.56L75.68,135.78z"/>
	<path class="st1" d="M61.05,103.47l-2.02-2.45c-7.41-8.97-11.1-19.89-11.24-30.75L20.48,58.73C12.04,78.6,17.75,101.08,33,114.8
		L61.05,103.47z"/>
	<path class="st2" d="M75.11,120.49l-14.04-17.01h0l-0.01-0.02L33,114.8c0.02,0.01,0.03,0.03,0.05,0.04
		c0.05,0.04,0.09,0.09,0.14,0.13c1.12,0.98,2.3,1.93,3.54,2.84c15.59,11.59,38.93,17.96,38.96,17.97l0,0
		C78.46,130.21,79.4,125.86,75.11,120.49"/>
	<path class="st3" d="M196.72,60.48H143.5c-17.12,0-31.34,6.94-40.41,16.33c0,0,11.19,13.54,11.45,13.84
		c4.65,5.36,7.64,6.18,15.55,4.99c0.04-0.01,16.67-2.6,16.67-2.6l0,0l0,0c8.06-17.62,21.24-25.88,43.34-25.88h6.95
		C201.85,67.17,202.13,60.48,196.72,60.48"/>
	<path class="st4" d="M94.35,90.04L94.35,90.04l0.36-0.86c1.84-4.33,4.68-8.55,8.37-12.37L65.66,31.5
		C53.7,41.37,47.6,55.81,47.78,70.27L94.35,90.04z"/>
	<path class="st5" d="M47.78,70.27c0,0.02,0,0.03,0,0.05c0.15,10.86,3.83,21.72,11.24,30.7l2.02,2.45l33.3-13.43L47.78,70.27z"/>
	<path class="st6" d="M68.19,153.42l-9.87,23.27c19.44,8.25,52.48,1.06,60.93-18.9c0,0,0.99-2.36,1.25-2.99
		c0,0-11.65-8.86-11.66-8.87c-5.59-4.18-8.54-5.03-16.74-1.72L92,144.25c-1.53,0.67-19.94,8.68-23.81,9.19L68.19,153.42z"/>
	<path class="st7" d="M130.21,95.63c-8.01,1.22-11,0.42-15.69-4.96l-11.44-13.85c-3.69,3.82-6.53,8.05-8.37,12.37l-0.36,0.86
		l-33.3,13.43l14.06,17.02c4.29,5.36,3.35,9.71,0.57,15.28l0,0h0l-7.49,17.64c3.87-0.51,22.28-8.5,23.8-9.16
		c0.07-0.03,0.11-0.05,0.11-0.05c8.28-3.34,11.21-2.45,16.91,1.85c0.88,0.67,11.49,8.74,11.49,8.74l26.25-61.75L130.21,95.63z"/>
</g>
</svg>
