<svg xmlns="http://www.w3.org/2000/svg" width="48" height="48"><path fill="#029CEF" fill-rule="evenodd" d="M12.826 36.343c.15-.006.3-.015.45-.024.089-.215.155-.363.206-.472l-.006-.003 1.51-3.592c-2.877-.927-5.736-2.123-8.271-3.792-.808-.532-1.588-1.118-2.282-1.796L0 28.481a12.597 12.597 0 0012.826 7.862M1.286 18.455a12.821 12.821 0 003.42 7.203c1.813 1.901 4.212 3.166 6.58 4.22a42.228 42.228 0 004.054 1.536c.247-.653.652-1.267.551-2-.062-.458-.325-.84-.61-1.188-.583-.717-1.171-1.431-1.757-2.147-1.34-1.635-2.842-3.24-3.81-5.135-.995-1.949-1.597-4.249-1.495-6.453L2.17 11.912c-.858 2.037-1.2 4.346-.884 6.543m45.69-6.092H34.825c-1.24 0-2.47-.014-3.701.174-2.977.452-5.845 1.82-7.948 4.016 0 0 0 .004.003.006-1.097-1.278-2.138-2.61-3.205-3.914l-5.13-6.267L13.66 4.93c-3.634 3.022-5.295 8.034-4.222 12.658.484 2.082 1.487 3.895 2.829 5.532l1.464 1.788 2.152 2.629c.348.423.67.87.825 1.407.29 1.016-.15 1.92-.543 2.833-.649 1.504-1.272 3.02-1.907 4.531l-2.393 5.69-.07.165c2.836 1.212 6.231 1.08 9.135.19 2.563-.784 5.14-2.342 6.29-4.888.803-1.779 1.52-3.603 2.278-5.401l3.705-8.798 1.005-2.385c.718-1.706 1.8-3.312 3.242-4.477 2.063-1.67 4.705-2.254 7.299-2.32.721-.019 1.444-.007 2.165-.007.296 0 .589-.028.816-.242.245-.23.329-.6.207-.913-.153-.393-.565-.56-.96-.56"/></svg>