<svg xmlns="http://www.w3.org/2000/svg" width="190" height="153"><path fill="#33447C" fill-rule="evenodd" d="M50.768 123.214c.593-.023 1.186-.059 1.78-.094a49.03 49.03 0 01.818-1.843l-.024-.011 5.98-14.032c-11.39-3.62-22.706-8.292-32.743-14.812-3.199-2.078-6.284-4.368-9.032-7.015L0 92.506c8.4 20.68 29.471 32.669 50.768 30.708M5.09 53.34c1.326 10.504 6.17 20.514 13.54 28.138 7.175 7.425 16.671 12.366 26.04 16.48 5.233 2.3 10.613 4.25 16.052 6.004.976-2.552 2.58-4.948 2.182-7.816-.25-1.788-1.289-3.277-2.413-4.64-2.313-2.8-4.64-5.588-6.959-8.384-5.3-6.389-11.25-12.657-15.078-20.058-3.94-7.613-6.324-16.599-5.922-25.208L8.59 27.781c-3.397 7.959-4.75 16.976-3.5 25.56m180.86-23.8h-48.106c-4.904 0-9.778-.052-14.65.68-11.783 1.767-23.137 7.114-31.459 15.69 0 0 0 .013.012.024-4.342-4.994-8.463-10.198-12.688-15.292L58.755 6.163 54.066.51C39.68 12.31 33.108 31.892 37.355 49.952c1.914 8.134 5.885 15.216 11.196 21.61 1.933 2.327 3.865 4.656 5.796 6.984l8.521 10.269c1.375 1.656 2.653 3.398 3.263 5.497 1.152 3.97-.595 7.502-2.15 11.065-2.566 5.879-5.033 11.802-7.548 17.702l-9.471 22.227-.276.645c11.223 4.731 24.663 4.217 36.16.743 10.145-3.067 20.347-9.152 24.897-19.095 3.18-6.95 6.017-14.074 9.017-21.1l14.665-34.365 3.976-9.316c2.845-6.667 7.13-12.938 12.835-17.491 8.165-6.519 18.626-8.803 28.89-9.062 2.856-.072 5.717-.027 8.573-.027 1.17 0 2.329-.11 3.23-.945a3.285 3.285 0 00.819-3.568c-.605-1.535-2.237-2.184-3.798-2.184"/></svg>