<svg xmlns="http://www.w3.org/2000/svg" width="377" height="80"><g fill="none" fill-rule="evenodd" opacity=".098"><g fill="#FFF"><path d="M67.017 68.542L48.41 44.422a.824.824 0 00-1.304 1.005l17.6 22.817-20.51 15.808-17.6-22.817a.823.823 0 10-1.304 1.005L43.9 86.362l23.118-17.82z"/><path d="M16.962 44.507c-3.354-.238-5.094-1.87-4.9-4.593.065-.881.365-2.105 1.442-2.935.95-.733 2.317-1.04 4.062-.916 3.023.217 6.453 3.42 7.799 4.802-1.199.922-5.29 3.864-8.403 3.642m8.088-14.213c.323-1.719.969-2.961 1.918-3.693 1.078-.831 2.34-.811 3.206-.648 2.684.505 3.82 2.602 3.198 5.906-.576 3.065-4.462 6.273-5.66 7.197-.995-1.652-3.223-5.777-2.662-8.762m2.316 23.137a.824.824 0 00-1.155-.15l-6.161 4.75-5.317-6.893 11.648-8.978.113-.087c.725 2.604 2.56 4.97 4.497 7.452 3.26 4.173 6.63 8.49 4.52 14.211a.825.825 0 001.545.57c2.426-6.582-1.395-11.476-4.767-15.794-1.468-1.884-2.87-3.693-3.702-5.526 3.94 3.241 11.53 9.062 14.578 8.474a.824.824 0 00-.313-1.617c-2.195.425-9.736-5.163-14.503-9.2l.357-.274 11.648-8.979 5.317 6.893-6.222 4.796a.823.823 0 101.006 1.304l7.526-5.801-7.328-9.5-6.24 4.809c.263-.567.47-1.145.58-1.729.932-4.969-1.72-7.302-4.513-7.827-1.72-.323-3.283.01-4.518.962-1.279.987-2.13 2.565-2.53 4.694-.568 3.016 1.102 6.741 2.293 8.913-1.8-1.703-4.98-4.264-8.041-4.482-2.161-.155-3.906.266-5.185 1.253-1.236.952-1.954 2.377-2.079 4.121-.203 2.835 1.38 5.993 6.426 6.354a7.332 7.332 0 001.818-.12l-6.24 4.81 7.327 9.5 7.466-5.754a.823.823 0 00.15-1.155m131.253 7.036l-11.812-7.885-20.144-13.446 3.258-4.878 31.956 21.33-3.258 4.879zM140.063 35.01c-.846-3.254.146-5.423 2.787-6.11.857-.22 2.112-.327 3.244.429.998.666 1.725 1.862 2.166 3.554.761 2.933-1.18 7.205-2.06 8.922-1.26-.842-5.353-3.777-6.137-6.795zm16.056 3.12c1.733-.244 3.117-.029 4.115.637 1.131.755 1.516 1.956 1.638 2.83.12.85.087 2.08-.742 3.107-.77.95-2.059 1.56-3.833 1.81-3.09.432-7.371-2.223-8.632-3.064 1.248-1.47 4.447-4.898 7.454-5.32zm-3.71 9.158c1.662.65 3.48 1.085 5.117.855 2.201-.309 3.845-1.118 4.886-2.405.95-1.176 1.328-2.686 1.09-4.37-.242-1.732-1.057-3.104-2.354-3.97-1.344-.897-3.112-1.2-5.258-.9-3.04.427-6.039 3.2-7.717 5.021 1.04-2.247 2.452-6.078 1.68-9.05-.543-2.095-1.5-3.612-2.845-4.51-1.296-.864-2.877-1.09-4.57-.652-2.752.715-5.24 3.222-3.97 8.116.416 1.6 1.516 3.111 2.753 4.397l-11.755-7.846-5.087 7.616 34.695 23.159 5.088-7.616-11.753-7.845zm-6.794 24.193l-16.287.61-6.274-4.187 27.086-1.115-4.525 4.692zm-6.735 6.986l-7.214-4.815 12.301-.461-5.087 5.276zm15.634-16.216l-2.72 2.822-31.064 1.28-3.132-2.09.976-2.245 32.144-1.325a.822.822 0 10-.068-1.644l-31.346 1.292 1.962-4.505 20.887-.86a.824.824 0 10-.07-1.645l-20.088.828 1.962-4.504 9.63-.397a.824.824 0 10-.07-1.645l-8.831.365 1.902-4.367a.825.825 0 00-1.51-.657l-9.54 21.913L139.11 80.6l16.592-17.205a.824.824 0 00-1.187-1.144zm100.593 25.461l-15.265 15.296-25.795-25.724 3.634-3.642a.823.823 0 10-1.165-1.162l-4.798 4.806 28.127 28.05 16.428-16.461a.823.823 0 10-1.166-1.163m-2.699-25.655a.823.823 0 00-1.163 1.166l15.74 15.696-6.688 6.701-9.497-9.471-.51-.508-1.75-1.744a.823.823 0 00-1.163 1.165l1.75 1.744.51.509 10.662 10.634 9.014-9.033-16.905-16.86zm-17.053-1.82c.81-2.07 3.11-7.335 6.076-8.906 3.006-1.592 4.51-.624 5.38.244.475.474.912 1.091 1.334 1.888 1.65 3.114 1.051 5.133-2.005 6.75-2.964 1.57-8.616.516-10.785.024m7.205 6.203c.522.52.923 1.04 1.191 1.547 1.619 3.053.98 5.06-2.134 6.71-3.153 1.67-5.152 1.018-6.753-2.004-1.57-2.962-.516-8.611-.023-10.781 1.688.661 5.5 2.316 7.72 4.528m-16.6-11.245c-.523-.52-.923-1.04-1.191-1.547-1.618-3.054-.98-5.061 2.134-6.71 2.38-1.261 4.069-1.198 5.474.203.455.454.885 1.06 1.278 1.8 1.57 2.963.516 8.612.024 10.781-1.687-.661-5.501-2.315-7.72-4.527m1.128 15.109c-3.005 1.593-4.509.623-5.38-.245-.475-.474-.91-1.091-1.333-1.888-1.65-3.113-1.05-5.131 2.006-6.749 2.963-1.57 8.616-.516 10.785-.024-.81 2.07-3.11 7.334-6.078 8.906m19.823-8.636c3.859-2.043 4.763-5.063 2.69-8.975-.5-.945-1.034-1.692-1.626-2.283-1.916-1.91-4.377-2.09-7.314-.534-1.84.974-3.401 3.023-4.594 5.068.16-2.363.018-4.935-.956-6.773-2.042-3.856-5.087-4.748-8.978-2.688-3.914 2.073-4.862 5.08-2.817 8.936.344.652.843 1.305 1.482 1.941 1.015 1.013 2.298 1.904 3.583 2.652-2.363-.16-4.934-.018-6.772.955-3.857 2.043-4.761 5.063-2.69 8.975.501.944 1.034 1.69 1.627 2.282 1.916 1.911 4.376 2.09 7.314.535 1.838-.974 3.4-3.023 4.595-5.068-.16 2.363-.02 4.935.954 6.772.47.887.999 1.625 1.572 2.196 1.918 1.914 4.41 2.08 7.407.493 3.914-2.073 4.862-5.08 2.82-8.936-.348-.652-.846-1.305-1.485-1.942-1.015-1.012-2.299-1.903-3.583-2.652 2.363.16 4.933.02 6.771-.954m119.806 6.874l-18.607-24.12a.823.823 0 00-1.303 1.005l17.6 22.817-20.509 15.808-17.6-22.817a.823.823 0 10-1.304 1.005l18.605 24.122 23.118-17.82z"/><path d="M316.663 44.507c-3.354-.238-5.095-1.87-4.9-4.593.064-.881.365-2.105 1.441-2.935.95-.733 2.318-1.04 4.063-.916 3.022.217 6.451 3.42 7.798 4.802-1.199.922-5.29 3.864-8.402 3.642m8.087-14.213c.323-1.719.97-2.961 1.918-3.693 1.078-.831 2.339-.811 3.207-.648 2.683.505 3.818 2.602 3.197 5.906-.575 3.065-4.462 6.273-5.66 7.197-.995-1.652-3.223-5.777-2.662-8.762m2.316 23.137a.823.823 0 00-1.154-.15l-6.162 4.75-5.316-6.893 11.648-8.978.112-.087c.725 2.604 2.56 4.97 4.496 7.452 3.26 4.173 6.632 8.49 4.52 14.211a.825.825 0 001.276.937.808.808 0 00.27-.368c2.426-6.581-1.396-11.475-4.767-15.793-1.469-1.884-2.869-3.693-3.702-5.526 3.94 3.241 11.531 9.062 14.578 8.474a.824.824 0 00-.312-1.617c-2.197.425-9.737-5.163-14.503-9.2l.356-.274 11.648-8.979 5.316 6.893-6.221 4.796a.823.823 0 101.005 1.304l7.527-5.801-7.328-9.5-6.24 4.809c.264-.567.47-1.145.58-1.729.932-4.969-1.72-7.302-4.513-7.827-1.72-.323-3.283.01-4.518.962-1.278.987-2.13 2.565-2.531 4.694-.567 3.016 1.102 6.741 2.294 8.913-1.8-1.703-4.979-4.264-8.041-4.482-2.161-.155-3.905.266-5.186 1.253-1.235.952-1.953 2.377-2.078 4.121-.203 2.835 1.38 5.993 6.426 6.354a7.327 7.327 0 001.818-.12l-6.24 4.81 7.327 9.5 7.466-5.754a.823.823 0 00.149-1.155m-92.985-66.013l14.477 16.044-27.055 24.395-14.477-16.043a.823.823 0 10-1.223 1.103l15.58 17.266 29.502-26.601-15.58-17.267a.823.823 0 10-1.224 1.103"/><path d="M194.953-13.63c.452-.407 1.21-.706 2.251-.887 2.961-.515 8.03 1.703 10.15 2.723a43.32 43.32 0 01-1.846 1.767c-2.738 2.469-5.084 3.93-6.784 4.226-2.067.362-2.77-.164-3.12-.591-.574-.698-.793-1.961-1.006-3.18-.351-2.01-.501-3.285.355-4.058zm4.402-10.249c2.28-2.054 3.38-2.86 5.577-.426 2.012 2.23 2.83 7.7 3.096 10.037-2.3-.504-7.657-1.88-9.67-4.11-2.196-2.435-1.282-3.445.997-5.5zm13.754 10.532l14.22 15.76-5.606-1.5.92 5.727L208.42-9.12l4.688-4.227zm-4.218-11.709c.287-1.016.662-1.738 1.115-2.146.856-.772 2.11-.492 4.073.064 1.192.336 2.426.684 3.061 1.326.389.392.84 1.147.268 3.163-.47 1.66-2.164 3.844-4.902 6.313a43.51 43.51 0 01-1.948 1.652c-.797-2.212-2.484-7.48-1.667-10.372zm-14.56 19.708c.958 1.168 2.488 1.552 4.676 1.17.745-.13 1.561-.424 2.444-.874l-8.171 7.367 8.549 9.473 10.058-9.069a.823.823 0 10-1.102-1.222l-8.837 7.967-6.342-7.03L207.2-8.018l17.95 19.894-1.397-8.715 8.53 2.283-17.951-19.893 11.592-10.453 6.343 7.029-9.274 8.363a.824.824 0 001.102 1.222l10.497-9.465-8.548-9.474-8.171 7.367c.538-.831.916-1.613 1.122-2.34.604-2.137.379-3.697-.684-4.771-.94-.949-2.385-1.357-3.783-1.751-1.982-.56-4.031-1.139-5.624.297-.696.628-1.218 1.583-1.596 2.922-.123.435-.19.913-.23 1.41a7.6 7.6 0 00-.923-1.315c-3.392-3.76-5.892-1.504-7.9.307-2.01 1.812-4.51 4.066-1.118 7.825.339.375.753.725 1.214 1.054-.5-.012-.984.006-1.429.084-1.37.237-2.375.659-3.07 1.286-1.594 1.436-1.23 3.533-.876 5.562.25 1.431.507 2.909 1.355 3.942z"/></g><path d="M97.456 26.593a4.683 4.683 0 00-4.684-4.681 4.683 4.683 0 00-4.684 4.68 4.683 4.683 0 004.684 4.682 4.683 4.683 0 004.684-4.681zm181.52 15.723a4.683 4.683 0 00-4.684-4.68 4.683 4.683 0 00-4.684 4.68 4.682 4.682 0 004.684 4.68 4.682 4.682 0 004.684-4.68zM96.188 74.203a1.944 1.944 0 00-1.945-1.943 1.944 1.944 0 100 3.886c1.074 0 1.945-.87 1.945-1.943zm278.724-55.852a4.683 4.683 0 00-4.684-4.681 4.683 4.683 0 00-4.686 4.681 4.682 4.682 0 004.686 4.68 4.682 4.682 0 004.684-4.68z" stroke="#FFF" stroke-width="3"/><path d="M61.039 14.872l-2.066-.568.567-2.07a.897.897 0 10-1.732-.476l-.567 2.07-2.065-.568a.9.9 0 00-.475 1.736l2.065.568-.567 2.07a.898.898 0 101.733.476l.566-2.07 2.066.568a.9.9 0 00.475-1.736M91.51 2.591l-5.32.943-.94-5.332a.898.898 0 10-1.77.314l.941 5.33-5.32.944a.9.9 0 00.313 1.772l5.32-.943.94 5.332a.899.899 0 101.77-.313l-.94-5.332 5.32-.942a.9.9 0 00-.313-1.773M297.484 33.4h-5.402v-5.413a.899.899 0 10-1.797 0V33.4h-5.403a.899.899 0 000 1.8h5.403v5.413a.898.898 0 101.797 0V35.2h5.402a.899.899 0 000-1.8M185.51 81.83h-2.143v-2.146a.899.899 0 10-1.796 0v2.146h-2.142a.899.899 0 00-.898.9c0 .498.402.9.898.9h2.142v2.147a.899.899 0 101.796 0V83.63h2.142a.899.899 0 00.898-.9c0-.497-.401-.9-.898-.9m-23.951-84h-2.141v-2.146a.899.899 0 10-1.797 0v2.146h-2.141a.899.899 0 00-.899.9c0 .498.402.9.899.9h2.141v2.147a.899.899 0 101.797 0V-.37h2.141a.899.899 0 00.899-.9.9.9 0 00-.899-.9M4.495 1.405A2.077 2.077 0 002.42-.675 2.078 2.078 0 00.346 1.406c0 1.148.928 2.079 2.074 2.079s2.075-.93 2.075-2.08" fill="#FFF"/></g></svg>