<svg width="178" height="158" viewBox="0 0 178 158" fill="none" xmlns="http://www.w3.org/2000/svg">
<ellipse cx="127.536" cy="10.9255" rx="1.83505" ry="1.68085" fill="white"/>
<ellipse cx="116.526" cy="14.2872" rx="4.12886" ry="3.78192" fill="white"/>
<path fill-rule="evenodd" clip-rule="evenodd" d="M69.7502 14.8277L66.0053 11.766L60.9917 10.0851L57.0743 8.95538L51.9692 9.67443L46.1912 10.9255L41.2474 11.8915L35.8449 13.4468L30.2497 14.8277H26.675L22.7038 14.6764L19.7958 14.286V16.9807L21.0005 18.554L22.7038 20.2131L23.999 21.3081L19.7958 21.8511L17.2677 22.9118V24.7511L19.7958 26.8936H22.7038H27.7587L33.3495 25.9601L37.3296 24.0621L40.6229 21.6854L44.9283 19.6537L48.8255 17.1865L53.2165 15.9797H56.1312L59.5993 16.9807L64.2532 18.5981L63.1797 20.4694L59.5993 20.2131L56.1312 19.6537L53.2165 18.5981L49.5464 19.6537L48.0731 21.3081L46.766 23.5319V27.5772L50.1535 31.3698L45.5685 33.0843L41.2474 36.3159L38.2368 42.0213L37.3296 48.4404L38.2368 56.464L38.9017 65.5532L36.7198 73.1065L35.1774 76.6392L33.3495 79L35.8449 79.8314L38.9017 78.693L41.2474 76.6392L42.8961 74.7979L44.9283 78.693L46.766 78.0884L48.8255 75.6383L49.5464 71.4362L50.1535 67.1634L49.5464 62.1915V58.5964L48.8255 53.7872L48.0731 49.1058L46.766 44.14V39.8578L48.8255 36.3159L53.2165 33.469L56.1312 35.3478L49.5464 39.5058V42.0213L55.2242 49.7903L59.5993 48.4404V76.6392L74.6639 77.3192V108.569L44.1301 109.255L42.8961 111.156V123.65H48.8255V154.638H155.366V123.65H160.541V109.255H150.345V77.3192H143.019L145.746 73.9575L147.258 71.4362L145.746 68.9149L143.815 67.8151V64.5843L143.019 62.1915L139.464 62.9925V60.5106L137.629 58.5964L135.433 57.1489H133.041L130.289 59.6702L128.454 61.3511V64.5843L125.355 61.3511L122.315 62.1915L120.346 62.9925L118.569 64.5843L119.166 67.8151L120.346 69.7553L117.358 70.5957L116.04 71.4362L117.264 74.6558L120.653 77.3192H111.624L111.277 42.9114H69.2327L103.68 21.8511L96.6441 11.766L90.4981 14.6764V8.95538L88.0825 4.8464L84.4124 1.77852H81.61H79.7902L77.0722 4.8464L75.2371 8.95538L74.0893 13.4468L73.2076 15.9797L71.0424 16.9807L69.7502 14.8277Z" fill="white"/>
<path fill-rule="evenodd" clip-rule="evenodd" d="M43.9735 122.702C43.2083 122.702 42.5872 122.128 42.5872 121.421C42.5872 120.367 42.4985 119.208 42.4098 118.011C42.1658 114.787 41.8885 111.134 43.2221 108.338C43.5299 107.694 44.345 107.399 45.0492 107.681C45.7479 107.969 46.0667 108.725 45.759 109.371C44.7026 111.588 44.9411 114.761 45.174 117.835C45.2682 119.093 45.3597 120.311 45.3597 121.421C45.3597 122.128 44.7387 122.702 43.9735 122.702Z" fill="#E3DFD8"/>
<path fill-rule="evenodd" clip-rule="evenodd" d="M57.3687 50.4255C57.0468 50.4255 56.7276 50.3161 56.468 50.0973C53.3764 47.4427 50.7527 43.7148 49.614 40.3673C49.3814 39.6821 49.7682 38.9475 50.4795 38.7235C51.1882 38.502 51.9537 38.8746 52.1836 39.5571C53.1681 42.4487 55.5564 45.8223 58.2694 48.1487C58.8266 48.6306 58.8752 49.4512 58.3803 49.9905C58.1098 50.277 57.7419 50.4255 57.3687 50.4255Z" fill="#E3DFD8"/>
<path fill-rule="evenodd" clip-rule="evenodd" d="M108.962 130.869C108.913 130.864 108.871 130.841 108.819 130.841H108.74C107.985 130.841 107.413 131.396 107.413 132.08C107.413 132.766 108.064 133.318 108.819 133.318C108.871 133.318 108.913 133.296 108.962 133.293V135.265C108.861 135.245 108.765 135.213 108.658 135.213C107.9 135.213 107.29 135.802 107.29 136.488C107.29 137.172 107.9 137.727 108.658 137.727C108.765 137.727 108.861 137.692 108.962 137.67V139.205C108.817 139.18 108.674 139.163 108.518 139.178C108.122 139.232 107.623 139.512 107.413 139.819C107.197 140.127 107.142 140.706 107.26 141.05C107.443 141.58 107.985 141.92 108.565 141.92C108.694 141.92 108.83 141.902 108.962 141.865V143.423C108.754 143.316 108.521 143.242 108.258 143.242C107.503 143.242 106.89 143.866 106.89 144.55C106.89 145.236 107.503 145.788 108.258 145.788C108.521 145.788 108.754 145.704 108.962 145.588V147.396C108.866 147.339 108.784 147.267 108.669 147.235C107.935 147.027 107.18 147.398 106.953 148.049C106.835 148.394 106.89 148.971 107.104 149.278C107.317 149.585 107.818 149.867 108.215 149.919C108.283 149.927 108.349 149.932 108.417 149.932C108.609 149.932 108.792 149.887 108.962 149.818V151.552C108.795 151.287 108.557 151.061 108.212 150.965C107.484 150.754 106.723 151.128 106.496 151.777C106.386 152.091 106.444 152.582 106.616 152.901H105.221C105.229 152.839 105.242 152.777 105.237 152.713C105.256 152.411 105.152 152.101 104.92 151.851C104.435 151.324 103.57 151.254 102.993 151.693C102.632 151.968 102.429 152.468 102.478 152.901H101.011C100.989 152.235 100.393 151.737 99.6511 151.737C98.9368 151.737 98.3702 152.267 98.3046 152.901H97.1797L97.1633 132.545C97.01 131.723 96.9389 130.975 96.906 130.235H108.962V130.869ZM113.773 126.747C113.773 126.064 113.16 125.509 112.405 125.509H111.447C111.201 125.177 110.806 124.944 110.33 124.944C109.854 124.944 109.46 125.177 109.214 125.509H97.1496C97.0894 124.939 96.6296 124.461 95.981 124.392C95.2585 124.31 94.5469 124.793 94.4566 125.469C94.4538 125.484 94.4538 125.494 94.4511 125.509H94.3799C94.1719 125.066 93.6875 124.756 93.121 124.756C92.3656 124.756 91.7526 125.311 91.7526 125.994V153.808C91.7526 154.491 92.3656 155.046 93.121 155.046C93.1538 155.046 93.1785 155.031 93.2086 155.029C93.4576 155.244 93.7888 155.378 94.1582 155.378H94.514C94.6618 155.915 95.1764 156.319 95.814 156.319C96.4545 156.319 96.9662 155.915 97.1168 155.378H109.211C109.457 155.712 109.854 155.945 110.33 155.945C110.837 155.945 111.258 155.688 111.496 155.319C112.085 155.177 112.528 154.717 112.528 154.14C112.528 153.629 112.186 153.194 111.699 153.005V130.215C112.405 130.165 112.963 129.648 112.963 128.996C112.963 128.565 112.706 128.209 112.339 127.986H112.405C113.16 127.986 113.773 127.431 113.773 126.747Z" fill="#7FC689"/>
<path fill-rule="evenodd" clip-rule="evenodd" d="M107.295 124.383C107.657 124.383 107.979 124.231 108.209 123.997H108.837C109.539 123.997 110.103 123.447 110.103 122.769C110.103 122.088 109.539 121.54 108.837 121.54H108.561V110.484C108.561 109.803 107.994 109.255 107.295 109.255C106.597 109.255 106.03 109.803 106.03 110.484V113.658C106.022 113.658 106.014 113.653 106.007 113.653H105.938C105.24 113.653 104.708 114.201 104.708 114.882C104.708 115.56 105.308 116.11 106.007 116.11C106.014 116.11 106.022 116.105 106.03 116.105V117.157C105.931 117.135 105.84 117.103 105.733 117.103C105.032 117.103 104.467 117.717 104.467 118.395C104.467 119.076 105.032 119.624 105.733 119.624C105.84 119.624 105.931 119.592 106.03 119.567V121.54H105.43C105.493 121.388 105.531 121.226 105.531 121.051C105.531 120.371 104.928 119.823 104.229 119.823C103.531 119.823 102.964 120.371 102.964 121.051C102.964 121.226 103.004 121.388 103.07 121.54H102.384C102.389 121.516 102.402 121.494 102.404 121.469C102.483 120.796 101.981 120.186 101.288 120.113C100.883 120.066 100.399 120.228 100.131 120.491C99.8749 120.739 99.7306 121.179 99.7483 121.54H98.5508C98.5533 121.506 98.571 121.479 98.571 121.447C98.571 120.766 97.9837 120.218 97.2849 120.218C96.5861 120.218 96.019 120.766 96.019 121.447C96.019 121.479 96.0368 121.506 96.0393 121.54H92.6417V110.671C92.6417 109.992 92.0746 109.442 91.3758 109.442C90.6771 109.442 90.11 109.992 90.11 110.671V121.874C90.11 121.953 90.1403 122.019 90.153 122.091C90.0163 122.287 89.9175 122.511 89.9175 122.769C89.9175 123.447 90.4847 123.997 91.1834 123.997H106.381C106.612 124.231 106.933 124.383 107.295 124.383Z" fill="#7FC689"/>
<path fill-rule="evenodd" clip-rule="evenodd" d="M104.87 138.076C104.683 138.246 104.578 138.523 104.601 138.765C104.64 139.191 105.031 139.511 105.488 139.511C105.513 139.511 105.539 139.509 105.566 139.507C105.802 139.488 106.01 139.388 106.157 139.236C106.308 139.106 106.408 138.925 106.43 138.719C106.472 138.27 106.112 137.874 105.621 137.833C105.365 137.81 105.056 137.907 104.87 138.076Z" fill="#7FC689"/>
<path fill-rule="evenodd" clip-rule="evenodd" d="M105.465 142.869C105.492 142.871 105.517 142.872 105.543 142.872C106 142.872 106.391 142.552 106.43 142.126C106.453 141.884 106.348 141.608 106.16 141.437C105.973 141.267 105.67 141.176 105.41 141.194C104.917 141.235 104.557 141.631 104.602 142.08C104.621 142.286 104.723 142.467 104.875 142.598C105.021 142.75 105.228 142.849 105.465 142.869Z" fill="#7FC689"/>
<path fill-rule="evenodd" clip-rule="evenodd" d="M105.604 146.24C105.123 146.185 104.67 146.498 104.605 146.945C104.571 147.19 104.669 147.476 104.854 147.654C105.025 147.817 105.296 147.915 105.547 147.915C105.571 147.915 105.595 147.913 105.619 147.912C106.109 147.874 106.472 147.478 106.43 147.029C106.41 146.821 106.308 146.64 106.157 146.508C106.018 146.366 105.825 146.268 105.604 146.24Z" fill="#7FC689"/>
<path fill-rule="evenodd" clip-rule="evenodd" d="M101.644 147.944C101.251 148.039 100.928 148.386 100.928 148.756C100.928 149.128 101.251 149.473 101.644 149.568C101.719 149.588 101.795 149.596 101.87 149.596C102.266 149.596 102.629 149.353 102.732 148.988C102.756 148.911 102.764 148.833 102.763 148.756C102.764 148.679 102.756 148.601 102.732 148.524C102.609 148.091 102.115 147.823 101.644 147.944Z" fill="#7FC689"/>
<path fill-rule="evenodd" clip-rule="evenodd" d="M101.86 144.553C102.358 144.553 102.763 144.177 102.763 143.713C102.763 143.249 102.358 142.872 101.86 142.872H101.806C101.305 142.872 100.928 143.249 100.928 143.713C100.928 144.177 101.361 144.553 101.86 144.553Z" fill="#7FC689"/>
<path fill-rule="evenodd" clip-rule="evenodd" d="M105.515 134.468C106.022 134.468 106.433 134.102 106.433 133.651V133.553C106.433 133.102 106.022 132.787 105.515 132.787C105.009 132.787 104.598 133.201 104.598 133.651C104.598 134.102 105.009 134.468 105.515 134.468Z" fill="#7FC689"/>
<path fill-rule="evenodd" clip-rule="evenodd" d="M103.693 117.66C104.193 117.66 104.598 117.283 104.598 116.819C104.598 116.355 104.193 115.979 103.693 115.979H103.646C103.145 115.979 102.763 116.355 102.763 116.819C102.763 117.283 103.194 117.66 103.693 117.66Z" fill="#7FC689"/>
<path fill-rule="evenodd" clip-rule="evenodd" d="M104.248 113.789C104.474 113.374 104.29 112.87 103.837 112.662L103.328 113.368L103.016 114.166C103.149 114.226 103.29 114.253 103.428 114.253C103.762 114.253 104.086 114.084 104.248 113.789Z" fill="#7FC689"/>
<path fill-rule="evenodd" clip-rule="evenodd" d="M136.372 75.6383C135.678 75.6383 135.115 76.1952 135.115 76.8813V84.9878C135.025 84.9679 134.939 84.9406 134.844 84.9406C134.147 84.9406 133.587 85.5745 133.587 86.2606C133.587 86.9467 134.147 87.5036 134.844 87.5036C134.939 87.5036 135.025 87.4688 135.115 87.4489V92.2293C135.072 92.2268 135.04 92.2094 134.997 92.2094C134.303 92.2094 133.74 92.8035 133.74 93.4897C133.74 94.1783 134.303 94.7326 134.997 94.7326C135.04 94.7326 135.072 94.7127 135.115 94.7078V96.2664C135.103 96.2639 135.09 96.2565 135.077 96.254C134.685 96.1918 134.258 96.346 133.986 96.607C133.712 96.868 133.559 97.2956 133.592 97.671C133.647 98.3198 134.198 98.807 134.841 98.807C134.876 98.807 134.914 98.8045 134.952 98.8021C135.01 98.7971 135.06 98.7697 135.115 98.7548V100.333C135.025 100.313 134.939 100.284 134.844 100.284C134.147 100.284 133.587 100.875 133.587 101.561C133.587 102.25 134.147 102.804 134.844 102.804C134.939 102.804 135.025 102.772 135.115 102.752V104.134C134.673 103.861 134.095 103.868 133.665 104.211C133.371 104.445 133.149 104.878 133.149 105.255C133.149 105.338 133.192 105.422 133.212 105.507H130.967V77.023C130.967 76.3344 130.404 75.78 129.71 75.78C129.014 75.78 128.454 76.3344 128.454 77.023V108.012C128.454 108.698 129.014 109.255 129.71 109.255C130.404 109.255 130.967 108.698 130.967 108.012V107.992H135.442C135.673 108.249 136 108.418 136.372 108.418C137.066 108.418 137.629 107.861 137.629 107.175V76.8813C137.629 76.1952 137.066 75.6383 136.372 75.6383Z" fill="#F2D038"/>
<path fill-rule="evenodd" clip-rule="evenodd" d="M130.289 100.023C130.289 100.48 130.7 100.851 131.206 100.851C131.713 100.851 132.124 100.48 132.124 100.023V99.9734C132.124 99.5147 131.713 99.1702 131.206 99.1702C130.7 99.1702 130.289 99.566 130.289 100.023Z" fill="#F2D038"/>
<path fill-rule="evenodd" clip-rule="evenodd" d="M131.192 94.1277C130.693 94.1277 130.289 94.5042 130.289 94.9681C130.289 95.432 130.693 95.8085 131.192 95.8085H131.246C131.746 95.8085 132.124 95.432 132.124 94.9681C132.124 94.5042 131.69 94.1277 131.192 94.1277Z" fill="#F2D038"/>
<path fill-rule="evenodd" clip-rule="evenodd" d="M132.122 90.0118C132.123 89.9825 132.123 89.9548 132.123 89.9255C132.129 89.7561 132.076 89.5818 131.959 89.432C131.673 89.0638 131.11 88.9743 130.703 89.2332C130.391 89.4336 130.216 89.8245 130.317 90.1552C130.42 90.4874 130.775 90.7383 131.155 90.7643C131.179 90.766 131.2 90.766 131.224 90.766C131.691 90.766 132.085 90.4402 132.122 90.0118Z" fill="#F2D038"/>
<path fill-rule="evenodd" clip-rule="evenodd" d="M146.723 70.6007C146.467 69.2192 145.636 68.2932 144.466 68.0069C144.842 66.2097 144.63 64.649 143.784 63.5985C143.295 62.9862 142.339 62.2942 140.7 62.1722C140.703 62.1722 140.706 62.1722 140.706 62.1697C141.304 61.7814 141.453 61.0072 141.045 60.4397C140.026 59.0233 138.367 57.1489 135.673 57.1489H135.579C133.546 57.1838 131.503 58.2168 130.243 59.8497C129.833 60.3824 129.566 60.955 129.363 61.5374C129.227 61.3234 129.036 61.1342 128.772 61.0321C125.963 59.9269 122.679 60.8678 121.301 63.1853C120.593 64.3776 120.329 65.7791 120.541 67.2452C120.619 67.7754 120.724 68.2409 120.852 68.6616C120.037 68.5994 119.206 68.7587 118.573 69.1968C117.766 69.7494 117.523 70.429 117.463 70.8994C117.353 71.7358 117.703 72.622 118.5 73.533C120.178 75.4423 122.36 76.6695 125.171 77.2893C125.271 77.3092 125.367 77.3191 125.464 77.3191C126.062 77.3191 126.598 76.9308 126.739 76.3558C126.899 75.6837 126.462 75.0166 125.759 74.8623C123.523 74.3719 121.803 73.4135 120.507 71.9374C120.055 71.4247 120.055 71.1956 120.105 71.2131C120.309 71.0737 120.857 71.0911 121.053 71.2429C121.61 71.6786 122.436 71.6014 122.89 71.0687C122.911 71.0463 122.914 71.0164 122.932 70.994C122.958 70.9965 122.982 71.0139 123.01 71.0139C123.483 71.0139 123.948 70.7874 124.178 70.3717C124.513 69.7618 124.317 69.0449 123.677 68.7263C123.536 68.577 123.272 67.9173 123.131 66.9117C123 66.0006 123.157 65.1145 123.577 64.4125C124.398 63.026 126.36 62.7746 127.777 63.3347C128.231 63.5114 128.717 63.4118 129.078 63.1405C129.075 63.6583 129.122 64.176 129.282 64.6888C129.451 65.2315 129.971 65.5824 130.536 65.5824C130.659 65.5824 130.781 65.5675 130.904 65.5302C131.597 65.336 131.991 64.644 131.787 63.9843C131.416 62.7845 131.981 61.8013 132.352 61.3209C133.123 60.3202 134.408 59.6581 135.626 59.6382C136.833 59.6904 137.779 60.3003 138.892 61.8461C139.07 62.095 139.336 62.2494 139.619 62.324C139.245 62.5406 138.978 62.9165 138.976 63.3645C138.971 64.0516 139.553 64.6116 140.275 64.6166C141.317 64.6216 141.61 64.99 141.706 65.1095C142.125 65.6297 142.172 66.72 141.827 67.9572C141.712 68.3704 141.85 68.7761 142.122 69.0773C142.117 69.147 142.093 69.2117 142.098 69.2864C142.172 69.9734 142.825 70.4962 143.525 70.4041C143.792 70.3842 144.029 70.3642 144.15 71.0289C144.398 72.3905 143.533 74.2001 142.922 74.3495C142.221 74.5188 141.801 75.1983 141.981 75.8629C142.13 76.4255 142.66 76.7989 143.246 76.7989C143.353 76.7989 143.46 76.7864 143.57 76.7616C145.84 76.2065 147.152 72.9381 146.723 70.6007Z" fill="#F2D038"/>
<path fill-rule="evenodd" clip-rule="evenodd" d="M128.325 69.8838C128.17 69.2145 127.504 68.7891 126.831 68.9483C125.412 69.2718 124.622 70.3764 124.811 71.7597C125.058 73.5485 127.006 75.6383 128.97 75.6383C129.013 75.6383 129.06 75.6383 129.103 75.6358C129.793 75.601 130.322 75.0163 130.287 74.3321C130.255 73.6455 129.644 73.1205 128.983 73.1504C128.721 73.1006 128.262 72.9116 127.836 72.4264C127.4 71.9363 127.255 71.4686 127.22 71.4337C127.22 71.4337 127.262 71.4014 127.387 71.374C128.06 71.2198 128.479 70.553 128.325 69.8838Z" fill="#F2D038"/>
<path fill-rule="evenodd" clip-rule="evenodd" d="M133.337 68.0285C133.094 67.4129 132.373 67.0861 131.68 67.2992C130.812 67.5739 130.291 68.2038 130.289 68.9852C130.281 70.3609 132.025 71.803 132.94 72.099C133.319 72.2221 133.696 72.2766 134.059 72.2766C135.625 72.2766 136.985 71.2418 137.534 69.9892C137.803 69.383 137.479 68.6939 136.807 68.45C136.14 68.2061 135.377 68.5045 135.11 69.1107C134.919 69.5369 134.383 70.0626 133.855 69.8802C133.656 69.7903 133.296 69.4753 133.076 69.2101C133.385 68.8976 133.5 68.4477 133.337 68.0285Z" fill="#F2D038"/>
<path fill-rule="evenodd" clip-rule="evenodd" d="M139.373 72.354C138.738 72.132 137.953 72.4016 137.717 72.9837C137.48 73.5726 137.729 74.1842 138.367 74.4017C138.564 74.5648 138.81 75.1288 138.837 75.4323C138.482 75.7993 138.413 76.3497 138.711 76.7869C138.945 77.1312 139.346 77.3192 139.755 77.3192C139.979 77.3192 140.205 77.2648 140.407 77.1493C140.715 76.9703 141.419 76.4244 141.281 75.1899C141.175 74.2454 140.516 72.7413 139.373 72.354Z" fill="#F2D038"/>
<path fill-rule="evenodd" clip-rule="evenodd" d="M90.4735 75.6383H82.0213C81.3153 75.6383 80.7422 75.2618 80.7422 74.7979C80.7422 74.334 81.3153 73.9575 82.0213 73.9575H90.4735C91.1795 73.9575 91.7526 74.334 91.7526 74.7979C91.7526 75.2618 91.1795 75.6383 90.4735 75.6383Z" fill="#28BBB4"/>
<path fill-rule="evenodd" clip-rule="evenodd" d="M53.1644 126.555H53.6632C53.1255 129.353 53.4346 132.588 53.7255 135.513C53.8113 136.352 53.8918 137.156 53.9412 137.892L54.0736 139.708C54.2503 142.163 54.4347 144.699 54.4737 147.16C54.4997 148.611 54.4997 150.552 54.3438 152.378H53.1644V126.555ZM47.7664 120.71L47.7716 120.338C47.7664 119.266 47.7144 118.19 47.6651 117.11C47.5767 115.248 47.5066 113.472 47.6521 111.72H48.0209C47.8027 114.175 47.9274 116.633 48.0703 119.02C48.1041 119.576 48.1326 120.144 48.1612 120.71H47.7664ZM85.21 114.274C85.1138 113.398 85.0489 112.443 85.2307 112.035C85.2749 111.932 85.2827 111.826 85.2983 111.72H85.3736C85.2437 112.566 85.21 113.422 85.21 114.274ZM58.7937 116.581C58.8794 117.957 58.9392 119.332 58.9833 120.71H57.8923C57.8767 120.351 57.8663 119.989 57.8507 119.63C57.8118 118.702 57.7728 117.775 57.765 116.845C57.7624 116.112 57.6611 115.305 57.5572 114.48C57.4325 113.509 57.3416 112.544 57.4091 111.72H58.5573C58.5937 113.339 58.6898 114.958 58.7937 116.581ZM61.7915 114.057C61.9863 116.328 62.137 118.505 62.2019 120.71H61.5837C61.5395 119.285 61.4746 117.861 61.3862 116.439C61.2849 114.859 61.1914 113.29 61.1576 111.72H61.6486C61.6382 111.799 61.6122 111.873 61.6174 111.954L61.7915 114.057ZM66.4986 111.789L65.4932 111.863L65.9089 111.845L66.4986 111.794C66.496 111.804 66.4934 111.813 66.4908 111.826L65.9089 111.845L64.2281 112L64.2074 111.772C64.2074 111.752 64.1944 111.74 64.1944 111.72H66.5115C66.5064 111.742 66.5038 111.764 66.4986 111.789ZM71.1329 116.141C71.1069 115.806 71.0861 115.472 71.0576 115.14C70.9588 114.013 70.8601 112.879 70.8212 111.821C70.8186 111.784 70.8004 111.754 70.7952 111.72H70.9666C70.9485 113.149 71.0264 114.653 71.1329 116.141ZM73.728 116.006C73.7176 115.858 73.7098 115.711 73.6994 115.56C73.7826 116.264 73.8293 116.975 73.8319 117.644C73.7982 117.103 73.7696 116.572 73.728 116.006ZM71.2914 120.045C71.2888 120.262 71.3017 120.51 71.2914 120.71H71.0056C71.1641 120.523 71.2706 120.301 71.2914 120.045ZM71.294 119.418C71.294 119.017 71.2836 118.604 71.2628 118.178C71.2888 118.616 71.2862 119.015 71.294 119.418ZM76.0452 112.34C76.2114 112.95 76.4374 113.76 76.479 114.013C76.6712 115.351 76.5985 116.7 76.518 118.126C76.4712 118.988 76.4478 119.846 76.4582 120.71H75.9049C75.9595 120.626 76.053 120.569 76.0842 120.471C76.7959 118.284 76.3283 113.855 75.4607 111.72H75.8841C75.9257 111.885 75.9802 112.099 76.0452 112.34ZM79.1625 116.926C79.2897 118.065 79.3755 119.214 79.3469 120.385C79.3443 120.501 79.3807 120.604 79.4092 120.71H79.0534C79.0404 119.89 79.0663 119.074 79.1131 118.257C79.1365 117.819 79.1469 117.371 79.1625 116.926ZM54.8244 111.72C54.7672 112.721 54.8478 113.755 54.9776 114.776C55.0712 115.501 55.1647 116.215 55.1673 116.859C55.1751 117.819 55.2166 118.773 55.2556 119.728C55.2712 120.053 55.279 120.382 55.292 120.71H55.0504C54.2087 118.213 54.097 114.301 54.5776 111.72H54.8244ZM57.0714 147.12C57.0299 144.596 56.8454 142.025 56.6636 139.538L56.5337 137.73C56.4817 136.972 56.3986 136.145 56.3129 135.279C56.0323 132.477 55.7492 129.116 56.3674 126.555H82.9318C82.1966 131.739 82.5941 137.107 82.9967 142.306C83.0928 143.568 83.1915 144.822 83.2721 146.062C83.3214 146.845 83.2876 147.684 83.2539 148.537C83.2045 149.809 83.1552 151.118 83.3422 152.378H56.9441C57.0896 150.56 57.1 148.685 57.0714 147.12ZM85.9945 152.378C85.7633 151.239 85.7996 149.92 85.849 148.626C85.8854 147.691 85.9191 146.771 85.8646 145.912C85.7841 144.66 85.6853 143.398 85.5866 142.126C85.184 136.942 84.7735 131.581 85.5399 126.555H86.4802C85.849 128.814 86.2101 131.498 86.553 133.884C86.6777 134.76 86.7998 135.597 86.8595 136.354C87.0751 139.1 87.179 141.784 87.2596 144.279L87.2959 145.42C87.3739 147.738 87.444 150.05 87.4518 152.378H85.9945ZM92.2862 124.095H56.0167C55.9492 124.058 55.8946 124.009 55.8193 123.982C55.4426 123.856 55.053 123.918 54.7335 124.095H52.2864C52.476 123.881 52.6033 123.615 52.6033 123.315C52.6033 123.268 52.6033 123.217 52.6033 123.17H53.6424C53.8217 123.251 54.0087 123.325 54.2087 123.325C54.3906 123.325 54.575 123.288 54.7516 123.212C54.775 123.202 54.788 123.182 54.8088 123.17H62.7267C62.9527 123.352 63.2358 123.475 63.5579 123.475H63.5605C63.88 123.475 64.1632 123.352 64.3892 123.17H88.0701C88.787 123.17 89.3689 122.619 89.3689 121.94C89.3689 121.261 88.787 120.71 88.0701 120.71H87.5817C87.6596 120.577 87.7168 120.432 87.7375 120.269C87.9324 118.867 87.8856 117.438 87.8389 116.055C87.7895 114.525 87.7609 113.073 88.0233 111.72H89.1923C89.9092 111.72 90.4911 111.169 90.4911 110.49C90.4911 109.808 89.9092 109.26 89.1923 109.26H50.9849H50.9823H47.2754C47.1247 109.26 46.987 109.294 46.852 109.341C46.7792 109.319 46.7195 109.282 46.6416 109.272C45.9194 109.156 45.2751 109.653 45.1816 110.325C44.8543 112.645 44.9634 114.97 45.0699 117.219C45.1193 118.264 45.1686 119.31 45.1738 120.348L45.1686 120.744C44.5374 120.825 44.0412 121.317 44.0412 121.94C44.0412 122.577 44.5582 123.079 45.2076 123.145C45.2388 123.541 45.2674 123.942 45.3635 124.343C45.496 124.917 46.0337 125.308 46.6286 125.308C46.7221 125.308 46.8156 125.298 46.9117 125.278C47.6105 125.133 48.0547 124.476 47.8988 123.815C47.8521 123.61 47.8469 123.386 47.8209 123.17H48.234C48.234 123.416 48.2469 123.662 48.2443 123.906C48.2366 123.962 48.234 124.021 48.234 124.078V124.508C48.234 125.18 48.8029 125.729 49.512 125.738H49.5328C49.6471 125.738 49.7536 125.704 49.8627 125.677C49.9718 126.021 50.2212 126.307 50.5667 126.449V152.378H50.1095C49.3899 152.378 48.8107 152.929 48.8107 153.608C48.8107 154.287 49.3899 154.838 50.1095 154.838H54.1256C54.2477 155.296 54.6399 155.662 55.1621 155.746C55.2348 155.758 55.3076 155.763 55.3803 155.763C55.9648 155.763 56.4713 155.382 56.622 154.838H89.2209C89.2209 154.922 89.2131 155.003 89.2131 155.089C89.2131 155.768 89.7949 156.319 90.5119 156.319C91.2315 156.319 91.8108 155.768 91.8108 155.089C91.8108 154.791 91.8316 154.494 91.8342 154.196C91.9407 154.019 92.016 153.824 92.016 153.608C92.016 153.409 91.9537 153.229 91.8653 153.059C91.8861 152.358 91.8913 151.655 91.9199 150.953C91.99 149.16 92.0602 147.307 92.0134 145.457L91.9537 143.361C91.8913 141.292 91.8316 139.225 91.8212 137.147C91.8134 135.55 91.616 133.963 91.4263 132.425C91.1743 130.391 90.9587 128.455 91.1302 126.555H92.2862C93.0031 126.555 93.5876 126.004 93.5876 125.325C93.5876 124.646 93.0031 124.095 92.2862 124.095Z" fill="#E3DFD8"/>
<path fill-rule="evenodd" clip-rule="evenodd" d="M118.038 151.815C118.048 151.94 118.059 152.067 118.075 152.187H118.043C118.043 152.065 118.038 151.94 118.038 151.815ZM115.22 144.901C115.292 147.33 115.341 149.761 115.352 152.188H114.831C114.839 149.896 114.893 147.455 115.22 144.901ZM117.984 135.97C118.089 139.443 118.191 142.916 118.188 146.394C118.188 146.933 118.14 147.573 118.094 148.249C118.059 148.722 118.027 149.212 118.003 149.702C117.952 146.396 117.855 143.083 117.745 139.855C117.6 135.76 117.474 131.547 117.461 127.385H117.804C117.831 130.248 117.904 133.108 117.984 135.97ZM141.014 150.908C140.27 150.908 139.672 151.457 139.672 152.134C139.672 152.153 139.68 152.17 139.683 152.188H137.335C137.337 152.17 137.348 152.153 137.348 152.134C137.348 151.457 136.75 150.908 136.006 150.908H135.955C135.212 150.908 134.64 151.457 134.64 152.134C134.64 152.153 134.648 152.17 134.651 152.188H120.767C120.587 151.148 120.681 149.666 120.772 148.406C120.823 147.673 120.871 146.977 120.871 146.394C120.874 142.896 120.772 139.402 120.667 135.907C120.584 133.069 120.528 130.226 120.501 127.385H147.258C147.127 128.25 147.108 129.116 147.102 129.912L147.089 130.745C147.068 131.559 147.059 132.375 147.054 133.189C147.049 134.267 147.041 135.345 146.99 136.424C146.968 136.87 146.974 137.316 146.955 137.762C146.845 137.737 146.74 137.701 146.622 137.701C145.881 137.701 145.28 138.25 145.28 138.926C145.28 139.605 145.881 140.152 146.622 140.152H146.673C146.751 140.152 146.821 140.122 146.896 140.112C146.874 140.946 146.834 141.781 146.831 142.622C146.711 142.588 146.587 142.556 146.45 142.556C145.71 142.556 145.109 143.137 145.109 143.813C145.109 144.492 145.71 145.038 146.45 145.038C146.609 145.038 146.756 145.004 146.898 144.955C146.933 145.71 146.947 146.462 146.998 147.215C146.955 147.207 146.92 147.185 146.877 147.18C146.429 147.156 146 147.298 145.715 147.57C145.433 147.842 145.288 148.271 145.347 148.641C145.444 149.254 146.018 149.695 146.673 149.695C146.735 149.695 146.802 149.69 146.864 149.683C146.966 149.671 147.054 149.629 147.151 149.599L147.196 150.325C147.21 150.501 147.221 150.675 147.234 150.852C147.081 150.803 146.923 150.768 146.748 150.768C146.008 150.768 145.406 151.354 145.406 152.031C145.406 152.085 145.433 152.134 145.441 152.188H142.366C142.366 152.17 142.377 152.153 142.377 152.134C142.377 151.457 141.754 150.908 141.014 150.908ZM152.424 132.081C152.432 133.956 152.443 135.831 152.359 137.698L152.335 138.228C152.244 140.257 152.153 142.269 152.147 144.308L152.145 149.313C152.145 149.523 152.129 149.776 152.11 150.043C152.067 150.742 152.024 151.501 152.147 152.188H151.662C151.654 151.053 151.613 149.916 151.562 148.774C151.482 146.93 151.396 145.024 151.509 143.183C151.592 141.794 151.739 140.411 151.882 139.024C152.011 137.794 152.142 136.564 152.228 135.333C152.362 133.458 152.359 131.412 152.223 129.255C152.22 129.162 152.233 129.01 152.244 128.836C152.282 128.287 152.287 127.814 152.244 127.385H152.469C152.424 128.951 152.418 130.517 152.424 132.081ZM154.638 124.934H154.503C154.324 124.844 154.13 124.778 153.913 124.768C153.647 124.733 153.403 124.812 153.183 124.934H120.217C119.978 124.608 119.589 124.383 119.124 124.383C118.66 124.383 118.274 124.608 118.032 124.934H117.056C116.801 124.682 116.454 124.52 116.1 124.567C115.727 124.567 115.389 124.707 115.145 124.934H113.28C112.537 124.934 111.938 125.483 111.938 126.16C111.938 126.586 112.188 126.942 112.547 127.16C112.537 129.216 112.609 131.289 112.695 133.306C112.856 137.041 113.022 140.904 112.553 144.602C112.188 147.46 112.139 150.17 112.139 152.678C112.139 152.915 112.233 153.126 112.362 153.312C112.359 153.349 112.341 153.379 112.341 153.413C112.341 154.092 112.942 154.638 113.682 154.638H154.012C154.756 154.638 155.354 154.092 155.354 153.413C155.354 153.065 155.193 152.756 154.938 152.533C154.949 152.349 154.927 152.165 154.844 151.984C154.697 151.673 154.756 150.742 154.788 150.185C154.809 149.864 154.828 149.565 154.828 149.313L154.831 144.313C154.836 142.308 154.925 140.328 155.016 138.328L155.043 137.799C155.126 135.892 155.115 133.98 155.107 132.069C155.102 130.476 155.107 128.883 155.156 127.29C155.639 127.106 155.979 126.67 155.979 126.16C155.979 125.483 155.378 124.934 154.638 124.934Z" fill="#E3DFD8"/>
<path fill-rule="evenodd" clip-rule="evenodd" d="M157.692 118.962V120.588H157.586C157.631 120.056 157.673 119.521 157.692 118.962ZM157.692 114.567C157.686 114.354 157.686 114.133 157.681 113.925C157.665 113.184 157.655 112.482 157.65 111.792H157.692V114.567ZM118.804 111.792H119.866C119.853 113.045 119.821 114.3 119.774 115.556C119.713 117.205 119.671 118.899 119.681 120.588H118.804V111.792ZM115.912 120.588H116.168V111.792H115.912V120.588ZM122.317 120.588C122.304 118.94 122.349 117.276 122.409 115.645C122.457 114.361 122.491 113.075 122.502 111.792H148.395C148.38 112.791 148.416 113.91 148.469 115.084C148.554 116.999 148.63 119.092 148.385 120.588H122.317ZM151.068 120.588C151.276 118.919 151.189 116.926 151.102 114.975C151.05 113.836 151.013 112.753 151.031 111.792H152.299C152.257 114.729 152.051 117.689 151.827 120.588H151.068ZM155.045 113.976C155.09 116.162 155.13 118.544 154.953 120.588H154.468C154.692 117.702 154.893 114.749 154.935 111.792H155.011C155.019 112.499 155.03 113.215 155.045 113.976ZM160.327 120.619V111.356C160.533 111.13 160.667 110.846 160.667 110.524C160.667 109.821 160.077 109.255 159.35 109.255H111.421C110.693 109.255 110.103 109.821 110.103 110.524C110.103 111.224 110.693 111.792 111.421 111.792H111.661C111.429 113.375 111.545 114.97 111.674 116.525C111.795 117.968 111.903 119.351 111.724 120.624C111.086 120.715 110.593 121.22 110.593 121.857C110.593 122.557 111.181 123.125 111.911 123.125H111.953C112.072 123.209 112.199 123.285 112.349 123.33C112.478 123.368 112.61 123.386 112.736 123.386C113.008 123.386 113.266 123.297 113.482 123.153C113.709 123.526 114.115 123.784 114.594 123.784C115.09 123.784 115.506 123.513 115.73 123.125H116.49C116.732 123.401 117.08 123.587 117.486 123.587C117.892 123.587 118.24 123.401 118.482 123.125H152.006C152.228 123.381 152.547 123.559 152.918 123.584C152.953 123.587 152.987 123.587 153.021 123.587C153.419 123.587 153.767 123.401 154.01 123.125H154.618C154.624 123.698 155.008 124.216 155.617 124.35C155.715 124.373 155.815 124.383 155.91 124.383C156.513 124.383 157.056 123.982 157.196 123.396C157.215 123.313 157.22 123.211 157.238 123.125H160.167C160.897 123.125 161.485 122.557 161.485 121.857C161.485 121.21 160.976 120.697 160.327 120.619Z" fill="#E3DFD8"/>
<path fill-rule="evenodd" clip-rule="evenodd" d="M79.7774 89.0321C79.6703 86.6636 79.5894 84.244 79.9131 82.0707C79.8453 84.7416 79.827 87.4125 79.8192 90.0809V90.0834C79.8061 89.7321 79.793 89.3906 79.7774 89.0321ZM114.17 89.1028C113.948 88.9589 113.682 88.8638 113.379 88.8638C112.656 88.8638 112.074 89.498 112.074 90.1736C112.074 90.8468 112.656 91.3932 113.379 91.3932C113.705 91.3932 113.995 91.2713 114.222 91.0859C114.227 91.2664 114.233 91.4518 114.238 91.6298C114.259 92.2567 114.259 92.8811 114.274 93.5055C114.201 93.4958 114.136 93.469 114.055 93.469C113.335 93.469 112.75 94.0861 112.75 94.7617C112.75 95.4349 113.335 95.9813 114.055 95.9813C114.152 95.9813 114.235 95.9472 114.324 95.9301C114.35 96.9082 114.371 97.8863 114.384 98.8644C114.324 98.8547 114.269 98.8327 114.209 98.8327C113.489 98.8327 112.904 99.3766 112.904 100.052C112.904 100.726 113.489 101.272 114.209 101.272H114.285C114.332 101.272 114.371 101.25 114.415 101.247C114.405 101.572 114.389 101.938 114.371 102.357C114.324 103.25 114.298 104.048 114.293 104.797C114.167 104.76 114.042 104.728 113.904 104.728C113.181 104.728 112.598 105.309 112.598 105.982C112.598 106.116 112.635 106.24 112.679 106.36H110.517C110.52 106.297 110.541 106.24 110.531 106.175C110.489 105.882 110.337 105.628 110.123 105.443C109.909 105.226 109.612 105.079 109.272 105.053C108.578 105.014 107.922 105.492 107.86 106.162C107.854 106.228 107.886 106.292 107.891 106.36H105.596C105.562 105.711 104.967 105.192 104.265 105.192C103.565 105.192 103.003 105.711 102.97 106.36H81.9835V106.248C81.9835 106.209 81.9809 106.167 81.9757 106.131C81.9809 105.033 82.0567 103.931 82.135 102.777C82.1872 102.013 82.2394 101.252 82.2707 100.491C82.4143 97.0106 82.4222 93.4885 82.43 90.0858C82.4378 87.0003 82.4457 83.9147 82.5501 80.8242H114.071C114.042 83.5903 114.092 86.3587 114.17 89.1028ZM117.499 93.8251C117.577 95.9179 117.656 97.9936 117.656 100.018C117.656 100.643 117.703 101.357 117.75 102.104C117.817 103.126 117.888 104.235 117.836 105.204C117.65 105.384 117.525 105.619 117.488 105.884C117.465 106.045 117.509 106.199 117.507 106.36H116.948C116.844 105.184 116.93 103.392 116.979 102.472C117.008 101.838 117.037 101.277 117.037 100.865C117.037 97.7668 116.943 94.6642 116.849 91.5615C116.742 88.032 116.645 84.4025 116.682 80.8242H117.71C117.199 85.0782 117.332 89.5126 117.499 93.8251ZM120.721 84.6489C120.752 90.6102 120.76 96.7301 120.402 102.735C120.386 102.474 120.371 102.209 120.355 101.957C120.311 101.262 120.266 100.599 120.266 100.018C120.266 97.9644 120.188 95.8618 120.107 93.7397C119.943 89.4224 119.802 84.983 120.334 80.8242H120.708L120.721 84.6489ZM76.6835 77.3192C75.9629 77.3192 75.3781 77.8655 75.3781 78.5387V107.048C75.2946 107.209 75.2371 107.384 75.2371 107.58C75.2371 108.253 75.8193 108.799 76.5425 108.799H115.081C115.329 109.089 115.682 109.255 116.055 109.255C116.306 109.255 116.556 109.189 116.781 109.053C116.893 108.985 116.979 108.892 117.06 108.799H124.88C125.6 108.799 126.185 108.253 126.185 107.58C126.185 107.006 125.754 106.548 125.185 106.416V80.8243H125.313C126.034 80.8243 126.619 80.2779 126.619 79.6047C126.619 78.929 126.034 78.3851 125.313 78.3851H77.9576C77.8715 77.7875 77.3467 77.3192 76.6835 77.3192Z" fill="#E3DFD8"/>
<path fill-rule="evenodd" clip-rule="evenodd" d="M147.294 105.972H143.057C142.967 104.868 143.052 103.531 143.137 102.363C143.197 101.559 143.251 100.801 143.251 100.172V80.6001H147.294V105.972ZM138.875 108.346H139.483C139.511 108.348 139.53 108.36 139.558 108.36C139.583 108.36 139.603 108.348 139.63 108.346H141.093C141.31 108.747 141.721 109.004 142.175 109.004C142.334 109.004 142.491 108.978 142.646 108.916C142.935 108.802 143.144 108.593 143.276 108.346H147.351C147.486 108.864 147.957 109.255 148.54 109.255C149.228 109.255 149.786 108.724 149.786 108.068V107.869C149.946 107.669 150.058 107.43 150.058 107.159C150.058 106.888 149.946 106.649 149.786 106.449V80.4601C150.19 80.2654 150.474 79.876 150.474 79.4131C150.474 78.9359 150.175 78.5323 149.751 78.3424C149.667 77.7679 149.168 77.3192 148.54 77.3192C147.957 77.3192 147.488 77.7085 147.351 78.2261H140.301C140.091 78.0741 139.842 77.9673 139.558 77.9673C138.868 77.9673 138.312 78.4967 138.312 79.1543V106.117C137.91 106.314 137.629 106.701 137.629 107.159C137.629 107.814 138.187 108.346 138.875 108.346Z" fill="#E3DFD8"/>
<path fill-rule="evenodd" clip-rule="evenodd" d="M97.9032 46.174H108.655V59.8729C108.577 59.8581 108.499 59.8284 108.416 59.8284C107.719 59.8284 107.153 60.4167 107.153 61.0989C107.153 61.7812 107.719 62.3348 108.416 62.3348C108.499 62.3348 108.577 62.3027 108.655 62.2879V64.5101C108.577 64.4952 108.499 64.4656 108.416 64.4656C107.719 64.4656 107.153 65.0514 107.153 65.7361C107.153 66.4183 107.719 66.972 108.416 66.972C108.499 66.972 108.577 66.9399 108.655 66.9251V68.9124C108.554 68.8902 108.456 68.858 108.345 68.858C107.645 68.858 107.082 69.4809 107.082 70.1632C107.082 70.8454 107.645 71.3991 108.345 71.3991C108.456 71.3991 108.554 71.3645 108.655 71.3373V73.0058C108.279 72.8377 107.837 72.8303 107.458 73.0602C107.153 73.248 106.89 73.6287 106.83 73.9797C106.794 74.1848 106.847 74.4296 106.933 74.6594H105.113C105.12 74.5902 105.156 74.5235 105.15 74.4518C105.171 74.1181 105.052 73.7795 104.794 73.5199C104.31 73.033 103.512 73.0231 103.009 73.4977C102.709 73.7844 102.605 74.2392 102.663 74.6594H101.252C101.254 74.6372 101.267 74.6149 101.267 74.5902C101.267 73.908 100.701 73.3543 100.004 73.3543H99.9334C99.234 73.3543 98.7037 73.908 98.7037 74.5902C98.7037 74.6149 98.7188 74.6372 98.7188 74.6594H97.9032V46.174ZM94.0346 44.938C94.0346 45.6203 94.5977 46.174 95.2972 46.174H95.378V74.6594H94.8502C94.1533 74.6594 93.5876 75.2131 93.5876 75.8954C93.5876 76.5801 94.1533 77.1313 94.8502 77.1313H109.289C109.476 77.24 109.683 77.3191 109.918 77.3191C110.153 77.3191 110.36 77.24 110.547 77.1313H110.676C111.373 77.1313 111.938 76.5801 111.938 75.8954C111.938 75.3886 111.625 74.9585 111.181 74.7657V45.5807C111.302 45.3904 111.39 45.1778 111.39 44.938C111.39 44.2558 110.825 43.7021 110.128 43.7021H95.2972C94.5977 43.7021 94.0346 44.2558 94.0346 44.938Z" fill="#E3DFD8"/>
<path fill-rule="evenodd" clip-rule="evenodd" d="M64.415 35.5635C64.5235 35.4908 64.6501 35.4181 64.7639 35.3478L65.0455 35.6944C65.9811 36.8528 66.9166 38.0087 67.8159 39.189C67.9399 39.3513 68.0614 39.5282 68.1854 39.7076C68.3017 39.8748 68.431 40.0541 68.5602 40.231C67.1181 41.1447 65.5727 41.9856 64.0506 42.8096C63.1202 43.3136 62.1847 43.8371 61.257 44.3678C61.0632 44.1206 60.9055 43.9049 60.6962 43.6432C59.7038 42.4024 58.5383 40.929 57.7992 39.5694C60.3137 38.1857 62.4742 36.8843 64.415 35.5635ZM67.3559 34.5481C67.268 34.4439 67.1879 34.3348 67.1026 34.2306L66.9786 34.078C66.9993 34.0658 67.0199 34.0537 67.038 34.044C67.1466 34.2112 67.2422 34.3857 67.3559 34.5481ZM70.8059 38.6388C70.7465 38.6849 70.6948 38.7382 70.6328 38.7842C70.5397 38.6534 70.4441 38.5201 70.3511 38.3868C70.2064 38.1784 70.0668 37.9748 69.9195 37.7834C69.5215 37.2599 69.1029 36.751 68.6945 36.2372C68.9762 36.5595 69.2605 36.8794 69.5396 37.1848C69.9919 37.6816 70.4157 38.1614 70.8059 38.6388ZM67.697 46.1563H75.8685C75.7677 49.314 75.7419 52.4669 75.7212 55.6174C75.6928 59.8366 75.6644 64.1963 75.4318 68.4809C75.3439 70.1167 75.3697 72.0434 75.3956 73.7398C75.3982 74.0693 75.3982 74.348 75.4033 74.6558H65.9371V47.8067C65.9371 47.1354 65.3582 46.595 64.645 46.595C63.9317 46.595 63.3528 47.1354 63.3528 47.8067V74.6558H63.3399V48.0926C63.3399 47.4238 62.7636 46.8809 62.0478 46.8809C62.0297 46.8809 62.0142 46.8906 61.9961 46.8906C62.0555 46.8252 62.1072 46.7622 62.1511 46.687C63.1745 46.0885 64.2392 45.5068 65.3401 44.9082C65.8079 44.6562 66.2757 44.3993 66.7434 44.14C66.5393 44.3557 66.4049 44.632 66.4049 44.9446C66.4049 45.6135 66.9838 46.1563 67.697 46.1563ZM78.4528 46.1563H78.8353C78.6544 48.936 78.4916 51.7181 78.3468 54.4977C78.3365 54.6989 78.3236 54.9049 78.3133 55.1036C78.3339 52.1228 78.3572 49.142 78.4528 46.1563ZM51.5272 41.4718C51.6512 41.6899 51.8398 41.845 52.0543 41.9541C52.7314 43.4009 53.884 44.8525 54.8247 46.0182L55.3157 46.6362C55.6232 47.0263 55.9023 47.4432 56.184 47.86C56.5949 48.4683 57.0084 49.0741 57.4762 49.6145C57.732 49.9102 58.1042 50.0629 58.4815 50.0629C58.7657 50.0629 59.0552 49.9732 59.2955 49.7915C59.6728 49.5031 59.8149 49.0547 59.7323 48.6355C59.7426 48.6306 59.7529 48.6331 59.7658 48.6282C60.2129 48.478 60.4946 48.1144 60.5773 47.7049C60.7194 47.6128 60.8538 47.5183 60.9985 47.4262C60.859 47.6201 60.7556 47.8406 60.7556 48.0926V74.7673C60.3085 74.9587 59.9933 75.3756 59.9933 75.8675C59.9933 76.5388 60.5721 77.0792 61.2854 77.0792H62.0168C62.0297 77.0792 62.0374 77.0865 62.0478 77.0865C62.0607 77.0865 62.0684 77.0792 62.0814 77.0792H77.4966C77.7111 77.2198 77.9566 77.3192 78.2331 77.3192C78.2486 77.3192 78.2641 77.3192 78.2797 77.3167C78.5407 77.3095 78.7681 77.2125 78.9645 77.0792H81.2852C82.001 77.0792 82.5773 76.5388 82.5773 75.8675C82.5773 75.1987 82.001 74.6558 81.2852 74.6558H79.5253C79.5408 73.2551 79.6674 71.7937 79.8328 70.3445C79.9207 69.586 80.006 68.8372 80.068 68.115C80.4556 63.6171 80.696 59.0417 80.9285 54.6189C81.0862 51.6139 81.2516 48.6088 81.4557 45.6086C81.5927 45.4123 81.6961 45.1942 81.6961 44.9446C81.6961 44.6707 81.5824 44.4333 81.4196 44.2297C81.2464 43.8007 80.8226 43.4808 80.3031 43.4469C79.9594 43.4348 79.6442 43.5439 79.3986 43.7329H67.697C67.5859 43.7329 67.4851 43.7668 67.3817 43.791C68.449 43.1973 69.4931 42.5696 70.5035 41.9056C70.5888 41.942 70.656 41.9977 70.7465 42.0292C70.8964 42.0825 71.0514 42.1092 71.2039 42.1092C71.7259 42.1092 72.2169 41.8111 72.4107 41.3264C72.5193 41.0623 72.5012 40.7908 72.4185 40.5412C72.4883 40.4831 72.5529 40.4201 72.6227 40.3643C72.6769 40.3692 72.726 40.4031 72.7803 40.4031C73 40.4031 73.2196 40.3522 73.4212 40.2431C73.8554 40.0105 74.075 39.5767 74.0543 39.1405C74.0621 39.1332 74.0699 39.1284 74.075 39.1211C74.5712 38.6388 74.5531 37.8706 74.0388 37.4077C73.7055 37.1097 73.2506 37.0321 72.8346 37.129C72.4082 36.6129 71.9559 36.1064 71.5062 35.612C70.6431 34.662 69.7799 33.6878 69.1545 32.6554C69.2424 32.5851 69.351 32.527 69.4336 32.4518C69.9479 31.989 69.966 31.2232 69.4724 30.7385C69.0718 30.3483 68.462 30.2804 67.9684 30.5131C67.6582 30.295 67.2654 30.1932 66.8675 30.295C66.18 30.4695 65.7717 31.1335 65.9578 31.7805C65.9604 31.7951 65.9707 31.8072 65.9733 31.8193C65.7743 31.9332 65.5753 32.0471 65.3712 32.1586C64.9215 31.7927 64.2599 31.7345 63.7663 32.0835C63.3322 32.3864 63.1642 32.8953 63.2908 33.3582C63.1616 33.4406 63.0169 33.5206 62.898 33.603C60.9443 34.931 58.7631 36.2396 56.184 37.6501C56.0109 37.6331 55.83 37.6452 55.6517 37.6986C55.295 37.81 55.0314 38.0548 54.8867 38.3553C54.8764 38.3601 54.8635 38.3674 54.8531 38.3723C54.8066 38.3093 54.7523 38.2414 54.7058 38.1784C54.3078 37.6162 53.499 37.4732 52.9149 37.844C52.6125 38.0354 52.4239 38.3238 52.3645 38.6364C51.8424 38.8012 51.5039 39.2059 51.4936 39.7318C51.4884 39.9305 51.5168 40.1317 51.5452 40.3352C51.3488 40.6818 51.3127 41.101 51.5272 41.4718Z" fill="#E3DFD8"/>
<path fill-rule="evenodd" clip-rule="evenodd" d="M86.3962 21.5794C87.0155 21.2676 87.6374 20.9701 88.2539 20.6749C88.5622 20.5273 88.8758 20.3655 89.1894 20.2131C89.7389 20.9772 90.2885 21.7389 90.846 22.4982C91.5376 23.4408 92.2131 24.3882 92.8913 25.3356L91.3232 26.2163C90.6021 26.6233 89.8301 27.0161 89.05 27.4088C88.8436 27.5135 88.6372 27.6278 88.4281 27.7325C87.5114 26.5709 86.3721 25.3403 85.2355 24.1335C84.8576 23.7288 84.4877 23.3337 84.1338 22.9505C84.2276 22.8886 84.3241 22.8291 84.418 22.7696C85.0827 22.3387 85.7395 21.9103 86.3962 21.5794ZM98.7672 22.1412C98.6412 22.2031 98.5152 22.2673 98.3972 22.3268C97.6896 21.1557 96.494 19.4966 94.5211 17.1211C94.5962 17.0735 94.6659 17.0283 94.7356 16.9807C95.8212 18.8516 97.3196 20.5606 98.7672 22.1412ZM93.0924 21.1986C92.5562 20.4678 92.0282 19.7347 91.4974 19.0015C91.7574 18.8563 92.0174 18.7064 92.2748 18.554C93.3899 20.037 94.9822 22.2054 95.982 23.5956L95.1564 24.0621C94.4702 23.1052 93.792 22.1483 93.0924 21.1986ZM80.2497 24.7928C80.2765 24.7928 80.3033 24.7809 80.3301 24.7809C81.2441 26.4115 82.4343 28.0134 83.914 29.5559L84.2813 29.9319C84.3483 30.001 84.426 30.0795 84.4984 30.1533C84.2303 30.5675 84.2518 31.0983 84.6083 31.4911C84.8737 31.7838 85.2624 31.9362 85.6564 31.9362C85.9325 31.9362 86.2059 31.8457 86.4445 31.691C86.4767 31.6934 86.5008 31.7124 86.533 31.7124C86.6026 31.7124 86.675 31.7077 86.7447 31.6981C87.2138 31.6315 87.565 31.3482 87.7419 30.9864C87.9483 31.0935 88.1815 31.153 88.4201 31.153C88.6238 31.153 88.8302 31.1126 89.0232 31.0269C89.5459 30.7936 89.806 30.2985 89.7363 29.8106C89.9507 29.7011 90.1625 29.5868 90.3796 29.4773C91.1972 29.0631 92.0094 28.6513 92.7626 28.2253L94.5265 27.2327C94.7034 27.3041 94.8883 27.3588 95.0813 27.3588C95.3226 27.3588 95.5665 27.3017 95.7863 27.1827C96.1911 26.9589 96.3922 26.5757 96.3975 26.1806L97.6279 25.4879C97.7807 25.5379 97.9389 25.5736 98.097 25.5736C98.416 25.5736 98.7377 25.4736 98.9923 25.2713C99.1317 25.1594 99.3247 25.0023 99.3194 24.5953C99.4025 24.5548 99.4748 24.5191 99.5553 24.4786C99.8635 24.3263 100.172 24.1716 100.477 24.0169C100.566 24.0954 100.638 24.174 100.77 24.2478C100.992 24.3763 101.244 24.4382 101.496 24.4382C101.863 24.4382 102.225 24.3025 102.49 24.0454C102.834 23.7098 102.914 23.2433 102.745 22.8362C102.914 22.9005 103.078 22.991 103.257 22.991C103.584 22.991 103.911 22.8838 104.166 22.6744C104.648 22.2816 104.737 21.6389 104.38 21.1533C103.442 19.8704 102.413 18.8087 101.316 17.6852L101.062 17.4234C100.153 16.4927 99.4132 15.4787 98.6465 14.4147C98.8395 14.0719 98.8637 13.6649 98.6385 13.3078C98.3892 12.9127 97.9255 12.7104 97.4483 12.7175C97.3143 12.4009 97.0784 12.1105 96.7272 11.9606C96.6924 11.9463 96.4592 11.8535 96.419 11.8392C95.8641 11.6607 95.2475 11.8154 94.8883 12.2295C94.6444 12.5104 94.6203 12.8532 94.7007 13.1864C94.6578 13.1936 94.6176 13.1864 94.5774 13.196C93.867 13.3816 93.4623 14.0433 93.6714 14.6741C93.6767 14.686 93.6848 14.6979 93.6874 14.7098C93.3899 14.9074 93.087 15.1002 92.7975 15.2954C92.3525 15.0931 91.803 15.1121 91.3768 15.4001C90.9747 15.6739 90.8139 16.1071 90.8835 16.5213C89.6398 17.2782 88.3504 17.9233 86.9806 18.5802C86.3453 18.8825 85.71 19.1896 85.072 19.5109C84.3322 19.8846 83.5897 20.3607 82.8418 20.8439C82.6005 20.9986 82.3566 21.1557 82.1153 21.3081C81.799 21.2866 81.4747 21.3509 81.2013 21.5366C80.9922 21.677 80.8662 21.8674 80.7777 22.0721C80.7322 22.0936 80.6866 22.1221 80.641 22.1436C80.5874 22.1555 80.5311 22.1531 80.4775 22.1721C80.3971 22.2031 80.3381 22.2578 80.2684 22.2983C80.1156 22.3625 79.9628 22.4316 79.8154 22.4744C79.1158 22.6887 78.7405 23.3647 78.9791 23.9859C79.1694 24.481 79.6921 24.7928 80.2497 24.7928Z" fill="#E3DFD8"/>
<path fill-rule="evenodd" clip-rule="evenodd" d="M143.134 148.764V148.73C143.134 148.271 142.723 147.915 142.216 147.915C141.71 147.915 141.299 148.304 141.299 148.764C141.299 149.223 141.71 149.596 142.216 149.596C142.723 149.596 143.134 149.223 143.134 148.764Z" fill="#E3DFD8"/>
<path fill-rule="evenodd" clip-rule="evenodd" d="M143.134 145.402V145.369C143.134 144.909 142.723 144.553 142.216 144.553C141.71 144.553 141.299 144.943 141.299 145.402C141.299 145.861 141.71 146.234 142.216 146.234C142.723 146.234 143.134 145.861 143.134 145.402Z" fill="#E3DFD8"/>
<path fill-rule="evenodd" clip-rule="evenodd" d="M137.555 146.234C136.583 146.234 135.794 146.611 135.794 147.074C135.794 147.538 136.583 147.915 137.555 147.915H137.851C138.823 147.915 139.464 147.538 139.464 147.074C139.464 146.611 138.527 146.234 137.555 146.234Z" fill="#E3DFD8"/>
<path fill-rule="evenodd" clip-rule="evenodd" d="M110.993 102.532C111.021 102.532 111.048 102.53 111.075 102.529C111.305 102.509 111.506 102.413 111.651 102.269C111.808 102.137 111.915 101.952 111.934 101.741C111.979 101.292 111.619 100.895 111.127 100.854C110.868 100.833 110.561 100.929 110.374 101.099C110.189 101.271 110.082 101.547 110.107 101.789C110.148 102.213 110.538 102.532 110.993 102.532Z" fill="#E3DFD8"/>
<path fill-rule="evenodd" clip-rule="evenodd" d="M111.021 97.4893C111.527 97.4893 111.938 97.1184 111.938 96.6613V96.6133C111.938 96.1546 111.527 95.8085 111.021 95.8085C110.514 95.8085 110.103 96.2043 110.103 96.6613C110.103 97.1184 110.514 97.4893 111.021 97.4893Z" fill="#E3DFD8"/>
<path fill-rule="evenodd" clip-rule="evenodd" d="M105.515 102.532C106.022 102.532 106.433 102.161 106.433 101.704V101.656C106.433 101.197 106.022 100.851 105.515 100.851C105.009 100.851 104.598 101.247 104.598 101.704C104.598 102.161 105.009 102.532 105.515 102.532Z" fill="#E3DFD8"/>
<path fill-rule="evenodd" clip-rule="evenodd" d="M103.68 72.2766C104.187 72.2766 104.598 71.5539 104.598 70.6635V70.3925C104.598 69.5021 104.187 68.9149 103.68 68.9149C103.174 68.9149 102.763 69.7731 102.763 70.6635C102.763 71.5539 103.174 72.2766 103.68 72.2766Z" fill="#E3DFD8"/>
<path fill-rule="evenodd" clip-rule="evenodd" d="M103.68 65.5532C103.174 65.5532 102.763 65.9652 102.763 66.4165C102.763 66.8694 103.174 67.234 103.68 67.234C104.187 67.234 104.598 66.8694 104.598 66.4165V66.3249C104.598 65.8737 104.187 65.5532 103.68 65.5532Z" fill="#E3DFD8"/>
<path fill-rule="evenodd" clip-rule="evenodd" d="M103.68 62.1915C104.187 62.1915 104.598 61.8202 104.598 61.3627V61.3163C104.598 60.8588 104.187 60.5107 103.68 60.5107C103.174 60.5107 102.763 60.9052 102.763 61.3627C102.763 61.8202 103.174 62.1915 103.68 62.1915Z" fill="#E3DFD8"/>
<path fill-rule="evenodd" clip-rule="evenodd" d="M101.832 67.234H101.882C102.383 67.234 102.763 66.8575 102.763 66.3936C102.763 65.9297 102.331 65.5532 101.832 65.5532C101.333 65.5532 100.928 65.9297 100.928 66.3936C100.928 66.8575 101.333 67.234 101.832 67.234Z" fill="#E3DFD8"/>
<path fill-rule="evenodd" clip-rule="evenodd" d="M107.351 95.8085C107.857 95.8085 108.268 95.4451 108.268 94.9973V94.8788C108.268 94.4294 107.857 94.1277 107.351 94.1277C106.844 94.1277 106.433 94.5495 106.433 94.9973C106.433 95.4451 106.844 95.8085 107.351 95.8085Z" fill="#E3DFD8"/>
<path fill-rule="evenodd" clip-rule="evenodd" d="M83.9845 45.4988H90.4981V52.3797C90.2558 52.1 89.8923 51.9193 89.4603 51.9193C88.7334 51.9193 88.1434 52.5505 88.1434 53.2336C88.1434 53.9192 88.7334 54.4712 89.4603 54.4712C89.8923 54.4712 90.2558 54.2658 90.4981 53.9638V57.7953C90.29 57.6666 90.0582 57.575 89.7922 57.575C89.0626 57.575 88.4753 58.1294 88.4753 58.8126V59.122C88.4753 59.8076 89.0626 60.3595 89.7922 60.3595C90.0582 60.3595 90.29 60.268 90.4981 60.1417V62.8025C90.0056 62.6961 89.4735 62.8569 89.1495 63.2604C88.8177 63.6787 88.8071 64.2282 89.0811 64.6465C89.2733 65.1044 89.7474 65.4261 90.3032 65.4261C90.3717 65.4261 90.4322 65.4014 90.4981 65.3915V68.3913L90.1056 68.572L89.0337 69.3269C89.2549 69.7279 89.6552 69.9284 90.0898 69.9284C90.2242 69.9284 90.3611 69.8739 90.4981 69.8343V71.7847C90.2558 71.5199 89.9107 71.3442 89.5104 71.3442H89.4103C88.6834 71.3442 88.1434 71.8986 88.1434 72.5817C88.1434 72.7723 88.2014 72.9456 88.2856 73.1065H83.9845V45.4988ZM93.5876 44.2613C93.5876 43.89 93.4085 43.5682 93.132 43.3405V43.2588C93.132 42.5732 92.542 42.0213 91.815 42.0213C91.175 42.0213 90.6693 42.4569 90.5481 43.0237H83.9345C83.8133 42.4569 83.3076 42.0213 82.6676 42.0213C81.9459 42.0213 81.3638 42.5658 81.3533 43.2415C80.9925 43.4618 80.7422 43.8256 80.7422 44.2613C80.7422 44.6944 80.9925 45.0583 81.3507 45.2785V76.0816C81.3507 76.7672 81.9407 77.3191 82.6676 77.3191C83.3946 77.3191 83.9845 76.7672 83.9845 76.0816V75.5816H90.4981V75.6336C90.4981 76.3167 91.0854 76.8712 91.815 76.8712C92.542 76.8712 93.132 76.3167 93.132 75.6336V45.182C93.4085 44.9543 93.5876 44.6325 93.5876 44.2613Z" fill="#28BBB4"/>
<path fill-rule="evenodd" clip-rule="evenodd" d="M86.2474 66.3936C86.2474 66.8575 86.685 67.234 87.1821 67.234C87.6791 67.234 88.0825 66.8575 88.0825 66.3936C88.0825 65.9297 87.6791 65.5532 87.1821 65.5532H87.1136C86.6166 65.5532 86.2474 65.9297 86.2474 66.3936Z" fill="#28BBB4"/>
<path fill-rule="evenodd" clip-rule="evenodd" d="M88.0825 69.7083C88.0825 69.253 87.6714 68.9149 87.165 68.9149C86.6585 68.9149 86.2474 69.3157 86.2474 69.771C86.2474 70.2263 86.6585 70.5957 87.165 70.5957C87.6714 70.5957 88.0825 70.2263 88.0825 69.771V69.7083Z" fill="#28BBB4"/>
<path fill-rule="evenodd" clip-rule="evenodd" d="M88.0825 59.6955V59.5944C88.0825 59.1428 87.6714 58.8298 87.165 58.8298C86.6585 58.8298 86.2474 59.2455 86.2474 59.6955C86.2474 60.1454 86.6585 60.5106 87.165 60.5106C87.6714 60.5106 88.0825 60.1454 88.0825 59.6955Z" fill="#28BBB4"/>
<path fill-rule="evenodd" clip-rule="evenodd" d="M62.2874 22.5155C62.378 22.6193 62.4474 22.711 62.5327 22.8124C62.3967 22.7834 62.2501 22.7472 62.1168 22.7279C62.1754 22.6579 62.2447 22.5952 62.2874 22.5155ZM67.5796 16.9548C67.4143 17.0803 67.249 17.2323 67.097 17.4182C67.1024 17.3627 67.121 17.3096 67.1184 17.2541C67.2197 17.1599 67.3823 17.0586 67.5796 16.9548ZM83.4776 32.7151C83.6855 32.6403 83.8482 32.5147 83.9868 32.3699C84.2667 32.1262 84.4427 31.7883 84.408 31.4094C84.3787 31.0811 84.2054 30.7963 83.9521 30.596C83.7868 30.4439 83.3123 29.9709 82.9363 29.5992L82.4191 29.0875C81.0781 27.8011 79.969 26.1455 78.8999 24.5429L78.2014 23.5075C77.8121 22.9379 76.9909 22.7641 76.3671 23.1141C75.7405 23.464 75.5459 24.2074 75.9325 24.7746L76.6177 25.7931C77.5455 27.1809 78.5479 28.5662 79.6944 29.8406C79.1691 29.9588 78.7666 30.3571 78.7026 30.8711C78.6573 31.2356 78.8146 31.6676 79.1025 31.9283C79.2011 32.0176 79.3344 32.0803 79.4678 32.1382C79.1878 32.3313 78.8945 32.5172 78.6199 32.7127C78.4626 32.8237 78.3107 32.9299 78.156 33.0385C78.1347 32.7006 78.0147 32.3796 77.7295 32.1672C77.3695 31.7714 76.7643 31.6145 76.2071 31.81C75.5219 32.0538 75.186 32.7561 75.4553 33.3764C75.5886 33.6781 75.9911 34.016 76.3511 34.1728C75.8978 34.4118 75.4419 34.6169 74.9647 34.7473C74.93 34.6845 74.8847 34.6266 74.8501 34.559C74.2342 33.3691 73.5517 32.411 72.7865 31.3707C72.5412 31.0377 72.2613 30.695 71.976 30.345C71.4481 29.703 70.9016 29.0369 70.6136 28.4335C70.3204 27.8204 69.5365 27.5381 68.8593 27.806C68.8567 27.8084 68.8567 27.8084 68.854 27.8108C68.8567 27.7698 68.878 27.7336 68.8753 27.6925C69.5179 27.4246 69.8271 26.7537 69.5632 26.1551C69.4032 25.7955 69.1873 25.4793 68.9766 25.1583C69.6858 25.5011 70.379 25.5493 70.9256 25.5735C71.2828 25.5855 71.5628 25.5976 71.8294 25.6845C71.976 25.7328 72.1306 25.7569 72.2799 25.7569C72.8265 25.7569 73.3384 25.4504 73.533 24.958C73.613 24.7601 73.613 24.5598 73.5783 24.3667C73.9969 24.3257 74.4128 24.2581 74.8234 24.135C75.5219 23.9226 75.8978 23.2396 75.6659 22.6072C75.4313 21.9749 74.6741 21.637 73.9782 21.847C72.7652 22.2163 71.3815 21.8832 70.539 21.024C70.0937 20.5702 69.4565 19.6048 70.1737 18.2291C70.3603 17.8719 70.315 17.4858 70.1257 17.1599C70.8242 17.0899 71.3521 16.5445 71.3121 15.9001C71.2855 15.5091 71.0189 15.2195 70.6856 15.0167C70.7096 14.8116 70.6989 14.604 70.603 14.4013C70.3284 13.8317 69.6298 13.5734 68.9846 13.7545L68.6114 13.4455C68.2035 13.1197 67.8116 12.777 67.4196 12.4343C66.4092 11.5509 65.3641 10.6362 64.0284 9.96764C58.0323 6.96039 50.9325 8.93948 45.2243 10.5252L43.9153 10.8896C41.8357 11.4568 39.8281 12.2001 37.8846 12.917C36.1996 13.5396 34.4586 14.1816 32.7096 14.6957C30.878 15.2315 28.8945 15.4777 26.8202 15.4439C25.7351 15.4246 24.7113 15.2895 23.5996 15.0216C23.2796 14.9419 22.9917 14.8043 22.7038 14.6764C22.1066 14.4109 21.4294 14.1092 20.5842 14.0851C19.7577 14.1141 19.2352 14.5919 19.2138 15.2581C19.1925 15.9242 19.7711 16.4793 20.5069 16.4986C20.7735 16.5059 21.1201 16.6603 21.5253 16.8413C21.9653 17.0368 22.4185 17.2323 22.9117 17.3506C24.2368 17.6716 25.4605 17.8333 26.7669 17.8574C26.9242 17.8599 27.0788 17.8623 27.2388 17.8623C29.4437 17.8623 31.5579 17.5702 33.5308 16.991C35.3731 16.4504 37.162 15.789 38.8923 15.1519C40.7773 14.4544 42.7262 13.7351 44.6858 13.1993L46.0082 12.8325C51.5057 11.3023 57.731 9.56699 62.738 12.0795C63.7644 12.5935 64.6389 13.361 65.5667 14.1696C65.82 14.3916 66.0786 14.6064 66.3372 14.8236C65.7453 15.1326 65.2254 15.5115 64.8708 15.958C64.1297 15.4777 63.2925 14.9371 62.434 14.5968C60.5704 13.8558 58.5229 13.3345 56.8139 13.1704C49.2901 12.4246 42.2276 16.4745 37.5673 19.5662C34.7519 21.4367 31.8752 22.7738 28.5185 23.7778C25.7298 24.6081 19.9603 24.7794 19.0832 22.8365C18.8006 22.2187 18.0221 21.9266 17.3449 22.1776C16.6624 22.4311 16.3371 23.1358 16.6144 23.7513C17.6835 26.1141 20.8135 26.7995 23.8075 26.7995C26.0337 26.7995 28.1826 26.4206 29.3557 26.0706C32.9363 24.999 36.1356 23.5099 39.143 21.5139C43.4434 18.6587 49.9167 14.9395 56.5313 15.5718C57.9576 15.7094 59.7653 16.1704 61.3622 16.8051C61.9701 17.0465 62.658 17.493 63.3218 17.925C63.959 18.3377 64.5616 18.7263 65.1268 18.9532C65.5827 19.1414 66.0839 19.0642 66.4572 18.8132C66.4385 18.888 66.4065 18.9435 66.3932 19.0208C66.2332 19.9113 66.3452 20.995 66.6438 21.999C66.4945 21.7504 66.3265 21.5019 66.2465 21.246C66.0439 20.604 65.2974 20.2348 64.5989 20.4158C64.3829 20.4713 64.207 20.5847 64.0523 20.7175C63.6071 20.3747 62.9699 20.3313 62.4713 20.6354C62.4553 20.592 62.466 20.5485 62.4447 20.5051C62.1354 19.8993 61.3436 19.6362 60.6771 19.9113C60.5224 19.9765 60.3598 20.0368 60.1892 20.0948C58.6828 19.6845 56.6832 19.7062 54.6597 19.822L54.3877 19.8365C52.996 19.9113 51.4923 20.0899 49.6554 20.4037C49.2688 20.4689 48.9435 20.6861 48.7516 20.9805C48.389 21.3281 48.3223 21.8397 48.541 22.2887C48.3703 22.1801 48.1784 22.0956 47.9571 22.069C47.2186 21.999 46.56 22.4552 46.4641 23.1141C46.2854 24.386 47.1493 25.8824 47.7811 26.9757L48.0211 27.3957C48.7729 28.7497 49.9353 29.9323 50.9591 30.9749L51.4363 31.4625C53.1107 33.1881 55.9901 34.139 59.5466 34.139C60.2825 34.139 60.8797 33.5984 60.8797 32.9323C60.8797 32.2662 60.2825 31.7255 59.5466 31.7255C56.8085 31.7255 54.5824 31.0497 53.4413 29.8695L52.9534 29.3723C51.9909 28.3949 50.9991 27.3836 50.4046 26.3144L50.1433 25.8534C49.7834 25.2332 49.0369 23.9419 49.1115 23.4206C49.1328 23.2541 49.1168 23.09 49.0689 22.9379C49.9193 23.6933 51.1111 23.9009 51.9616 24.0192L52.5374 24.1085C53.6092 24.2943 54.7077 24.485 55.8647 24.485C56.1607 24.485 56.4593 24.4729 56.7659 24.4439C57.2618 24.3957 57.9603 24.275 58.6881 24.1181C58.8534 24.6177 59.344 24.987 59.9465 24.987H59.9492C61.021 24.9725 61.6582 25.0063 62.5407 25.2718C63.3725 25.5204 63.8577 25.921 64.1643 26.6113C64.4656 27.2943 64.2843 27.9797 63.959 29.0393L63.8711 29.3313C63.6791 29.9757 64.1003 30.637 64.8095 30.8132C64.9268 30.8398 65.0441 30.8542 65.1588 30.8542C65.7453 30.8542 66.2839 30.4995 66.4465 29.9612L66.5292 29.6813C66.6251 29.3675 66.7211 29.0417 66.8011 28.7062C66.8731 28.7472 66.9344 28.8003 67.0171 28.8293C67.1744 28.8848 67.3503 28.9138 67.5263 28.9138C67.7182 28.9138 67.9075 28.8776 68.0808 28.81C68.0622 29.0031 68.0755 29.2034 68.1688 29.3941C68.5794 30.2533 69.2166 31.0304 69.8351 31.7835C70.0937 32.0972 70.347 32.4061 70.5683 32.7078C71.2961 33.6998 71.896 34.5397 72.4346 35.5799C72.7278 36.1519 73.0798 36.6901 73.4317 37.2211C73.613 37.4938 73.789 37.7642 73.9569 38.0369C74.1995 38.4351 74.6554 38.6596 75.1247 38.6596C75.3433 38.6596 75.5646 38.6113 75.7699 38.5099C76.4124 38.1889 76.647 37.4528 76.2898 36.8712C76.2898 36.8687 76.2898 36.8687 76.2871 36.8663C77.7881 36.3426 79.0545 35.4737 80.2676 34.6097C81.3527 33.8374 82.3765 33.1085 83.4776 32.7151Z" fill="#28BBB4"/>
<path fill-rule="evenodd" clip-rule="evenodd" d="M77.0722 30.1468C77.0722 30.6374 77.2619 31.3167 77.4801 31.6123C77.6415 31.8324 77.8313 31.9362 78.0192 31.9362C78.2871 31.9362 78.5495 31.7255 78.7251 31.3229C78.9521 30.7946 78.9628 30.0902 78.7801 29.5556C78.6489 28.9801 78.3296 28.5745 77.9589 28.5745C77.4694 28.5745 77.0722 29.2789 77.0722 30.1468Z" fill="#28BBB4"/>
<path fill-rule="evenodd" clip-rule="evenodd" d="M76.1546 26.8936C75.6482 26.8936 75.2371 27.3126 75.2371 27.7625C75.2371 28.2107 75.6482 28.5745 76.1546 28.5745C76.6611 28.5745 77.0722 28.2107 77.0722 27.7625V27.6488C77.0722 27.2006 76.6611 26.8936 76.1546 26.8936Z" fill="#28BBB4"/>
<path fill-rule="evenodd" clip-rule="evenodd" d="M52.3218 32.5745C51.9933 32.0372 51.2656 31.7877 50.6167 32.0276C45.8271 33.8075 42.5064 35.8536 40.7442 38.106C36.5112 43.5272 37.3203 49.9919 38.6671 55.6001L39.1015 57.3536C39.9459 60.7071 40.7442 63.8758 40.3179 67.2941C40.0763 69.2131 39.6771 71.4535 38.5205 73.514C38.1458 74.1785 36.571 76.0759 35.9166 76.6204C35.6315 76.678 35.3627 76.8195 35.1645 77.0378C34.6948 77.5536 34.7898 78.3092 35.3763 78.7241C35.6233 78.8993 36.0008 79 36.3456 79C36.4461 79 36.5411 78.9928 36.6334 78.976C38.2625 78.657 40.9316 74.6199 40.9533 74.5815C42.2973 72.1827 42.7507 69.6856 43.0168 67.5555C43.492 63.7439 42.6476 60.3857 41.7515 56.8307L41.3253 55.1012C40.0953 49.9919 39.3296 44.1413 42.9815 39.4685C43.6956 38.5522 44.8034 37.6431 46.2533 36.7675C45.9329 37.3576 45.6886 37.9525 45.5583 38.5162C44.798 41.7809 45.0641 45 45.322 48.1136C45.3872 48.886 45.4524 49.6608 45.5012 50.4356C45.6234 52.3738 45.8759 54.3696 46.1203 56.2982C46.6823 60.7671 47.2661 65.3895 46.3076 69.7048L46.0497 70.9018C45.8216 71.9956 45.5963 73.0871 45.2541 74.1617L45.1374 74.5455C45.0342 74.8957 44.7573 75.8312 44.7437 75.9272C44.1518 76.3326 44.0432 77.0858 44.5048 77.6087C44.7708 77.9134 45.1727 78.0741 45.5773 78.0741C45.8678 78.0741 46.161 77.9925 46.4081 77.8222C47.0163 77.4048 47.3177 76.6612 47.7657 75.1524L47.8689 74.8118C48.2381 73.6484 48.4825 72.473 48.7215 71.3384L48.9713 70.1678C50.0085 65.4902 49.403 60.6831 48.8165 56.0343C48.5667 54.0505 48.3305 52.1747 48.211 50.3013C48.1621 49.5121 48.097 48.7229 48.0318 47.9361C47.7738 44.8537 47.5322 41.9392 48.2164 39.0008C48.6047 37.3384 50.375 35.2107 52.1616 34.8485C52.892 34.7022 53.3481 34.0593 53.1825 33.4141C53.0766 33.0039 52.7345 32.7112 52.3218 32.5745Z" fill="#28BBB4"/>
<path fill-rule="evenodd" clip-rule="evenodd" d="M75.4459 12.3804C75.4612 12.4888 75.4919 12.5947 75.538 12.6981C75.74 13.1587 76.2081 13.4468 76.7146 13.4468C76.7862 13.4468 76.8629 13.4419 76.9371 13.4271C78.9577 13.0798 81.2188 9.66889 81.2418 9.63195C81.536 9.16402 82.9735 6.75295 82.4721 5.17184C82.3494 4.78026 82.155 4.50443 81.9478 4.31479C81.8148 3.76805 81.3083 3.36169 80.7021 3.36169H80.6945C80.078 3.36416 79.5639 3.79022 79.4463 4.35173C78.9987 4.66943 78.4666 5.18169 77.8553 6.00426C75.5917 9.05565 74.8423 11.0111 75.428 12.341L75.4459 12.3804Z" fill="#28BBB4"/>
<path fill-rule="evenodd" clip-rule="evenodd" d="M84.5666 7.02822C85.2234 7.60986 85.8448 8.15813 86.2842 8.8232C87.0001 9.90066 87.4561 11.3905 87.5058 12.8136L87.5176 13.0854C87.6333 15.7576 87.4372 16.4417 87.3664 16.5847C86.9765 17.1115 87.0828 17.8577 87.605 18.251C87.8176 18.4131 88.0657 18.4894 88.3114 18.4894C88.6706 18.4894 89.0273 18.3249 89.2589 18.0102C89.9157 17.1235 89.9818 15.3571 89.8779 12.9805L89.8661 12.7278C89.8023 10.8828 89.1974 8.9257 88.2476 7.49783C87.6333 6.57293 86.8678 5.89355 86.1259 5.23802C85.5896 4.76127 85.0816 4.31312 84.68 3.80776C84.276 3.29764 83.5341 3.20944 83.0214 3.62421C82.511 4.03422 82.4283 4.7851 82.8371 5.29761C83.3663 5.96745 83.9759 6.50618 84.5666 7.02822Z" fill="#28BBB4"/>
<path fill-rule="evenodd" clip-rule="evenodd" d="M77.4359 23.5319C77.6333 23.5319 77.8361 23.5195 78.0443 23.4921C79.8428 23.2605 82.183 22.0057 84.0615 20.9974C84.6085 20.7036 85.1102 20.4348 85.5318 20.2281C86.1856 19.9094 86.4364 19.1575 86.0948 18.5476C85.7506 17.9401 84.9474 17.7086 84.291 18.0247C83.8427 18.2438 83.3117 18.5277 82.7327 18.8389C81.1423 19.6928 78.9622 20.8605 77.6787 21.0273C77.169 21.092 76.9369 20.9426 76.7714 20.7684C75.8775 19.8123 75.8989 16.9741 76.4806 15.0247C76.6754 14.3599 76.2618 13.6753 75.5493 13.491C74.8395 13.3118 74.1057 13.6927 73.9082 14.3574C73.2598 16.5334 72.9529 20.4746 74.7648 22.4066C75.4586 23.1485 76.3738 23.5319 77.4359 23.5319Z" fill="#28BBB4"/>
<path fill-rule="evenodd" clip-rule="evenodd" d="M122.303 24.121L119.825 23.3849C119.411 23.2596 119.181 22.8488 119.318 22.4648C119.397 22.2434 119.583 22.0701 119.825 21.9981L122.303 21.262L123.106 18.9923C123.243 18.6109 123.694 18.4002 124.111 18.5256C124.352 18.5976 124.545 18.771 124.623 18.9923L125.427 21.262L127.902 21.9981C128.318 22.1207 128.551 22.5341 128.414 22.9155C128.333 23.1369 128.146 23.3129 127.902 23.3849L125.427 24.121L124.623 26.3907C124.486 26.772 124.038 26.9827 123.619 26.8574C123.377 26.7854 123.188 26.612 123.106 26.3907L122.303 24.121Z" fill="#7FC689"/>
<path fill-rule="evenodd" clip-rule="evenodd" d="M110.82 34.5547L109.427 35.2135C109.012 35.412 108.508 35.2479 108.303 34.851C108.226 34.7055 108.201 34.5415 108.226 34.3801L108.453 32.9089C108.566 32.1655 108.309 31.414 107.76 30.8769L106.672 29.8159C106.348 29.4984 106.354 28.9904 106.686 28.6808C106.808 28.567 106.963 28.4903 107.132 28.4638L108.666 28.2151C109.438 28.0908 110.108 27.6251 110.474 26.9583L111.194 25.6433C111.41 25.2517 111.916 25.0983 112.326 25.3046C112.479 25.3814 112.603 25.5004 112.681 25.6433L113.403 26.9583C113.766 27.6251 114.436 28.0908 115.211 28.2151L116.745 28.4638C117.202 28.5379 117.507 28.9507 117.432 29.3873C117.402 29.5487 117.324 29.6995 117.205 29.8159L116.117 30.8769C115.566 31.414 115.311 32.1655 115.425 32.9089L115.652 34.3801C115.721 34.8166 115.4 35.2241 114.943 35.2876C114.774 35.3141 114.599 35.285 114.45 35.2135L113.057 34.5547C112.351 34.2213 111.523 34.2213 110.82 34.5547Z" fill="#F2D038"/>
<path fill-rule="evenodd" clip-rule="evenodd" d="M116.526 11.4768C114.835 11.4768 113.458 12.7382 113.458 14.2872C113.458 15.8338 114.835 17.0952 116.526 17.0952C118.217 17.0952 119.594 15.8338 119.594 14.2872C119.594 12.7382 118.217 11.4768 116.526 11.4768ZM116.526 18.4894C113.997 18.4894 111.938 16.6035 111.938 14.2872C111.938 11.9686 113.997 10.0851 116.526 10.0851C119.054 10.0851 121.113 11.9686 121.113 14.2872C121.113 16.6035 119.054 18.4894 116.526 18.4894Z" fill="#28BBB4"/>
<path fill-rule="evenodd" clip-rule="evenodd" d="M127.535 9.67443C126.783 9.67443 126.17 10.2355 126.17 10.9244C126.17 11.6134 126.783 12.1744 127.535 12.1744C128.289 12.1744 128.902 11.6134 128.902 10.9244C128.902 10.2355 128.289 9.67443 127.535 9.67443ZM127.535 13.4468C126.018 13.4468 124.784 12.3158 124.784 10.9244C124.784 9.53529 126.018 8.40425 127.535 8.40425C129.054 8.40425 130.289 9.53529 130.289 10.9244C130.289 12.3158 129.054 13.4468 127.535 13.4468Z" fill="#334580"/>
<mask id="mask0_5_653" style="mask-type:alpha" maskUnits="userSpaceOnUse" x="15" y="0" width="163" height="157">
<path fill-rule="evenodd" clip-rule="evenodd" d="M15.2812 0.302872H177.328V156.319H15.2812V0.302872Z" fill="white"/>
</mask>
<g mask="url(#mask0_5_653)">
<path fill-rule="evenodd" clip-rule="evenodd" d="M128.347 153.731C122.24 153.682 116.867 153.643 114.275 153.68L114.267 148.182C114.259 140.805 114.246 130.173 114.267 125.21C124.262 125.227 134.632 125.21 136.543 125.122C142.944 124.829 147.842 124.771 153.602 124.944C154.01 132.411 153.814 141.003 153.655 147.972C153.61 150.021 153.565 151.955 153.539 153.731C148.5 153.887 137.375 153.802 128.347 153.731V153.731ZM97.7376 153.878C96.5104 153.873 95.14 153.863 93.7113 153.853C93.6981 152.183 93.6663 149.884 93.6291 147.254C93.5205 139.577 93.3826 129.331 93.592 125.105C94.3289 125.112 95.0207 125.115 95.7868 125.125C98.5911 125.159 104.831 125.188 111.616 125.205C111.595 130.178 111.608 140.808 111.616 148.184L111.624 153.741C107.762 153.809 99.169 153.875 97.7376 153.878V153.878ZM56.1519 153.487C55.2268 153.531 53.0003 153.553 50.1244 153.558C50.1138 148.397 50.0024 144.955 49.9044 141.919C49.74 136.922 49.6207 133.248 50.0581 125.01C61.4028 125.266 69.2221 125.193 76.795 125.132C81.2057 125.095 85.7488 125.059 90.9414 125.083C90.732 129.497 90.8725 139.653 90.9785 147.283C91.0156 149.891 91.0474 152.17 91.058 153.831C85.5474 153.782 79.1726 153.712 73.3465 153.629C64.6631 153.506 57.8059 153.401 56.1519 153.487V153.487ZM44.391 110.184C46.66 110.135 49.1834 110.233 51.6326 110.326C54.6384 110.433 57.7476 110.553 60.5148 110.426C69.0949 110.037 77.7678 110.013 85.5712 110.013C86.3876 110.013 87.1855 110.025 87.9939 110.03C87.7872 112.746 87.8614 115.142 87.9595 117.868C88.0125 119.319 88.0602 120.904 88.0761 122.638C84.0498 122.636 80.3495 122.66 76.7711 122.69C68.9412 122.755 60.8356 122.826 48.8335 122.538C48.8256 122.538 48.8176 122.543 48.807 122.543C47.752 122.538 45.6315 122.494 44.1339 122.45C44.1048 119.194 44.2479 113.335 44.391 110.184V110.184ZM75.9017 103.304C75.8832 100.133 75.8646 97.0972 75.9203 95.0601C75.9707 93.0671 75.9521 88.0746 75.9362 83.3264L75.9229 78.2583C76.6837 78.2705 77.4206 78.29 78.1044 78.312C79.056 78.3413 79.9466 78.3706 80.7975 78.3706C81.7411 78.3706 82.6317 78.334 83.5037 78.2289C85.4255 77.9994 94.1487 78.0995 101.841 78.1899C108.611 78.268 115.001 78.3437 118.182 78.2387C120.546 78.163 122.929 78.1581 125.309 78.1386C125.309 88.9686 125.312 94.7548 125.355 107.759C123.518 107.781 121.686 107.807 119.876 107.834C112.634 107.942 105.401 107.947 98.1723 107.759C94.5781 107.663 90.9812 107.571 87.3869 107.571C83.7529 107.568 79.8803 107.573 75.9176 107.607C75.915 106.193 75.9097 104.742 75.9017 103.304V103.304ZM60.7216 68.481C60.6898 64.3434 60.6527 60.0666 60.7507 58.3129C60.8833 55.824 60.8117 53.2032 60.7454 50.6704L60.6951 48.6675C62.9614 47.4121 65.7498 45.8196 68.8113 44.0464C68.8617 44.0512 68.9014 44.0732 68.9518 44.0757L70.3407 44.1147C70.9981 44.1343 71.4169 44.1441 72.2412 44.1392C74.5526 44.1172 76.8825 44.1294 79.223 44.1416C79.4801 44.1416 79.7398 44.1392 79.9996 44.1416C80.0394 49.2977 79.9439 54.6419 79.8459 59.8224C79.7451 65.1006 79.6391 70.5571 79.6921 75.7059C79.6921 75.7767 79.7239 75.8353 79.7372 75.9037C79.2283 75.8915 78.7459 75.8866 78.1972 75.872C77.0919 75.8353 75.8991 75.7987 74.595 75.7987H60.7587C60.764 73.6615 60.7454 71.0529 60.7216 68.481V68.481ZM55.8762 48.4404C54.3548 46.2006 51.5796 42.151 50.2675 40.2458C53.2123 38.5776 61.2013 34.0273 67.0115 30.5712C68.9756 33.3825 70.7887 36.0057 72.7077 38.8854C65.1799 43.2965 58.8529 46.9163 55.8762 48.4404V48.4404ZM53.0825 35.2436C53.1275 35.2314 53.154 35.2021 53.1938 35.1874C53.3846 35.2656 53.5914 35.3047 53.7849 35.3706C52.3959 36.1669 51.1475 36.8776 50.1535 37.4443C50.9461 36.4136 51.9374 35.5831 53.0825 35.2436V35.2436ZM45.5176 77.3008C44.8788 76.5705 44.2347 75.1978 44.1896 74.2477C44.1657 73.7103 43.7602 73.2512 43.1956 73.1168C42.6363 72.9849 42.0373 73.2048 41.7325 73.6639C40.712 75.2125 39.1295 77.1225 37.7539 77.8406C37.0196 78.2265 36.0866 78.5172 35.1775 78.693C40.3223 73.8618 40.5662 64.4411 39.6941 56.8181L39.437 54.6858C38.7876 49.5322 38.117 44.2027 40.5715 39.6792C41.8199 37.371 45.7482 33.6658 49.6472 32.8549C49.9547 33.1406 50.2807 33.402 50.6147 33.656C47.2829 35.6198 45.4805 39.9527 45.4486 42.8202C45.4115 45.8636 46.106 48.7457 46.7766 51.5326C47.1583 53.1104 47.5506 54.742 47.7945 56.3589C48.8335 63.2052 49.9892 70.921 45.5176 77.3008V77.3008ZM56.1068 20.6937C56.9126 20.789 57.684 20.9331 58.45 21.0772C59.004 21.1822 59.5553 21.2848 60.1146 21.3727C60.4327 21.4216 60.7428 21.4363 61.0476 21.4509C60.7004 21.766 60.3028 22.1128 60.1331 22.1934C58.511 22.9042 56.4806 22.9042 54.535 22.8969H54.1374C51.4735 22.8969 49.9229 22.6966 49.4193 21.6903C49.4325 21.595 49.4113 21.4998 49.4007 21.4045C49.4829 21.3532 49.5386 21.2873 49.6287 21.2409C51.5955 20.2565 53.8167 20.4177 56.1068 20.6937V20.6937ZM54.0181 15.015C49.2762 15.1517 45.4433 17.6284 41.7351 20.0221C40.7173 20.6815 39.71 21.3312 38.7001 21.9174C35.3551 23.8592 31.5487 25.7692 25.1289 25.9573C23.5863 26.0086 20.0053 25.3564 18.118 24.2011C18.2028 24.0375 18.3088 23.9178 18.4917 23.7835C19.8012 22.8114 21.9349 22.5207 23.4935 22.3082C24.0316 22.2349 24.514 22.169 24.9089 22.0908C25.4549 21.9785 25.8684 21.5633 25.94 21.0503C26.0116 20.5374 25.7253 20.0391 25.2243 19.8047C22.5419 18.5541 21.1185 17.0422 20.8985 15.2226C27.3581 17.7774 36.2695 15.1688 42.366 13.3712L45.2658 12.5285C51.1157 10.8456 55.7384 9.51203 61.7262 11.3781C64.9652 12.3868 68.4137 14.1283 69.2062 16.1629C68.8087 16.1556 68.4058 16.1873 68.0029 16.2704C66.8843 16.5 65.893 17.201 65.2383 18.1853C62.243 16.0896 58.1531 14.8806 54.0181 15.015V15.015ZM76.5776 9.02353C77.8499 5.5552 79.4589 3.46443 81.2428 2.89289C81.3064 3.08341 81.3753 3.33254 81.4654 3.68181C81.7331 4.73941 81.6271 5.82632 81.1632 6.74225C80.5218 8.0099 79.4059 8.84279 78.1124 9.80513C77.8075 10.0323 77.5001 10.2619 77.2005 10.4964C76.7075 10.8798 76.2596 11.3268 75.8196 11.7811C75.8673 11.5906 75.9176 11.3976 75.9627 11.2144C76.1721 10.3742 76.3629 9.60729 76.5776 9.02353V9.02353ZM87.5274 6.62257C88.6751 8.00746 89.3325 9.74895 89.3802 11.5246C89.4014 12.3307 89.4067 13.5446 88.3226 15.142C84.7204 17.2156 80.7683 19.5189 77.3066 21.5486C77.2986 21.5535 77.288 21.551 77.2801 21.5559C77.2695 21.5633 77.2668 21.573 77.2562 21.5779C76.7711 21.8612 76.2993 22.1397 75.8355 22.4108C75.8699 21.6805 75.7162 20.916 75.3425 20.1491C75.1649 19.7827 74.9263 19.4285 74.6639 19.0841C74.7355 18.9669 74.7938 18.8399 74.8229 18.7031C75.3345 16.3583 76.8984 13.928 78.9129 12.3624L79.777 11.7054C81.1977 10.6478 82.6661 9.556 83.5647 7.77542C84.2062 6.51266 84.3811 5.04961 84.1081 3.54748C85.285 4.28022 86.5334 5.42331 87.5274 6.62257V6.62257ZM96.5051 13.3565C98.2571 15.7184 100.844 19.663 102.048 21.5217C100.629 22.3351 98.1803 23.7444 96.733 24.6139C93.099 26.7975 89.2583 29.0934 85.4334 31.3698C84.4845 29.9532 83.5621 28.5854 82.6476 27.2347C81.7066 25.8449 80.7603 24.4405 79.7902 22.9872C85.4944 19.6484 92.2879 15.7086 96.5051 13.3565V13.3565ZM69.8875 28.8394C70.7807 28.2948 73.7733 26.5191 77.5531 24.2988C78.5179 25.7448 79.4615 27.1419 80.3999 28.5268C81.3196 29.8873 82.2473 31.2648 83.2042 32.6937C80.3892 34.3643 77.6087 36.0081 74.9449 37.5738C73.0205 34.6867 71.1995 32.0586 69.2327 29.2376C69.4528 29.1057 69.6807 28.9664 69.8875 28.8394V28.8394ZM72.9224 21.1432C73.4526 22.2374 73.2432 23.1191 72.2969 23.7664L71.6687 24.0937C70.1631 24.8899 69.9352 24.9705 69.0764 24.294C68.2441 23.6369 67.6795 22.1348 67.2209 20.9136C67.0725 20.513 67.152 19.9976 67.4356 19.5311C67.7113 19.0719 68.1407 18.7422 68.5834 18.6518C68.7609 18.6176 68.9385 18.5981 69.1214 18.5981C70.6588 18.5981 72.2916 19.8413 72.9224 21.1432V21.1432ZM57.1061 33.4655C53.1063 33.5974 49.6128 30.0143 48.4412 26.3701C48.2981 25.928 48.0463 24.9803 48.0754 23.9935C49.7559 25.31 52.4649 25.3393 54.1984 25.3393H54.5297C54.6649 25.3418 54.8001 25.3418 54.9406 25.3418C56.9815 25.3418 59.2452 25.2881 61.2703 24.399C61.8826 24.1303 62.4789 23.5856 63.1681 22.9555C63.5843 22.572 64.2867 21.9394 64.7267 21.6854C64.7426 21.7342 64.7452 21.7855 64.7638 21.8344C65.2754 23.1973 65.9751 25.0633 67.3535 26.1503C67.7219 26.4409 68.0771 26.6412 68.4243 26.8024L68.4217 26.8048C65.4264 28.6391 61.0582 31.1867 57.1061 33.4655V33.4655ZM86.5043 44.1392C88.0867 44.1245 89.8016 44.0976 91.6014 44.0708C91.885 44.0683 92.1872 44.0634 92.4761 44.0586L92.3966 49.0974C92.3012 54.9911 92.2084 60.8971 92.2111 66.7883C92.2111 67.6408 92.1925 68.4908 92.1766 69.3407C92.1528 70.4081 92.1289 71.4804 92.1421 72.5551C92.1448 72.8017 92.1607 73.0777 92.1766 73.366C92.2111 73.9473 92.2694 74.9218 92.0838 75.2345C92.0043 75.3688 91.9619 75.5105 91.9407 75.6546C87.7103 75.6326 84.397 75.6595 83.1592 75.8084C82.8941 75.8402 82.584 75.8329 82.3057 75.8524C82.3136 75.7938 82.3428 75.7425 82.3428 75.6814C82.2898 70.5693 82.3958 65.1275 82.4965 59.8663C82.5946 54.6761 82.69 49.3221 82.6502 44.1416C83.9358 44.1441 85.2187 44.1538 86.5043 44.1392V44.1392ZM110.318 44.0879C110.63 51.4642 110.837 58.6646 110.272 65.6208C110.143 67.2451 110.233 69.0281 110.323 70.7501C110.418 72.6283 110.503 74.3967 110.31 75.8329C107.675 75.8158 104.762 75.7816 101.875 75.7474C99.3943 75.7205 96.9769 75.6912 94.7133 75.6741C94.9253 74.8974 94.8723 74.0254 94.8246 73.2316C94.8113 72.9825 94.7954 72.7456 94.7928 72.5306C94.7822 71.4804 94.8034 70.4325 94.8272 69.3872C94.8431 68.5225 94.8617 67.6554 94.8617 66.7883C94.8564 60.9068 94.9518 55.0131 95.0472 49.1316L95.1268 44.0219C100.264 43.9535 105.652 43.9193 110.318 44.0879V44.0879ZM117.89 71.197C118.357 70.816 119.937 71.0114 120.777 71.4437C121.344 71.7319 122.065 71.6 122.465 71.1213C122.868 70.645 122.828 69.9709 122.378 69.5337C121.307 68.4932 120.636 67.3843 120.446 66.3267C120.234 65.1836 120.618 64.0454 121.421 63.4275C122.227 62.8022 123.579 62.6581 124.787 63.0709C125.906 63.4544 126.979 64.2677 127.979 65.4914C128.374 65.9726 129.087 66.1142 129.662 65.8358C130.237 65.55 130.502 64.9247 130.29 64.3556C129.657 62.6776 130.343 60.6089 131.888 59.5415C132.699 58.9822 133.768 58.65 134.892 58.6011C135.825 58.5645 136.625 58.7428 137.145 59.1141C138.653 60.1887 138.086 62.812 137.876 63.5911C137.738 64.0992 137.969 64.6316 138.451 64.915C138.928 65.1983 139.551 65.1641 139.994 64.8368C140.49 64.468 141.07 64.0625 141.651 63.9209C142.051 63.8281 142.47 63.8891 142.639 64.065C142.817 64.2506 142.875 64.6707 142.798 65.2203C142.645 66.3292 142.128 67.4161 141.346 68.2734C140.911 68.7521 140.938 69.4531 141.404 69.9025C141.873 70.3544 142.634 70.4081 143.167 70.0271C143.607 69.7193 144.277 69.6436 144.776 69.8463C145.287 70.0491 145.68 70.5449 145.738 71.0529C145.833 71.9493 145.038 72.8823 144.354 73.5101C143.371 74.4113 142.236 75.1465 140.988 75.6937C140.964 75.7034 140.954 75.723 140.93 75.7303C140.458 75.7254 139.986 75.7254 139.514 75.723C139.329 75.7205 139.133 75.7205 138.947 75.7181C139.453 75.0781 139.777 74.3503 139.777 73.5858C139.777 72.9117 139.183 72.3645 138.451 72.3645C137.717 72.3645 137.126 72.9117 137.126 73.5858C137.126 74.2428 135.965 75.3053 134.608 75.6106C134.544 75.6228 134.494 75.6619 134.433 75.6863C131.257 75.6595 128.077 75.6741 124.869 75.7034C124.798 75.6912 124.734 75.6643 124.66 75.6643C122.677 75.6643 119.796 74.956 118.357 73.6395C117.753 73.0875 117.4 72.4745 117.413 72.0031C117.419 71.8199 117.472 71.539 117.89 71.197V71.197ZM149.067 78.2338C149.054 85.5637 148.905 91.8776 148.574 99.0267C148.529 99.9988 148.529 101.777 148.532 103.685C148.532 105.128 148.532 106.635 148.51 107.927C145.261 107.949 142.38 107.961 141.582 107.93C140.596 107.886 139.599 107.869 138.608 107.839C138.565 94.7841 138.563 88.9954 138.563 78.1581C138.867 78.1606 139.18 78.1606 139.482 78.1654C142.679 78.1996 145.873 78.2265 149.067 78.2338V78.2338ZM135.912 78.1386C135.912 88.9686 135.915 94.7548 135.957 107.766C133.304 107.72 130.65 107.722 128.005 107.742C127.963 94.7328 127.96 88.949 127.96 78.1019C130.632 78.0946 133.269 78.1142 135.912 78.1386V78.1386ZM90.7267 122.641C90.7108 120.875 90.6604 119.265 90.6074 117.787C90.5094 115.081 90.4351 112.71 90.6472 110.055C93.1335 110.086 95.6092 110.133 98.0981 110.199C101.613 110.291 105.125 110.333 108.64 110.345C108.618 113.74 108.626 116.041 108.634 118.493L108.645 122.758C103.076 122.741 98.2068 122.714 95.8212 122.682C94.0453 122.66 92.3568 122.646 90.7267 122.641V122.641ZM159.235 110.338C159.513 113.012 159.322 118.979 159.129 122.589C158.111 122.606 156.918 122.597 154.936 122.543C154.925 122.543 154.92 122.538 154.909 122.538C148.611 122.333 143.254 122.367 136.41 122.685C134.335 122.78 122.065 122.792 111.296 122.765L111.285 118.484C111.277 116.034 111.269 113.733 111.29 110.333C114.166 110.328 117.04 110.321 119.918 110.277C127.001 110.169 134.319 110.062 141.457 110.367C142.427 110.414 145.823 110.389 149.748 110.362C153.287 110.338 157.218 110.316 159.235 110.338V110.338ZM177.328 154.64C177.272 153.692 177.166 152.788 156.192 153.629C156.221 151.894 156.261 150.016 156.306 148.021C156.462 141.069 156.651 132.528 156.253 125.017C156.977 125.032 157.623 125.042 158.156 125.042C159.023 125.042 159.715 125.022 160.462 124.983C161.135 124.951 161.673 124.455 161.713 123.835C161.721 123.715 162.44 111.896 161.673 108.872C161.538 108.345 161.045 107.961 160.459 107.93C159.261 107.861 155.299 107.883 151.161 107.91C151.182 106.616 151.182 105.118 151.182 103.682C151.18 101.816 151.18 100.079 151.225 99.1318C151.575 91.5429 151.723 84.9287 151.723 77.0199C151.723 76.3433 151.132 75.7987 150.398 75.7987C150.355 75.7987 150.316 75.8182 150.27 75.8231C150.231 75.8182 150.191 75.7987 150.149 75.7987C148.614 75.7987 147.079 75.7767 145.547 75.7645C145.767 75.5862 146.014 75.4347 146.223 75.2418C147.789 73.8105 148.532 72.2766 148.373 70.8087C148.222 69.4165 147.222 68.161 145.831 67.6041C145.542 67.4893 145.242 67.4063 144.937 67.355C145.176 66.7639 145.34 66.1509 145.428 65.5329C145.611 64.2262 145.338 63.1881 144.622 62.4432C143.784 61.5761 142.364 61.2244 140.98 61.559C140.922 61.5736 140.866 61.5858 140.81 61.6029C140.805 59.6905 140.108 58.1395 138.772 57.1845C137.744 56.4469 136.363 56.0976 134.772 56.1611C133.121 56.2319 131.533 56.7375 130.298 57.5875C128.859 58.5791 127.899 60.0764 127.549 61.686C126.961 61.3001 126.343 60.9996 125.71 60.7823C123.613 60.0617 121.259 60.367 119.717 61.5541C118.187 62.7387 117.464 64.722 117.829 66.7322C117.943 67.3501 118.15 67.9607 118.45 68.5591C117.609 68.6056 116.785 68.8351 116.13 69.3725C115.264 70.0808 114.792 70.9674 114.763 71.9371C114.728 73.1071 115.346 74.3283 116.491 75.3761C116.679 75.5471 116.933 75.6668 117.146 75.8207C116.006 75.8426 114.582 75.85 112.942 75.8451C113.122 74.2672 113.066 72.5135 112.968 70.6353C112.883 68.9841 112.796 67.2793 112.918 65.8016C113.517 58.3642 113.262 50.7095 112.92 42.8691C112.891 42.2389 112.345 41.7309 111.661 41.6991C105.605 41.4182 98.1405 41.5281 91.559 41.6307C89.7645 41.6552 88.0522 41.682 86.4751 41.6967C84.0551 41.7235 81.6404 41.7089 79.2362 41.6991C77.0972 41.6869 74.9687 41.682 72.8509 41.6967C73.6248 41.2448 74.4041 40.7881 75.1914 40.324C75.1993 40.3216 75.2046 40.324 75.2126 40.3191C75.2232 40.3142 75.2258 40.3069 75.2364 40.2996C84.8556 34.655 94.9651 28.5952 98.1829 26.6607C100.29 25.3931 104.547 22.9652 104.547 22.9652C105.162 22.616 105.358 21.8783 104.992 21.3068C104.799 21.0015 100.197 13.8108 97.9444 11.0019C97.5388 10.4915 96.7834 10.3571 96.2003 10.6795C95.0366 11.317 93.5735 12.1426 91.9566 13.061C92.052 12.4113 92.0414 11.8641 92.0308 11.4636C91.9699 9.17741 91.119 6.93032 89.6347 5.14242C88.5665 3.85279 84.7972 -0.287226 81.1394 0.372246C78.1627 0.919363 75.7825 3.56702 74.0649 8.24194C73.8289 8.88675 73.6142 9.7343 73.381 10.6624C73.0099 12.145 72.4957 14.1528 71.7243 15.4155C70.4043 11.8886 65.0421 9.83444 62.5744 9.06506C55.7755 6.94742 50.5379 8.45443 44.4732 10.1984L41.5575 11.0435C35.3232 12.8827 25.8923 15.6647 20.4585 12.2525C20.3896 12.211 20.3101 12.1963 20.2359 12.167C20.159 12.1353 20.0927 12.0889 20.0053 12.0718C20 12.0693 19.9946 12.0718 19.9893 12.0718C19.8939 12.0547 19.8012 12.0644 19.7084 12.0669C19.4513 12.0669 19.2048 12.1157 18.9954 12.2378C18.9901 12.2403 18.9874 12.2476 18.9795 12.2501C18.8443 12.3355 18.7223 12.4406 18.6269 12.5676C18.6243 12.5725 18.6216 12.5725 18.619 12.5749C18.5713 12.636 18.5607 12.7068 18.5262 12.7728C18.4917 12.846 18.4414 12.912 18.4202 12.9926L18.4175 13.0146C18.4149 13.0219 18.4149 13.0292 18.4122 13.0341C17.7575 15.7843 18.7038 18.2537 21.1079 20.2052C19.6527 20.4837 18.0888 20.9478 16.8271 21.8832C15.743 22.6892 15.5071 23.5783 15.303 24.3648C15.2898 24.4136 15.303 24.46 15.2951 24.5113C15.2845 24.5944 15.2765 24.6774 15.2845 24.7605C15.2924 24.8386 15.3136 24.9119 15.3375 24.9876C15.3613 25.0609 15.3852 25.1317 15.4223 25.2001C15.4647 25.2783 15.5204 25.3418 15.5787 25.4077C15.6132 25.4468 15.6291 25.4932 15.6688 25.5299C15.698 25.5567 15.743 25.5787 15.7748 25.6056C15.7934 25.6202 15.8067 25.6324 15.8252 25.6447C18.2373 27.6524 23.1091 28.4022 25.0282 28.4022C25.0918 28.4022 25.1528 28.3998 25.2111 28.3998C31.6071 28.2117 35.6546 26.5704 40.1129 23.9838C41.1573 23.378 42.2016 22.7039 43.2566 22.0224C46.6467 19.834 50.1535 17.5698 54.103 17.455C56.7854 17.372 59.4837 17.9459 61.7394 19.0084C61.3418 19.0255 60.9469 19.0231 60.5546 18.962C60.0245 18.8814 59.5023 18.7837 58.9801 18.6836C58.1505 18.5297 57.3155 18.3734 56.4461 18.2708C53.8167 17.9581 51.0282 17.7628 48.3617 19.0939C45.6899 20.4324 44.7462 23.4855 45.8993 27.0662C46.3128 28.3509 46.994 29.6259 47.8475 30.8081C43.5481 32.2101 39.5881 36.0252 38.1992 38.5849C35.3948 43.763 36.1423 49.7154 36.8023 54.9667L37.0594 57.0746C37.8201 63.7279 38.0428 75.3639 31.0054 78.5294C30.9736 78.544 30.955 78.5709 30.9258 78.5855C30.8463 78.6271 30.7774 78.6808 30.7085 78.737C30.6449 78.7932 30.5839 78.8445 30.5336 78.908C30.5123 78.9348 30.4805 78.9519 30.4593 78.9812C30.4328 79.0228 30.4302 79.0667 30.409 79.1082C30.3692 79.184 30.3374 79.2548 30.3189 79.3354C30.2976 79.4136 30.2844 79.4893 30.2817 79.5674C30.2764 79.6431 30.2791 79.7164 30.2897 79.7921C30.303 79.8776 30.3295 79.9558 30.3613 80.0364C30.3772 80.0779 30.3745 80.1219 30.3957 80.161C30.4063 80.1829 30.4328 80.1927 30.4461 80.2122C30.5495 80.3881 30.6873 80.5493 30.8861 80.6641C30.8861 80.6641 30.8887 80.6641 30.8914 80.6666C30.894 80.6666 30.8967 80.6666 30.8993 80.669C31.7078 81.1257 32.6832 81.3089 33.6984 81.3089C35.6837 81.3089 37.8095 80.6201 39.0633 79.9656C40.2879 79.3256 41.4356 78.2045 42.3448 77.1372C43.0286 78.5343 44.126 79.8581 45.5759 80.1732C45.6501 80.1878 45.719 80.1732 45.7906 80.1781C45.8197 80.1805 45.8462 80.2049 45.8781 80.2049C45.9152 80.2049 45.9496 80.1854 45.9841 80.1829C46.0981 80.1732 46.1988 80.1487 46.3048 80.1145C46.3764 80.0926 46.4479 80.0755 46.5169 80.0413C46.66 79.968 46.7819 79.8703 46.8879 79.7555C46.9038 79.7384 46.9277 79.7335 46.9436 79.714C52.8969 72.3548 51.5239 63.298 50.4212 56.0219C50.1588 54.3072 49.7559 52.6268 49.3636 51.0026C48.6957 48.2303 48.0648 45.6095 48.0993 42.8471C48.1019 42.5247 48.139 42.1754 48.2053 41.8066C49.8142 44.1514 53.1381 48.9997 54.2779 50.6948C54.5244 51.0661 54.9591 51.2737 55.4044 51.2737C55.6032 51.2737 55.802 51.2346 55.9902 51.1467C56.4859 50.9219 57.2307 50.5385 58.0789 50.0891L58.0948 50.7314C58.1611 53.2203 58.2326 55.7923 58.1028 58.1908C58.002 60.0153 58.0365 64.1358 58.0709 68.4981C58.0975 71.5781 58.124 74.702 58.1001 77.0077C58.0975 77.335 58.2353 77.6476 58.4844 77.8797C58.7336 78.1117 59.0729 78.2412 59.4254 78.2412H73.2723L73.2856 83.3337C73.3015 88.0551 73.3227 93.0206 73.2697 95.0039C73.2167 97.0532 73.2326 100.119 73.2511 103.316C73.2591 104.759 73.2644 106.22 73.267 107.636C69.0313 107.69 64.7028 107.79 60.385 107.986C57.7343 108.103 54.6861 107.993 51.7386 107.883C48.7911 107.776 45.7429 107.666 43.0604 107.783C42.3819 107.81 41.8358 108.308 41.8014 108.933C41.6185 111.982 41.4038 120.411 41.5019 123.659C41.5231 124.297 42.0691 124.812 42.7583 124.846C43.6038 124.885 45.7614 124.941 47.4101 124.968C46.9754 133.207 47.092 136.966 47.2564 141.993C47.3545 145.014 47.4631 148.436 47.4737 153.56C43.0551 153.558 37.7698 153.536 33.322 153.516C29.6429 153.499 26.3774 153.484 24.3125 153.484C23.581 153.484 22.9872 154.032 22.9872 154.706C22.9872 155.382 23.581 155.927 24.3125 155.927C26.3721 155.927 29.635 155.942 33.3114 155.959C42.4137 155.998 53.7451 156.049 56.2871 155.924C57.843 155.851 65.0103 155.951 73.3041 156.071C79.5861 156.161 86.4831 156.257 92.2826 156.298C92.3197 156.303 92.3515 156.32 92.3913 156.32C92.4258 156.32 92.4576 156.303 92.492 156.301C94.1805 156.313 95.7894 156.32 97.242 156.32H97.7429C99.495 156.318 111.174 156.23 113.315 156.144C115.12 156.066 121.238 156.117 128.323 156.174C138.372 156.252 149.759 156.342 154.429 156.142C161.549 155.841 175.443 155.92 175.955 155.924L176.005 154.706L174.68 154.728L177.328 154.64Z" fill="#334580"/>
</g>
<path fill-rule="evenodd" clip-rule="evenodd" d="M16.98 153.353C14.5641 153.561 11.4318 153.272 10.1997 153.136C8.04291 152.899 5.90644 152.948 3.83855 153.003C2.98498 153.026 2.12886 153.046 1.26767 153.049C0.566518 153.049 -0.00253193 153.697 8.47283e-06 154.499C8.47283e-06 155.295 0.569058 155.943 1.27021 155.943H1.27275C2.15173 155.94 3.02308 155.92 3.89444 155.897C5.98011 155.842 7.94892 155.795 9.95329 156.018C10.9186 156.122 12.9865 156.319 15.0595 156.319C15.781 156.319 16.5024 156.299 17.1782 156.235C17.8768 156.174 18.4001 155.477 18.3468 154.681C18.2909 153.885 17.6558 153.243 16.98 153.353Z" fill="#334580"/>
<path fill-rule="evenodd" clip-rule="evenodd" d="M130.692 73.9574H130.726C131.504 73.9504 132.132 73.4163 132.124 72.7641C132.115 72.1143 131.481 71.5945 130.709 71.5945H130.692C130.562 71.5945 130.177 71.448 129.829 71.0864C129.49 70.7367 129.433 70.4484 129.45 70.3823C129.617 69.7584 129.164 69.1063 128.42 68.9503C127.679 68.8014 126.929 69.1322 126.725 69.749C126.437 70.6067 126.74 71.6039 127.549 72.4829C128.395 73.4092 129.572 73.9574 130.692 73.9574Z" fill="#334580"/>
<path fill-rule="evenodd" clip-rule="evenodd" d="M135.345 70.5957C135.386 70.5957 135.425 70.5957 135.463 70.5934C136.422 70.5528 137.196 70.0656 137.537 69.2871C137.81 68.671 137.455 67.9808 136.741 67.7444C136.149 67.5462 135.499 67.7301 135.141 68.1576C134.979 68.0907 134.794 67.9784 134.731 67.8925C134.389 67.3026 133.563 67.0686 132.889 67.3576C132.208 67.6489 131.93 68.3629 132.266 68.9552C132.789 69.8769 134.15 70.5957 135.345 70.5957Z" fill="#334580"/>
</svg>
