<svg xmlns="http://www.w3.org/2000/svg" xmlns:xlink="http://www.w3.org/1999/xlink" width="127" height="112"><defs><path id="a" d="M0 .65h125.29v95.977H0z"/><path id="c" d="M.06.727h65.393v75.805H.06z"/></defs><g fill="none" fill-rule="evenodd"><path fill="#C5E5E7" d="M74.448 88.416v-.094c0-.899-.735-1.577-1.642-1.577-.906 0-1.642.776-1.642 1.671 0 .896.736 1.623 1.642 1.623.907 0 1.642-.727 1.642-1.623m-7.551-1.021c-.802-.418-1.833-.01-2.25.794l1.452.767 1.537.6-1.442-.79 1.468.737c.404-.807.036-1.696-.765-2.108m-8.871 1.021c0 .896.736 1.623 1.642 1.623.907 0 1.642-.727 1.642-1.623v-.09c0-.9-.735-1.58-1.642-1.58-.906 0-1.642.775-1.642 1.67m5.474-4.392v-.094c0-.899-.736-1.577-1.642-1.577-.907 0-1.642.776-1.642 1.671 0 .896.735 1.623 1.642 1.623.906 0 1.642-.727 1.642-1.623m-7.045 1.623c.894 0 1.57-.738 1.57-1.647 0-.91-.767-1.647-1.664-1.647-.894 0-1.62.738-1.62 1.647 0 .91.726 1.647 1.62 1.647h.094z"/><path fill="#F2D038" d="M95.255 39.524l-5.094-1.662a.555.555 0 01-.358-.702.557.557 0 01.358-.359l5.094-1.659 1.654-5.109a.557.557 0 011.061 0l1.658 5.11 5.09 1.658a.563.563 0 01.358.706.56.56 0 01-.357.355l-5.091 1.662-1.658 5.11a.558.558 0 01-1.06 0l-1.655-5.11zm14.467 9.649l-3.274-1.068a.36.36 0 01-.232-.454.358.358 0 01.232-.227l3.274-1.067 1.064-3.286a.358.358 0 01.68 0l1.064 3.286 3.276 1.067c.19.062.29.264.226.451a.34.34 0 01-.226.23l-3.276 1.068-1.065 3.282a.356.356 0 01-.679 0l-1.064-3.282z"/><path fill="#C5E5E7" d="M27.845 103.216a1.58 1.58 0 01-1.568-1.533c-.037-.883.638-1.628 1.502-1.667 6.162-.262 11.91-1.65 17.996-3.122 3.6-.867 7.321-1.766 11.112-2.403 1.985-.333 4.002-.857 6.131-1.417 3.951-1.03 8.037-2.083 12.114-1.92.87.042 1.54.79 1.505 1.67-.041.88-.792 1.52-1.64 1.53-3.646-.18-7.472.847-11.2 1.82-2.101.55-4.278 1.116-6.398 1.475-3.684.617-7.352 1.5-10.898 2.36-5.961 1.44-12.127 2.928-18.59 3.207h-.066zM84.1 49.1c-.18-.329-.645-1.538-1.339-3.858-.725-2.453-1.293-5.04-1.84-7.54-.584-2.669-1.187-5.432-2-8.116a1.568 1.568 0 00-.374-.618c-.061-.316-.103-.636-.164-.952-.268-1.327-.71-2.71-1.177-4.172-.558-1.745-1.097-3.514-1.339-5.15a1.5 1.5 0 00.19-.744 1.46 1.46 0 00-.154-.602c.455-.424.638-1.07.416-1.671a1.565 1.565 0 00-.855-.886 1.572 1.572 0 00-1.044-1.906c-.639-.203-2.38-1.864-3.054-2.915-.413-.633-1.19-.852-1.877-.62a11.948 11.948 0 00-1.686-1.682 1.621 1.621 0 00-1.096-.341A1.597 1.597 0 0065.114 5.8h-.007c-.277 0-.522.085-.751.206-.023-.07-.052-.13-.074-.206-.252-.836-.829-2.545-1.69-2.295-.851.244-1.103.465-.851 1.304.819 2.732 2.006 5.558 3.627 8.642l.181.341c.326.611.664 1.241.78 1.757.087.396.326.716.636.937-.1.032-.21.05-.307.083-1.467.48-2.673.832-4.046.832h-.02l-.045-.085c-.493-.931-.919-1.735-1.177-2.79-.229-.955-.351-1.917-.477-2.88-.1-.763-.2-1.525-.342-2.288-.17-.896-.458-1.789-.751-2.678-.348-1.064-.677-2.067-.742-3.014-.064-.87-.841-1.516-1.722-1.468-.886.06-1.557.816-1.496 1.687.094 1.332.5 2.567.89 3.763.252.76.503 1.52.648 2.286.132.703.223 1.408.316 2.114.139 1.073.284 2.146.542 3.213.345 1.434.906 2.491 1.45 3.517l.446.851c.242.488.725.817 1.274.874.267.029.522.032.777.041.29.412.751.7 1.302.7 2.928 0 5.672-.532 8.333-1.086.228 1.307.6 2.675.96 3.976.274 1.003.532 1.905.632 2.554.307 1.985.503 4.001.703 6.018.274 2.808.555 5.707 1.139 8.524.1.49.212 1.241.348 2.118.67 4.428 1.248 7.657 2.563 8.907.32.298.73.45 1.135.45a1.59 1.59 0 001.155-.481c.035-.032.045-.076.077-.111.21.095.435.168.67.168.285 0 .572-.07.83-.225.264-.155.438-.383.57-.633.032 0 .058.022.09.022.265 0 .533-.063.778-.196a1.564 1.564 0 00.632-2.15zm19.489 47.527h-.173c-.881 0-1.597-.737-1.597-1.647 0-.909.716-1.647 1.597-1.647.885 0 1.687.738 1.687 1.647 0 .91-.632 1.647-1.514 1.647M97.99 57.32c-1.447-1.19-2.78-1.992-4.074-2.442-1.125-.393-3.527-.849-5.397-.267a1.648 1.648 0 00-1.841-.243c-3.381 1.74-7.668 2.982-9.545 1.26a1.663 1.663 0 00-2.248.03 1.479 1.479 0 00-.306.453c-.563.186-1.094.501-1.596.861-.188.135-.37.267-.528.363-.78.474-1.555.741-2.751.954-.032.006-.06.006-.096.012.233-.26.487-.51.65-.795.553-.978.594-2.022.114-2.943-.385-.744-1.365-.948-2.157-.582-.788.363-1.15 1.371-.766 2.115-.369.66-1.463 1.311-2.2 1.617a1.63 1.63 0 00-2.03-.429c-.767.405-1.04 1.32-.61 2.043.842 1.425 2.582 2.163 5.012 2.163.814 0 1.704-.084 2.665-.252 1.129-.2 2.471-.519 3.89-1.38.222-.135.473-.315.731-.498.223-.159.592-.423.528-.438a1.6 1.6 0 00.728-.285c1.082.57 2.287.81 3.534.81 2.986 0 6.084-1.272 7.957-2.187.048.04.111.036.16.07a1.55 1.55 0 001.513 1.184c1.26.01 2.07.165 2.986.582.22.1.452.147.687.147a1.59 1.59 0 001.352-.768c.19.12.375.22.573.36.162.61.722 1.08 1.418 1.131a3.645 3.645 0 00.887-.039c.601-.105 1.088-.525 1.247-1.077a1.448 1.448 0 00-.487-1.53"/><g transform="translate(0 15.373)"><mask id="b" fill="#fff"><use xlink:href="#a"/></mask><path fill="#C5E5E7" d="M98.451 57.263c1.133-.054 2.273-.11 3.425-.11.157 0 .296-.048.44-.09 0 .013-.006.026-.006.042.025.377-.078.504-.189.609-.541.489-1.954.707-3.745.644a1.6 1.6 0 00.075-1.095m26.22 12.862c-.576-.44-1.335-.402-1.885.016-.724-.161-1.105.168-3.113 1.926-.91.8-2.153 1.891-2.569 2.167-.544.362-1.133.73-1.74 1.076a1.598 1.598 0 00-.69.04c-3.154.978-9.254.324-11.545.083l-.787-.082c-2.95-.26-5.474-.654-8.19-1.73-2.317-.92-4.045-2.173-6.053-3.629l-1.451-1.04a1.56 1.56 0 00-.69-.254c-2.04-1.542-4.211-2.916-6.673-3.82-.975-.359-1.97-.638-2.962-.917-1.22-.34-2.373-.663-3.48-1.133-.023-.01-.039-.022-.06-.031a3.194 3.194 0 00-.196-1.704c-.705-1.751-2.678-2.392-4.441-2.856a74.56 74.56 0 003.44-.361l1.042-.13c3.69-.448 7.174-.87 10.84-.88 2.081-.028 4.46.093 7.294.309-.775.65-1.555 1.208-2.578 1.624-.28.117-.485.314-.655.543-.27-.042-.523-.096-.693-.184a1.564 1.564 0 00-2.124.666 1.584 1.584 0 00.66 2.138c.85.454 1.896.619 2.963.619 1.627 0 3.302-.38 4.41-.695a18.649 18.649 0 002.03-.742c1.152.206 2.647.412 4.174.412 2.001 0 4.022-.349 5.272-1.482a3.703 3.703 0 001.06-1.634 45.02 45.02 0 011.143-.028c.891-.016 1.788-.032 2.657-.165a1.581 1.581 0 001.325-1.802 1.575 1.575 0 00-1.788-1.336c-.736.108-1.492.118-2.244.13-.929.016-1.851.038-2.742.181-.072.013-.132.054-.198.07a1.484 1.484 0 00-.17-.631h.129a.653.653 0 00.079.003h.362c.868 0 1.573-.708 1.573-1.587a1.58 1.58 0 00-1.573-1.586l-1.757-.006c-3.176-.035-6.446-.032-9.594.482-1.769.06-3.512.136-5.13.228-7.274.41-15.222.372-25.02-.13a1.332 1.332 0 00-.769.146c-.875-.628-1.93-1.339-3.157-1.558a1.574 1.574 0 00-1.826 1.289 1.587 1.587 0 001.275 1.837c.63.11 1.407.672 2.093 1.164.152.108.29.2.435.301-.255.686-.047 1.472.588 1.888.605.393 1.354.65 2.2.81-.144.58.038 1.217.53 1.62.733.597 1.41 1.215 2.074 1.825.078.073.157.142.236.212-.435-.285-.863-.574-1.303-.86-.24-.155-.513-.307-.756-.463-.097-.454-.371-.866-.815-1.088-.346-.175-.683-.362-1.026-.54-.173-.2-.305-.418-.513-.605-.378-.346-.866-.445-1.332-.362-1.12-.625-2.231-1.304-3.327-2.116-.425-.314-.938-.359-1.397-.213-.022-.01-.038-.022-.057-.032-.453-.244-1.064-.504-1.744-.793-1.319-.555-4.063-1.71-4.05-2.684a1.579 1.579 0 00-1.552-1.605h-.023a1.58 1.58 0 00-1.573 1.567c-.038 3.113 3.443 4.581 5.986 5.65.57.242 1.086.458 1.467.66a136.73 136.73 0 016.56 3.782c.104.184.205.35.312.546.664 1.25 1.422 2.665 2.961 3.801 1.159.853 2.27 1.58 3.51 2.211a1.526 1.526 0 00-.242.794 1.58 1.58 0 001.574 1.586h.09c.712 0 1.263-.486 1.442-1.14.743.3 1.48.594 2.26.93 2.345 1.016 4.77 2.044 7.117 2.491.636.301 1.266.606 1.889.914-.025.006-.057.01-.088.016a60.05 60.05 0 01-3.592.558 1.531 1.531 0 00-1.492-1.133c-.806 0-1.441.654-1.536 1.447-.932.092-1.863.2-2.782.324a1.534 1.534 0 00-1.492-1.133c-.847 0-1.527.723-1.562 1.57a142 142 0 00-3.934.673c-.183-.653-.768-1.098-1.492-1.098-.872 0-1.574.8-1.574 1.679 0 .006.003.012.003.022a48.23 48.23 0 00-1.092.225c-.658.14-1.331.25-1.999.378a1.525 1.525 0 00-1.514-1.25c-.868 0-1.574.755-1.574 1.63 0 .06.026.105.032.162-.954.156-1.914.311-2.855.454-3.853.6-7.831 1.212-11.684 2.29-2.304.642-4.762.968-7.369 1.31-4.243.56-8.63 1.14-12.445 3.209-.564.307-.863.91-.819 1.513-.45-2.573-1.038-5.118-1.633-7.608-.608-2.541-1.237-5.165-1.665-7.722a676.865 676.865 0 01-1.04-6.473c-1.022-6.491-2.092-13.135-3.72-19.632-.122-3.062-.768-6.066-1.425-8.979-.28-1.234-.558-2.465-.79-3.693-.492-2.58-.907-5.162-1.326-7.748-.447-2.788-.897-5.58-1.438-8.363-.312-1.602-.774-3.283-1.253-4.99-.894-3.224-1.822-6.555-1.68-9.55a1.583 1.583 0 00-1.5-1.66c-.818-.079-1.508.568-1.615 1.377a1.542 1.542 0 00-.765.635c-.46.286-.774.78-.762 1.364.114 5.045.873 9.985 1.61 14.763.537 3.506 1.098 7.135 1.38 10.736.398 4.968 1.67 9.743 2.9 14.356l.724 2.748c1.397 5.39 2.663 11.27 3.868 17.973.177.98.324 1.964.476 2.941.302 1.97.61 4.01 1.136 6.025.17.647.39 1.317.592 1.977.377 2.398.752 4.79 1.202 7.183l.283 1.618c.913 5.371 1.892 10.327 3.828 11.92a1.572 1.572 0 002.213-.226c.107-.133.17-.285.23-.438 5.41-.158 10.871-1.338 16.162-2.525 4.017-.901 8.172-1.834 12.179-2.259 5.165-.549 10.267-1.545 15.203-2.513 1.81-.352 3.626-.707 5.458-1.044.853-.158 1.876-.215 2.946-.285 3.003-.187 6.408-.406 8.237-2.516.882-1.022 1.275-2.332 1.162-3.9-.063-.878-.885-1.532-1.684-1.468-.318.025-.586.162-.822.34a1.594 1.594 0 00-.812-.023c-.869.241-1.763.403-2.66.568-1.145.21-2.329.425-3.503.79a1.579 1.579 0 00-.91.752 1.674 1.674 0 00-.648.038c-3.765 1.07-7.822 1.726-11.744 2.36-3.314.537-6.742 1.092-10.047 1.898-3.4.83-6.966 1.46-10.416 2.065l-3.556.638c-1.033.187-2.207.44-3.444.707-3.393.733-7.617 1.64-10.21 1.396-.083-.006-.152.02-.23.026a49.62 49.62 0 00-.479-3.487c.025.184.072.371.167.546a1.57 1.57 0 002.13.644c.07-.038.146-.06.215-.092a1.558 1.558 0 001.158 1.281c.28.064.58.099.897.099 1.266 0 2.868-.489 4.873-1.149a28.87 28.87 0 011.227-.39c2.594-.765 5.238-.964 8.033-1.177 2.096-.162 4.265-.33 6.421-.752 2.638-.517 5.244-1.164 7.85-1.812 2.427-.606 4.85-1.212 7.297-1.7 2.53-.508 5.074-1.155 7.63-1.809 5.007-1.281 10.185-2.607 15.278-2.772.098 0 .192 0 .29-.007.73-.032 1.293-.57 1.441-1.263.28-.038.567-.057.853-.082.117.029.224.098.34.098.268 0 .532-.07.768-.203.02 0 .038-.006.06-.006.768-.029 1.294-.622 1.391-1.367 2.717 2.331 5.612 4.394 10.23 4.736.762.057 1.51.073 2.257.076.252.708.96 1.18 1.706 1.044 2.512-.4 5.348 2.608 6.018 4.86.104.334.309.61.567.807.006.095.044.193.044.292a1.58 1.58 0 001.574 1.564h.022a1.581 1.581 0 001.551-1.609c-.009-.752-.138-1.475-.324-2.18 2.229-1.072 4.498-2.734 6.277-4.692.742-.818 1.397-1.853 2.027-2.852.296-.463.591-.927.894-1.361a32.243 32.243 0 003.182-3.588 1.596 1.596 0 00-.296-2.225" mask="url(#b)"/></g><path fill="#28BBB4" d="M64.1 34.04h-.023a72.66 72.66 0 00-21.773 3.644l-.783.259c-2.048.69-4.004 1.324-5.922 1.271-.623-.025-1.243-.119-1.86-.21-.763-.112-1.524-.221-2.296-.243-3.792-.103-7.14 1.808-9.847 3.345a1.547 1.547 0 00-.579 2.136c.296.5.827.778 1.377.778.27 0 .544-.066.795-.21 2.481-1.411 5.318-3.06 8.161-2.926.643.019 1.279.116 1.918.21.735.109 1.473.212 2.214.24 2.519.097 4.83-.684 7.07-1.437l.763-.253a69.475 69.475 0 0120.807-3.482c.877-.012 1.58-.721 1.568-1.583-.013-.856-.722-1.54-1.59-1.54M34.51 56.966c1.804-.112 3.67-.227 5.47-1.004.462-.199.905-.442 1.35-.682l.628-.336c1.828-.93 10.906-2.763 14.77-3.454.855-.153 1.425-.985 1.274-1.855-.151-.87-.963-1.455-1.822-1.295-.13.022-12.809 2.31-15.631 3.745l-.711.378c-.356.195-.715.393-1.086.553-1.302.563-2.825.659-4.433.758-.488.029-.972.06-1.454.102a27.403 27.403 0 00-8.942 2.357 1.615 1.615 0 00-.796 2.114c.265.592.837.947 1.438.947.214 0 .435-.045.642-.14a24.237 24.237 0 017.929-2.092 64.68 64.68 0 011.375-.096m8.336 12.313a22.422 22.422 0 01-8.19 1.623h-.645c-.888.003-1.807-.013-2.761.174-1.58.309-2.864 1.106-3.618 2.253-.468.707-.294 1.679.39 2.165.259.183.556.27.847.27.478 0 .949-.236 1.24-.678.297-.449.916-.798 1.693-.947.672-.131 1.408-.128 2.194-.122h.685a25.403 25.403 0 009.245-1.829c.775-.311 1.159-1.215.859-2.018a1.487 1.487 0 00-1.94-.891m16.165-.347c-.01-.236-.016-.502-.02-.691-.003-.397-.012-.747-.041-.945-.12-.852-.108-1.744-.095-2.689.01-.669-.02-1.338-.055-2.004.296-.117.636-.278 1.006-.449.35-.16.942-.424 1.49-.626a238.08 238.08 0 00-.084 4.916c-.007 1.134-.04 2.203-.059 3.293-.34-.127-.685-.257-.99-.369a67.845 67.845 0 01-1.152-.436m-3.401-4.365v.19c-.35-.029-.71-.05-1.071-.072.357-.183.707-.356 1.061-.536-.003.14.013.279.01.418m7.432-6.36c-.058 0-.11.026-.165.032-1.5-.23-3.152.508-4.495 1.13-.312.146-.6.282-.848.381-.882.357-2.937 1.397-5.115 2.503-1.73.874-3.456 1.747-4.417 2.187-.435.195-.756.57-.876 1.016a1.51 1.51 0 00.263 1.295c.324.424.522.681 7.575 3.866l.539.241c1.266.576 2.285.954 3.489 1.397.86.316 1.82.672 3.047 1.165l.059.025c.078.03.159.028.233.046.114.025.215.071.335.078h.068c.289 0 .548-.093.788-.223.056-.031.104-.062.156-.096.227-.161.422-.363.536-.61.003-.007.01-.01.013-.016.032-.074.029-.155.052-.236.026-.102.071-.195.074-.303v-.065c.075-1.806.091-3.646.104-5.554.016-2.116.03-4.315.137-6.641.035-.855-.656-1.577-1.552-1.617m9.957-44.558c-2.45.854-5.863 1.867-8.742 1.95-.998-3.052-1.738-6.783-2.425-10.527a283.916 283.916 0 016.057 4.634A351.942 351.942 0 0073 13.65M58.049 1.792v.006l.32 1.775c.853 4.708 1.732 9.578 3.071 13.465.088.257.295.866.897 1.258.533.352 1.101.365 1.34.368.09.003.178.003.27.003 4.271 0 9.347-1.785 12.819-3.138.022-.009.034-.027.056-.037.066-.03.123-.076.182-.116.138-.086.26-.177.364-.294.019-.024.053-.033.075-.06.038-.05.047-.108.076-.16a1.312 1.312 0 00.197-.566c.013-.092.02-.18.016-.276a1.577 1.577 0 00-.063-.321c-.015-.052-.01-.107-.031-.16-.013-.033-.04-.058-.057-.088a1.573 1.573 0 00-.182-.27 1.473 1.473 0 00-.197-.217c-.032-.024-.047-.061-.082-.086-2.5-1.815-4.887-3.688-7.264-5.555-2.986-2.345-6.073-4.769-9.338-7.028a1.601 1.601 0 00-1.195-.272h-.006c-.038.006-.063.03-.1.04-.16.04-.32.088-.462.177a1.622 1.622 0 00-.364.334c-.022.027-.056.042-.078.07v.003a1.55 1.55 0 00-.251.551 1.515 1.515 0 00-.013.594"/><path fill="#334580" d="M52.581 19.86c-1.94.708-4.052.884-6.29 1.07-2.081.178-4.233.354-6.333.99-1.142.344-2.235.814-3.329 1.29l-1.209.513c-5.21 2.147-10.967 3.002-16.53 3.828a1.605 1.605 0 00.234 3.194c.08 0 .158-.006.238-.016 5.757-.855 11.71-1.739 17.283-4.033l1.264-.54c.978-.424 1.956-.855 2.978-1.16 1.776-.537 3.667-.694 5.67-.861 2.351-.196 4.783-.399 7.127-1.257a1.602 1.602 0 00.959-2.06 1.614 1.614 0 00-2.062-.957"/><g transform="translate(61.31 12.078)"><mask id="d" fill="#fff"><use xlink:href="#c"/></mask><path fill="#334580" d="M64.904 73.735c-1.014-.874-2.38-1.599-3.703-2.295-1.438-.76-2.927-1.544-3.63-2.37-6.544-7.66-8.28-12.37-9.427-15.488-.396-1.074-.732-1.97-1.14-2.736-.343-.639-.795-1.646-1.316-2.8-1.992-4.386-3.647-7.85-5.312-9.226-.025-.022-.06-.029-.088-.048-.028-.022-.044-.054-.072-.07-2.531-1.595-5.673-1.131-8.201-.756-.883.13-1.7.235-2.262.235-1.448-.048-2.908-.057-4.366-.067-.402-.003-.813-.016-1.221-.019-.594-3.315-.977-5.498-1.316-7.418-1.304-7.455-4.263-21.773-6.465-28.841A1.57 1.57 0 0014.415.8a1.59 1.59 0 00-1.023 1.992c2.158 6.932 5.076 21.068 6.367 28.438.314 1.796.675 3.846 1.206 6.808a54.601 54.601 0 01-4.011-.267c-.697-.08-1.57-.181-2.478-.064-1.075.137-2.06.563-2.78.871-1.875.81-3.983 2.581-6.021 4.29-1.615 1.352-3.28 2.75-4.536 3.398-.311.162-.521.423-.666.718a1.595 1.595 0 00-.31 1.625c.907 2.38 3.382 3.664 7.013 3.664.248 0 .502-.006.763-.02 2.227-.104 4.253-.867 6.21-1.607l1.486-.556c.062.003.25.057.452.117 2.506.725 9.765.563 12.8-4.208.474-.734.26-1.72-.468-2.193a1.56 1.56 0 00-2.17.474c-1.983 3.105-7.417 3.426-9.364 2.85-.358-.104-.855-.27-1.467-.212-.405.035-.741.15-1.024.25l-1.344.5c-1.813.686-3.521 1.331-5.258 1.414-1.153.041-2.928-.013-3.974-.734 1.216-.817 2.513-1.9 3.86-3.032 1.866-1.567 3.795-3.185 5.25-3.814.737-.318 1.35-.569 1.934-.642.506-.063 1.04-.013 1.746.07 2.89.321 5.87.343 8.757.362 1.43.01 2.862.02 4.288.064.851.032 1.793-.118 2.817-.264 1.982-.295 4.442-.651 6 .274 1.24 1.134 3.188 5.415 4.363 8.005.556 1.23 1.042 2.301 1.404 2.978.345.655.625 1.427.964 2.346 1.228 3.33 3.081 8.361 9.991 16.456 1.1 1.28 2.856 2.212 4.558 3.108 1.165.614 2.372 1.253 3.113 1.891.295.258.66.382 1.02.382.44 0 .883-.191 1.194-.556a1.603 1.603 0 00-.173-2.241" mask="url(#d)"/></g><path fill="#334580" d="M112.585 100.444c-4.806-3.667-7.45-5.686-12.301-7.673-.98-.403-1.994-.717-3.011-1.029-.787-.239-1.577-.474-2.342-.767-2.43-.928-4.66-2.145-6.628-3.62-5.618-4.21-11.296-6.748-15.856-8.786-3.548-1.584-6.663-2.987-7.911-4.474 2.439-1.516 6.698-1.878 9.535-1.18l1.056.24c.941.204 1.832.392 2.559.77.25.126.562.32.92.538 1.582.962 4.057 2.465 6.644 2.465a6.08 6.08 0 001.53-.189c1.658-.43 3.02-1.556 4.04-3.352a1.571 1.571 0 00-.596-2.145 1.59 1.59 0 00-2.155.595c-.588 1.04-1.27 1.65-2.083 1.858-1.826.478-4.268-1.028-5.731-1.915-.436-.264-.812-.49-1.116-.648-1.102-.569-2.243-.814-3.346-1.05l-.963-.22c-3.517-.859-9.909-.607-13.3 2.607a.989.989 0 00-.066.053c-.025.022-.053.038-.079.063-.053.054-.079.126-.123.183-.066.09-.133.17-.177.27-.044.091-.063.189-.088.286a1.49 1.49 0 00-.057.293c-.007.11.016.213.031.324.013.075 0 .144.023.216.009.029.028.054.037.082.013.035.029.066.042.1 1.077 3.06 4.86 4.768 10.079 7.098 4.417 1.975 9.915 4.434 15.252 8.431.413.308.887.557 1.323.846-.398.072-.777.142-1.184.214-1.444.248-2.945.51-4.373.808-3.075.651-5.691 1.223-8.035 1.733-6.75 1.472-11.208 2.446-17.666 3.365-7.296 1.034-14.519 2.377-21.505 3.679-1.58.296-3.074.654-4.6 1.022-2.335.563-4.775 1.132-7.72 1.516a65.142 65.142 0 01-.663-3.079c-.177-.884-.338-1.698-.49-2.311-.404-1.676-.755-3.38-1.102-5.076-.335-1.626-.667-3.242-1.046-4.827-.266-1.11-.787-3.78-1.371-6.758-.841-4.276-1.795-9.122-2.313-11.085-1.35-5.11-6.945-38.277-9.634-54.22l-.455-2.708c7.008-1.32 13.28-2.408 19.489-3.478C35.185 7.764 45.657 5.96 59.164 3.11a1.573 1.573 0 001.22-1.865A1.586 1.586 0 0058.51.031c-13.454 2.84-23.893 4.639-33.992 6.38-6.676 1.152-13.397 2.312-21.062 3.771-.101.02-.183.076-.275.114-.098.037-.202.06-.29.116-.083.053-.136.132-.206.198-.079.072-.164.135-.227.223-.054.076-.076.167-.114.252-.048.097-.104.192-.13.299-.022.097-.006.2-.01.305-.002.1-.025.195-.009.298l.714 4.23c2.699 15.984 8.307 49.252 9.694 54.497.493 1.868 1.435 6.66 2.266 10.89.597 3.032 1.13 5.749 1.4 6.877.372 1.557.695 3.142 1.023 4.733.357 1.736.714 3.475 1.131 5.189.14.572.294 1.346.458 2.176.345 1.752.74 3.73 1.204 4.925.24.625.838 1.006 1.473 1.006.19 0 .382-.035.568-.104.086-.035.149-.1.225-.145 3.444-.399 6.152-1.04 8.755-1.67 1.476-.355 2.913-.7 4.44-.987 6.954-1.292 14.142-2.632 21.372-3.657 6.572-.937 11.077-1.922 17.896-3.406 2.335-.51 4.945-1.078 8.013-1.726 1.387-.296 2.85-.547 4.256-.79 1.798-.31 3.504-.61 4.897-.955.607.28 1.185.6 1.823.842.835.318 1.69.579 2.544.837.923.283 1.845.56 2.736.924 4.462 1.834 6.841 3.651 11.58 7.268l.66.5a1.576 1.576 0 002.212-.292 1.562 1.562 0 00-.293-2.202l-.657-.503z"/><path fill="#28BBB4" d="M96.65 67.827c.064-1.341.045-2.68.023-4.018-.013-.794.003-1.592.01-2.386.324.003.642.003.97.007l3.59.022.01.32c.056 2.22.116 4.448.128 6.657.003.352.029.753.057 1.172.022.372.057.926.047 1.387-1.124.105-2.926.172-4.913.217-.012-.672 0-1.694.079-3.378m15.678-5.325c-.337-1.06-1.018-2.51-3.046-2.881-.778-.141-3.272-.1-4.985-.004-.114-.602-.523-1.056-1.131-1.207a1.494 1.494 0 00-.642-.15l-4.847-.032c-4.151-.032-8.079-.061-11.07.025a1.59 1.59 0 00-1.534 1.643c.025.87.727 1.56 1.574 1.56h.045c1.946-.058 4.305-.062 6.84-.052-.006.82-.022 1.636-.01 2.453.02 1.274.042 2.549-.021 3.91-.06 1.2-.098 2.449-.073 3.486-1.105.013-2.186.02-3.143.02-2.138.012-2.98.06-3.7.118-.785.064-1.405.115-3.767.016-1.67-.067-3.666-.064-5.742-.006-.869.022-1.555.759-1.533 1.642.025.88.812 1.656 1.615 1.56 2.003-.055 3.928-.064 5.53.006a55.46 55.46 0 002.278.058c.869 0 1.35-.042 1.87-.084.671-.054 1.427-.102 3.44-.108.422-.004 10.632.035 12.871-.49.126-.03.224-.096.33-.15.058-.03.111-.046.168-.078.217-.144.393-.336.516-.566.01-.016.029-.023.035-.039.075-.147.11-.31.16-.461.18.006.34.032.53.032.617 0 1.303-.051 2.062-.122l.498-.038c1.235-.096 4.516-.346 5.067-3.657.148-.89.574-3.983-.185-6.404"/></g></svg>