<svg xmlns="http://www.w3.org/2000/svg" xmlns:xlink="http://www.w3.org/1999/xlink" width="97" height="93"><defs><path id="a" d="M.327.18h88.307V93H.327z"/></defs><g fill="none" fill-rule="evenodd"><path fill="#E3DFD8" d="M23.963 73a.76.76 0 01-.755-.762c0-.627-.049-1.317-.097-2.029-.133-1.918-.284-4.091.443-5.755a.756.756 0 01.995-.39c.381.17.555.62.387 1.005-.576 1.319-.446 3.207-.319 5.035.052.749.102 1.473.102 2.134a.76.76 0 01-.756.762m7.3-43a.721.721 0 01-.491-.195c-1.685-1.58-3.115-3.797-3.735-5.789-.127-.408.084-.845.472-.978a.73.73 0 01.928.496c.537 1.72 1.838 3.727 3.317 5.111.303.287.33.775.06 1.096a.727.727 0 01-.551.259"/><path fill="#7FC689" d="M59.378 77.859c-.027-.003-.05-.017-.077-.017h-.044a.723.723 0 00-.723.737c0 .408.355.737.767.737.028 0 .05-.013.077-.015v1.173c-.055-.012-.107-.031-.165-.031a.759.759 0 00-.746.759.74.74 0 00.746.737c.058 0 .11-.021.165-.034v.913a.821.821 0 00-.242-.016c-.216.032-.487.199-.602.382-.118.182-.148.527-.084.732a.746.746 0 00.928.485v.927a.778.778 0 00-.383-.108c-.412 0-.746.371-.746.778a.74.74 0 00.746.737.73.73 0 00.383-.12v1.076c-.052-.034-.097-.077-.16-.096a.746.746 0 00-.935.485c-.064.205-.034.548.082.73.117.184.39.352.606.383a.729.729 0 00.407-.06v1.03a.718.718 0 00-.409-.349.746.746 0 00-.935.484c-.06.187-.028.479.066.669h-.76c.004-.037.011-.074.008-.112a.724.724 0 00-.173-.513.75.75 0 00-1.05-.094.864.864 0 00-.28.719h-.8c-.011-.397-.337-.693-.74-.693-.39 0-.699.315-.735.693h-.613l-.008-12.11a10.55 10.55 0 01-.14-1.376h6.57v.378zM62 75.407a.742.742 0 00-.746-.737h-.522a.734.734 0 00-.608-.336.734.734 0 00-.609.336h-6.574a.728.728 0 00-.637-.665.753.753 0 00-.83.641l-.003.024h-.04a.744.744 0 00-.685-.448.742.742 0 00-.746.737v16.547c0 .407.334.737.746.737.018 0 .031-.01.047-.01a.75.75 0 00.518.207h.194a.73.73 0 001.418 0h6.59a.736.736 0 00.61.338.736.736 0 00.636-.373.73.73 0 00.562-.702.733.733 0 00-.451-.675V77.47a.733.733 0 00.689-.725.721.721 0 00-.34-.602h.035c.412 0 .746-.33.746-.736zM58.47 74c.197 0 .372-.09.498-.23h.342c.382 0 .69-.327.69-.73 0-.405-.308-.731-.69-.731h-.15V65.73c0-.405-.31-.731-.69-.731-.38 0-.69.326-.69.73v1.89l-.012-.003h-.038c-.38 0-.67.326-.67.73 0 .404.327.731.708.731l.012-.003v.626c-.054-.013-.103-.032-.161-.032-.382 0-.69.365-.69.769 0 .405.308.73.69.73.058 0 .107-.018.161-.033v1.174h-.327a.81.81 0 00.055-.291.727.727 0 00-.709-.731c-.38 0-.69.326-.69.73 0 .105.022.201.058.292h-.374c.003-.015.01-.028.011-.043.043-.4-.23-.763-.608-.807a.79.79 0 00-.63.226c-.14.147-.218.409-.209.624h-.652c.001-.02.01-.037.01-.056 0-.405-.32-.73-.7-.73-.381 0-.69.325-.69.73 0 .02.01.035.011.056h-1.851v-6.467c0-.403-.31-.73-.69-.73-.381 0-.69.327-.69.73v6.666c0 .046.016.086.023.128a.743.743 0 00-.128.404c0 .403.309.73.69.73h8.282c.125.14.3.23.498.23"/><path fill="#7FC689" d="M57.149 82.147a.539.539 0 00-.147.41.485.485 0 00.847.28.486.486 0 00-.292-.835.542.542 0 00-.408.145m.323 2.851l.043.002c.249 0 .462-.19.483-.444a.54.54 0 00-.146-.41.552.552 0 00-.41-.145.485.485 0 00-.291.836c.08.09.192.15.321.161m.076 2.006a.49.49 0 00-.544.42.543.543 0 00.136.42.543.543 0 00.416.154.485.485 0 00.294-.835.493.493 0 00-.302-.16m-2.158 1.014a.527.527 0 00-.39.483.526.526 0 00.514.5.485.485 0 00.486-.5.484.484 0 00-.61-.483M55.508 86a.496.496 0 00.492-.5c0-.276-.22-.5-.492-.5h-.03a.484.484 0 00-.478.5c0 .276.236.5.508.5m1.992-6c.276 0 .5-.218.5-.486v-.058c0-.268-.224-.456-.5-.456s-.5.246-.5.514.224.486.5.486m-.993-10a.497.497 0 00.493-.5c0-.276-.22-.5-.493-.5h-.026a.486.486 0 00-.481.5c0 .276.235.5.507.5m.303-2.302a.5.5 0 00-.225-.671l-.277.42-.17.474a.5.5 0 00.671-.224"/><path fill="#F2D038" d="M74.315 45c-.378 0-.685.331-.685.74v4.822c-.05-.011-.096-.028-.148-.028-.38 0-.685.377-.685.786 0 .408.306.74.685.74.052 0 .099-.022.148-.033v2.844c-.023-.002-.041-.012-.064-.012-.378 0-.685.353-.685.761 0 .41.307.74.685.74.023 0 .04-.012.064-.015v.927c-.007-.001-.014-.005-.02-.007a.69.69 0 00-.595.21.86.86 0 00-.215.633c.03.386.33.676.68.676l.061-.003c.032-.003.059-.02.09-.028v.939c-.05-.012-.097-.03-.149-.03-.38 0-.685.352-.685.76 0 .41.306.74.685.74.052 0 .099-.02.148-.031v.822a.639.639 0 00-.79.046.888.888 0 00-.281.621c0 .05.023.1.034.15H71.37V45.824c0-.41-.307-.74-.685-.74-.38 0-.685.33-.685.74V64.26c0 .408.305.739.685.739.378 0 .685-.331.685-.74v-.011h2.438a.66.66 0 00.507.253c.378 0 .685-.332.685-.74V45.74c0-.408-.307-.739-.685-.739"/><path fill="#F2D038" d="M71 59.507c0 .272.224.493.5.493s.5-.22.5-.493v-.03a.484.484 0 00-.5-.477.51.51 0 00-.5.507M71.492 56a.496.496 0 00-.492.5c0 .276.22.5.492.5h.03a.484.484 0 00.478-.5.51.51 0 00-.508-.5m.507-2.449V53.5a.48.48 0 00-.089-.294.496.496 0 00-.684-.118.528.528 0 00-.21.549c.056.197.25.347.456.362l.038.001c.254 0 .47-.194.489-.449m7.957-11.548c-.14-.822-.592-1.373-1.23-1.543.205-1.07.09-1.998-.372-2.623-.266-.364-.787-.776-1.68-.848.001 0 .003 0 .003-.002a.757.757 0 00.185-1.03c-.556-.842-1.46-1.957-2.928-1.957h-.051c-1.108.02-2.221.635-2.908 1.607a3.633 3.633 0 00-.48 1.004.69.69 0 00-.321-.3c-1.531-.658-3.321-.098-4.072 1.28-.385.71-.53 1.543-.414 2.416.043.315.1.592.17.842-.445-.037-.898.058-1.242.319-.44.328-.573.733-.605 1.013-.06.497.13 1.024.565 1.567.914 1.135 2.103 1.865 3.635 2.234a.72.72 0 00.854-.555c.088-.4-.15-.797-.533-.889-1.22-.291-2.156-.862-2.862-1.74-.247-.305-.247-.441-.22-.43.111-.084.41-.073.517.017a.692.692 0 001.001-.104c.012-.013.013-.03.023-.044.014.001.027.012.043.012a.708.708 0 00.636-.382c.183-.363.076-.79-.273-.98-.077-.088-.22-.48-.298-1.079-.07-.542.014-1.069.244-1.487.447-.825 1.516-.974 2.288-.64a.685.685 0 00.71-.116c-.002.308.023.616.11.92a.718.718 0 00.684.532.63.63 0 00.2-.03.745.745 0 00.482-.92c-.202-.714.105-1.3.307-1.585.42-.595 1.121-.99 1.785-1.001.657.031 1.173.394 1.78 1.314.096.148.242.24.395.284a.737.737 0 00-.35.619.727.727 0 00.708.745c.568.003.727.222.78.293.228.31.254.958.066 1.694a.752.752 0 00.16.667c-.002.041-.015.08-.012.124.04.409.396.72.777.665.145-.012.275-.024.34.372.136.81-.336 1.886-.669 1.975a.741.741 0 00-.512.9.715.715 0 00.865.535c1.238-.33 1.953-2.274 1.719-3.665"/><path fill="#F2D038" d="M69.93 41.576c-.085-.398-.447-.65-.814-.556-.773.192-1.204.85-1.1 1.672C68.15 43.757 69.21 45 70.281 45l.072-.001c.376-.021.664-.369.645-.776-.018-.409-.35-.72-.71-.703-.143-.03-.393-.142-.626-.43-.237-.292-.316-.57-.335-.591 0 0 .023-.02.09-.036.368-.092.596-.488.512-.887m2.732-1.103a.711.711 0 00-.903-.434c-.473.163-.757.538-.758 1.003-.004.818.946 1.676 1.445 1.852.206.074.412.106.61.106.853 0 1.594-.616 1.893-1.36a.7.7 0 00-.396-.917.714.714 0 00-.924.393c-.105.254-.397.567-.684.458-.109-.053-.305-.24-.425-.398a.7.7 0 00.142-.703m3.289 2.573c-.345-.132-.773.028-.902.375-.129.35.007.714.354.843.107.097.241.433.256.613a.676.676 0 00-.068.806.67.67 0 00.924.216c.168-.107.551-.431.476-1.166-.057-.562-.417-1.457-1.04-1.687"/><path fill="#28BBB4" d="M49.303 45h-4.606c-.385 0-.697-.224-.697-.5s.312-.5.697-.5h4.606c.385 0 .697.224.697.5s-.312.5-.697.5"/><path fill="#E3DFD8" d="M28.972 75.292h.271c-.293 1.665-.124 3.59.034 5.33.047.499.091.977.118 1.415l.072 1.08c.096 1.461.197 2.97.218 4.434.014.863.014 2.018-.07 3.104h-.643V75.292zm-2.942-3.477l.003-.221c-.003-.639-.031-1.278-.058-1.92-.048-1.109-.087-2.166-.007-3.208h.2c-.118 1.461-.05 2.923.028 4.343.018.33.034.669.05 1.006h-.216zm20.405-3.83c-.053-.52-.088-1.088.011-1.331.024-.062.028-.125.037-.188h.04c-.07.504-.088 1.013-.088 1.52zM32.039 69.36c.047.818.08 1.636.104 2.456h-.595c-.008-.214-.014-.43-.023-.643a53.806 53.806 0 01-.046-1.657c-.002-.436-.057-.916-.114-1.406-.068-.579-.117-1.152-.08-1.643h.625c.02.963.073 1.927.13 2.893zm1.634-1.502c.106 1.35.188 2.646.224 3.958h-.337a89.444 89.444 0 00-.108-2.541 72.103 72.103 0 01-.125-2.808h.268c-.006.047-.02.091-.017.14l.095 1.25zm2.565-1.35l-.548.044.227-.01.321-.03a.396.396 0 00-.004.018l-.317.012-.916.092-.012-.136c0-.012-.007-.019-.007-.03h1.263l-.007.04zm2.525 2.59c-.014-.2-.025-.399-.04-.596a43.757 43.757 0 01-.13-1.975c0-.022-.01-.04-.014-.06h.094c-.01.85.032 1.745.09 2.63zm1.415-.08l-.016-.266c.045.419.07.842.072 1.24-.018-.322-.034-.638-.056-.975zM38.85 71.42c-.002.13.005.277 0 .396h-.156a.725.725 0 00.156-.396zm.001-.373c0-.238-.005-.484-.017-.737.014.26.013.497.017.737zm2.59-4.21c.09.362.213.844.236.994.105.797.065 1.599.021 2.448a25.278 25.278 0 00-.033 1.537h-.301c.03-.05.08-.084.098-.142.387-1.302.133-3.936-.34-5.207h.23l.088.37zm1.698 2.727c.07.678.116 1.362.1 2.058 0 .07.019.13.035.194h-.194c-.007-.488.007-.974.032-1.46.013-.26.019-.527.027-.792zm-13.263-3.097c-.03.596.013 1.21.084 1.818.05.432.102.856.103 1.24.004.57.027 1.139.048 1.707.009.193.013.389.02.584h-.132c-.458-1.486-.52-3.813-.257-5.349h.134zm1.225 21.061c-.023-1.501-.123-3.031-.223-4.51l-.07-1.077c-.029-.45-.074-.942-.12-1.457-.154-1.668-.308-3.667.03-5.19h14.475c-.4 3.083-.184 6.277.036 9.37.052.75.106 1.497.15 2.235.026.465.008.964-.01 1.472-.027.757-.054 1.536.048 2.285H31.03c.08-1.081.085-2.197.07-3.128zm15.761 3.128c-.126-.678-.106-1.462-.08-2.232.02-.556.04-1.104.01-1.614-.045-.745-.098-1.496-.152-2.253-.22-3.084-.443-6.273-.026-9.264h.513c-.344 1.344-.147 2.94.04 4.36.067.522.134 1.02.167 1.47.117 1.634.174 3.23.218 4.715l.02.679c.042 1.379.08 2.755.084 4.14h-.794zm3.429-16.826H30.526c-.037-.022-.067-.052-.108-.068a.682.682 0 00-.591.068h-1.334a.733.733 0 00.173-.464v-.087h.566c.098.049.2.093.309.093.099 0 .2-.022.296-.068.012-.006.02-.017.03-.025h4.316a.684.684 0 00.453.182.683.683 0 00.453-.182h12.904a.72.72 0 00.708-.732.72.72 0 00-.708-.731h-.266a.728.728 0 00.085-.262c.106-.835.08-1.685.055-2.508-.027-.91-.042-1.774.1-2.579h.638a.72.72 0 00.708-.732.72.72 0 00-.708-.731H25.763a.645.645 0 00-.231.048c-.04-.013-.073-.035-.115-.041-.394-.069-.745.227-.796.626-.178 1.38-.118 2.764-.06 4.102.026.622.053 1.244.056 1.861l-.003.236a.714.714 0 00-.614.711c0 .38.282.678.636.718.017.235.032.474.085.712a.713.713 0 00.689.574.703.703 0 00.154-.017.73.73 0 00.538-.871c-.025-.122-.028-.255-.042-.384h.225c0 .147.007.293.005.438a.829.829 0 00-.005.102v.257c0 .4.31.726.696.731h.012c.062 0 .12-.02.18-.036a.712.712 0 00.383.46v15.425h-.25a.72.72 0 00-.707.732.72.72 0 00.708.732h2.188a.712.712 0 00.684.55.709.709 0 00.677-.55H48.62c0 .05-.004.098-.004.15a.72.72 0 00.708.731.72.72 0 00.708-.732c0-.177.011-.354.012-.531a.72.72 0 00.1-.35.75.75 0 00-.083-.326c.012-.418.015-.836.03-1.253.038-1.067.077-2.17.051-3.27l-.032-1.247a160.39 160.39 0 01-.073-3.697c-.004-.95-.111-1.894-.215-2.81-.137-1.21-.255-2.362-.161-3.492h.63c.39 0 .709-.328.709-.731a.722.722 0 00-.71-.732zm14.033 16.49c.006.075.012.15.02.222h-.017c0-.073-.003-.147-.003-.222m-1.536-4.113c.04 1.445.066 2.891.072 4.335h-.284c.005-1.363.034-2.816.212-4.335m1.507-5.313c.057 2.066.112 4.132.11 6.201 0 .32-.026.701-.05 1.104-.02.281-.037.573-.05.864a343.97 343.97 0 00-.14-5.858 253.3 253.3 0 01-.155-7.419h.187c.014 1.703.054 3.405.098 5.108m12.55 8.887a.73.73 0 00-.732.729c0 .012.005.022.006.032h-1.28c.002-.01.008-.02.008-.032a.73.73 0 00-.731-.73h-.028a.717.717 0 00-.717.73c0 .012.005.022.006.032h-7.566c-.098-.618-.047-1.5.003-2.25.028-.436.054-.85.054-1.197.002-2.08-.054-4.16-.111-6.24a276.108 276.108 0 01-.09-5.069h14.58c-.071.515-.082 1.03-.084 1.503l-.008.496c-.011.484-.016.97-.019 1.454a49.699 49.699 0 01-.035 1.925c-.012.265-.009.53-.019.796-.06-.015-.117-.037-.181-.037a.73.73 0 000 1.458h.028c.042 0 .08-.017.121-.023-.012.496-.034.993-.035 1.493a.69.69 0 00-.208-.04.747.747 0 00-.731.749.73.73 0 00.731.729c.086 0 .167-.02.244-.05.02.45.027.897.055 1.344-.024-.004-.043-.017-.066-.02a.808.808 0 00-.633.232.8.8 0 00-.2.637.732.732 0 00.825.62c.056-.008.104-.032.157-.05l.025.432.02.313a.79.79 0 00-.264-.05c-.404 0-.732.35-.732.752 0 .032.015.06.02.093h-1.676c0-.01.005-.02.005-.032a.74.74 0 00-.742-.73m6.217-11.2c.005 1.115.01 2.23-.035 3.342l-.013.315c-.05 1.207-.1 2.404-.102 3.617l-.002 2.978c0 .125-.008.275-.019.434-.023.416-.046.868.02 1.276h-.264a59.133 59.133 0 00-.054-2.031c-.044-1.097-.09-2.231-.03-3.326.046-.827.126-1.65.204-2.474.07-.732.142-1.464.189-2.196a29.53 29.53 0 00-.003-3.616c-.002-.056.006-.146.011-.25.02-.326.024-.608 0-.863h.123c-.025.932-.028 1.864-.025 2.794m1.207-4.252h-.073a.736.736 0 00-.322-.1.598.598 0 00-.398.1H65.511a.715.715 0 00-.595-.328.717.717 0 00-.595.328h-.532c-.14-.15-.328-.246-.52-.219a.727.727 0 00-.521.22H61.73a.73.73 0 00-.731.728c0 .254.136.465.332.595a83.925 83.925 0 00.08 3.657c.088 2.222.179 4.52-.077 6.72-.199 1.7-.225 3.313-.225 4.805 0 .141.05.266.121.377-.001.022-.012.04-.012.06a.73.73 0 00.732.729h21.977a.729.729 0 00.731-.729.72.72 0 00-.226-.523.727.727 0 00-.052-.327c-.08-.185-.048-.74-.03-1.07a9 9 0 00.022-.52l.001-2.974c.003-1.193.051-2.37.101-3.56l.015-.315c.045-1.135.04-2.272.035-3.41-.003-.947 0-1.895.026-2.843a.728.728 0 00-.282-1.4m1.665-3.554v.967h-.057c.024-.316.047-.635.057-.967zm0-2.615c-.003-.127-.003-.258-.006-.382a116.4 116.4 0 01-.017-1.269h.023v1.651zm-21.192-1.65h.58a89.761 89.761 0 01-.051 2.238c-.033.981-.056 1.99-.05 2.994h-.479V66.51zm-1.575 5.232h.139V66.51h-.14v5.233zm3.49 0c-.007-.98.017-1.97.05-2.94.026-.764.045-1.53.05-2.293h14.111c-.008.595.012 1.26.04 1.959.046 1.14.088 2.384-.046 3.274H66.656zm15.668 0c.113-.993.066-2.179.018-3.34a32.62 32.62 0 01-.039-1.893h.691c-.023 1.748-.135 3.509-.257 5.233h-.413zm2.167-3.934c.024 1.301.046 2.718-.05 3.934h-.265c.123-1.717.232-3.473.255-5.233h.041c.005.421.01.847.019 1.3zm2.878 3.953v-5.512a.768.768 0 00.186-.494c0-.418-.322-.755-.718-.755H60.718c-.396 0-.718.337-.718.755 0 .416.322.754.718.754h.13c-.126.942-.062 1.89.008 2.816.066.859.125 1.681.027 2.439a.733.733 0 00-.616.733c0 .416.32.755.718.755h.023a.73.73 0 00.216.122c.07.022.142.033.21.033a.692.692 0 00.407-.139.698.698 0 00.607.376c.27 0 .496-.162.619-.392h.413a.695.695 0 00.543.274c.221 0 .411-.11.543-.274h18.269a.7.7 0 00.553.274c.217 0 .406-.11.539-.274h.331c.003.34.213.648.545.728.053.014.107.02.16.02a.729.729 0 00.7-.587c.01-.05.013-.11.023-.161h1.596c.398 0 .718-.339.718-.755a.733.733 0 00-.63-.736z"/><path fill="#E3DFD8" d="M43.474 52.968c-.058-1.409-.102-2.848.074-4.141a231.498 231.498 0 00-.051 4.765v.002c-.007-.21-.014-.412-.023-.626zm18.742.043a.74.74 0 00-.43-.143c-.395 0-.712.378-.712.78 0 .4.317.725.711.725a.689.689 0 00.46-.183l.008.324c.012.373.012.744.02 1.116-.04-.006-.075-.022-.12-.022-.392 0-.71.367-.71.77 0 .4.318.725.71.725.053 0 .099-.02.147-.03.014.581.026 1.163.033 1.745-.033-.006-.063-.019-.095-.019a.718.718 0 00-.712.726c0 .4.319.725.712.725h.04c.026 0 .048-.013.072-.014-.006.193-.014.41-.024.66-.026.531-.04 1.006-.043 1.451a.688.688 0 00-.212-.04c-.394 0-.711.345-.711.746 0 .08.02.153.044.224h-1.178c.001-.037.013-.07.007-.11a.727.727 0 00-.222-.435.705.705 0 00-.464-.232.731.731 0 00-.77.66c-.002.04.015.077.018.117h-1.251a.734.734 0 00-.726-.695.717.717 0 00-.705.695H44.676v-.066a.555.555 0 00-.004-.07c.003-.653.044-1.309.087-1.995.028-.454.057-.907.074-1.36.078-2.07.082-4.166.087-6.19.004-1.836.008-3.672.065-5.51h17.177c-.015 1.645.012 3.292.054 4.925zm1.814 2.809c.043 1.245.086 2.48.086 3.684 0 .372.025.797.05 1.241.038.608.076 1.269.048 1.845a.719.719 0 00-.19.405c-.012.095.012.187.01.282h-.304c-.057-.699-.01-1.766.017-2.313.016-.377.031-.71.031-.956 0-1.843-.05-3.689-.102-5.535-.058-2.1-.111-4.259-.091-6.388h.56c-.278 2.531-.206 5.17-.115 7.735zm1.756-5.46c.017 3.547.021 7.188-.174 10.761l-.025-.463c-.024-.413-.049-.808-.049-1.154 0-1.221-.042-2.472-.086-3.735-.09-2.568-.167-5.21.123-7.684h.204l.007 2.276zM41.788 46a.719.719 0 00-.711.726v16.96a.718.718 0 00.635 1.042h21a.675.675 0 00.927.152.69.69 0 00.152-.151h4.261a.719.719 0 00.167-1.418V48.085h.07A.719.719 0 0069 47.36a.718.718 0 00-.711-.726H42.483a.71.71 0 00-.695-.634zm38.479 17.047h-2.309c-.049-.657-.003-1.452.044-2.147.032-.48.062-.93.062-1.304V47.952h2.203v15.095zm-4.588 1.412h.331c.015.001.026.009.041.009.014 0 .025-.008.04-.009h.797a.668.668 0 00.59.391.633.633 0 00.256-.052.689.689 0 00.344-.339h2.22c.074.308.33.541.648.541.375 0 .68-.316.68-.706v-.119a.713.713 0 00.147-.422.713.713 0 00-.148-.422V47.869a.707.707 0 00-.019-1.26c-.046-.342-.318-.609-.66-.609-.318 0-.573.232-.648.54h-3.842a.65.65 0 00-.405-.154.692.692 0 00-.679.706v16.04a.702.702 0 00-.372.62c0 .39.304.707.68.707zM53.352 27.47h5.86v8.15c-.044-.008-.086-.026-.132-.026-.38 0-.688.35-.688.756s.309.735.688.735c.046 0 .088-.019.131-.028v1.322c-.043-.008-.085-.026-.13-.026-.38 0-.689.348-.689.756 0 .406.309.735.688.735.046 0 .088-.019.131-.028V41c-.055-.014-.109-.033-.17-.033-.38 0-.687.37-.687.777 0 .406.307.735.688.735.06 0 .114-.02.17-.037v.993a.646.646 0 00-.653.032.874.874 0 00-.343.547c-.02.122.01.268.057.405h-.993c.005-.042.024-.081.021-.124a.76.76 0 00-.194-.554.659.659 0 00-.973-.014c-.164.171-.22.442-.188.692h-.77c.002-.014.009-.027.009-.042 0-.405-.309-.735-.688-.735h-.039c-.381 0-.67.33-.67.735 0 .015.008.028.008.042h-.444V27.47zm-2.108-.735c0 .406.306.736.688.736h.044v16.947h-.288c-.38 0-.688.33-.688.735 0 .407.308.735.688.735h7.868A.635.635 0 0059.9 46c.128 0 .24-.047.343-.112h.07c.38 0 .688-.328.688-.735a.738.738 0 00-.413-.672V27.118a.753.753 0 00.114-.383c0-.406-.308-.735-.688-.735h-8.081c-.382 0-.688.33-.688.735zm-16.141-5.577c.059-.043.128-.086.19-.128l.153.206c.51.69 1.02 1.377 1.51 2.079.067.097.134.202.201.308.064.1.134.207.204.312-.785.543-1.628 1.044-2.457 1.534-.507.3-1.017.611-1.522.927-.106-.147-.192-.275-.306-.431-.54-.738-1.176-1.615-1.579-2.424 1.37-.823 2.548-1.597 3.606-2.383m1.602-.604c-.048-.062-.091-.127-.138-.189l-.067-.09c.01-.008.022-.015.032-.021.06.1.111.203.173.3m1.88 2.434c-.032.027-.06.059-.094.086l-.154-.236a9.343 9.343 0 00-.235-.36c-.217-.31-.445-.613-.667-.92.153.193.308.383.46.565.247.295.478.58.69.865m-1.694 4.472h4.453a242.33 242.33 0 00-.08 5.629c-.016 2.51-.031 5.104-.158 7.653-.048.973-.034 2.12-.02 3.128.002.197.002.362.005.545h-5.159V28.442c0-.4-.315-.721-.704-.721a.712.712 0 00-.704.72v15.974h-.007V28.612a.712.712 0 00-.704-.72c-.01 0-.019.005-.029.005a.713.713 0 00.085-.121 62.794 62.794 0 011.738-1.058c.255-.15.51-.303.764-.457a.727.727 0 00-.184.478c0 .398.315.721.704.721m5.861 0h.209a418.173 418.173 0 00-.266 4.963l-.019.36c.012-1.773.024-3.547.076-5.323M28.08 24.673c.068.13.17.222.288.287.369.86.997 1.724 1.51 2.418l.267.368c.168.232.32.48.473.728.224.362.45.722.704 1.044a.696.696 0 00.992.105.722.722 0 00.238-.688c.005-.003.011-.001.018-.004a.706.706 0 00.442-.55c.078-.054.15-.11.23-.165a.716.716 0 00-.133.396v15.87a.72.72 0 00-.415.654c0 .4.315.721.704.721h.399c.007 0 .01.005.017.005.007 0 .01-.005.018-.005h8.4a.687.687 0 00.402.143l.025-.001a.658.658 0 00.373-.142h1.265a.71.71 0 00.704-.72.712.712 0 00-.704-.722h-.96a27.67 27.67 0 01.168-2.564c.048-.452.095-.897.129-1.327.21-2.676.342-5.398.469-8.03a368.4 368.4 0 01.287-5.36.73.73 0 00.13-.395.714.714 0 00-.15-.425.706.706 0 00-.608-.466.718.718 0 00-.493.17H36.89c-.06 0-.115.02-.172.035.582-.353 1.15-.727 1.701-1.122.047.022.084.055.133.074a.689.689 0 00.25.047.702.702 0 00.661-.933c.038-.034.073-.072.111-.105.03.003.057.023.086.023.12 0 .24-.03.35-.095a.716.716 0 00.344-.656l.012-.011a.732.732 0 00-.02-1.02.684.684 0 00-.656-.166 24.784 24.784 0 00-.724-.902c-.47-.565-.94-1.145-1.282-1.76.048-.04.107-.076.152-.12a.734.734 0 00.022-1.02.685.685 0 00-.82-.134.677.677 0 00-.6-.13.723.723 0 00-.496.884c.002.01.007.016.009.023-.109.068-.217.136-.328.202a.68.68 0 00-.875-.044.73.73 0 00-.26.758c-.07.049-.148.097-.213.146-1.065.79-2.253 1.568-3.659 2.407a.693.693 0 00-.29.03.706.706 0 00-.417.39l-.018.01-.08-.115a.692.692 0 00-.976-.2.72.72 0 00-.3.472.682.682 0 00-.475.652c-.003.118.013.238.028.359a.722.722 0 00-.01.676m19.003-11.835c.338-.185.676-.362 1.012-.538.168-.088.34-.184.51-.274.3.454.6.907.903 1.359.377.56.745 1.124 1.115 1.688l-.855.524c-.393.242-.814.476-1.239.71-.112.062-.225.13-.339.192-.5-.691-1.12-1.423-1.74-2.141-.205-.24-.407-.476-.6-.704.051-.037.104-.072.155-.108.362-.256.72-.51 1.078-.708m6.742.335c-.07.036-.138.075-.202.11-.386-.697-1.037-1.684-2.112-3.097.04-.028.079-.055.117-.084.591 1.113 1.408 2.13 2.197 3.07m-3.093-.56c-.292-.435-.58-.871-.87-1.307.143-.087.284-.176.425-.267.607.883 1.475 2.173 2.02 3l-.45.277c-.374-.569-.744-1.138-1.125-1.703m-6.998 2.138c.014 0 .029-.007.043-.007.498.97 1.147 1.923 1.953 2.84l.2.225.119.131a.688.688 0 00.06.796.74.74 0 00.57.265.75.75 0 00.43-.146c.018.002.031.013.049.013a.713.713 0 00.659-.432.75.75 0 00.698.024.698.698 0 00.388-.724c.117-.065.232-.133.35-.198a30.74 30.74 0 001.3-.745l.96-.59a.755.755 0 00.303.075.754.754 0 00.384-.105.693.693 0 00.333-.596l.67-.412c.084.03.17.05.256.05a.74.74 0 00.488-.18.458.458 0 00.178-.401l.129-.07c.168-.09.336-.182.503-.274.048.046.087.093.159.137a.745.745 0 00.938-.12c.187-.2.23-.478.138-.72.092.038.181.092.28.092a.741.741 0 00.495-.188.689.689 0 00.116-.905c-.51-.763-1.072-1.395-1.67-2.063l-.138-.156c-.495-.554-.898-1.157-1.316-1.79a.677.677 0 00-.005-.659.723.723 0 00-.648-.35.8.8 0 00-.393-.451 9.658 9.658 0 00-.168-.072.748.748 0 00-.834.232c-.133.167-.146.37-.102.57-.024.003-.046 0-.068.005a.705.705 0 00-.493.88c.003.006.007.013.008.02-.162.118-.327.233-.485.349a.744.744 0 00-.774.062.69.69 0 00-.269.667c-.677.45-1.38.834-2.126 1.225-.347.18-.693.363-1.04.554-.404.222-.808.505-1.216.793l-.396.276a.734.734 0 00-.498.136.696.696 0 00-.23.319c-.026.012-.05.03-.075.042-.03.007-.06.006-.09.017-.043.018-.075.051-.113.075-.083.038-.167.08-.247.105a.705.705 0 00-.456.9c.104.294.389.48.693.48M78 88.505v-.02a.49.49 0 00-.5-.485c-.276 0-.5.232-.5.505s.224.495.5.495.5-.222.5-.495m0-2v-.02a.49.49 0 00-.5-.485c-.276 0-.5.232-.5.505s.224.495.5.495.5-.222.5-.495M74.96 87c-.53 0-.96.224-.96.5s.43.5.96.5h.16c.53 0 .88-.224.88-.5s-.51-.5-1.04-.5"/><path fill="#E3DFD8" d="M60.485 61l.045-.002a.486.486 0 00.313-.154.485.485 0 00-.286-.842.548.548 0 00-.41.146.54.54 0 00-.145.41.486.486 0 00.483.442m.015-3c.276 0 .5-.22.5-.493v-.028a.484.484 0 00-.5-.479.51.51 0 00-.5.507c0 .272.224.493.5.493m-3 3c.276 0 .5-.22.5-.493v-.028a.484.484 0 00-.5-.479.51.51 0 00-.5.507c0 .272.224.493.5.493m-1-18c.276 0 .5-.43.5-.96v-.16c0-.53-.224-.88-.5-.88s-.5.51-.5 1.04.224.96.5.96m0-4c-.276 0-.5.245-.5.514 0 .27.224.486.5.486s.5-.217.5-.486v-.055c0-.268-.224-.459-.5-.459m0-2c.276 0 .5-.22.5-.493v-.028a.485.485 0 00-.5-.479c-.276 0-.5.235-.5.507s.224.493.5.493m-1.007 3h.027c.273 0 .48-.224.48-.5a.51.51 0 00-.507-.5.497.497 0 00-.493.5c0 .276.22.5.493.5M58.5 57c.276 0 .5-.216.5-.483v-.07c0-.267-.224-.447-.5-.447s-.5.251-.5.517c0 .267.224.483.5.483"/><path fill="#28BBB4" d="M45.767 27.069h3.55v4.094a.712.712 0 00-.566-.274c-.396 0-.718.375-.718.782 0 .408.322.736.718.736a.7.7 0 00.565-.302v2.28a.681.681 0 00-.384-.132.726.726 0 00-.718.737v.184c0 .408.32.736.718.736a.691.691 0 00.384-.13v1.584a.706.706 0 00-.734.272.75.75 0 00-.038.825.715.715 0 00.666.463c.037 0 .07-.014.106-.02v1.785l-.213.107-.585.45a.63.63 0 00.576.357c.073 0 .148-.032.222-.056v1.16a.7.7 0 00-.538-.262h-.054c-.397 0-.69.33-.69.737 0 .113.03.216.077.312h-2.344V27.069zM51 26.333a.731.731 0 00-.248-.548v-.049a.726.726 0 00-.718-.736c-.349 0-.624.26-.69.596H45.74c-.066-.337-.342-.596-.69-.596a.726.726 0 00-.717.726.726.726 0 00-.333.607c0 .257.136.474.332.605v18.326c0 .408.321.736.717.736a.726.726 0 00.718-.736v-.298h3.55v.031c0 .407.32.736.717.736.396 0 .718-.33.718-.736V26.88a.731.731 0 00.248-.547z"/><path fill="#28BBB4" d="M47 39.5c0 .276.238.5.51.5.27 0 .49-.224.49-.5s-.22-.5-.49-.5h-.038c-.27 0-.472.224-.472.5m1 1.972c0-.27-.224-.472-.5-.472s-.5.238-.5.51c0 .27.224.49.5.49s.5-.22.5-.49v-.038zm0-5.957v-.06c0-.269-.224-.455-.5-.455s-.5.247-.5.515.224.485.5.485.5-.217.5-.485m-14.057-22.12c.05.062.087.117.134.177-.074-.017-.154-.039-.227-.05.032-.042.07-.08.093-.127m2.884-3.308c-.09.075-.18.165-.263.276.003-.033.013-.065.012-.098.055-.056.144-.116.251-.178m8.664 9.376a.72.72 0 00.277-.205.704.704 0 00.23-.571.715.715 0 00-.249-.484c-.09-.09-.348-.372-.553-.593l-.282-.305c-.731-.765-1.335-1.75-1.918-2.704l-.38-.616a.73.73 0 00-1-.234.713.713 0 00-.237.988l.373.606c.506.826 1.052 1.65 1.677 2.408a.711.711 0 00-.54.613.806.806 0 00.217.63c.054.052.127.09.2.124-.153.115-.313.226-.463.342l-.252.194c-.012-.201-.077-.392-.233-.519a.734.734 0 00-.83-.212.716.716 0 00-.41.932c.074.18.293.38.489.474a3.578 3.578 0 01-.755.341c-.02-.037-.044-.071-.063-.112-.336-.707-.707-1.278-1.124-1.896-.134-.199-.287-.402-.442-.61-.288-.383-.586-.779-.743-1.138a.728.728 0 00-.956-.373l-.002.003c.001-.025.013-.046.011-.07a.712.712 0 00.375-.915c-.087-.214-.205-.402-.32-.593.387.204.765.232 1.062.247.195.007.348.014.493.066a.725.725 0 00.928-.432.679.679 0 00.025-.352 3.29 3.29 0 00.679-.138.717.717 0 00.459-.91.73.73 0 00-.92-.451 1.792 1.792 0 01-1.874-.49c-.243-.27-.59-.844-.2-1.663a.696.696 0 00-.025-.636.718.718 0 00.646-.75c-.014-.232-.16-.404-.341-.525a.71.71 0 00-.045-.366.722.722 0 00-.882-.385l-.204-.184a19.648 19.648 0 01-.65-.601c-.55-.526-1.12-1.07-1.847-1.468-3.268-1.789-7.137-.612-10.247.332l-.714.217c-1.133.337-2.227.78-3.286 1.206-.918.37-1.867.752-2.82 1.058a9.953 9.953 0 01-3.21.445 7.285 7.285 0 01-1.755-.251c-.174-.048-.33-.13-.488-.205-.325-.158-.694-.338-1.155-.352-.45.017-.735.301-.747.698a.721.721 0 00.705.738c.145.004.334.096.555.204.24.116.487.232.756.303a8.692 8.692 0 002.1.301c.086.001.17.003.258.003a11.21 11.21 0 003.428-.518c1.004-.322 1.98-.716 2.922-1.095 1.027-.415 2.09-.842 3.157-1.161l.72-.218c2.997-.91 6.39-1.943 9.118-.448.559.305 1.036.762 1.541 1.243.138.132.28.26.42.39-.322.183-.606.408-.799.674-.404-.286-.86-.607-1.328-.81-1.016-.44-2.131-.75-3.063-.848-4.1-.444-7.948 1.965-10.488 3.805a17.303 17.303 0 01-4.931 2.505c-1.52.494-4.664.596-5.142-.56a.73.73 0 00-.947-.392.716.716 0 00-.398.936c.583 1.406 2.288 1.814 3.92 1.814 1.213 0 2.384-.225 3.023-.434a19.004 19.004 0 005.334-2.71c2.343-1.7 5.87-3.912 9.475-3.536.778.082 1.763.356 2.633.734.331.144.706.41 1.068.666.347.246.675.477.983.612a.72.72 0 00.725-.083c-.01.044-.027.077-.034.123-.088.53-.027 1.175.136 1.772-.081-.148-.173-.296-.216-.448a.73.73 0 00-.898-.494.723.723 0 00-.298.18.716.716 0 00-.862-.05c-.008-.025-.003-.05-.014-.077a.732.732 0 00-.963-.353 3.775 3.775 0 01-.266.11c-.821-.245-1.91-.232-3.014-.163l-.148.008c-.758.045-1.578.151-2.579.338a.728.728 0 00-.492.343.7.7 0 00-.115.778.719.719 0 00-.318-.13.732.732 0 00-.814.621c-.097.757.374 1.647.718 2.298l.13.25c.41.805 1.044 1.509 1.602 2.13l.26.29c.912 1.026 2.481 1.592 4.42 1.592a.722.722 0 00.726-.718.722.722 0 00-.726-.718c-1.493 0-2.706-.402-3.328-1.105l-.265-.295c-.525-.582-1.065-1.183-1.39-1.82l-.142-.274c-.196-.369-.603-1.137-.562-1.447a.729.729 0 00-.023-.287c.463.449 1.113.573 1.576.643l.314.053c.584.11 1.183.224 1.813.224.161 0 .324-.007.491-.024.27-.03.651-.1 1.048-.194.09.297.357.517.685.517h.002c.584-.009.931.011 1.412.17.453.147.718.385.885.796.164.406.065.814-.112 1.445l-.048.173a.72.72 0 00.702.906c.32 0 .613-.21.702-.531l.045-.167c.052-.186.104-.38.148-.58.04.025.072.056.118.074a.779.779 0 00.58-.012.688.688 0 00.047.348c.224.51.571.973.908 1.421.141.187.28.37.4.55.396.59.723 1.09 1.017 1.709.16.34.351.66.543.976.099.162.195.323.286.486a.73.73 0 00.988.281.713.713 0 00.284-.975l-.002-.003c.818-.311 1.508-.828 2.17-1.342.59-.46 1.149-.894 1.749-1.128"/><path fill="#28BBB4" d="M42 17.935c0 .292.103.696.222.872.088.131.192.193.294.193.146 0 .29-.125.385-.365.123-.314.13-.733.03-1.051-.072-.343-.246-.584-.448-.584-.267 0-.483.42-.483.935M41.5 16c-.276 0-.5.25-.5.517s.224.483.5.483.5-.216.5-.483v-.068c0-.266-.224-.449-.5-.449m-12.988 3.38a.747.747 0 00-.929-.326c-2.61 1.06-4.42 2.277-5.38 3.617-2.306 3.225-1.866 7.071-1.132 10.408l.237 1.043c.46 1.995.895 3.88.663 5.914-.132 1.141-.35 2.474-.98 3.7-.204.396-1.062 1.524-1.418 1.848a.74.74 0 00-.41.249.696.696 0 00.115 1.003.906.906 0 00.685.15c.888-.19 2.342-2.592 2.354-2.615.733-1.427.98-2.912 1.125-4.18.259-2.267-.201-4.265-.69-6.38l-.232-1.03c-.67-3.039-1.088-6.52.903-9.3.389-.545.992-1.086 1.782-1.607a4.456 4.456 0 00-.378 1.04c-.415 1.943-.27 3.858-.129 5.71.035.46.071.921.098 1.382.066 1.153.204 2.34.337 3.488.306 2.659.624 5.409.102 7.976l-.14.712c-.125.65-.248 1.3-.434 1.94l-.064.228c-.056.208-.207.765-.214.822a.695.695 0 00-.13 1 .748.748 0 00.584.277.75.75 0 00.453-.15c.331-.248.495-.69.74-1.588l.056-.203c.201-.692.334-1.391.464-2.066l.137-.697c.565-2.782.235-5.642-.085-8.408-.136-1.18-.265-2.296-.33-3.41-.026-.47-.062-.94-.097-1.408-.14-1.834-.273-3.568.1-5.316.212-.989 1.177-2.255 2.15-2.47a.713.713 0 00.556-.854.715.715 0 00-.469-.5M41.114 7.366a.757.757 0 00.05.189.695.695 0 00.762.433c1.102-.206 2.334-2.236 2.346-2.258.16-.278.944-1.712.67-2.653a1.158 1.158 0 00-.285-.51.706.706 0 00-.679-.567h-.004a.709.709 0 00-.68.589c-.244.189-.534.494-.867.983-1.234 1.816-1.642 2.979-1.323 3.77l.01.024zm4.97-3.185c.358.346.697.673.936 1.068.39.641.639 1.528.666 2.374l.006.162c.063 1.59-.044 1.997-.082 2.082a.755.755 0 00.13.991.598.598 0 00.385.142c.195 0 .39-.098.516-.285.358-.528.394-1.578.337-2.992l-.006-.15c-.035-1.098-.364-2.263-.882-3.112-.335-.55-.752-.955-1.156-1.345-.292-.283-.57-.55-.788-.85a.603.603 0 00-.904-.11.756.756 0 00-.1.996c.288.398.62.719.942 1.03M42.198 14c.108 0 .218-.007.332-.024.98-.137 2.255-.884 3.279-1.484.298-.175.571-.335.801-.458a.747.747 0 00.307-1 .724.724 0 00-.983-.31c-.244.13-.534.299-.85.484-.866.508-2.054 1.203-2.753 1.302-.278.038-.405-.05-.495-.154-.487-.569-.475-2.257-.158-3.417a.743.743 0 00-.508-.913.726.726 0 00-.894.516c-.354 1.294-.52 3.64.467 4.788.378.442.876.67 1.455.67"/><path fill="#7FC689" d="M66.648 14.35l-1.35-.437a.435.435 0 010-.826l1.35-.437.438-1.35a.435.435 0 01.827 0l.438 1.35 1.348.437a.434.434 0 010 .826l-1.348.437-.438 1.35a.435.435 0 01-.827 0l-.438-1.35z"/><path fill="#F2D038" d="M60.39 20.558l-.758.392a.448.448 0 01-.613-.216c-.042-.086-.056-.184-.042-.28l.124-.875a1.475 1.475 0 00-.378-1.21l-.593-.63a.492.492 0 01.008-.676.446.446 0 01.243-.129l.836-.148c.42-.074.786-.35.985-.748l.392-.782a.448.448 0 01.81 0l.394.782c.198.397.563.674.986.748l.836.148c.249.044.415.29.374.55a.496.496 0 01-.124.255l-.593.63c-.3.32-.439.767-.377 1.21l.124.875a.473.473 0 01-.387.54.428.428 0 01-.268-.044l-.76-.392a1.323 1.323 0 00-1.218 0"/><path fill="#28BBB4" d="M63.5 6.828c-.922 0-1.672.75-1.672 1.672 0 .92.75 1.67 1.672 1.67.922 0 1.672-.75 1.672-1.67 0-.922-.75-1.672-1.672-1.672m0 4.172A2.503 2.503 0 0161 8.5C61 7.12 62.122 6 63.5 6S66 7.12 66 8.5c0 1.378-1.122 2.5-2.5 2.5"/><path fill="#334580" d="M69.5 5.756a.745.745 0 10.001 1.49.745.745 0 00-.002-1.49M69.5 8c-.827 0-1.5-.673-1.5-1.5S68.673 5 69.5 5s1.5.673 1.5 1.5S70.327 8 69.5 8"/><g transform="translate(8)"><mask id="b" fill="#fff"><use xlink:href="#a"/></mask><path fill="#334580" d="M61.942 91.46c-3.328-.029-6.256-.052-7.669-.03l-.004-3.271c-.004-4.389-.011-10.714 0-13.667 5.447.01 11.098 0 12.14-.052 3.488-.175 6.157-.21 9.296-.106.222 4.442.115 9.554.029 13.7-.025 1.219-.05 2.37-.064 3.426-2.746.093-8.808.042-13.728 0zm-16.68.087c-.67-.002-1.416-.008-2.195-.014-.007-.994-.024-2.361-.044-3.926-.06-4.568-.135-10.663-.02-13.177.401.004.778.005 1.195.011 1.529.02 4.929.038 8.627.048-.012 2.959-.005 9.283 0 13.671l.004 3.306c-2.105.04-6.787.08-7.567.081zM22.6 91.315c-.504.026-1.718.04-3.285.042-.006-3.07-.066-5.118-.12-6.924-.09-2.973-.154-5.159.084-10.06 6.182.153 10.443.109 14.57.073 2.404-.022 4.88-.044 7.709-.03-.114 2.626-.038 8.668.02 13.208.02 1.552.038 2.908.044 3.896-3.003-.03-6.477-.071-9.652-.12-4.732-.073-8.469-.136-9.37-.085zm-6.41-25.762c1.237-.03 2.612.029 3.947.084 1.638.064 3.332.135 4.84.06 4.676-.232 9.402-.246 13.655-.246.444 0 .88.007 1.32.01-.113 1.616-.072 3.041-.019 4.663.029.863.055 1.806.064 2.838-2.195-.001-4.211.013-6.161.03-4.267.04-8.684.082-15.224-.09l-.015.003c-.575-.003-1.73-.029-2.546-.055-.016-1.937.062-5.423.14-7.297zm17.172-4.094c-.01-1.886-.02-3.692.01-4.904.028-1.186.018-4.156.009-6.981l-.007-3.015c.414.007.816.019 1.189.032.518.017 1.003.035 1.467.035.514 0 1-.022 1.475-.085 1.047-.136 5.8-.077 9.993-.023 3.689.047 7.171.092 8.905.03 1.288-.046 2.587-.049 3.884-.06 0 6.443.001 9.885.024 17.622-1 .013-1.999.029-2.985.045-3.947.064-7.889.066-11.828-.045a202.036 202.036 0 00-5.877-.112c-1.98-.002-4.09.001-6.25.021-.002-.84-.004-1.704-.009-2.56zM25.09 40.742c-.017-2.462-.038-5.006.016-6.05.072-1.48.033-3.04-.003-4.546l-.028-1.192a273.464 273.464 0 004.423-2.75c.028.004.05.017.077.018l.757.023c.358.012.586.018 1.035.015 1.26-.013 2.53-.006 3.805.001h.423c.022 3.068-.03 6.247-.083 9.33-.055 3.14-.113 6.386-.084 9.45 0 .041.017.076.024.117-.277-.007-.54-.01-.839-.019a53.024 53.024 0 00-1.963-.044h-7.54c.003-1.271-.007-2.823-.02-4.353zm-2.64-11.923a1216.6 1216.6 0 00-3.057-4.875c1.605-.993 5.958-3.7 9.125-5.756a267.942 267.942 0 013.104 4.946c-4.103 2.625-7.55 4.778-9.173 5.685zm-1.523-7.851c.025-.008.039-.025.06-.034.105.047.217.07.323.11-.757.473-1.437.896-1.98 1.233.433-.613.973-1.107 1.597-1.31zm-4.122 25.021c-.349-.434-.7-1.251-.724-1.816a.726.726 0 00-.542-.673.725.725 0 00-.797.325c-.556.922-1.419 2.058-2.168 2.485-.4.23-.909.403-1.404.507 2.803-2.874 2.936-8.479 2.461-13.014l-.14-1.268c-.354-3.066-.72-6.237.618-8.928.68-1.374 2.821-3.578 4.946-4.06.168.17.345.325.527.476-1.815 1.169-2.798 3.746-2.815 5.452-.02 1.81.358 3.526.724 5.184.208.938.421 1.909.554 2.871.567 4.073 1.196 8.664-1.24 12.46zm5.77-33.678c.44.057.86.143 1.277.229.302.062.602.123.907.175.173.03.342.038.509.047-.19.187-.406.394-.499.442-.884.423-1.99.423-3.05.418h-.217c-1.452 0-2.297-.119-2.571-.718.007-.056-.005-.113-.01-.17.044-.03.075-.07.124-.097 1.072-.586 2.282-.49 3.53-.326zm-1.138-3.378c-2.584.081-4.673 1.555-6.694 2.979a39.78 39.78 0 01-1.654 1.127c-1.822 1.156-3.897 2.292-7.395 2.404-.84.03-2.792-.358-3.82-1.045a.665.665 0 01.203-.248c.714-.579 1.876-.752 2.726-.878.293-.044.556-.083.771-.13a.728.728 0 00.172-1.36c-1.462-.743-2.238-1.643-2.357-2.726 3.52 1.52 8.376-.032 11.698-1.101l1.58-.501c3.188-1.002 5.707-1.795 8.97-.685 1.765.6 3.645 1.636 4.077 2.847a2.728 2.728 0 00-.656.064c-.61.136-1.15.553-1.507 1.14-1.632-1.248-3.86-1.967-6.114-1.887zM33.73 5.368c.693-2.063 1.57-3.307 2.542-3.647.034.113.072.262.121.47a2.824 2.824 0 01-.165 1.82c-.35.754-.957 1.25-1.662 1.822-.166.136-.334.272-.497.412a7.656 7.656 0 00-.753.764c.026-.113.054-.228.078-.337.115-.5.219-.956.336-1.304zm5.967-1.428c.625.824.983 1.86 1.01 2.916.01.48.014 1.202-.577 2.153a889.231 889.231 0 00-6.003 3.811c-.005.003-.01.002-.015.004-.005.005-.007.01-.013.013l-.774.496a2.971 2.971 0 00-.269-1.346 3.865 3.865 0 00-.37-.633.768.768 0 00.087-.227c.28-1.395 1.131-2.84 2.23-3.772l.47-.391c.774-.63 1.574-1.279 2.064-2.338.35-.751.445-1.622.296-2.515.642.435 1.322 1.116 1.864 1.829zm4.892 4.006c.955 1.405 2.364 3.752 3.02 4.858-.773.484-2.107 1.322-2.896 1.84-1.98 1.299-4.073 2.665-6.158 4.02a577.14 577.14 0 00-1.518-2.461 466.621 466.621 0 01-1.557-2.527c3.109-1.986 6.81-4.33 9.109-5.73zm-14.505 9.212a444.27 444.27 0 014.177-2.702c.526.86 1.04 1.692 1.551 2.516.502.809 1.007 1.629 1.529 2.479-1.534.994-3.05 1.972-4.501 2.903a282.67 282.67 0 00-3.113-4.96c.12-.078.244-.16.357-.236zm1.654-4.58c.289.652.174 1.176-.341 1.561l-.343.195c-.82.474-.944.522-1.412.12-.454-.392-.761-1.285-1.011-2.012-.081-.238-.038-.545.117-.822.15-.273.384-.47.625-.523.097-.02.194-.032.293-.032.838 0 1.728.74 2.072 1.514zm-8.62 7.332c-2.179.078-4.083-2.053-4.721-4.221a4.816 4.816 0 01-.2-1.414c.916.783 2.392.8 3.337.8h.18c.074.002.148.002.225.002 1.112 0 2.345-.032 3.449-.561.334-.16.659-.484 1.034-.859.227-.228.61-.604.85-.756.008.03.01.06.02.09.278.81.66 1.92 1.41 2.567.202.173.395.292.584.388l-.001.001c-1.632 1.091-4.013 2.607-6.166 3.963zm16.021 6.35c.862-.009 1.797-.025 2.778-.04l.476-.008-.043 2.998c-.052 3.506-.103 7.02-.101 10.525 0 .507-.01 1.013-.019 1.518a60.164 60.164 0 00-.019 1.913c.002.146.01.31.02.482.018.346.05.926-.051 1.112a.719.719 0 00-.078.25c-2.306-.013-4.111.003-4.786.091-.144.02-.313.015-.465.026.004-.034.02-.065.02-.101-.029-3.042.03-6.28.084-9.41.053-3.087.105-6.272.084-9.355.7.002 1.4.008 2.1-.001zm12.977-.03c.17 4.388.283 8.672-.025 12.81-.07.967-.021 2.027.028 3.052.052 1.117.098 2.17-.007 3.024-1.436-.01-3.024-.03-4.597-.051-1.352-.016-2.669-.034-3.903-.044.116-.462.087-.98.061-1.453-.007-.148-.016-.289-.017-.417-.006-.625.006-1.248.019-1.87.008-.514.018-1.03.018-1.546-.003-3.5.05-7.006.101-10.505l.044-3.04c2.8-.04 5.736-.06 8.278.04zm4.127 16.128c.254-.227 1.115-.11 1.573.146a.72.72 0 00.92-.191.728.728 0 00-.048-.945c-.583-.619-.949-1.279-1.053-1.908-.115-.68.094-1.357.532-1.725.439-.372 1.175-.457 1.834-.212.61.228 1.195.712 1.74 1.44.214.286.603.37.916.205a.732.732 0 00.343-.88c-.345-.999.029-2.23.87-2.865.443-.332 1.025-.53 1.637-.559.509-.022.945.084 1.228.305.822.64.513 2.2.399 2.664a.727.727 0 00.313.787c.26.169.6.149.84-.046.271-.22.587-.46.904-.545.218-.055.446-.019.538.086.097.11.129.36.087.687a3.573 3.573 0 01-.791 1.816.73.73 0 00.031.97c.256.268.67.3.96.074a.91.91 0 01.878-.108c.278.12.492.416.524.718.052.533-.381 1.088-.754 1.462a6.642 6.642 0 01-1.834 1.299c-.013.006-.02.017-.032.022-.257-.003-.514-.003-.772-.005-.1-.001-.208-.001-.309-.003.276-.38.452-.813.452-1.268a.725.725 0 00-.722-.727c-.4 0-.722.326-.722.727 0 .39-.633 1.023-1.372 1.205-.035.007-.062.03-.096.045-1.73-.016-3.463-.008-5.211.01-.04-.008-.074-.024-.114-.024-1.08 0-2.65-.42-3.435-1.204-.33-.329-.522-.693-.514-.974.003-.109.031-.276.26-.48zm16.99 4.186a290.6 290.6 0 01-.27 12.37c-.024.579-.024 1.637-.023 2.772 0 .859 0 1.755-.011 2.524-1.771.013-3.341.02-3.776.001-.537-.026-1.08-.036-1.62-.053-.024-7.767-.025-11.211-.025-17.659l.501.004c1.742.02 3.483.037 5.223.041zm-7.17-.056c0 6.443.002 9.885.025 17.626a159.604 159.604 0 00-4.333-.015c-.023-7.739-.025-11.18-.025-17.633 1.456-.005 2.893.007 4.333.022zM41.441 72.963c-.009-1.05-.036-2.008-.065-2.887-.053-1.61-.094-3.021.022-4.6 1.355.018 2.704.046 4.06.085 1.915.055 3.83.08 5.745.087-.012 2.02-.008 3.39-.003 4.848l.005 2.537c-3.034-.01-5.688-.026-6.988-.045-.968-.013-1.888-.022-2.776-.025zm37.333-7.319c.152 1.591.048 5.141-.058 7.289-.554.01-1.204.004-2.285-.028-.006 0-.008-.003-.014-.003-3.432-.122-6.351-.101-10.081.088-1.131.056-7.817.064-13.686.048l-.006-2.548a494 494 0 01.003-4.849c1.567-.003 3.133-.007 4.702-.033 3.86-.064 7.847-.128 11.737.053.529.028 2.38.014 4.518-.002 1.929-.015 4.07-.028 5.17-.015zm9.86 26.357c-.03-.564-.088-1.102-11.518-.602.016-1.031.037-2.149.062-3.336.085-4.136.188-9.217-.029-13.686.394.01.747.015 1.037.015.473 0 .85-.012 1.257-.035a.723.723 0 00.682-.683c.004-.071.395-7.103-.022-8.902a.725.725 0 00-.662-.56c-.652-.041-2.812-.028-5.067-.012.012-.77.012-1.661.012-2.516-.002-1.11-.002-2.143.023-2.707.19-4.515.272-8.45.272-13.155a.723.723 0 00-.723-.727c-.023 0-.044.012-.069.015-.022-.003-.043-.015-.066-.015-.837 0-1.673-.013-2.508-.02.12-.106.254-.196.368-.31.854-.852 1.258-1.765 1.172-2.638a2.364 2.364 0 00-1.385-1.907 2.24 2.24 0 00-.487-.148c.13-.352.22-.716.267-1.084.1-.777-.05-1.395-.44-1.838-.456-.516-1.23-.725-1.984-.526a1.235 1.235 0 00-.092.026c-.003-1.138-.383-2.06-1.111-2.629-.56-.439-1.313-.646-2.18-.609-.9.042-1.765.343-2.438.849-.784.59-1.307 1.48-1.498 2.438a4.332 4.332 0 00-1.002-.537c-1.143-.43-2.425-.247-3.266.459-.834.705-1.228 1.884-1.029 3.08.063.368.175.731.338 1.087-.457.028-.907.165-1.263.484-.473.422-.73.95-.746 1.526-.019.696.318 1.423.942 2.046.103.102.241.173.357.264a92.39 92.39 0 01-2.291.015c.098-.939.068-1.982.014-3.1-.046-.982-.094-1.996-.027-2.875.326-4.425.188-8.98.001-13.644a.726.726 0 00-.686-.696c-3.3-.167-7.368-.101-10.954-.04-.978.014-1.911.03-2.77.039-1.32.016-2.636.007-3.946.001-1.165-.007-2.325-.01-3.48-.001.422-.269.847-.54 1.276-.817.004-.001.007 0 .012-.003l.013-.011a1500.817 1500.817 0 0012.504-8.115 241.908 241.908 0 013.468-2.198.728.728 0 00.243-.987c-.105-.181-2.613-4.46-3.84-6.13a.715.715 0 00-.951-.192c-.634.379-1.432.87-2.313 1.416.052-.386.046-.712.04-.95a6.52 6.52 0 00-1.305-3.76c-.582-.768-2.636-3.23-4.63-2.839-1.622.326-2.919 1.901-3.855 4.682-.128.384-.245.888-.372 1.44-.203.883-.483 2.077-.903 2.828-.72-2.098-3.642-3.32-4.986-3.778-3.705-1.26-6.56-.363-9.865.674l-1.588.503c-3.398 1.094-8.537 2.75-11.498.72-.038-.025-.081-.034-.122-.051-.041-.02-.078-.047-.125-.057-.003-.002-.006 0-.009 0-.052-.01-.102-.004-.153-.003-.14 0-.274.03-.389.102-.002.001-.004.006-.008.007a.744.744 0 00-.192.189c-.002.003-.003.003-.005.004-.026.037-.031.079-.05.118-.019.044-.046.083-.058.13l-.001.014-.003.011c-.357 1.637.159 3.106 1.469 4.267-.793.165-1.646.442-2.333.998-.59.48-.72 1.009-.83 1.477-.008.029 0 .056-.005.087a.728.728 0 00-.006.148.71.71 0 00.03.135.778.778 0 00.045.126.669.669 0 00.086.124c.018.023.027.05.049.073.016.016.04.029.057.045l.028.023c1.314 1.194 3.97 1.64 5.015 1.64h.1c3.485-.113 5.69-1.09 8.12-2.628a42.15 42.15 0 001.713-1.167c1.848-1.302 3.759-2.65 5.911-2.717a8.596 8.596 0 014.162.924c-.217.01-.432.009-.646-.028a20.805 20.805 0 01-.858-.165c-.452-.092-.907-.185-1.381-.246-1.433-.186-2.952-.302-4.406.49-1.456.796-1.97 2.612-1.341 4.743a8.399 8.399 0 001.061 2.226c-2.343.834-4.5 3.104-5.258 4.627-1.528 3.08-1.12 6.621-.76 9.746l.14 1.254c.414 3.958.535 10.88-3.3 12.764-.017.009-.027.025-.043.033a.71.71 0 00-.119.09c-.034.034-.067.064-.095.102-.011.016-.029.026-.04.044-.015.025-.016.05-.028.075a.65.65 0 00-.07.273.69.69 0 00.005.134.72.72 0 00.04.146c.008.024.006.05.018.074.006.013.02.019.027.03a.698.698 0 00.247.272c.441.272.973.38 1.526.38 1.082 0 2.24-.41 2.923-.799.668-.38 1.293-1.047 1.789-1.682.372.83.97 1.619 1.76 1.806.04.009.078 0 .117.003.016.001.03.016.048.016.02 0 .039-.012.058-.013a.712.712 0 00.175-.04c.039-.014.078-.024.115-.045a.735.735 0 00.202-.17c.009-.01.022-.013.03-.024 3.245-4.378 2.497-9.767 1.896-14.096-.143-1.02-.363-2.02-.577-2.986-.364-1.649-.707-3.208-.689-4.852.002-.192.022-.4.058-.619.877 1.395 2.688 4.28 3.31 5.288a.718.718 0 00.933.269c.27-.134.676-.362 1.138-.63l.008.383c.037 1.48.076 3.01.005 4.438-.055 1.085-.036 3.537-.018 6.132.015 1.832.03 3.691.016 5.063a.73.73 0 00.21.518.72.72 0 00.513.216h7.545l.008 3.03c.008 2.808.02 5.762-.01 6.942-.028 1.22-.02 3.043-.01 4.945.005.86.008 1.728.01 2.57a198.29 198.29 0 00-7.02.209c-1.445.07-3.106.004-4.712-.061-1.607-.064-3.268-.13-4.73-.06a.72.72 0 00-.686.685c-.1 1.813-.216 6.828-.163 8.76.012.38.31.686.685.707.46.023 1.636.056 2.535.072-.237 4.902-.173 7.138-.084 10.129.054 1.797.113 3.833.119 6.882a1959.35 1959.35 0 01-7.712-.027c-2.005-.01-3.785-.018-4.91-.018a.725.725 0 00-.722.726c0 .403.323.727.722.727 1.122 0 2.9.008 4.904.019 4.96.023 11.135.053 12.52-.02.848-.044 4.754.015 9.274.086 3.423.054 7.181.11 10.342.136.02.002.037.013.06.013.018 0 .035-.01.054-.012.92.007 1.797.012 2.588.012h.273c.955-.002 7.32-.054 8.487-.105.983-.047 4.317-.016 8.178.017 5.476.047 11.681.1 14.226-.018 3.88-.18 11.452-.133 11.73-.13l.028-.725-.722.013 1.443-.052z" mask="url(#b)"/></g><path fill="#334580" d="M9.253 91.235c-1.316.124-3.023-.048-3.695-.129-1.175-.141-2.34-.112-3.466-.079-.465.014-.932.026-1.401.028-.382 0-.692.385-.691.862 0 .474.31.86.692.86h.002c.479-.003.953-.015 1.428-.028 1.137-.033 2.21-.06 3.302.072A25.11 25.11 0 008.207 93c.393 0 .786-.012 1.154-.05.38-.036.666-.451.637-.924-.03-.474-.377-.856-.745-.79M71.22 44h.018c.424-.004.767-.322.762-.71-.005-.387-.35-.696-.77-.696h-.01c-.071 0-.28-.087-.47-.302-.185-.208-.216-.38-.207-.419.09-.371-.156-.76-.561-.852-.404-.088-.813.108-.924.475-.157.51.008 1.104.449 1.627.46.55 1.102.877 1.713.877m2.535-2l.065-.001c.522-.025.944-.314 1.13-.778.149-.366-.045-.777-.434-.917a.77.77 0 00-.872.245.619.619 0 01-.223-.157c-.186-.351-.637-.49-1.004-.319a.693.693 0 00-.34.951c.286.548 1.027.976 1.678.976"/></g></svg>