<svg xmlns="http://www.w3.org/2000/svg" xmlns:xlink="http://www.w3.org/1999/xlink" width="266" height="125"><defs><path id="a" d="M1.626.621h202.49v20.76H1.626z"/></defs><g fill="none" fill-rule="evenodd"><path fill="#DAECD3" d="M95.391 88.071a.822.822 0 00.821-.822v-4.053a.822.822 0 10-1.642 0v4.053c0 .454.368.822.821.822m-.165 7.718a.822.822 0 00.821-.822v-4.165a.82.82 0 10-1.642 0v4.165c0 .454.368.822.821.822m.221 1.686a.822.822 0 00-.82.823v6.222a.82.82 0 101.641 0v-6.222a.822.822 0 00-.82-.823m-4.843-10.379c-.984.09-1.75 1.161-2.26 1.87l-.152.21c-.82 1.1-1.18 2.16-1.243 3.662-.036.911-.033 3.997 1.625 5.512a.82.82 0 001.16-.053.823.823 0 00-.053-1.161c-.901-.824-1.151-2.793-1.09-4.229.05-1.186.289-1.906.918-2.748l.169-.232c.197-.277.796-1.11 1.087-1.194a.822.822 0 00.732-.893c-.043-.453-.447-.767-.893-.744m17.013-4.139l-.176-.057c-2.064-.67-6.36-2.066-8.164.501a.825.825 0 00.672 1.296.824.824 0 00.671-.348c1.104-1.578 4.623-.435 6.314.115l.179.057a.821.821 0 10.504-1.564m3.345 19.09a57.743 57.743 0 00-.072-2.446l-.046-1.178c-.096-2.92-.013-5.91.065-8.799.056-2.003.11-4.008.11-6.011a.82.82 0 10-1.642 0c0 1.986-.054 3.976-.108 5.967-.028.985-.048 1.988-.067 2.99-.038-.005-.07-.022-.11-.022a.82.82 0 00-.821.823v.174a.82.82 0 00.82.822c.03 0 .053-.013.08-.016-.005.538.011 1.077.013 1.615a.887.887 0 00-.266-.05c-.454 0-.821.414-.821.87 0 .453.367.822.82.822a.834.834 0 00.278-.056c.007.307-.003.618.007.926l.028.736c-.238-.011-.527.076-.695.237a1.002 1.002 0 00-.261.74.823.823 0 00.898.739c.043-.005.076-.023.113-.033.012.383.035.768.035 1.151 0 .17.011.385.023.614a.853.853 0 00-.512-.176c-.454 0-.821.411-.821.865s.367.822.82.822a.804.804 0 00.526-.204c-.01.14-.03.259-.06.323a.824.824 0 00.73 1.2.822.822 0 00.729-.445c.297-.573.28-1.4.228-2.421-.01-.217-.021-.416-.021-.58m-4.723-8.032c-.201.2-.348.615-.282.892.066.278.333.556.603.646a.824.824 0 001.077-.87.82.82 0 00-1.397-.668m.378 3.532c-.24.035-.534.217-.663.421s-.166.582-.094.813a.821.821 0 001.558.03.815.815 0 00.125-.563.827.827 0 00-.926-.7m-.236 3.317h-.087c-.453 0-.776.369-.776.823 0 .454.41.822.863.822a.822.822 0 000-1.645"/><path fill="#C8E8EA" d="M165.823 37.727c-.451-1.178-1-2.316-1.63-3.406-.073-.298-.143-.6-.214-.895l-.279-1.168a.822.822 0 00-.988-.612.784.784 0 00-.243.114c-1.721-2.263-3.816-4.237-6.212-5.772a24.415 24.415 0 00-14.653-3.774c-5.103.335-9.964 2.319-13.686 5.585-.297.26-.571.543-.852.82a.811.811 0 00-.278-.42.82.82 0 00-1.15.16c-3.296 4.374-5.064 9.965-4.977 15.743.08 5.43 1.758 10.89 4.853 15.788a.824.824 0 001.135.253.824.824 0 00.254-1.135c-2.934-4.64-4.525-9.803-4.6-14.93-.015-.932.042-1.854.128-2.77a.782.782 0 00.09-.277c.581-4.52 2.944-8.891 6.478-11.995 3.453-3.03 7.968-4.87 12.713-5.18 4.77-.322 9.627.933 13.66 3.519a22.758 22.758 0 017.28 7.574c.468 1.977.902 3.982 1.13 5.983a.816.816 0 00-.606.264c-.23.253-.328.723-.172 1.028.141.28.522.468.845.468a.773.773 0 00.068-.003c.03.71.038 1.421-.007 2.127-.011.18-.043.376-.062.562-.035-.008-.063-.025-.097-.03a.823.823 0 00-.903.73.931.931 0 00.246.72.905.905 0 00.5.223 19.704 19.704 0 01-.832 2.905.81.81 0 00-1.018.219.825.825 0 00.15 1.153c.075.057.167.082.251.125a22.817 22.817 0 01-1.067 2.032.802.802 0 00-.494-.184h-.063c-.453 0-.79.369-.79.823 0 .32.202.588.477.725-.344.497-.711.988-1.106 1.472a.82.82 0 00-.573-.235h-.123c-.453 0-.758.367-.758.822 0 .272.16.502.382.651-3.724 3.958-9.35 7.162-17.32 7.877a.823.823 0 00.073 1.642c.026 0 .05-.002.075-.004 17.176-1.54 24.177-14.074 24.69-22.123.13-2.046-.065-4.08-.408-6.096.07-.006.141-.008.212-.036a.822.822 0 00.471-1.062"/><path fill="#C8E8EA" d="M162.395 44.69a.822.822 0 000-1.645h-.18a.82.82 0 00-.822.822.82.82 0 00.821.823h.18zm-2.207 3.016a.823.823 0 00.266.523.823.823 0 00.613.273.82.82 0 00.814-.735.936.936 0 00-.246-.717.909.909 0 00-.72-.249.822.822 0 00-.727.905m-.694 2.419h-.059c-.453 0-.793.368-.793.822 0 .454.399.823.852.823a.822.822 0 000-1.645m-.422-6.112a.822.822 0 000 1.644h.06c.453 0 .791-.368.791-.822 0-.454-.397-.822-.85-.822"/><path stroke="#CADDE8" stroke-linecap="round" stroke-linejoin="round" d="M188.928 11.402c2.612 1.65 4.842 2.714 5.8 6.058 1.252 4.358.699 9.694.699 14.192 0 8.582.816 17.096.635 25.684-.103 4.82.219 9.65.219 14.47m-23.048-59.954c.29.605.9 1.145 1.487 1.467-.128-.423-.441-.81-.725-1.122a5.99 5.99 0 001.01.505c-.063-.266-.043-.56-.25-.834.325.229.691.395 1.077.487-.016-.09.08-.416.05-.574.515-.072 1.034.01 1.479.283M138.043 97.5c.2.851 1.417 1.537 2.196 1.748a1.69 1.69 0 01-.474-.3"/><path fill="#FCEDAE" d="M75.75 52.874c-1.363-.122-2.12-.44-2.455-1.028a.82.82 0 00-1.12-.308.813.813 0 00-.395.625.812.812 0 00-.94.895.81.81 0 00-.507.874c.086.532.432 1 1.005 1.35.535.327 1.19.506 1.768.506.244 0 .472-.03.672-.097a.792.792 0 00.314-.2c.597-.01.895-.352 1.005-.52a.817.817 0 00.115-.502c.134.017.269.032.394.043a.821.821 0 00.144-1.638"/><path stroke="#CADDE8" stroke-linecap="round" stroke-linejoin="round" d="M37.391 71.174c1.288.031 2.306-.132 3.468-.76.38-.205.777-.46 1.068-.781.136-.148.33-.622.336-.423"/><path fill="#CBDCF1" d="M172.785 52.149c1.493.122 3.127.166 4.7.166 1.652 0 3.238-.05 4.528-.105.498-.022 1.261-.05 2.05-.076.963-.034 1.963-.069 2.576-.099a.821.821 0 00.778-.861c-.021-.454-.35-.823-.859-.782-.604.03-1.597.064-2.553.097-.793.028-1.563.055-2.064.078-2.474.108-6.049.185-9.021-.058a.811.811 0 00-.885.753c-.036.453.3.85.75.887m-.216 6.571c1.003.078 2.044.104 3.093.104 1.087 0 2.186-.028 3.265-.054.855-.023 1.698-.045 2.51-.051 1.077-.008 4.64-.05 5.29-.184a.82.82 0 00.635-.967.83.83 0 00-.968-.645c-.367.072-2.816.133-4.968.151-.823.007-1.677.03-2.54.051-2.08.053-4.232.109-6.189-.044a.83.83 0 00-.882.755.822.822 0 00.754.885m.022 6.789c.04 0 .08-.002.119-.008a7.056 7.056 0 011.443-.073c.21.007.409.013.704-.001.74-.032 1.477-.068 2.217-.05 1.016.018 2.013-.057 2.984-.135.403-.03.806-.062 1.206-.087.514-.031 1.132-.01 1.775.017 1.215.044 2.585.097 3.687-.186a.823.823 0 00-.404-1.594c-.872.222-2.12.176-3.222.135-.701-.025-1.37-.048-1.934-.013-.412.024-.824.057-1.237.09-.934.073-1.898.152-2.819.129-.79-.015-1.55.018-2.409.055a7.024 7.024 0 01-.494-.004 8.814 8.814 0 00-1.73.088.824.824 0 00.114 1.637m-72.035-39.38c1.49.123 3.122.165 4.693.165 1.653 0 3.241-.047 4.532-.103.49-.022 1.23-.048 2.001-.074.98-.035 2.007-.071 2.628-.1a.821.821 0 00.778-.862c-.021-.454-.35-.806-.859-.782-.614.03-1.632.066-2.602.099-.779.028-1.526.053-2.017.076-2.478.107-6.046.187-9.022-.058a.829.829 0 00-.884.753c-.036.453.3.85.752.887m-.218 6.571c1.005.079 2.048.103 3.1.103 1.09 0 2.19-.028 3.273-.054.849-.023 1.688-.044 2.497-.05 1.079-.01 4.642-.05 5.289-.185a.817.817 0 00.634-.966.821.821 0 00-.967-.644c-.327.062-2.51.128-4.967.15-.82.006-1.669.029-2.529.05-2.084.055-4.243.11-6.202-.044-.435-.025-.847.303-.882.755a.822.822 0 00.754.885m.024 6.789c.04 0 .08-.001.12-.008a6.99 6.99 0 011.44-.072c.209.008.407.013.668.001.752-.033 1.491-.07 2.253-.052 1.021.02 2.008-.056 2.975-.134.406-.032.811-.064 1.215-.088.514-.032 1.133-.007 1.777.016 1.207.045 2.584.094 3.685-.186a.823.823 0 00-.404-1.593c-.875.222-2.123.174-3.222.136-.7-.026-1.373-.05-1.934-.015-.414.025-.83.058-1.246.09-.93.075-1.892.149-2.81.129-.8-.016-1.574.02-2.409.056a7.325 7.325 0 01-.492-.003 8.665 8.665 0 00-1.732.087.824.824 0 00.116 1.636"/><path fill="#CBDCF1" d="M98.35 13.67h64.004l32.04 32.092V72.46c0 .282.15.518.366.666a.795.795 0 00-.475.391H91.623a.818.818 0 00.527-.763V19.012c.497-3.444 2.696-5.342 6.2-5.342zm66.564 0c.507.5 1.04.964 1.581 1.398.442.355.864.702 1.258 1.066a.797.797 0 00-.416.202l-2.66-2.666h.237zm8.68 0l20.818 20.854v2.084c-.003.03-.018.055-.018.087v2.612c-.297-.265-.603-.528-.862-.82-1.887-2.12-3.816-4.011-6.136-6.2a314.895 314.895 0 01-2.833-2.716c-2.179-2.102-4.43-4.276-6.766-6.264-2.035-1.732-3.759-3.671-5.585-5.724l-.386-.433c-.655-.738-1.385-1.46-2.118-2.189a86.136 86.136 0 01-1.277-1.29h5.162zm16.485 0c.937.586 1.716 1.248 2.218 1.934 1.406 1.923 1.632 2.597 1.864 5.556.044.574.078 1.324.11 2.171l-9.645-9.66h5.453zm-1.989 12.173c.352.386.723.751 1.092 1.118l-1.221-1.225c.044.034.087.072.13.107zm-7.924-11.706c-.01.008-.02.015-.026.025a2.729 2.729 0 00-.778-.102l-.005.002c-.083-.134-.174-.26-.257-.392h.62c.15.153.292.314.446.467zm1.885-.467h.253l2.527 2.531a78.354 78.354 0 01-2.78-2.53zm6.712 8.71c-.011.02-.024.038-.036.058a.783.783 0 00-.124.099c-.194-.24-.381-.494-.572-.74a.811.811 0 00-.437-.683l-.011-.006a.99.99 0 00-.063-.458c.565.472 1.119.951 1.679 1.426a.82.82 0 00-.436.305zm-2.257 64.175c.197.097.409.14.638.14.657 0 1.434-.36 2.26-.808h.236a.807.807 0 00.777-.61c.483-.322.942-.686 1.366-1.09a.82.82 0 00.678.368c.15 0 .3-.04.435-.125.94-.586 1.455-1.791 1.869-2.758.09-.21.176-.41.26-.586.438-.927.79-1.949 1.11-3.215.12-.467.173-1 .228-1.517.047-.459.101-.917.19-1.312a.812.812 0 00.419-.703.798.798 0 00-.137-.424.807.807 0 00-.404-.608.816.816 0 00-.848.049c-.048-.046-.104-.08-.16-.117a.81.81 0 00.613-.78V46.008a.798.798 0 000-.878v-.26c.054.012.108.033.164.033.2 0 .402-.074.562-.222.33-.31.346-.83.037-1.163a19.717 19.717 0 00-.763-.761v-.573c.207-.054.4-.156.51-.337.188-.316.094-.788-.154-1.056a.811.811 0 00-.202-.156c-.05-.03-.098-.072-.15-.102l.004-.842c.003-.888.008-2.224.01-3.786.031.005.062.018.095.018a.823.823 0 00.58-1.403l-.675-.678c0-.092 0-.182-.002-.276.048-.025.099-.045.141-.08a.826.826 0 00.286-.777 4.224 4.224 0 00-.299-.964.824.824 0 00.14-.888.845.845 0 00.001-.43 4.323 4.323 0 00-.289-.741l-.001-.239a.805.805 0 00.084-.46c-.015-.109-.064-.209-.092-.314l-.002-.21c.16.195.387.308.626.308a.821.821 0 00.668-1.3 13.306 13.306 0 00-1.097-1.323.81.81 0 00-.118-.984l-.136-.138c-.038-1.621-.092-3.028-.168-3.993-.254-3.26-.58-4.217-2.176-6.4a7.804 7.804 0 00-1.123-1.202.82.82 0 00.24-.582.82.82 0 00-.821-.823h-1.376a16.267 16.267 0 00-3.83-1.575.82.82 0 00-.452 1.576h-3.274l-1.146-1.149a.82.82 0 10-1.17 1.148h-.25c-.33-.343-.672-.679-.988-1.03a.819.819 0 00-1.159-.065.816.816 0 00-.102 1.095h-.358a.8.8 0 00-.556 0h-2.209c-.121-.079-.233-.17-.354-.248a.808.808 0 00-.724-.058l-.841-.842a.818.818 0 00-1.161 0 .823.823 0 00-.01 1.148h-4.99c-.2-.248-.397-.496-.574-.75a.82.82 0 00-1.143-.204.792.792 0 00-.271.356.807.807 0 00-.795.074.813.813 0 00-.328.524h-.82l-.656-.656a.818.818 0 00-1.161 0 .813.813 0 00-.227.656H98.35c-3.212 0-5.654 1.416-6.94 3.898-.027-.003-.053-.016-.081-.016a.82.82 0 00-.821.822v56.025c0 .365.24.664.566.771a.818.818 0 00.041 1.637h102.98c-.025.286-.025.566-.07.853-.065-.016-.13-.039-.201-.039-.453 0-.821.393-.821.847a.81.81 0 00.652.788c-.138.487-.315.957-.506 1.43a.8.8 0 00-.38-.17.935.935 0 00-.715.23.913.913 0 00-.26.704.812.812 0 00.66.722c-.188.344-.375.686-.589 1.007a.825.825 0 00-.609-.269c-.453 0-.821.394-.821.85 0 .297.167.547.404.692a9.018 9.018 0 01-1.869 1.435h-76.972a.82.82 0 00-.821.823.82.82 0 00.82.822h74.07a.811.811 0 00.439.668z"/><path fill="#CBDCF1" d="M142.32 79.263a.819.819 0 00-.193-.397c.286.11.345.305.36.505.032.446-.207 1.01-.544 1.397a.915.915 0 01-.038.015c.337-.347.536-.874.416-1.52m-1.552 3.67a3.62 3.62 0 001.087-.175c.199-.063.39-.153.571-.265.951-.457 1.738-1.355 1.843-2.557.008-.086.011-.168.013-.252a2.872 2.872 0 00-.691-2.07 2.924 2.924 0 00-.373-.356 3.45 3.45 0 00-.363-.283 2.948 2.948 0 00-3.036-.164c-1.72.89-2.148 2.988-1.557 4.422.452 1.094 1.381 1.703 2.506 1.7m50.681-4.608a.824.824 0 00.581-1.405l-.049-.047c-.318-.32-.816-.297-1.136.024-.32.32-.297.865.023 1.188.16.16.37.24.581.24m-2.13 1.264a.822.822 0 101.643 0v-.048c0-.455-.368-.8-.821-.8-.454 0-.821.394-.821.848m-1.504-2.981c-.454 0-.821.391-.821.847a.822.822 0 101.642 0v-.051c0-.454-.368-.796-.821-.796m.388 4.585c-.454 0-.797.369-.797.823 0 .454.391.822.844.822a.82.82 0 00.821-.822.82.82 0 00-.82-.823h-.048zm-32.95 6.451h-.08a.826.826 0 00.083-.349.822.822 0 00-.821-.822H134.05a.822.822 0 000 1.645h.365a.808.808 0 00-.084.348.82.82 0 00.82.823h20.104a.822.822 0 000-1.645m-7.258 11.141a39.199 39.199 0 00-1.952-.545c-1.432-.372-2.782-.722-4.082-1.469-2.086-1.197-3.255-3-4.61-5.087l-.413-.635a.821.821 0 10-1.373.903l.41.629c.608.937 1.206 1.85 1.88 2.699a.813.813 0 00-.505.462c-.097.235-.164.613.058 1.084.121.258.343.516.599.768a.82.82 0 00-.647.469.822.822 0 00.414 1.085l.282.133c.462.222 1.025.494 1.685.494.046 0 .092-.002.14-.005a.811.811 0 00.67-.456c.33.165.602.28.745.324.07.022.138.031.202.031.317 0 .556-.248.68-.59a.668.668 0 00.013-.355c1.152.51 2.31.815 3.44 1.108.619.16 1.24.323 1.87.52a.813.813 0 001.03-.536.822.822 0 00-.536-1.031m54.238.383c-1.064-1.9-3.274-2.758-4.988-2.927a.845.845 0 00-.847.577c-2.217-.319-4.573.166-6.375.544-.573.124-1.159.226-1.745.331-1.956.345-3.978.7-5.791 1.724-2.586 1.457-3.688 3.128-3.105 4.702a.82.82 0 001.056.485.826.826 0 00.484-1.057c-.309-.83 1.084-1.972 2.37-2.698 1.57-.883 3.45-1.217 5.272-1.537.604-.109 1.207-.214 1.8-.34 3.464-.73 6.75-1.215 8.822.904.94.963 1.4 2.378 1.184 3.526a.834.834 0 00-.286.42.833.833 0 00.136.728c.084.135.2.252.337.32.105.053.24.078.376.078.157 0 .317-.033.44-.09a.81.81 0 00.419-.46c.082-.223.144-.457.19-.693a.814.814 0 00.514-.193c1.199-1.021.006-3.863-.263-4.344M58.6 49.58c.236-.202.513-.383.792-.567a.824.824 0 00.747.092.818.818 0 00.491-1.013c.222-.19.444-.38.623-.615a.823.823 0 00-1.309-.997c0 .002-.002.002-.002.002l-.036-.084c-.396-.839-.768-1.632-.94-2.438a.823.823 0 00-1.607.344c.212.992.644 1.91 1.063 2.796.07.15.126.3.195.45-.384.25-.762.502-1.083.779-.546.467-1.084.946-1.621 1.426-1.046.936-2.13 1.903-3.26 2.743-1.991 1.482-3.538 2.76-4.866 4.02a55.42 55.42 0 01-2.407 2.155 21.78 21.78 0 01-.926.722c-.86.648-1.75 1.319-2.329 2.166a.825.825 0 00.678 1.286.82.82 0 00.678-.359c.426-.623 1.204-1.21 1.958-1.778.351-.264.694-.523 1-.78a57.616 57.616 0 002.477-2.218c1.28-1.214 2.779-2.45 4.716-3.893 1.189-.885 2.3-1.877 3.374-2.837A98.04 98.04 0 0158.6 49.58m102.166 53.432h-37.107a.822.822 0 000 1.645h37.107a.822.822 0 000-1.645M48.197 91.857c-.464-1.438-.945-2.924-1.692-4.286-.578-1.058-1.028-2.132-1.429-3.138-.333-.836-.716-1.647-1.097-2.456-.332-.7-.665-1.4-.96-2.12-.368-.887-.688-1.79-1.01-2.693a73.76 73.76 0 00-.74-2.016c-.135-.352-.383-.82-.65-1.312-.152-.283-.372-.69-.55-1.065.536-.092 1.047-.24 1.47-.496.145-.088 1.424-.875 1.849-1.655a.822.822 0 00-1.44-.791c-.115.212-.727.717-1.258 1.038-.338.207-.78.324-1.257.355a.795.795 0 00-.44-.18.711.711 0 00-.485.127c-.105-.018-.21-.024-.315-.049a.822.822 0 00-.384 1.599c.164.04.331.034.499.059.177.521.473 1.11.867 1.84.23.425.448.823.565 1.124.252.654.487 1.316.722 1.975.332.93.662 1.857 1.04 2.77.306.743.648 1.469.991 2.196.368.778.737 1.555 1.058 2.36.42 1.052.893 2.184 1.514 3.319.673 1.225 1.11 2.574 1.57 4.003.492 1.518.998 3.09 1.819 4.503a.823.823 0 001.123.3.824.824 0 00.297-1.125c-.732-1.263-1.192-2.683-1.677-4.186m15.857 8.829c-.08-.567-.25-1.09-.415-1.597-.151-.465-.294-.906-.347-1.324a.819.819 0 00-.916-.714.796.796 0 00-.465.24c-.08-.121-.15-.25-.246-.358a.824.824 0 00-1.157-.09.838.838 0 00-.165.21c-.735-.57-1.688-.967-2.865-1.122a.825.825 0 00-.92.71c-.058.45.26.863.708.923.848.109 2.337.477 2.816 1.701.427 1.087.378 2.434.329 3.737-.015.428-.03.849-.03 1.257a.82.82 0 00.821.822.813.813 0 00.42-.132c.143.127.329.21.537.21.2 0 .378-.08.52-.2a.817.817 0 001.127.226c.782-.515.715-1.818.3-4.198l-.052-.3z"/><path stroke="#CBDCF1" stroke-linecap="round" stroke-linejoin="round" d="M63.514 98.746c.427 1.572.366 3.002.08 4.633"/><path fill="#D4DAE5" d="M71.153 43.642c-.164.02-.66.079-2.26 1.368-.58.469-1.147.954-1.714 1.44l-.279.238c-.202.174-.43.357-.666.549-.606.485-1.286 1.035-1.862 1.656-.386-.274-.744-.982-1.032-1.566a10.64 10.64 0 00-.473-.893l-.277-.445a.821.821 0 00.504-.759v-.106c0-.454-.368-.769-.82-.769a.779.779 0 00-.551.244 23.3 23.3 0 01-.729-1.29.81.81 0 00.617-.78v-.054c0-.455-.366-.796-.82-.796a.77.77 0 00-.454.165c-.016-.041-.033-.077-.047-.117l-.2-.564a33.647 33.647 0 01-.265-.766.809.809 0 00.622-.754c.01-.276-.17-.643-.396-.804a.802.802 0 00-.648-.13c-.09-.798-.002-1.673.095-2.53l.02-.164c.079-.69.295-1.276.662-1.793l.096-.136c.406-.58.688-.916.84-1a.824.824 0 00.536-1.013.818.818 0 00-1.018-.56c-.655.191-1.179.88-1.791 1.754-.525.738-.849 1.602-.975 2.727-.125 1.095-.268 2.337-.01 3.508.169.773.432 1.506.686 2.217l.196.55c.538 1.54 1.366 2.855 2.167 4.124l.563.902c.133.217.261.481.397.76.388.787.836 1.652 1.559 2.169a3.543 3.543 0 00-.248.628.804.804 0 00.072.612c-1.323 1.969-.437 5.12-.233 5.755.222.69.561 1.543 1.22 1.997a.828.828 0 00.465.144c.093 0 .182-.034.267-.065-.468.583-.781 1.18-.793 1.79a.822.822 0 00.806.838h.015a.822.822 0 00.821-.808c.012-.67 1.713-2.065 2.273-2.523l.262-.217c.235-.196.495-.393.757-.594.573-.437 1.17-.891 1.636-1.406a.821.821 0 00-1.215-1.107c-.367.405-.9.811-1.416 1.206-.28.214-.558.427-.813.636l-.25.21c-.544.445-1.083.902-1.544 1.37a.822.822 0 00-.342-.83c-.128-.088-.335-.36-.586-1.144-.478-1.492-.653-3.522.085-4.451a.82.82 0 00.063-.926c.006-.018.026-.025.03-.044.275-.986 1.51-1.979 2.503-2.777.252-.202.493-.396.708-.579l.276-.238c.555-.476 1.108-.95 1.678-1.41.693-.559 1.314-.97 1.422-1.016a.822.822 0 00.72-.915.845.845 0 00-.912-.718m14.362.8c-1.323-.021-2.594.375-3.84 1.257-.47.332-.956.638-1.443.944a43.91 43.91 0 00-1.051.676l-.304.197c-1.025.66-1.833 1.21-2.126 1.823-.19.396-.023.847.366 1.054a.767.767 0 00.367.092.872.872 0 00.741-.423c.164-.278 1.164-.92 1.539-1.162l.325-.211c.335-.225.676-.44 1.016-.653a33.94 33.94 0 001.519-.995c.955-.678 1.862-.98 2.847-.954.461-.015.83-.345.842-.8a.822.822 0 00-.798-.845M39.123 63.76a1.704 1.704 0 00-.374-.2c-.616-.361-1.365-.218-1.884.38a1.835 1.835 0 00-.123.157 1.05 1.05 0 00-.175.29 1.735 1.735 0 00.01 1.582c.323.631.986 1.047 1.65 1.046.046 0 .093 0 .138-.005.651-.058 1.164-.507 1.376-1.2.252-.838.024-1.604-.618-2.05"/><path fill="#D4DAE5" d="M62.645 43.056c.16.161.37.24.581.24a.816.816 0 00.58-.24l.052-.053c.322-.322.294-.815-.024-1.136-.324-.322-.869-.293-1.19.026a.824.824 0 000 1.163m-1.457-2.754a.822.822 0 101.642 0v-.052c0-.456-.368-.796-.82-.796-.454 0-.822.394-.822.848m-1.505-4.079a.824.824 0 00.58 1.405c.21 0 .42-.08.58-.242l.053-.052c.322-.323.294-.816-.025-1.137-.323-.322-.87-.293-1.188.026"/><path fill="#F3D139" d="M72.208 56.384c-.148 0-.297-.007-.445-.023-.471-.048-2.082-.298-3.123-1.45a.821.821 0 011.215-1.104c.519.572 1.442.851 2.077.919.964.097 2.182-.352 3.118-1.148 1.207-1.025 1.79-3.456 1.138-4.727a.821.821 0 111.46-.753c.998 1.943.253 5.215-1.535 6.735-.917.776-2.383 1.55-3.905 1.55"/><g transform="translate(27.914 103.201)"><mask id="b" fill="#fff"><use xlink:href="#a"/></mask><path fill="#B0DFF8" d="M203.295 8.278h-53.451v-.046c0-.455-.366-.781-.821-.781-.44 0-.793.388-.813.827h-2.164a.815.815 0 00-.706-.862c-.238-.03-.567.066-.746.242-.152.148-.233.395-.243.62h-2.428c.002-.016.01-.031.01-.046v-.17a.822.822 0 10-1.642 0v.17c0 .015.008.03.01.046h-2.62c.01-.038.032-.07.037-.11a.823.823 0 00-.711-.921c-.24-.03-.567.066-.746.243a.972.972 0 00-.259.74c.002.017.01.03.013.048h-2.693a.86.86 0 00-.257-.585c-.322-.326-.887-.277-1.204.04a.8.8 0 00-.232.545h-2.333c.002-.016.008-.031.008-.046v-.17a.82.82 0 10-1.642 0v.17c0 .015.009.03.01.046h-1.681V8a.822.822 0 10-1.642 0v.278H7.439c.28-.88.656-1.824 1.257-2.69.95-1.367 3.501-3.418 4.989-3.32.464.061.84-.322.865-.776a.82.82 0 00-.775-.865c-.99-.063-2.115.403-3.166 1.06a.8.8 0 00-.468-.225c-1.085-.095-2.14.356-3.114 1.31-1.452 1.42-2.477 3.695-2.821 5.506H2.447a.82.82 0 00-.821.823.82.82 0 00.821.822h1.675c.098.35.405.609.777.609.02 0 .037 0 .057-.002a.8.8 0 00.484-.219c.086.39.417.749.807.749h.03c.447-.02.795-.47.78-.918l-.006-.219h8.264c-.018.067-.042.132-.042.204v9.386a.822.822 0 101.641 0v-9.386c0-.072-.023-.137-.04-.204H27.3a.822.822 0 00-.496.755v9.882a.82.82 0 101.642 0v-9.882a.821.821 0 00-.497-.755h151.564c-.018.067-.043.132-.043.204v9.386a.822.822 0 101.642 0v-9.386c0-.072-.023-.137-.041-.204h10.427a.822.822 0 00-.496.755v9.882a.82.82 0 101.642 0v-9.882a.821.821 0 00-.498-.755h11.15a.822.822 0 000-1.645" mask="url(#b)"/></g><path fill="#B0DFF8" d="M171.044 110.315a.822.822 0 00.821-.822v-.17a.822.822 0 10-1.642 0v.17c0 .454.368.822.821.822m-4.713-.252a.822.822 0 00.821-.822v-.17a.822.822 0 10-1.642 0v.17c0 .454.368.822.821.822m-4.631 0a.822.822 0 00.821-.822v-.17a.822.822 0 10-1.642 0v.17c0 .454.368.822.821.822m-3.955-.253a.822.822 0 000-1.645h-.084c-.453 0-.778.368-.778.822 0 .454.409.822.862.822m-20.697-58.885a.82.82 0 001.54.067.814.814 0 00.104-.537.825.825 0 00-.934-.69.947.947 0 00-.623.405 1 1 0 00-.087.755m.952 3.339a.819.819 0 00.531-.26.8.8 0 00.266-.525.82.82 0 00-.73-.903.928.928 0 00-.701.24.922.922 0 00-.253.698.82.82 0 00.816.753c.024 0 .047-.002.07-.003m.233 2.769a.822.822 0 000-1.645h-.05c-.454 0-.796.368-.796.822 0 .454.393.823.846.823"/><path fill="#B0DFF8" d="M135.59 57.258h.032c.015-.002.028-.01.044-.011a.805.805 0 00.705.439.918.918 0 00.63-.257.915.915 0 00.238-.72.825.825 0 00-.837-.706c-.008-.23-.008-.462-.015-.694a.813.813 0 00.759-.81v-.05c0-.446-.355-.78-.795-.791-.005-.285-.018-.568-.02-.852a.82.82 0 00.815-.821v-.051c0-.449-.358-.786-.805-.794.002-.418.002-.836.008-1.254a.818.818 0 00.797-.817v-.102c0-.433-.335-.73-.759-.76.061-2.14.168-4.275.337-6.393a.82.82 0 10-1.636-.132 126.748 126.748 0 00-.318 14.785c.018.442.38.791.82.791m14.668.704h.013c.07 0 .131-.027.196-.043.059.018.116.043.182.046a.821.821 0 00.86-.78c.253-5.102.46-10.33.616-15.543a.823.823 0 00-.798-.847.823.823 0 00-.73.423.815.815 0 00-.566-.229h-.013a.822.822 0 00-.808.834l.227 15.328c.007.45.374.81.821.81m-11.417-16.682a.821.821 0 00.811-.832 12.116 12.116 0 011.734-6.337c.202-.333.427-.67.71-.897.791-.633 2.067-.363 2.8.252.976.822 1.367 2.172 1.521 3.161.12.763.155 1.536.19 2.355.024.587.05 1.176.106 1.762a.821.821 0 00.816.742c.028 0 .054 0 .082-.004a.823.823 0 00.737-.898c-.056-.556-.079-1.115-.102-1.672-.036-.828-.07-1.685-.205-2.54-.286-1.816-1.01-3.257-2.09-4.166-1.455-1.224-3.548-1.344-4.882-.276-.482.388-.819.886-1.087 1.325a13.79 13.79 0 00-1.972 7.212c.004.454.312.778.831.813"/><path fill="#25BBB5" d="M143.518 22.101c-6.548 0-12.168 3.1-15.18 5.796-5.944 5.324-8.738 15.704-6.233 23.138 1.557 4.62 4.692 8.678 8.6 11.128 9.016 5.658 19.403 3.157 25.555-.702 1.683-1.056 3.025-2.61 4.003-3.844 1.987-2.505 3.481-5.485 4.442-8.856 1.107-3.89 1.212-7.408.31-10.46-1.059-3.583-3.272-7.06-6.236-9.79-5.14-4.736-10.45-6.41-15.26-6.41m-1.143 45.02c-4.136 0-8.466-1.007-12.543-3.563-4.284-2.689-7.581-6.949-9.282-11.995-2.7-8.003.303-19.17 6.694-24.891 5.606-5.022 19.641-11.354 32.647.628 3.177 2.93 5.555 6.671 6.698 10.535.99 3.355.888 7.182-.307 11.376-1.018 3.582-2.613 6.755-4.734 9.43-1.06 1.337-2.522 3.024-4.417 4.213-3.79 2.379-9.09 4.267-14.756 4.267"/><path fill="#324580" d="M47.604 93.505c-1.361-3.214-3.419-8.072-4.187-9.78-.982-2.179-2.123-4.761-3.14-7.376-.54-1.39-1.054-2.517-1.548-3.607-.443-.972-.864-1.893-1.25-2.902a.821.821 0 10-1.533.593c.4 1.039.83 1.988 1.289 2.991.486 1.07.988 2.175 1.512 3.523 1.03 2.648 2.182 5.255 3.172 7.454.76 1.69 2.815 6.538 4.173 9.747a860.69 860.69 0 001.28 3.013.821.821 0 101.505-.656c-.161-.375-.647-1.525-1.273-3m2.593-9.334c-1.911-4.495-3.716-8.743-4.235-9.894-.177-.389-.6-1.393-1.07-2.5-.672-1.584-1.432-3.374-1.695-3.92a.821.821 0 10-1.478.717c.26.537 1.002 2.291 1.662 3.844.476 1.125.906 2.145 1.087 2.538.51 1.133 2.312 5.372 4.217 9.86 1.681 3.952 3.412 8.031 4.333 10.147.328.753.868 2.077.904 2.166l.766-.298.66.488c.308-.417.308-.417-.826-3.016a1598.92 1598.92 0 01-4.325-10.132M38.936 60.654a.819.819 0 001.09-.4c.318-.685 1.673-1.789 2.66-2.595.448-.363.859-.699 1.156-.973 1.15-1.06 2.42-2.047 3.651-3.002.644-.5 1.286-.998 1.917-1.51.875-.709 1.776-1.388 2.678-2.07 1.103-.831 2.244-1.691 3.328-2.603.519-.434.95-.817 1.358-1.179.849-.752 1.581-1.401 2.801-2.26a.819.819 0 00.2-1.145.82.82 0 00-1.142-.2c-1.298.911-2.097 1.621-2.946 2.373a65.92 65.92 0 01-1.325 1.151c-1.051.884-2.176 1.73-3.263 2.551-.916.691-1.832 1.382-2.722 2.104-.62.505-1.256.995-1.89 1.489-1.258.975-2.558 1.985-3.757 3.09-.279.257-.662.567-1.08.91-1.235 1.006-2.636 2.146-3.112 3.177-.19.411-.013.9.398 1.092m21.815-12.538c-3.497 2.343-6.996 5.315-9.653 7.644-1.087.952-2.241 1.848-3.358 2.715-1.734 1.347-3.529 2.74-5.14 4.393a.824.824 0 00.589 1.396.811.811 0 00.586-.248c1.532-1.57 3.202-2.868 4.97-4.242 1.136-.881 2.31-1.79 3.433-2.776 2.621-2.296 6.067-5.225 9.488-7.515a.822.822 0 00-.915-1.367M195.845 71.9c-.354.263-1.399.212-2.093.183-.276-.012-.542-.025-.782-.025-1.29-.021-2.61.04-3.914.08-1.274.04-2.552.08-3.84.08-12.97 0-39.545-.081-54.84-.129-5.852-.018-10.052-.03-11.211-.031-1.62-.002-3.235-.035-4.85-.064-3.064-.06-6.228-.124-9.365.03-2.203.106-4.702.003-7.113-.093-2.346-.095-4.564-.174-6.57-.093a7627.91 7627.91 0 00-.104-6.93c-.13-8.348-.29-18.74-.283-23.73.004-2.377-.018-4.755-.037-7.135-.041-4.306-.08-8.761.039-13.122.118-4.287 2.502-8.597 6.875-8.597l.085.002c3.334-.145 69.632-.253 70.3-.253l19.887-.005c6.501 0 7.925 6.383 7.925 8.845.001.41.111 37.276.03 50.921-.045.023-.096.033-.139.066m1.75-50.988c0-4.056-2.597-10.489-9.566-10.489l-19.889.005c-2.734.003-67.002.109-70.32.253h-.116c-5.369 0-8.321 5.109-8.464 10.194-.12 4.392-.08 8.862-.04 13.185.02 2.373.042 4.745.038 7.115-.008 5.005.153 15.404.283 23.758.08 5.187.146 9.457.146 10.842 0 2.446.15 5.214 1.254 7.217.63 1.145 1.718 2.03 3.229 2.628a.82.82 0 001.065-.462.825.825 0 00-.461-1.067c-1.164-.46-1.95-1.08-2.396-1.892-.93-1.689-1.05-4.319-1.05-6.424 0-.46-.007-1.265-.02-2.293 1.952-.084 4.154-.003 6.482.092 2.448.1 4.98.204 7.26.09 3.075-.149 6.217-.085 9.252-.027 1.625.031 3.253.064 4.88.066 1.16.001 5.36.013 11.21.03 15.296.049 41.872.13 54.843.13 1.306 0 2.6-.04 3.892-.08 1.274-.04 2.545-.08 3.824-.08.226.001.48.011.745.023.76.033 1.585.059 2.296-.129-.005.604-.012 1.155-.018 1.602-.043 2.918-1.058 9.72-9.542 9.849-4.665.196-48.817.003-49.264 0-3.79-.002-7.409.056-10.886.122-5 .093-9.722.179-14.852.05-.438.004-.83.348-.842.8a.824.824 0 00.8.844c1.89.048 3.725.067 5.538.067 3.136 0 6.205-.057 9.387-.117 2.028-.037 4.115-.069 6.244-.09a88.3 88.3 0 001.373 2.556c1.433 2.587 3.217 5.808 3.217 7.368 0 .612-.153 1.05-.486 1.375-1.01.989-3.573.94-6.046.898-.54-.011-1.08-.021-1.613-.021-2.745 0-6.13 2.178-6.79 5.42a.825.825 0 00.805.988c.381 0 .723-.27.803-.658.48-2.35 3.132-4.105 5.182-4.105.52 0 1.051.01 1.582.02a81.59 81.59 0 001.625.018l.008.001 16.99.017a.823.823 0 000-1.645l-11.188-.012c.5-.606.77-1.37.77-2.296 0-1.986-1.74-5.128-3.422-8.166-.347-.625-.667-1.21-.966-1.771.921-.005 1.818-.018 2.762-.018.732.003 8.115.036 16.975.06.832 2.499 4.067 9.149 4.827 10.55.72 1.319 1.49 3.053 1.07 4.76-.032.123-.336 1.217-1.679 1.732a.822.822 0 00.588 1.534c1.609-.616 2.441-1.886 2.683-2.873.555-2.257-.358-4.359-1.219-5.94-.768-1.41-3.546-7.17-4.526-9.757 12.812.034 27.926.047 30.596-.066 8.088-.122 11.057-6.004 11.138-11.469.134-9.21.001-53.865 0-54.312"/><path fill="#324580" d="M101.728 64.052c1.153-1.6 2.347-3.253 2.78-5.355.4-1.93-.364-4.567-2.297-5.46-1-.463-2.064-.387-2.834.199-.775.588-1.136 1.6-.962 2.705.07.45.502.758.94.684a.823.823 0 00.684-.94c-.08-.504.04-.918.33-1.137.287-.217.709-.222 1.156-.016 1.142.528 1.643 2.338 1.377 3.631-.364 1.758-1.405 3.2-2.505 4.725-1.02 1.413-2.074 2.875-2.601 4.652-.752 2.543-.749 8.028 2.65 9.793a.822.822 0 00.757-1.457c-2.2-1.145-2.555-5.425-1.833-7.87.447-1.506 1.375-2.792 2.358-4.154"/><path fill="#324580" d="M108.083 59.165h-.028a.822.822 0 00-.82.795c-.032.99-.807 1.775-1.625 2.605-.525.533-1.067 1.082-1.461 1.73-.892 1.476-1.58 3.658-.831 5.357a.818.818 0 001.082.42.822.822 0 00.419-1.084c-.463-1.05.036-2.686.735-3.84.293-.483.744-.941 1.224-1.427.959-.972 2.044-2.072 2.098-3.707a.821.821 0 00-.793-.849m94.838 38.655c-1.82-2.26-5.173-3.01-9.443-2.114-.81.167-1.617.329-2.418.486-1.368.272-2.7.542-4.023.844-.018-.099-.035-.2-.079-.296-.253-.577-.896-.939-1.497-.867a.822.822 0 00-.527.283 1.51 1.51 0 00-.232.186 1.2 1.2 0 00-.263 1.357c-.847.242-1.694.505-2.55.817-1.574.573-2.735 1.576-3.267 2.821-.473 1.109-.434 2.359.115 3.614a.823.823 0 001.082.424.822.822 0 00.422-1.082c-.366-.842-.404-1.619-.11-2.31.353-.822 1.175-1.504 2.32-1.922 2.93-1.068 5.844-1.645 8.927-2.255.807-.158 1.62-.32 2.437-.492 2.102-.436 5.923-.826 7.83 1.54.938 1.16.9 3.097.457 4.562a.824.824 0 00-.563.944.814.814 0 00.962.648c.113-.021.217-.057.342-.112a.821.821 0 00.671-.53c.739-1.981.84-4.776-.593-6.547"/><path fill="#F3F1EE" d="M232.47 27.775c.102.628.352 1.196.867 1.505a.813.813 0 00.959-.084c1.383-1.197.55-3.602.07-4.992a.82.82 0 00-.772-.554c-.122-.026-.342.054-.478.151a.818.818 0 00-.552.528c-.264.781-.593 2.168-.125 3.306.01.046.02.094.032.14m8.024.225c-.053.02-.12.03-.171.049a.823.823 0 10.307 1.586c.072 0 .144-.023.217-.043.06.309.11.577.121.732.025.302.099.829.202 1.487-.04.04-.087.072-.12.121a.822.822 0 00.22 1.142c.033.023.084.03.122.049.781 4.485 2.408 12.355 2.886 13.378a.818.818 0 001.089.395c.41-.19.586-.68.399-1.092-.315-.688-1.878-7.979-2.686-12.487.895-.082 2.065-.324 3.605-.697.326-.08.601-.147.792-.186a.824.824 0 00.635-.974.827.827 0 00-.972-.636c-.203.042-.496.113-.842.197-.688.166-2.465.594-3.493.681a22.373 22.373 0 01-.202-1.505 9.444 9.444 0 00-.165-1.011c.35-.066.712-.129 1.075-.188 1.26-.204 2.45-.396 3.192-.868a.823.823 0 00-.882-1.389c-.454.292-1.58.474-2.57.635-.395.063-.784.135-1.17.208-.07-.301-.141-.604-.225-.954-.493-2.078-1.107-4.663-1.09-5.61a.821.821 0 00-.808-.836c-.488.048-.826.355-.834.81-.02 1.15.568 3.624 1.134 6.016.08.332.158.666.234.99m8.747 1.108a.805.805 0 00.58 1.352.815.815 0 00.925 1.173c.292-.074.624-.244.977-.421.187-.094.373-.19.529-.254.102-.04.231-.079.361-.118.319-.099.622-.19.846-.359.363-.271.46-.8.189-1.164a.838.838 0 00-.209-.19.788.788 0 00.29-.345.82.82 0 00-.444-1.074c-.212-.087-.475-.092-.754-.065a.807.807 0 00-.023-.578.823.823 0 00-1.082-.422c-.23.102-.461.222-.696.345-.475.25-.925.485-1.342.518a.822.822 0 00-.752.887.808.808 0 00.605.715M217.62 43.509c-.045.041-.1.076-.136.128a.826.826 0 00.2 1.147c.104.072.229.116.34.177.084.34.168.681.278 1.009a.821.821 0 001.043.514.81.81 0 00.446-.381.811.811 0 00.596-.495c.261.03.52.054.764.075l.759.076c.476.05.944.099 1.428.1h.003a.82.82 0 00.821-.819.821.821 0 00-.817-.825c-.427-.002-.841-.048-1.26-.092l-.788-.078a19.148 19.148 0 01-1.207-.141c-.05-.145-.102-.291-.14-.433-.454-1.68-.971-3.584-1.183-5.42a.824.824 0 00-.91-.721.803.803 0 00-.63.462.818.818 0 00-.764.855c.064 1.41.51 2.816.946 4.176.074.232.141.457.212.686m1.389-5.647a.82.82 0 001.147.188.821.821 0 00.187-1.148c-.302-.42-.473-1.674-.551-2.275a8.232 8.232 0 01.07-2.612c.064-.337.128-.611.187-.835.1.112.206.23.238.29.46.822.71 1.567.84 2.494.091.639.106 1.326.12 1.99l.016.51c.005.153.018.56.059.563a.824.824 0 00.606 1.378c.221 0 .445-.09.606-.268.382-.416.392-1.056.366-1.837l-.01-.383c-.015-.714-.033-1.45-.138-2.183a8.398 8.398 0 00-1.031-3.067c-.138-.245-.34-.466-.554-.7a6.685 6.685 0 01-.333-.396.795.795 0 00-.067-.41.82.82 0 00-.801-.458c-.012 0-.022-.007-.033-.007h-.005a.811.811 0 00-.701.42c-.424.454-.724 1.261-.979 2.589a10.02 10.02 0 00-.085 3.143c.154 1.143.348 2.32.847 3.014"/><path fill="#F3F1EE" d="M263.501 53.193h-8.886c0-.018.01-.033.01-.051v-.086c0-.454-.368-.78-.821-.78-.455 0-.821.41-.821.866 0 .018.01.033.01.05H251.1c.008-.045.028-.088.028-.136v-.085c0-.454-.368-.78-.82-.78-.456 0-.822.411-.822.865 0 .048.02.09.026.137h-1.735c.011-.073.028-.143.021-.22a.828.828 0 00-.279-.538.818.818 0 00-.54-.282.831.831 0 00-.898.735.89.89 0 00.04.305h-1.97a.855.855 0 00-.835-.703.809.809 0 00-.797.703h-27.564c-.026-1.08.032-2.196.096-3.291.057-.954.115-1.903.115-2.826a.822.822 0 00-.821-.822c-.074 0-.142.024-.209.042a.812.812 0 00-.77-.57h-.012a.82.82 0 00-.81.832c.019 1.378.085 2.756.152 4.135.069 1.464.14 2.926.15 4.385a.822.822 0 00.82.815h.007c.143 0 .27-.047.388-.113.067.018.134.038.206.038.041 0 .08-.004.124-.008a.824.824 0 00.69-.936l-.004-.037H263.5a.822.822 0 000-1.644"/><path fill="#F3F1EE" d="M252.014 50.44a.822.822 0 00-.821.822v.171a.822.822 0 101.642 0v-.17a.822.822 0 00-.821-.823m-7.832-.013c-.198.202-.343.613-.277.891.067.277.333.55.603.64a.821.821 0 001.075-.868.818.818 0 00-.24-.668.82.82 0 00-1.16.005m3.684.976a.812.812 0 00.578.237.86.86 0 00.595-.241l.034-.035c.322-.322.292-.814-.028-1.135-.323-.322-.872-.293-1.19.028a.809.809 0 00.011 1.146m-18.252-8.315a1.24 1.24 0 01.164-.05v3.114a.82.82 0 101.642 0v-3.37c2.126-.215 5.323-.297 5.867.04a.816.816 0 001.148.17.821.821 0 00.17-1.149c-.801-1.082-4.586-.973-7.185-.686V18.075a.822.822 0 10-1.642 0v23.313c-.396.07-.691.138-.813.189a.82.82 0 00-.427 1.075.824.824 0 001.076.436M38.54 33.231c-.799.142-1.472.262-1.817.303-2.904.348-6.502.774-9.395.473-.18-1.131-.263-2.45-.323-3.597l-.033-.577c-.092-1.628-.273-3.283-.445-4.882-.224-2.034-.452-4.136-.496-6.17a.811.811 0 00-.84-.805.823.823 0 00-.802.84c.046 2.108.28 4.246.504 6.315.172 1.577.35 3.209.44 4.794l.031.573c.097 1.817.219 4.078.77 5.562a.823.823 0 001.058.484.807.807 0 00.51-.874c.582.043 1.161.089 1.772.089 2.506 0 5.19-.322 7.481-.597.325-.04 1.031-.163 1.87-.312 1.222-.216 3.69-.653 4.37-.653h.02a.822.822 0 001.05-1.132c-.363-.712-.847-.697-5.726.166"/><path fill="#F3F1EE" d="M29.042 31.716a.82.82 0 001.12-.313c.747-1.327 1.913-1.245 3.916-.987 1.767.229 3.96.513 5.437-1.345a.821.821 0 10-1.286-1.023c-.84 1.056-2.046.983-3.94.738-1.884-.245-4.229-.549-5.557 1.81a.823.823 0 00.31 1.12m1.249-5.942a.78.78 0 00.089-.005c.504-.054.959-.197 1.358-.322.614-.194 1.098-.349 1.686-.217.21.046.422.105.635.166.91.253 2.04.57 3.183-.034a.82.82 0 00.343-1.11.821.821 0 00-1.109-.346c-.563.3-1.218.118-1.976-.095a15.071 15.071 0 00-.723-.188c-1.015-.225-1.82.03-2.533.255-.358.113-.697.219-1.038.257a.82.82 0 00-.73.904.82.82 0 00.815.735M18.853 31.69a.823.823 0 00-.58 1.007c.3 1.12.07 2.534-.152 3.9-.12.726-.233 1.437-.277 2.104-.1 1.522-.314 3.104-.669 4.98a61.007 61.007 0 00-.628 3.95 36.58 36.58 0 01-5.51-.574c-1.812-.332-3.67-.464-5.467-.59-1.223-.086-2.484-.177-3.713-.328a.814.814 0 00-.594-.146c-.314 0-.64.172-.78.449-.16.309-.06.755.177 1.008.128.138.3.228.486.253 1.436.2 2.895.304 4.309.403 1.752.125 3.565.253 5.289.568 1.965.358 3.808.53 5.62.595l-.021.227a.82.82 0 00.747.888.822.822 0 00.888-.748c.013-.148.032-.305.046-.456a.81.81 0 00.381-.676.817.817 0 00-.243-.582c.153-1.22.357-2.517.626-3.933.37-1.944.59-3.59.694-5.179.04-.617.15-1.276.258-1.946.251-1.54.51-3.131.12-4.592a.82.82 0 00-1.007-.582M7.084 38.303c.226 0 .458-.045.678-.135.519-.21.898-.638 1.013-1.148.112-.487.002-.958-.296-1.291-.308-.34-.771-.502-1.297-.44a1.256 1.256 0 00-.32.086c-.455-.058-.896.202-1.121.683-.294.623-.209 1.557.441 1.983.268.173.582.262.902.262"/><path fill="#F3F1EE" d="M6.827 43.99c.422 0 .856-.133 1.19-.398.636-.505.76-1.342.314-2.135-.34-.608-.924-.947-1.541-.86-.436.054-.81.31-1.051.694a.657.657 0 00-.096.117c-.65.974-.41 1.76.033 2.168.298.276.72.414 1.151.414m3.812-6.07c.42 0 .84.015 1.262.03.593.02 1.18.04 1.78.026a.828.828 0 00.943-.131c.212-.2.343-.57.277-.852a.93.93 0 00-.594-.637.773.773 0 00-.29-.038c-.687.033-1.373.01-2.061-.013a43.748 43.748 0 00-1.314-.03h-.002a.823.823 0 00-.001 1.645m-.247 5.414c.52 0 1.038.041 1.552.08.33.027.658.052.986.068a.819.819 0 00.859-.78.822.822 0 00-.778-.863c-.314-.015-.626-.04-.941-.064a21.788 21.788 0 00-1.678-.086.822.822 0 000 1.645"/><path fill="#E4E0D9" d="M238.387 54.626c-3.709-.03-6.83-.054-8.572-.052-2.444.006-4.862.005-7.292.001l-9.635-.001c.008-.966.023-2.084.04-3.244.022-1.363.043-2.776.05-4.038 3.982-.292 8.114-.174 12.113-.06 2.167.06 4.326.123 6.464.123h31.87c.019 1.214.063 2.414.116 3.608.056 1.206.1 2.417.116 3.644-4.706.189-16.516.092-25.27.02zm-20.75-12.745c-.213-1.057-.411-2.067-.466-3.084.186.007.373.014.56.014h6.338c-.1 1.462-.404 3.697-.619 5.277-.08.59-.144 1.075-.19 1.45a168.625 168.625 0 00-5.089-.066c-.087-1.291-.305-2.466-.533-3.59zm-.369-9.16c.276-1.432.97-2.313 2.066-2.618 1.368-.383 2.59-.03 3.522 1.023.645.729 1.028 2.058.93 3.232-.075.892-.306 1.364-1.073 2.808h-4.056c-.584-.627-1.725-2.693-1.389-4.444zm3.27-7.045c-.051.36-.198.863-.378 1.353.11-.534.246-1.047.377-1.353zm9.44 6.575c-.007-4.556-.012-9.163-.014-13.837 1.356-.228 2.402-.314 3.979-.314.914 0 2.193.113 3.195.34-.015 1.504.02 3.019.062 4.494.038 1.286.074 2.572.074 3.852 0 1.227-.028 4.584-.059 8.225-.034 4.077-.072 8.484-.077 10.7h-5.583c-.519 0-1.046-.025-1.565-.03 0-4.444-.006-8.912-.013-13.43zm8.879 2.775c.031-3.65.06-7.012.06-8.24 0-.752-.026-1.507-.044-2.262l3.941 21.186h-4.034c.005-2.212.043-6.612.077-10.684zm3.519-14.258a8.2 8.2 0 011.968-.112c.239 1.342.506 2.686.785 4.03.242 1.162.483 2.325.7 3.488.203 1.105.801 4.285 1.448 7.742.688 3.672 1.435 7.648 1.834 9.794h-4.627l-4.512-24.253c.781-.326 1.417-.507 2.404-.69zm8.405 24.942c-.38-2.05-1.164-6.233-1.89-10.098-.647-3.456-1.243-6.634-1.448-7.737a128.48 128.48 0 00-.532-2.653l8.225 20.488h-4.355zm-2.33-24.29c.261-.106.59-.164.874-.174.51 1.288 1.039 2.574 1.573 3.86.46 1.104.92 2.206 1.36 3.31.42 1.044 1.8 4.242 3.301 7.72 1.52 3.523 3.212 7.441 4.099 9.574h-2.752l-9.512-23.694c.312-.253.602-.416 1.057-.597zm16.86 33.899c0-1.5-.064-2.964-.13-4.428-.064-1.44-.128-2.881-.128-4.358a.82.82 0 00-.82-.823h-2.8c-.78-1.918-2.675-6.307-4.366-10.227-1.495-3.462-2.867-6.643-3.284-7.68-.445-1.11-.907-2.22-1.368-3.33-.598-1.434-1.197-2.87-1.755-4.306-.01-.024-.03-.039-.042-.062a.763.763 0 00-.09-.142c-.033-.039-.064-.077-.102-.11a.843.843 0 00-.275-.156c-.025-.008-.043-.025-.071-.031-.05-.012-.102-.01-.154-.018-.005-.002-.009-.002-.012-.002-.747-.122-1.568.043-2.075.247-.74.297-1.207.59-1.757 1.092-.076-.4-.168-.801-.235-1.2l-.002-.004a.824.824 0 00-.629-.661c-.929-.21-2.247-.137-3.14.03-1.313.244-2.13.501-3.298 1.034a66.874 66.874 0 01.002-2.367c0-.016-.008-.03-.008-.046a.691.691 0 00-.03-.164c-.011-.051-.021-.1-.043-.147-.02-.047-.052-.087-.082-.13-.03-.044-.059-.087-.097-.121-.036-.037-.08-.061-.121-.088-.048-.03-.095-.062-.148-.083-.016-.005-.026-.017-.04-.022-1.203-.386-3.009-.56-4.268-.56-1.953 0-3.109.106-4.953.457-.028.006-.05.024-.078.032a.695.695 0 00-.28.148.73.73 0 00-.198.239.74.74 0 00-.094.304c-.003.03-.018.054-.018.086 0 4.913.007 9.75.013 14.531.007 4.508.012 8.964.013 13.396-1.072-.024-2.134-.03-3.21-.062l-.228-.007c.044-.35.1-.765.17-1.268.28-2.077.67-4.923.67-6.324a.822.822 0 00-.822-.822h-.361c.519-1.017.772-1.663.855-2.671.137-1.638-.389-3.388-1.338-4.46a5.248 5.248 0 00-1.236-1.025c.832-.418 1.642-.992 1.81-1.736.06-.274.116-.973-.692-1.537a1.632 1.632 0 00-1.309-.25 2.21 2.21 0 00-.476.164 2.43 2.43 0 00-.085-.896 1.36 1.36 0 00-.749-.85 1.466 1.466 0 00-1.466.144c-.493.344-.836 1.01-1.076 1.743-.487-.741-1.113-1.245-1.957-1.097-.962.175-1.29.862-1.277 1.448.02.965 1.011 2.225 2 3.034-.964.696-1.638 1.79-1.917 3.232-.333 1.73.3 3.507 1.002 4.732-.107-.002-.212-.006-.32-.006-.035 0-.064.016-.097.02-.074.008-.148.014-.214.042-.03.013-.052.035-.082.051-.06.035-.123.067-.172.117-.045.04-.07.094-.105.143-.027.038-.056.07-.076.113-.023.053-.03.112-.04.171-.01.045-.034.088-.035.135v.032c-.046 1.477.225 2.824.515 4.25.212 1.044.412 2.134.498 3.289-1.49.031-2.974.087-4.44.215a.821.821 0 00-.75.82c0 1.43-.025 3.136-.051 4.77a296.277 296.277 0 00-.045 4.093.82.82 0 00.821.822l10.458.002c2.432.002 4.852.003 7.297-.002 1.742-.01 4.855.022 8.555.053 4.97.041 10.927.09 16.022.09 4.364 0 8.098-.036 10.034-.144a.798.798 0 00.488-.212.805.805 0 00.394-.686zM35.215 34.605l-2.238.247c-1.829.21-3.871.44-5.838.403-.08-.487-.17-.992-.26-1.507-.28-1.595-.571-3.248-.681-4.684a116.77 116.77 0 00-.429-4.38c-.203-1.82-.37-3.294-.38-5.153 3.723-.944 13.332-1.585 16.094-1.755.157 1.155.455 3.426.596 5.21.151 1.953.332 3.368.522 4.866.192 1.516.409 3.22.629 5.766-2.26.37-5.673.737-8.015.987m-3.513-18.261a21.09 21.09 0 00-.117-1.08 14.471 14.471 0 01-.06-.956 99.146 99.146 0 011.68-.232c.147.937.263 1.809.364 2.656-.601.056-1.202.117-1.805.18-.018-.19-.046-.387-.062-.568m12.526 11.3a93.235 93.235 0 01-.514-4.789c-.198-2.54-.69-5.92-.71-6.064a.82.82 0 00-.858-.7c-.264.013-3.348.185-6.944.495-.13-1.114-.29-2.27-.499-3.542a.842.842 0 00-.85-.689c-.657.035-3.028.393-3.296.434a.82.82 0 00-.698.838c.009.25.05 1.516.102 1.876.041.288.074.627.105.992.018.19.046.398.066.6-2.412.288-4.586.635-5.818 1.032a.823.823 0 00-.568.776c-.023 2.258.16 3.893.391 5.964.138 1.225.29 2.594.424 4.324.116 1.516.413 3.207.7 4.844.132.741.259 1.463.362 2.141.06.383.38.673.765.694.41.025.824.035 1.238.035 1.902 0 3.815-.22 5.539-.418l2.224-.247c2.636-.281 6.62-.709 8.874-1.133a.821.821 0 00.666-.875c-.244-3.008-.487-4.91-.7-6.587M18.813 38.029a94.048 94.048 0 00-.487 4.865 129.37 129.37 0 01-.57 5.78c-2.287-.106-5.703-.451-8.046-.688l-2.25-.222c-1.828-.171-3.878-.364-5.786-.81.02-.5.038-1.019.056-1.547.053-1.613.107-3.283.294-4.706.228-1.74.361-3.128.481-4.368.176-1.826.319-3.304.687-5.127 3.848-.15 13.375 1.2 16.112 1.604-.083 1.163-.26 3.444-.49 5.219m-8.788-8.625c.047-.402.09-.775.11-1.094.01-.158.075-.572.14-.947.531.033 1.183.077 1.69.118a72.26 72.26 0 01-.192 2.67 163.2 163.2 0 00-1.803-.198c.02-.182.035-.375.055-.55m10.273 1.894c-.264-.041-3.315-.51-6.896-.952a74.88 74.88 0 00.241-3.565.822.822 0 00-.692-.848c-.652-.102-3.043-.24-3.314-.255a.815.815 0 00-.854.676s-.266 1.501-.287 1.857c-.018.292-.06.635-.102 1.005-.02.184-.036.386-.057.58-2.42-.214-4.618-.322-5.908-.182a.82.82 0 00-.714.64C1.23 32.46 1.07 34.1.872 36.174.753 37.4.622 38.771.395 40.49.2 41.99.143 43.7.088 45.353c-.024.76-.05 1.5-.087 2.189a.823.823 0 00.605.839c2.22.602 4.6.824 6.7 1.021l2.238.22c2.637.267 6.624.672 8.916.72h.018a.821.821 0 00.815-.718c.378-2.997.532-4.91.67-6.595.118-1.484.233-2.885.48-4.788.326-2.528.541-5.936.551-6.08a.82.82 0 00-.695-.864"/><path fill="#7FC689" d="M103.516 83.402c-2.021.023-3.78 0-5.586-.442-1.152-.282-1.666-.525-1.891-.668.331-.219 1.167-.433 2.546-.648 2.63-.416 4.677-.504 6.632-.282l.238.024c3.033.304 4.255.705 4.736.947-1.1.423-3.974 1.069-6.675 1.069m-9.995 10.877c.002.077.027.146.045.215a4.898 4.898 0 01-1.041.015c-.89-.1-1.163-.147-1.547-.587-.318-.364-.386-1.262-.133-1.747.34-.65 1.691-.785 2.663-.814v.156c0 .586.002 1.58.013 2.762m1.8-5.393c.038.324-.052.518-.327.692-.198.125-.487.09-.908.127h-.026l-.005.001c-1.374.005-3.796.051-4.663 1.704-.504.964-.484 2.638.35 3.596.82.94 1.686 1.036 2.607 1.138a6.21 6.21 0 001.796-.066c.009 0 .017.005.025.003.668-.08 1.031.015 1.15.124.118.111.106.419.098.625l-.005.174c0 .118-.534.386-1.414.386-.011 0-.021.007-.03.007-.006 0-.01-.005-.017-.005-.29-.021-.654-.031-1.023-.041-.475-.01-.962-.021-1.304-.064-2.1-.262-3.218-.962-3.744-2.34-.796-2.086-.415-4.848 1.6-5.86 1.344-.677 2.998-.677 4.595-.677.015 0 .028-.008.042-.008.014 0 .027.008.042.008h.018c.733-.015 1.112.227 1.143.476m16.766-6.543c-.001-.02-.001-.041-.003-.061a.875.875 0 00-.12-.39c-.021-.053-.015-.11-.044-.163-.552-1-2.437-1.592-6.302-1.98l-.218-.021c-2.114-.236-4.293-.148-7.158.304-1.221.19-2.839.447-3.586 1.33-.82.83-1 3.438-1.04 4.528l-.027.88c-1.583.007-3.309.074-4.846.847-2.954 1.484-3.438 5.186-2.395 7.917.987 2.588 3.369 3.172 5.075 3.386.383.048.931.064 1.461.076.263.008.511.016.738.026.146 3.964.389 5.036.561 5.472a.823.823 0 001.067.46.822.822 0 00.46-1.067c-.092-.232-.313-1.196-.45-4.998 1.12-.288 1.797-.989 1.798-1.997.017-.411.05-1.268-.622-1.893-.33-.306-.77-.477-1.309-.546.015-.063.036-.122.036-.19a282.955 282.955 0 01-.013-2.746l.002-.265c.243-.054.486-.136.72-.284.81-.513 1.193-1.321 1.078-2.278-.085-.716-.588-1.479-1.722-1.783l.03-.959a17.37 17.37 0 01.203-2.104c.502.26 1.179.49 2.077.713 1.962.48 3.942.49 5.968.49h.125c1.81 0 5.003-.41 6.878-1.097.202 5.774.097 13.237.051 16.59a136.95 136.95 0 00-.018 1.456c0 .462-.162 1.437-.525 2.156a.825.825 0 00.732 1.194c.3 0 .59-.166.734-.452.553-1.104.701-2.379.701-2.898 0-.22.007-.72.018-1.431.051-3.665.173-12.207-.113-18.166l-.002-.056m13.992-62.253l-1.548-.519-.505-1.602a.509.509 0 00-.318-.329.494.494 0 00-.627.33l-.504 1.601-1.549.52a.52.52 0 000 .979l1.549.52.504 1.6c.049.156.167.28.318.33a.493.493 0 00.627-.33l.505-1.6 1.548-.52a.507.507 0 00.318-.331.518.518 0 00-.318-.648m-4.617-15.147a.348.348 0 00-.215-.434l-1.037-.35-.339-1.072a.335.335 0 00-.213-.222.331.331 0 00-.419.222l-.34 1.073-1.036.349a.335.335 0 00-.213.222.347.347 0 00.213.434l1.036.348.34 1.073a.33.33 0 00.632 0l.339-1.073 1.037-.348a.345.345 0 00.215-.222m14.251-3.107l-.8-.14a1.325 1.325 0 01-.946-.71l-.376-.743a.432.432 0 00-.778 0l-.376.743c-.19.375-.54.64-.946.71l-.801.14a.426.426 0 00-.232.124.462.462 0 00-.008.64l.568.6c.288.304.42.728.362 1.15l-.119.83a.479.479 0 00.04.267c.11.225.372.315.59.205l.727-.373a1.285 1.285 0 011.169 0l.727.373a.43.43 0 00.26.043.453.453 0 00.369-.515l-.118-.83a1.39 1.39 0 01.361-1.15l.566-.6a.446.446 0 00.12-.24.45.45 0 00-.36-.524"/><path fill="#5B78B0" d="M39.56 69.258c-2.073.599-4.812-.097-5.64-2.268-.664-1.74-.372-3.327.868-4.722.996-1.12 2.026-1.469 3.193-1.469a7.8 7.8 0 011.087.084c2.427.327 3.424 2.3 3.54 3.886.12 1.627-.607 3.78-3.049 4.489m4.686-4.61c-.174-2.375-1.776-4.964-4.955-5.395-1.665-.229-3.83-.215-5.727 1.921-1.657 1.864-2.064 4.077-1.176 6.405.915 2.398 3.314 3.534 5.663 3.534.67 0 1.339-.094 1.964-.275 3.17-.92 4.41-3.773 4.231-6.19M59.253 96.07c-1.216-.007-2.366.007-3.55.017-2.311.016-4.62.03-6.922-.017l-.803-.023c-2.693-.085-6.042-.19-7.15 1.541-.449.704-.493 2.163-.516 4.484-.009.825-.015 1.625-.063 2.232a.82.82 0 101.636.131c.05-.64.06-1.478.069-2.348.011-1.198.03-3.203.257-3.61.603-.946 4.054-.84 5.714-.785l.821.023c2.324.046 4.646.031 6.969.016 1.154-.008 2.31-.016 3.532-.016 1.387-.028 4.26 0 4.558 1.547.205 1.06.184 1.662.143 2.754-.02.564-.044 1.238-.044 2.141a.822.822 0 101.642 0c0-.876.024-1.534.044-2.082.043-1.132.069-1.88-.17-3.123-.553-2.847-4.257-2.882-6.167-2.882m20.354-42.4c-5.933 4.849-10.808 6.651-12.555 6.928l-.245.04c-1.234.213-1.555.117-1.637.057-.001-.007-.005-.014-.006-.02-.07-.232.13-.837.896-1.837.958-1.25 1.994-2.367 2.995-3.232 2.816-2.431 5.522-4.536 8.038-6.254a56.06 56.06 0 001.734-1.248c1.262-.934 2.566-1.898 3.932-2.543 1.09-.513 1.576-.36 1.87-.17.306.197.445.429.465.776.117 2.054-3.824 6.144-5.487 7.503m-14.933-2.998c-.047-.074-1.169-1.852-1.623-2.456-.96-1.265-1.713-2.438-2.304-3.582l-.123-.234c-1.097-2.122-2.465-4.761-2.434-7.075.018-1.372.767-2.714 2.054-3.685 1.294-.975 2.864-1.365 4.11-1.023 2.284.633 4.834 3.004 6.36 4.421.937.87 1.863 1.912 2.832 3.181.458.602 1.869 2.158 1.928 2.224a.812.812 0 00.778.252c.73-.157 2.824-.555 3.754-.484.914.063 2.049.683 3.05 1.489a5.52 5.52 0 00-.996.375c-1.513.713-2.884 1.725-4.207 2.705-.563.416-1.122.829-1.685 1.214-2.568 1.752-5.321 3.895-8.183 6.365-1.086.938-2.202 2.14-3.227 3.477a9.075 9.075 0 00-.706 1.054c-.63-1.3-1.031-2.827-.808-3.906.186-.906 1.122-2.829 1.465-3.493a.825.825 0 00-.035-.82m21.496-6.06c-.012-.017-.014-.036-.025-.053-1.292-1.822-3.844-3.84-6.03-3.988-1.035-.073-2.865.251-3.737.422-.495-.552-1.252-1.41-1.527-1.771-1.026-1.346-2.014-2.454-3.02-3.39-2.114-1.964-4.575-4.117-7.04-4.8-1.717-.473-3.839.019-5.533 1.294-1.698 1.28-2.685 3.093-2.71 4.978-.034 2.727 1.437 5.57 2.62 7.855l.12.232c.636 1.229 1.44 2.479 2.454 3.82.274.363.896 1.322 1.294 1.947-.396.8-1.19 2.478-1.4 3.495-.438 2.123.733 5.153 2.117 6.857.009.01.02.013.028.023.422.672 1.176.876 1.916.876.524 0 1.032-.087 1.388-.15l.223-.035c2.04-.324 7.143-2.218 13.338-7.278.062-.051 6.29-5.31 6.088-8.874a2.53 2.53 0 00-.564-1.46"/><path fill="#3E95D1" d="M134.913 46.632l-.012-2.229c-.002-.676-.002-1.516.396-1.916.39-.39.949-.401 1.82-.377l.176.003c1.667.035 3.22.024 4.55.01l1.601-.01c.83 0 1.634-.02 2.439-.039.89-.023 1.786-.048 2.697-.038.194 0 .46-.01.733-.023.729-.033 2.082-.097 2.376.332.279.408.236 1.482.21 2.194-.008.234-.017.45-.017.639l-.003 1.22c-.006 1.855-.016 4.872.003 5.796l.023.81c.028.93.056 1.81-.02 2.685-.067.773-.168 1.253-1.323 1.397-.645.059-10.751.055-13.861-.005-1.199-.025-1.527-.596-1.67-1.025-.196-.587-.153-1.505-.12-2.242l.011-.235c.028-.704.007-4.313-.01-6.947zm11.173-6.206c-.08.002-.164.002-.244.003-.79.02-1.582.04-2.398.04l-1.614.01c-.156.001-.341.001-.502.003.097-1.836.258-3.696 1.008-5.375.005-.013.584-1.227 1.726-1.227.54 0 1.492.53 1.794 4.077l.015.165.215 2.304zm-8.34-4.077c.423-2.217 1.244-3.875 2.508-5.07 1.103-1.04 3.069-1.591 4.763-1.348.997.145 2.365.628 3.233 2.12.48.826.815 1.822 1.054 3.138.312 1.707.404 3.44.319 5.166l-.386.015c-.241.012-.483.015-.643.021-.296-.001-.574.009-.86.012l-.24-2.586c-.316-3.704-1.47-5.582-3.432-5.582-1.764 0-2.856 1.38-3.224 2.198-.881 1.972-1.054 4.106-1.154 6.059-.703 0-1.45-.007-2.212-.022-.06-1.375.014-2.76.275-4.121zm-4.475 17.39c-.04.874-.09 1.962.203 2.838.45 1.354 1.585 2.115 3.194 2.148 1.34.027 5.2.046 8.546.046 2.797 0 5.232-.013 5.542-.052 2.54-.316 2.704-2.184 2.765-2.887.084-.973.054-1.94.026-2.878l-.023-.794c-.021-.92-.01-3.915-.003-5.755l.003-1.227c0-.17.009-.365.017-.576.038-1.038.087-2.33-.498-3.186-.412-.602-1.06-.875-1.765-.992a24.399 24.399 0 00-.358-5.53c-.274-1.51-.671-2.677-1.253-3.672-.934-1.605-2.502-2.643-4.413-2.92-2.204-.32-4.662.397-6.126 1.78-1.505 1.421-2.511 3.426-2.995 5.957a19.509 19.509 0 00-.3 4.487c-.592.086-1.186.286-1.697.798-.88.883-.879 2.153-.877 3.183l.012 2.134c.014 2.47.037 6.204.01 6.869l-.01.228z"/><path fill="#3E95D1" d="M141.91 50.446c-.013.254-.033.508-.033.763 0 1.537-.059 2.28.496 2.874.787.842 2.471.393 2.471-1.157 0-.54.05-1.641.078-2.56a2.52 2.52 0 00.48-.46 2.99 2.99 0 00.523-1.04c.115-.405.154-.842.036-1.245a2.617 2.617 0 00-.737-1.158c-1.445-1.33-2.999-.606-3.596-.071-.693.622-1.035 1.854-.736 2.737.18.536.552 1 1.018 1.317m59.751 62.396c-6.082.02-11.07.033-12.497.026-2.78-.02-15.164.076-28.286.174-16.847.13-35.945.277-39.646.22-8.147-.12-20.056-.178-31.573-.234-9.323-.045-18.2-.086-24.12-.16-1.907-.023-8.71-.01-15.915.007-7.878.016-15.981.034-18.975.005.733-4.806 5.557-7.533 13.43-7.533l.28.001c11.872.097 74.627.249 80.59 0 1.965-.08 11.207-.036 21.916.017 13.707.067 29.242.145 34.817-.017 5.607-.16 36.131-.217 39.35-.075 3.426.154 9.113 1.371 9.756 7.562-3.394-.07-14.824-.04-29.127.007m30.835.623c-.333-8.428-8.077-9.684-11.39-9.834-3.232-.148-33.85-.089-39.472.073-5.543.16-21.068.085-34.76.016-10.726-.054-19.992-.097-21.992-.016-5.763.243-68.884.095-80.509 0-.103-.002-.207-.002-.309-.002-13.206 0-14.992 6.942-15.147 9.946 0 .003.003.005.003.008 0 .005-.003.008-.003.013 0 .06.02.11.028.166.01.05.01.099.026.143.022.056.056.099.089.147.025.04.044.085.077.121.04.045.092.071.141.107.037.027.07.06.112.08.058.026.123.034.187.047.041.008.077.03.12.031h.015l.005.002c1.842.046 11.029.026 19.91.006 7.197-.016 13.995-.028 15.891-.006 5.923.072 14.806.115 24.133.16 11.513.055 23.417.114 31.555.235.557.008 1.453.011 2.634.011 6.74 0 22.71-.122 37.05-.232 13.119-.1 25.514-.189 28.261-.174a2779 2779 0 0012.515-.026c11.515-.038 28.917-.096 29.886.016a.825.825 0 00.934-.69c.01-.076-.002-.15-.01-.225.007-.04.02-.08.02-.123"/></g></svg>