<svg width="40" height="40" viewBox="0 0 40 40" fill="none" xmlns="http://www.w3.org/2000/svg">
<path opacity="0.3" fill-rule="evenodd" clip-rule="evenodd" d="M5.03158 33.6213C13.5069 37.6309 30.17 35.5029 33.9283 24.6838C37.6866 13.8647 33.7941 7.97351 25.3188 3.98634C16.8434 -0.000827997 8.02288 -3.6968 4.28375 7.12232C0.544622 17.9414 -3.44378 29.6342 5.03158 33.6213Z" fill="#F0BF9E"/>
<path opacity="0.3" fill-rule="evenodd" clip-rule="evenodd" d="M35.6588 8.03209C28.1611 1.98666 11.4865 -0.14171 5.72854 9.45537C-0.0293984 19.0524 2.63191 25.776 10.1339 31.7996C17.6359 37.8232 25.5311 43.65 31.2703 34.0481C37.0095 24.4462 43.1608 14.0557 35.6588 8.03209Z" fill="#F9E89B"/>
<path d="M13.3056 25.1924C12.4303 25.5389 11.5277 27.9361 11.1858 29.0913C12.2343 30.415 15.7468 33.1275 21.4087 33.3874C27.0706 33.6473 30.0588 31.2093 30.8452 29.9577C30.5717 28.634 29.8263 25.8277 29.0331 25.1924C28.0416 24.3981 22.6054 24.3259 21.0326 24.2537C19.4598 24.1815 14.3997 24.7591 13.3056 25.1924Z" fill="white" stroke="#33447C" stroke-linecap="round" stroke-linejoin="round"/>
<path d="M17.8377 19.5118C15.9738 18.2571 17.0693 13.6663 17.943 11.8929C15.1884 11.2806 15.0372 9.10849 16.224 7.8034C17.2167 6.7118 18.6472 7.51181 19.4757 8.17518C19.524 7.60658 19.9106 6.46063 21.0705 6.42564C22.5203 6.3819 22.9552 8.06583 25.3992 8.48134C27.3586 8.81449 28.5059 11.1494 28.7751 12.7458C29.0444 14.3423 27.491 16.5292 26.7868 17.1197C26.2235 17.592 25.4345 18.2679 25.1713 18.3662C23.4628 19.3913 19.7016 20.7664 17.8377 19.5118Z" fill="white"/>
<path d="M17.943 11.8929C17.0693 13.6663 15.9738 18.2571 17.8377 19.5118C19.7016 20.7664 23.4628 19.3913 25.1713 18.3662C25.4345 18.2679 26.2235 17.592 26.7868 17.1197C27.491 16.5292 29.0444 14.3423 28.7751 12.7458C28.5059 11.1494 27.3586 8.81449 25.3992 8.48134C22.9552 8.06583 22.5203 6.3819 21.0705 6.42564C19.9106 6.46063 19.524 7.60658 19.4757 8.17518C18.6472 7.51181 17.2167 6.7118 16.224 7.8034C15.0372 9.10849 15.1884 11.2806 17.943 11.8929ZM17.943 11.8929C20.6977 12.5053 23.3695 11.04 24.55 11.8929C25.4944 12.5753 25.1921 13.8539 24.9228 14.4079" stroke="#33447C" stroke-linecap="round" stroke-linejoin="round"/>
<path d="M23.6594 21.9965C23.6097 22.8013 24.0391 23.7023 24.26 24.0522C23.5351 24.5479 21.8368 25.5437 20.8426 25.5612C19.5999 25.583 18.6472 24.0522 19.02 23.7898C19.3928 23.5273 19.8692 22.3027 19.9313 21.4279C19.9935 20.5531 19.2478 20.0939 20.9669 20.0939C22.3421 20.0939 23.6663 19.4232 24.1565 19.0879C24.0115 19.7221 23.7091 21.1917 23.6594 21.9965Z" fill="white" stroke="#33447C" stroke-linecap="round" stroke-linejoin="round"/>
<path fill-rule="evenodd" clip-rule="evenodd" d="M6.00678 11.5737C4.8109 11.6782 3.92171 12.7866 4.02071 14.0493L4.27426 17.2832C4.37327 18.5459 5.42298 19.4848 6.61886 19.3803L10.8014 19.0146C10.8463 19.0107 10.891 19.0058 10.9353 19C11.3239 19.3896 11.9412 19.8745 12.5479 19.956C13.332 20.0613 13.3855 19.9999 13.3142 19.956C13.2169 19.4376 13.0308 18.4716 12.913 17.9355C13.519 17.2508 13.8595 16.3088 13.7805 15.3012L13.6166 13.2105C13.5176 11.9478 12.4679 11.0089 11.272 11.1134L6.00678 11.5737Z" fill="white"/>
<path d="M4.02071 14.0493L4.51918 14.0102L4.02071 14.0493ZM6.00678 11.5737L5.96324 11.0756L6.00678 11.5737ZM4.27426 17.2832L4.77273 17.2441L4.27426 17.2832ZM6.61886 19.3803L6.57531 18.8822L6.57531 18.8822L6.61886 19.3803ZM10.8014 19.0146L10.8449 19.5127L10.8449 19.5127L10.8014 19.0146ZM10.9353 19L11.2893 18.6469C11.1795 18.5368 11.0247 18.4841 10.8705 18.5043L10.9353 19ZM12.5479 19.956L12.4813 20.4515L12.4813 20.4515L12.5479 19.956ZM13.3142 19.956L12.8228 20.0482C12.8487 20.1867 12.932 20.3078 13.052 20.3817L13.3142 19.956ZM12.913 17.9355L12.5386 17.6042C12.4327 17.7238 12.3904 17.8868 12.4247 18.0429L12.913 17.9355ZM13.7805 15.3012L13.282 15.3403L13.282 15.3403L13.7805 15.3012ZM13.6166 13.2105L14.1151 13.1714L13.6166 13.2105ZM11.272 11.1134L11.3155 11.6115L11.272 11.1134ZM4.51918 14.0102C4.43965 12.9959 5.15231 12.1503 6.05032 12.0718L5.96324 11.0756C4.46949 11.2062 3.40376 12.5773 3.52224 14.0884L4.51918 14.0102ZM4.77273 17.2441L4.51918 14.0102L3.52224 14.0884L3.77579 17.3223L4.77273 17.2441ZM6.57531 18.8822C5.68145 18.9603 4.85204 18.2557 4.77273 17.2441L3.77579 17.3223C3.89449 18.8361 5.16451 20.0093 6.6624 19.8784L6.57531 18.8822ZM10.7579 18.5165L6.57531 18.8822L6.6624 19.8784L10.8449 19.5127L10.7579 18.5165ZM10.8705 18.5043C10.8332 18.5091 10.7957 18.5132 10.7579 18.5165L10.8449 19.5127C10.897 19.5082 10.9487 19.5026 11.0001 19.4958L10.8705 18.5043ZM12.6145 19.4605C12.4119 19.4332 12.177 19.3324 11.9312 19.1736C11.6896 19.0175 11.4655 18.8236 11.2893 18.6469L10.5813 19.3532C10.7937 19.5661 11.0726 19.8094 11.3885 20.0135C11.7001 20.2149 12.0771 20.3972 12.4813 20.4515L12.6145 19.4605ZM13.052 20.3817C13.0397 20.3742 12.9749 20.3349 12.9194 20.2525C12.8885 20.2068 12.8464 20.1267 12.8384 20.0176C12.8298 19.8985 12.8652 19.7878 12.9259 19.7016C13.0252 19.5605 13.1606 19.5257 13.1707 19.5228C13.204 19.5132 13.2233 19.5127 13.2144 19.5134C13.1698 19.5167 13.0072 19.5132 12.6145 19.4605L12.4813 20.4515C12.8726 20.5041 13.1289 20.5226 13.2892 20.5106C13.3315 20.5074 13.3887 20.5008 13.4489 20.4833C13.4858 20.4726 13.6371 20.4285 13.7437 20.2771C13.808 20.1857 13.8449 20.0696 13.8358 19.9451C13.8275 19.8305 13.783 19.7447 13.7484 19.6933C13.6852 19.5996 13.6065 19.5488 13.5764 19.5302L13.052 20.3817ZM12.4247 18.0429C12.5406 18.5704 12.7254 19.5295 12.8228 20.0482L13.8056 19.8638C13.7084 19.3457 13.521 18.3727 13.4014 17.8282L12.4247 18.0429ZM13.282 15.3403C13.3503 16.2108 13.056 17.0196 12.5386 17.6042L13.2874 18.2669C13.9821 17.4821 14.3687 16.4067 14.279 15.2621L13.282 15.3403ZM13.1181 13.2496L13.282 15.3403L14.279 15.2621L14.1151 13.1714L13.1181 13.2496ZM11.3155 11.6115C12.2094 11.5334 13.0388 12.238 13.1181 13.2496L14.1151 13.1714C13.9964 11.6575 12.7263 10.4844 11.2284 10.6153L11.3155 11.6115ZM6.05032 12.0718L11.3155 11.6115L11.2284 10.6153L5.96324 11.0756L6.05032 12.0718Z" fill="#33447C"/>
<path d="M6.52686 15.3691C6.61852 15.4894 6.79711 15.7253 6.89912 15.8536C6.93947 15.9043 6.97141 15.992 7.03414 15.992C7.06739 15.992 7.0871 15.9955 7.09181 15.9532" stroke="#33447C" stroke-linecap="round"/>
<path d="M9.14551 15.0205V15.5437" stroke="#4A4A4A" stroke-linecap="round"/>
<path d="M10.8918 15.3195C10.9542 15.2188 11.0568 14.9127 11.175 14.8711" stroke="#4A4A4A" stroke-linecap="round"/>
</svg>
