<svg xmlns="http://www.w3.org/2000/svg" width="145" height="142"><g fill="none" transform="translate(0 -1)"><path fill="#F4D138" d="M30.303 65.851l-6.048-5.686a1 1 0 01.807-1.72l8.2 1.012 5.621-6.074a1 1 0 011.727.8l-1.004 8.256 6.048 5.686a1 1 0 01-.808 1.72l-8.199-1.012-5.622 6.074a1 1 0 01-1.727-.8l1.005-8.256z"/><path fill="#1AA799" d="M89.487 25.146l-13.123-.696a1 1 0 01-.495-1.835l11.026-7.219.69-13.208a1 1 0 011.839-.49l7.145 11.086 13.124.695a1 1 0 01.495 1.835l-11.026 7.22-.69 13.207a1 1 0 01-1.839.49l-7.146-11.085z"/><ellipse cx="60.122" cy="113.593" fill="#F4D138" rx="3.265" ry="3.278" transform="rotate(30 60.122 113.593)"/><ellipse cx="6.208" cy="115.088" stroke="#0CBEB8" stroke-width="2" rx="4.353" ry="4.37" transform="rotate(30 6.208 115.088)"/><ellipse cx="103.969" cy="138.156" fill="#6FD78A" rx="4.353" ry="4.37" transform="rotate(30 103.969 138.156)"/><path fill="#0CBEB8" d="M131.202 67.467l-3.286-.136a1 1 0 01-.75-1.611l2.316-2.996a3 3 0 00.553-2.494l-.82-3.642a1 1 0 011.317-1.16l3.186 1.159a3 3 0 002.696-.328l2.902-1.947a1 1 0 011.555.894l-.224 3.544a3 3 0 001.05 2.474l2.62 2.23a1 1 0 01-.35 1.716l-3.523 1.1a3 3 0 00-1.889 1.743l-1.405 3.492a1 1 0 01-1.774.159l-1.758-2.796a3 3 0 00-2.416-1.401z"/><path fill="#6FD78A" d="M77.17 82.525l-8.298-.354a1 1 0 01-.748-1.61l5.609-7.25a5 5 0 00.922-4.165l-1.986-8.76a1 1 0 011.318-1.16l7.878 2.867a5 5 0 004.49-.543l7.262-4.858a1 1 0 011.554.893l-.548 8.824a5 5 0 001.752 4.12l6.447 5.479a1 1 0 01-.35 1.717l-8.49 2.637a5 5 0 00-3.156 2.91l-3.412 8.488a1 1 0 01-1.774.16l-4.453-7.065a5 5 0 00-4.017-2.33z"/></g></svg>