<svg xmlns="http://www.w3.org/2000/svg" width="63" height="40"><g fill="none" transform="rotate(165 30.93 21.688)"><path fill="#F4D138" d="M40.228 12.843l-2.209-2.096a1 1 0 01.813-1.718l2.974.371 2.016-2.2a1 1 0 011.73.796l-.362 3.01 2.208 2.096a1 1 0 01-.812 1.717l-2.974-.37-2.017 2.199a1 1 0 01-1.73-.796l.363-3.01z"/><path fill="#1AA799" d="M7.715 12.294l-5.6-.3a1 1 0 01-.498-1.833l4.716-3.117.292-5.659A1 1 0 018.467.9l3.025 4.738 5.6.3a1 1 0 01.499 1.833l-4.716 3.117-.293 5.659a1 1 0 01-1.841.487l-3.026-4.74z"/><ellipse cx="56.132" cy="38.55" fill="#F4D138" rx="1.746" ry="1.761" transform="rotate(30 56.132 38.55)"/><ellipse cx="27.378" cy="39.355" stroke="#0CBEB8" stroke-width="2" rx="2.327" ry="2.348" transform="rotate(30 27.378 39.355)"/></g></svg>