<svg width="178" height="122" viewBox="0 0 178 122" fill="none" xmlns="http://www.w3.org/2000/svg">
<path fill-rule="evenodd" clip-rule="evenodd" d="M89.0803 45.884C88.5457 47.8038 87.7261 49.8716 87.2232 50.5937C87.1321 50.7238 87.0371 50.8494 86.9381 50.9705C87.4132 49.423 87.7775 47.723 88.0072 46.0903C88.1418 45.6866 88.2844 45.3054 88.423 44.951C88.514 45.1932 88.6447 45.4175 88.811 45.6149C88.8942 45.7135 88.9852 45.8033 89.0803 45.884ZM91.8481 38.4426C89.702 37.2629 87.3301 36.8548 84.978 37.2854C84.8078 37.3168 84.6177 37.3571 84.4118 37.402C82.8715 36.9804 81.4499 37.9537 80.3096 39.241C79.6087 39.8062 79.0227 40.5284 78.694 41.4389C78.4643 41.8022 78.2624 42.1431 78.0921 42.4257C76.4291 45.2157 75.8905 48.4542 76.5756 51.5581C77.9298 57.6628 81.8697 60.9282 87.9795 61H88.122C93.0875 61 96.1523 57.9678 97.2372 51.9842C98.247 46.4088 95.982 40.7123 91.8481 38.4426Z" fill="#FAEBAC"/>
<path fill-rule="evenodd" clip-rule="evenodd" d="M37.4521 17.4224C36.9696 16.9168 36.4041 16.2655 35.7752 15.5457C32.3938 11.6637 27.7666 6.33335 22.9931 6.9118C22.1191 7.01463 21.4112 7.73448 21.2609 8.67286C20.553 13.0776 25.3186 15.4043 29.5186 17.4524C31.5831 18.4594 33.7147 19.5006 34.7193 20.5204C34.747 20.5461 34.7747 20.5761 34.8023 20.6061C35.182 21.0003 35.6764 21.1974 36.1668 21.1974C36.6848 21.1974 37.199 20.9788 37.5866 20.5461C38.3419 19.6977 38.3261 18.348 37.551 17.5253C37.5193 17.491 37.4837 17.4567 37.4521 17.4224Z" fill="#FAEBAC"/>
<path fill-rule="evenodd" clip-rule="evenodd" d="M28.505 26.5721C29.391 26.7068 30.277 26.6742 31.1327 26.3678C32.0338 26.0427 32.6056 24.9515 32.473 23.8093C32.3367 22.667 31.5378 21.8219 30.5988 21.8219H30.5912C29.9514 21.8219 29.3039 21.8497 28.6564 21.9054C27.7969 21.7197 26.786 21.3111 25.8508 20.9303C24.3325 20.3127 22.7611 19.6766 21.0422 19.6302C18.7136 19.5512 14.8515 19.4584 13.0341 22.7923C12.735 23.3356 12.6403 24.0136 12.7728 24.6544C12.9054 25.2951 13.2537 25.8338 13.7308 26.1356C15.4195 27.2222 17.3694 27.5658 19.4216 27.5658C21.2693 27.5658 23.2041 27.2872 25.1049 27.0086C26.2332 26.8461 27.3842 26.6789 28.505 26.5721Z" fill="#FAEBAC"/>
<path fill-rule="evenodd" clip-rule="evenodd" d="M27.3011 42.874C27.2474 42.9133 27.1975 42.9482 27.1437 42.9832C27.685 42.4241 28.2801 41.9001 28.8943 41.4197C28.4068 41.9743 27.8693 42.4678 27.3011 42.874ZM32.5951 34.1351C28.4797 36.2882 22.8287 39.7732 21.2854 45.1493C21.128 45.704 21.1664 46.311 21.4006 46.8263C21.6347 47.346 22.0417 47.7347 22.5331 47.9094C23.1895 48.1496 23.8767 48.2632 24.5831 48.2632C26.1379 48.2632 27.7733 47.6954 29.3396 46.5774C32.4531 44.3545 34.7949 40.3715 35.2978 36.4323C35.3976 35.6374 35.1135 34.847 34.5492 34.3666C33.9848 33.8905 33.2362 33.7988 32.5951 34.1351Z" fill="#FAEBAC"/>
<path fill-rule="evenodd" clip-rule="evenodd" d="M141.789 15.8255C141.813 15.7998 141.84 15.7741 141.864 15.7484C142.865 14.7288 145 13.6834 147.069 12.6766C151.269 10.6245 156.034 8.30241 155.326 3.89821C155.176 2.95567 154.468 2.23592 153.59 2.1331C148.844 1.57186 144.182 6.8929 140.804 10.7744C140.175 11.4942 139.614 12.1454 139.131 12.6466C139.1 12.6809 139.072 12.7152 139.036 12.7495C138.261 13.572 138.245 14.9216 139.001 15.7656C139.392 16.2026 139.902 16.4211 140.421 16.4211C140.911 16.4211 141.405 16.224 141.789 15.8255Z" fill="#FAEBAC"/>
<path fill-rule="evenodd" clip-rule="evenodd" d="M160.73 19.5981C158.916 16.265 155.046 16.3766 152.524 16.4417C151.002 16.4835 149.43 17.1204 147.908 17.7387C146.977 18.1152 145.969 18.5289 145.106 18.7102C144.458 18.6591 143.811 18.6266 143.171 18.6266C142.292 18.6033 141.421 19.4726 141.289 20.6208C141.156 21.7644 141.724 22.8568 142.629 23.1822C143.489 23.4937 144.371 23.5216 145.257 23.3821C146.378 23.489 147.533 23.661 148.658 23.8237C150.559 24.098 152.494 24.3816 154.342 24.3816C156.39 24.3816 158.34 24.0329 160.029 22.9498C160.506 22.643 160.855 22.1037 160.987 21.4622C161.124 20.8254 161.025 20.1467 160.73 19.5981Z" fill="#FAEBAC"/>
<path fill-rule="evenodd" clip-rule="evenodd" d="M147.881 38.0998C147.313 37.6938 146.776 37.2005 146.288 36.6417C146.898 37.1263 147.49 37.6458 148.031 38.2045C147.977 38.1696 147.931 38.1347 147.881 38.0998ZM142.579 29.36C141.942 29.0238 141.19 29.1111 140.625 29.5914C140.065 30.0716 139.777 30.8661 139.877 31.6562C140.387 35.5983 142.725 39.5797 145.847 41.8017C147.409 42.915 149.041 43.4868 150.592 43.4868C151.298 43.4868 151.985 43.369 152.646 43.1289C153.133 42.9542 153.54 42.5657 153.77 42.0462C154.008 41.5311 154.047 40.9286 153.889 40.3742C152.35 35.0002 146.695 31.5122 142.579 29.36Z" fill="#FAEBAC"/>
<path d="M122.905 117.876C125.24 117.876 127.587 117.919 129.923 117.876C129.98 117.637 129.984 117.393 129.93 117.145" stroke="#CBDBF0" stroke-linecap="round" stroke-linejoin="round"/>
<path fill-rule="evenodd" clip-rule="evenodd" d="M152.454 57.97C151.421 58.4408 150.91 59.6198 151.348 60.7373C151.356 61.0452 151.072 61.9163 150.939 62.3342C150.825 62.6906 150.72 63.0206 150.655 63.2889L150.44 64.1248C150.108 65.4358 149.78 66.7425 149.378 68.0315C148.649 70.3896 147.709 73.0512 146.294 74.9386C145.326 76.2364 144.074 77.0239 142.363 77.8686C140.718 78.6869 138.967 78.5989 136.909 78.5197C136.049 78.4757 135.186 78.4449 134.291 78.4625C134.153 78.4669 134.039 78.5285 133.918 78.5593C133.768 78.5197 133.626 78.4625 133.468 78.4625C132.354 78.5065 131.478 79.5227 131.515 80.7414C131.636 84.5161 131.555 88.4272 131.478 92.2107C131.43 94.6567 131.381 97.0984 131.381 99.5225C131.381 101.419 131.454 103.482 131.531 105.532C131.624 108.119 131.725 110.688 131.648 112.853C131.608 114.067 132.483 115.083 133.602 115.132H133.675C134.761 115.132 135.66 114.199 135.701 113.015C135.778 110.75 135.677 108.066 135.579 105.356C135.506 103.363 135.434 101.366 135.434 99.5225C135.434 97.1248 135.482 94.7227 135.531 92.3118C135.596 89.219 135.632 86.0427 135.592 82.8883C135.977 82.9015 136.366 82.8971 136.738 82.9147C137.399 82.9455 138.064 82.9763 138.74 82.9763C140.459 82.9763 142.23 82.7783 144.045 81.8764C146.229 80.7898 147.98 79.6723 149.443 77.7102C151.259 75.2861 152.369 72.1669 153.216 69.4393C153.646 68.0711 153.998 66.6809 154.351 65.2863L154.562 64.4592C154.606 64.27 154.683 64.0412 154.76 63.7905C155.173 62.5278 155.733 60.7945 155.137 59.2547C154.703 58.1416 153.492 57.5037 152.454 57.97Z" fill="#C7E7E9"/>
<path fill-rule="evenodd" clip-rule="evenodd" d="M168.05 106.552C167.794 104.227 166.778 102.921 165.788 102.012C166.986 100.821 168.054 99.189 168.061 96.9525C168.065 94.4336 167.127 92.3206 165.269 90.6487C166.541 89.1445 167.639 87.0182 166.737 84.0141C165.64 80.3703 161.972 78.522 155.842 78.5132H155.838C154.819 78.5132 153.984 79.4969 153.984 80.7144C153.984 81.9319 154.815 82.9245 155.835 82.9245C159.929 82.9333 162.766 83.917 163.244 85.5007C163.548 86.5153 163.27 87.0226 161.486 88.6989L160.886 89.2724C160.389 89.7532 160.136 90.512 160.225 91.2707C160.307 92.0295 160.715 92.6779 161.308 92.9955C164.008 94.4248 164.353 95.8585 164.353 96.9393C164.349 98.1436 162.643 99.3258 161.627 100.032C161.115 100.389 160.774 101.011 160.715 101.712C160.656 102.418 160.878 103.111 161.323 103.578C161.816 104.108 162.339 104.536 162.844 104.937C163.919 105.797 164.264 106.115 164.371 107.121C164.546 108.7 164.03 110.764 163.63 111.06C162.762 111.713 162.506 113.076 163.051 114.108C163.407 114.77 164.008 115.132 164.62 115.132C164.961 115.132 165.306 115.021 165.614 114.792C167.742 113.191 168.317 109.009 168.05 106.552Z" fill="#C7E7E9"/>
<path d="M80.5238 92.1265C78.5409 92.8047 74.8494 93.9701 73.4603 95.1499" stroke="#CADCE7" stroke-linecap="round" stroke-linejoin="round"/>
<path d="M104.386 88.0658C104.704 90.2934 105.869 92.2446 106.106 94.4342" stroke="#CADCE7" stroke-linecap="round" stroke-linejoin="round"/>
<path fill-rule="evenodd" clip-rule="evenodd" d="M133.165 113.21C132.507 112.602 131.603 112.482 130.854 112.855C129.971 112.897 129.114 113.021 128.249 113.123C128.885 111.159 128.569 109.13 127.292 107.802C126.574 107.051 125.457 106.94 124.609 107.521C123.925 107.987 123.41 108.485 123.012 108.978C122.779 107.659 122.528 106.345 122.367 105.013C121.29 96.064 121.32 85.6213 122.441 76.3451C122.597 75.0772 121.757 73.9246 120.576 73.7586C119.36 73.5834 118.304 74.487 118.148 75.7503C116.984 85.4 116.954 96.2761 118.074 105.598C118.295 107.461 118.637 109.296 118.975 111.136C119.152 112.095 119.317 113.058 119.472 114.022C118.836 114.386 118.351 115.036 118.3 115.857C118.23 117.079 119.061 118.111 120.178 118.273C120.355 119.024 120.58 119.757 120.931 120.38C121.337 121.099 122.052 121.5 122.787 121.5C123.164 121.5 123.549 121.394 123.895 121.173C124.877 120.546 125.202 119.232 124.691 118.162C125.475 118.079 126.249 117.982 127.015 117.881C128.742 117.65 130.369 117.438 131.598 117.406C132.654 117.613 133.736 116.94 134.074 115.866C134.411 114.801 134.104 113.736 133.165 113.21Z" fill="#CADCE7"/>
<path fill-rule="evenodd" clip-rule="evenodd" d="M102.576 86.6851C102.251 86.3033 101.824 86.0988 101.38 85.9988C101.13 85.5716 100.778 85.2079 100.29 85.0216C99.6126 84.758 98.9135 84.8943 98.3551 85.267C98.1353 85.117 97.8934 84.9943 97.6208 84.9307C96.394 84.6761 95.264 85.4352 94.9914 86.6533C93.7998 92.1849 95.7917 97.5937 100.074 100.444C100.43 100.68 100.844 100.803 101.262 100.803C101.451 100.803 101.64 100.78 101.824 100.73C102.427 100.566 102.928 100.148 103.214 99.58C103.253 99.4936 103.249 99.3982 103.289 99.3072C103.333 99.28 103.394 99.2891 103.434 99.2572C104.045 98.7664 104.313 98.0709 104.401 97.3301C104.726 97.2255 105.039 97.0755 105.289 96.8165C106.147 95.9256 106.186 94.5348 105.329 93.6439C105.153 93.3712 104.871 92.3394 104.691 91.6576C104.234 89.9623 103.715 88.0396 102.576 86.6851Z" fill="#CADCE7"/>
<path fill-rule="evenodd" clip-rule="evenodd" d="M60.6366 116.935C60.7519 116.886 60.8671 116.842 60.9824 116.794C62.0696 116.719 63.1492 116.578 64.2249 116.397C64.2518 116.591 64.2979 116.772 64.3633 116.944C62.9955 117.125 61.7316 117.142 60.6366 116.935ZM120.033 12.6065C119.825 11.5612 118.942 10.7849 118.073 10.882C117.85 10.8952 117.62 10.8952 117.409 10.8952C116.763 10.9393 116.183 11.2304 115.826 11.7817C108.376 15.0676 101.38 16.0556 92.7243 16.5408C87.4532 16.8319 81.7863 16.9686 74.9016 16.9686C74.2293 16.9509 73.4532 16.9862 72.5619 17.0127C69.5652 17.1009 64.1059 17.242 60.8402 15.9056C61.1437 15.4646 61.2859 14.9309 61.2475 14.3752C61.624 14.9397 62.2003 15.3146 62.7996 15.3058C64.9088 15.2308 66.9681 14.7809 68.962 14.3487C69.2617 14.2825 69.5575 14.2164 69.8495 14.1546C69.9225 14.3619 70.0262 14.5604 70.1569 14.7456C70.5372 15.2705 71.0828 15.544 71.6398 15.544C72.0701 15.544 72.5004 15.3808 72.8616 15.0412C74.3676 13.6077 78.4439 13.89 80.872 14.0488L82.3626 14.137C84.1914 14.2164 86.0355 14.3266 87.8835 14.4369C93.7001 14.7897 99.7242 15.147 105.606 14.5075C106.547 14.406 107.289 13.5327 107.343 12.4477C107.4 11.3627 106.763 10.3924 105.841 10.1586C99.2056 8.48699 92.4899 8.47376 86.5657 8.46053C82.1244 8.52227 77.6678 8.76927 73.5032 9.1133C71.7052 9.25885 69.9456 9.64257 68.2436 10.0131C66.315 10.4365 64.4939 10.8334 62.6882 10.8952C61.6278 10.9305 60.7941 11.9449 60.8249 13.1622C60.8249 13.1799 60.8325 13.1887 60.8325 13.2019C60.2332 12.3463 59.1767 12.0905 58.3507 12.6771C58.0817 12.8667 57.8589 13.1578 57.6553 13.4842C57.0828 13.2549 56.4374 13.299 55.9111 13.7356C55.0466 14.4413 54.8468 15.8174 55.4654 16.8098C55.7535 17.2773 56.1031 17.6875 56.4797 18.0668C56.0302 22.9979 56.787 29.5918 57.0175 31.3913C57.5938 35.8901 58.7925 40.2831 59.9681 44.3982L60.1525 45.0465C60.3984 45.9154 60.6673 46.846 60.9555 47.7943C60.9017 47.8164 60.8479 47.812 60.798 47.8428C59.8567 48.403 59.4917 49.735 59.9796 50.8156C61.2359 53.5943 62.8957 55.4776 64.7167 56.964C65.7079 58.6091 66.8528 60.0735 68.2551 61.1276C68.5778 61.3702 68.9467 61.4849 69.304 61.4849C69.8034 61.4849 70.2606 61.207 70.6294 60.7924C71.9011 61.5378 73.1344 62.3008 74.2831 63.2579C77.0416 65.547 79.2776 68.3434 80.9334 71.5675C83.4153 76.4059 84.4603 80.252 84.3259 84.0407C84.3028 84.6405 84.2951 85.3198 84.2874 86.0431C84.2721 87.3222 84.249 88.9277 84.1145 90.4052C83.9455 89.9774 83.6804 89.5937 83.2885 89.3555C82.3396 88.7998 81.187 89.2143 80.6952 90.2905C80.5339 90.6478 80.384 91.0227 80.2342 91.3976C79.1162 91.6578 76.9494 92.2444 75.8698 94.4012C75.5855 94.9702 75.5624 95.6141 75.7315 96.1919C75.7008 96.1963 75.6623 96.2096 75.6316 96.214C75.1437 95.4201 74.2447 95.0672 73.411 95.4157C73.1689 95.5171 72.9307 95.6362 72.7002 95.7641C72.1585 96.0728 71.7705 96.655 71.6629 97.3387C71.5515 98.0223 71.7282 98.7236 72.1393 99.2353C72.8424 100.117 73.7952 100.475 74.771 100.563C73.7798 100.651 72.9884 101.577 72.9884 102.737C72.9845 106.539 74.625 109.296 77.7677 111.056C77.2875 111.148 76.8072 111.259 76.3308 111.347C76.1772 110.204 75.2705 109.411 74.2639 109.49C73.5531 109.56 72.4928 109.68 71.2211 109.86C71.7128 109.358 71.9587 108.577 71.8281 107.796C71.6322 106.667 70.7216 105.913 69.7304 106.023C68.7046 106.155 67.5482 106.42 66.3342 106.791C66.3495 106.597 66.3419 106.398 66.315 106.2C66.2689 105.931 66.1882 105.675 66.0691 105.45C67.164 105.269 68.2244 105.198 69.2387 105.247C70.2875 105.432 71.1942 104.36 71.2441 103.143C71.2902 101.93 70.4719 100.894 69.4115 100.845C63.3721 100.448 56.3298 103.928 51.1855 106.407L50.8205 106.583C49.9868 106.985 49.5066 108.004 49.6756 109.027C49.7102 109.247 49.7755 109.455 49.86 109.644C49.5143 110.138 49.3721 110.787 49.4797 111.422C49.5988 112.154 50.0329 112.767 50.6323 113.049C51.7118 113.561 52.922 113.839 54.2206 113.931C54.1553 114.258 54.1553 114.602 54.2283 114.937C54.3128 115.343 54.4934 115.7 54.7354 115.978C54.6202 116.247 54.5549 116.538 54.5395 116.842C54.5088 117.455 54.7008 118.055 55.0735 118.496C56.8792 120.64 59.4264 121.5 62.4154 121.5C66.1997 121.496 70.6909 120.128 75.3089 118.245C76.1541 118.21 76.9916 118.17 77.8253 118.13C80.9142 117.985 84.1145 117.848 87.2111 117.914C88.2715 117.98 89.1475 116.975 89.1705 115.753C89.1936 114.536 88.3522 113.53 87.288 113.504C86.7155 113.49 86.1354 113.482 85.5591 113.482C85.6436 113.407 85.6628 113.283 85.732 113.19C86.7847 113.283 87.8719 113.349 89.0514 113.349H89.1436C92.4938 113.349 95.9707 112.913 100.093 111.977C101.019 111.766 101.999 111.4 102.986 111.02C104.269 110.531 105.595 110.028 106.636 110.028C106.644 110.028 106.667 110.024 106.678 110.028C107.735 110.028 108.591 109.053 108.599 107.836C108.607 106.623 107.758 105.626 106.693 105.617C105.207 105.6 103.37 106.226 101.776 106.835C100.942 107.152 100.12 107.474 99.3439 107.655C95.4482 108.537 92.0827 108.978 89.0591 108.939C80.8259 108.925 76.8264 106.896 76.8303 102.737C76.8303 101.635 76.1118 100.757 75.1898 100.598C75.2244 100.598 75.2628 100.607 75.2974 100.607C77.3028 100.607 79.2584 99.6057 79.2929 99.5881C81.2869 98.5428 82.3127 96.5889 83.0811 94.7717C83.0042 95.5744 83.3039 96.4081 83.9417 96.8712C84.2605 97.1049 84.6217 97.2152 84.9713 97.2152C85.6091 97.2152 86.2276 96.8535 86.5964 96.1963C88.041 93.5853 88.0909 89.4393 88.1293 86.1049C88.137 85.4212 88.1447 84.7861 88.1639 84.2215C88.3791 78.2143 86.1815 73.1024 84.2452 69.3269C82.3165 65.5735 79.7232 62.3317 76.5344 59.6853C75.8928 59.1472 75.232 58.7062 74.5751 58.2651C74.7211 57.952 74.8248 57.6123 74.8248 57.233V56.986C74.8248 55.7687 73.9681 54.9042 72.9038 54.9042C72.17 54.9042 71.5553 55.4511 71.2326 56.1789C70.4143 55.7025 69.6228 55.2438 68.8698 54.7587C69.1157 54.4896 69.3501 54.1853 69.4423 53.7839C69.4961 53.5678 69.5191 53.3517 69.5114 53.1444C69.5191 52.9327 69.4961 52.7166 69.4423 52.5049C69.1657 51.3272 68.1053 50.6303 67.0872 50.9567C66.8106 51.0405 66.5685 51.217 66.3457 51.4287C65.8616 50.2687 65.439 49.0514 65.0471 47.8384C65.8386 47.5694 66.4302 46.7578 66.4302 45.761V45.5185C66.4302 44.2967 65.5696 43.4322 64.5093 43.4322C64.2518 43.4322 64.0098 43.5028 63.787 43.6175L63.6179 43.0265C63.2991 41.9106 62.984 40.7726 62.6767 39.6259C63.6448 39.5112 64.4094 38.6026 64.4094 37.4603V37.3412C64.4094 36.1194 63.5488 35.1976 62.4884 35.1976C62.1887 35.1976 61.916 35.2947 61.6662 35.4402C61.3243 33.8789 61.0208 32.3131 60.8172 30.7517C60.456 27.9157 60.2025 23.5669 60.237 20.2986C62.961 21.2557 66.2227 21.4851 69.2156 21.4851C70.4296 21.4851 71.5937 21.4542 72.6541 21.4233C73.434 21.3968 74.1333 21.3792 74.7172 21.3792C81.5981 21.2778 87.53 21.2425 92.9087 20.947C102.329 20.4221 110.351 19.2312 118.899 15.1205C119.76 14.7059 120.236 13.6474 120.033 12.6065Z" fill="#CADCE7"/>
<path fill-rule="evenodd" clip-rule="evenodd" d="M71.312 51.4474H71.429C72.5826 51.4474 73.4603 50.3775 73.4603 49.0592C73.4603 47.7409 72.4656 46.6711 71.312 46.6711C70.1585 46.6711 69.2222 47.7409 69.2222 49.0592C69.2222 50.3775 70.1585 51.4474 71.312 51.4474Z" fill="#CADCE7"/>
<path fill-rule="evenodd" clip-rule="evenodd" d="M67.1032 45.0789C68.2729 45.0789 69.2222 44.0238 69.2222 42.7238V42.5919C69.2222 41.2918 68.2729 40.3026 67.1032 40.3026C65.9335 40.3026 64.9841 41.4237 64.9841 42.7238C64.9841 44.0238 65.9335 45.0789 67.1032 45.0789Z" fill="#CADCE7"/>
<path fill-rule="evenodd" clip-rule="evenodd" d="M67.8002 37.7616C67.7507 37.1763 67.5153 36.6653 67.1603 36.2891C66.8383 35.8896 66.3924 35.6155 65.8764 35.5458C64.7287 35.3786 63.7173 36.3076 63.5852 37.5758C63.5109 38.2726 63.7421 39.0763 64.1797 39.578C64.5718 40.0332 65.1828 40.3026 65.7567 40.3026C65.8186 40.3026 65.8805 40.298 65.9425 40.2933C67.0777 40.1726 67.9075 39.0391 67.8002 37.7616Z" fill="#CADCE7"/>
<path fill-rule="evenodd" clip-rule="evenodd" d="M71.3705 41.8947C72.5241 41.8947 73.4603 40.8248 73.4603 39.5066C73.4603 38.1883 72.5241 37.1184 71.3705 37.1184H71.2535C70.0999 37.1184 69.2222 38.1883 69.2222 39.5066C69.2222 40.8248 70.217 41.8947 71.3705 41.8947Z" fill="#CADCE7"/>
<path fill-rule="evenodd" clip-rule="evenodd" d="M74.1667 48.2632C75.3364 48.2632 76.2857 47.208 76.2857 45.908V45.7808C76.2857 44.476 75.3364 43.4868 74.1667 43.4868C72.9969 43.4868 72.0476 44.6079 72.0476 45.908C72.0476 47.208 72.9969 48.2632 74.1667 48.2632Z" fill="#CADCE7"/>
<path fill-rule="evenodd" clip-rule="evenodd" d="M125.685 32.2672C125.211 32.6982 124.718 33.1161 124.222 33.5384C122.705 34.827 121.089 36.2375 119.867 38.066C120.665 34.47 120.639 31.6446 120.585 28.3838C120.574 27.548 120.559 26.6642 120.559 25.7195C120.559 24.9663 120.539 23.0856 120.44 20.7478C121.021 20.3299 121.552 19.8553 122.025 19.3895C122.533 18.8889 123.011 18.4187 123.427 18.1967C125.203 17.2432 127.591 17.3303 129.489 18.4318C131.613 19.6594 131.739 21.0787 131.781 21.5489C132.06 24.6572 128.847 29.3895 125.685 32.2672ZM114.344 42.6851C112.808 46.5161 109.966 49.9032 106.953 53.4861C102.571 58.7016 97.602 64.6093 95.9023 73.3598C94.764 79.2065 93.7747 84.2522 96.0054 92.8896C96.2499 93.843 97.01 94.4525 97.8389 94.4525C98.0184 94.4525 98.1979 94.422 98.3774 94.3654C99.3897 94.0258 99.9702 92.8156 99.6685 91.6662C99.3744 90.5213 99.1605 89.4764 98.9848 88.4708C99.3056 88.5404 99.6341 88.6101 99.9512 88.671C101.624 88.9845 102.946 89.237 104.004 90.543C104.959 91.7141 105.245 92.9897 104.894 94.4568C104.588 95.7106 103.744 96.2069 101.75 97.1168C98.3049 98.7015 94.2483 99.5504 88.9809 99.7942L87.984 99.8465C84.8136 100.029 76.3797 100.508 73.8931 97.6654C73.4462 97.156 73.2628 96.5813 73.301 95.8064C73.3087 95.6279 73.3545 95.4625 73.3965 95.3014C73.4232 95.2013 73.4538 95.0881 73.4805 95.001C74.0611 93.4947 75.9175 92.6371 76.5516 92.3889L77.3003 92.0885C78.3965 91.6488 79.6456 91.1569 80.8258 90.813C80.7762 91.5443 80.7227 92.3062 80.6731 93.129C80.5967 94.3306 81.3873 95.3711 82.4416 95.4581C82.4874 95.4625 82.5333 95.4625 82.5791 95.4625C83.5722 95.4625 84.4087 94.5831 84.4813 93.4381C84.5959 91.6358 84.7067 90.0729 84.8098 88.6884C85.3255 81.6227 85.5356 78.6972 83.3812 72.6284C81.12 66.2549 77.0596 62.9985 72.7586 59.5505C68.6601 56.268 64.424 52.8679 61.1963 46.2593C59.0993 41.9711 57.7892 36.6947 57.0672 29.6507C57.0023 29.002 56.9412 28.3229 56.8839 27.635C57.9343 28.3751 59.0764 28.9846 60.3102 29.2458C61.0054 29.3939 61.6776 29.433 62.3346 29.3895C62.6784 30.0208 63.0909 30.6085 63.5455 31.1135C66.4064 34.2785 71.2078 35.0099 74.974 32.8418C75.3446 32.6285 75.696 32.4108 76.0283 32.1888C77.793 34.1348 80.0504 34.9184 82.2506 34.9184C83.8014 34.9184 85.3293 34.531 86.6318 33.8779C87.2086 33.5863 87.751 33.2685 88.2514 32.9245C89.8938 34.5484 92.2277 35.1187 95.0123 34.5397C96.502 34.2262 97.7968 33.6342 98.8664 32.7896C98.9427 32.8375 99.023 32.8854 99.0994 32.9289C100.982 34.0347 103.206 34.2828 105.073 33.6037C106.643 33.029 107.999 31.9842 109.054 30.6433C110.952 31.2615 113.003 31.0699 114.516 30.4517C115.39 30.0904 116.124 29.7117 116.777 29.3198C116.834 33.6037 116.727 36.7469 114.344 42.6851ZM105.276 101.153C105.18 102.489 105.054 104.148 104.68 105.097C103.492 108.075 99.2865 109.28 97.5371 109.659C93.7938 110.469 90.7991 110.865 88.3354 110.774C83.0948 110.652 78.0757 110.251 74.3209 106.782C73.408 105.941 73.0909 104.91 72.686 102.759C72.644 102.533 72.6211 102.21 72.6135 101.858C75.272 103.743 79.2025 104.348 83.5837 104.348C85.0848 104.348 86.628 104.283 88.175 104.196L89.1375 104.148C94.8518 103.882 99.3133 102.929 103.175 101.157C103.882 100.835 104.634 100.439 105.371 99.9771V100.012L105.276 101.153ZM50.3407 36.9515C49.8212 36.5771 49.3018 36.2071 48.8014 35.824C45.4438 33.251 41.9068 28.8235 41.9641 25.7064C41.9717 25.2363 41.9985 23.804 44.0267 22.3847C45.8411 21.1135 48.1979 20.8001 50.0542 21.5924C50.4859 21.7752 50.9901 22.1975 51.5286 22.6503C51.9259 22.9812 52.3613 23.3251 52.8159 23.6385C52.9496 26.6903 53.1826 29.2458 53.2743 30.1557C53.7135 34.47 54.4011 38.1531 55.3178 41.4443C53.9274 39.5288 52.071 38.1836 50.3407 36.9515ZM59.0153 14.1218C59.5042 14.2263 59.9588 14.3221 60.3254 14.4178C62.6746 15.0317 65.0657 15.4714 67.4569 15.9111L69.6417 16.3203C74.4087 17.2345 79.2445 17.6917 84.0802 17.6917C85.7686 17.6917 87.4569 17.6394 89.1375 17.5262L92.1628 17.3434C97.3117 17.056 102.64 16.7557 107.774 15.097C110.15 14.3308 113.251 13.2772 115.696 11.6447C116.296 15.0099 116.624 19.4461 116.712 23.4775C116.326 23.8127 116.021 24.248 115.94 24.8053C115.536 25.1927 114.485 25.8327 113.221 26.3551C112.545 26.6337 111.762 26.7295 111.028 26.6468C111.441 25.11 111.536 23.4644 111.261 21.8318C111.131 21.0917 110.677 20.4779 110.062 20.2123C108.251 19.4418 106.513 20.1819 105.608 22.1017C104.806 23.804 104.791 26.3682 105.799 28.1749C105.257 28.7495 104.615 29.1979 103.908 29.4592C103.183 29.7204 102.266 29.6681 101.426 29.3416C102.304 27.2432 103.099 23.46 100.795 21.8362C99.6456 21.0308 98.3622 21.07 97.3652 21.9581C95.6616 23.4818 95.4019 27.2171 95.8335 28.7365C95.9137 29.0282 96.013 29.3111 96.1314 29.5854C95.612 29.8902 95.0084 30.1122 94.3171 30.2602C92.9993 30.5388 91.9527 30.4387 91.1926 29.9685C91.7846 29.0499 92.201 28.0486 92.4149 26.9907C92.7701 25.2145 92.2888 23.5471 91.1887 22.7287C90.1498 21.9537 88.8205 22.1017 87.6402 23.1074C85.9519 24.5528 85.7533 27.0821 86.2537 29.2154C85.8373 29.4983 85.4324 29.7247 85.1001 29.8902C83.3163 30.7739 80.7647 30.9393 79.0191 29.3939C79.9588 28.0747 80.4057 26.6424 80.3484 25.1013C80.3255 24.5005 80.2605 22.6808 78.9045 21.8536C78.3048 21.4836 77.3003 21.2441 75.9557 22.1758C74.9244 22.8854 74.2559 24.1044 74.0726 25.6107C73.9618 26.5249 74.0306 27.4653 74.2101 28.3577C73.916 28.558 73.5951 28.7582 73.2475 28.9585C70.9748 30.2689 67.8847 29.8466 66.2078 27.992C66.1391 27.9137 66.0703 27.8309 66.0015 27.7395C66.246 27.5001 66.479 27.2389 66.6891 26.9472C67.8579 25.3582 68.2857 22.9202 67.7051 21.1527C67.3308 20.0208 66.5707 19.272 65.6157 19.0978C64.4622 18.8976 63.3354 19.5506 62.2888 21.0569C61.4714 22.2236 61.1276 23.5993 61.1429 24.9925C61.097 24.9838 61.0512 24.9751 61.0054 24.9663C59.1413 24.5702 57.3002 23.0029 56.819 21.3965C56.7617 21.2049 56.6547 21.0482 56.5554 20.8871C56.5134 18.1488 56.605 15.5802 56.8839 13.6037C57.5218 13.7779 58.2093 13.9477 59.0153 14.1218ZM59.8785 8.25763C63.2017 6.05476 66.7426 5.55411 69.7678 5.35385C79.1261 4.74001 89.2483 4.69212 99.8786 5.21454C100.807 5.26243 101.796 5.27549 102.824 5.2929C106.853 5.35821 111.418 5.43222 114.458 7.45224C112.461 9.05432 109.015 10.1688 106.727 10.9089C102.018 12.4326 96.9107 12.72 91.9718 12.9986L88.916 13.1814C82.6899 13.5907 76.4217 13.2076 70.2758 12.0278L68.068 11.6142C65.7609 11.1919 63.4462 10.7652 61.1734 10.1732C60.7685 10.0687 60.2682 9.95985 59.7296 9.84231C59.3782 9.7683 58.874 9.65946 58.3659 9.53321C58.9045 9.0195 59.4851 8.51884 59.8785 8.25763ZM131.219 14.5484C128.267 12.8462 124.661 12.733 121.808 14.2524C121.151 14.605 120.593 15.0926 120.077 15.5802C119.814 12.807 119.39 10.0164 118.737 7.75698C118.756 7.5959 118.817 7.45659 118.813 7.28245C118.763 5.55847 117.549 4.50927 116.639 3.86931C112.701 1.10049 107.48 1.01342 102.877 0.939408C101.892 0.926348 100.937 0.908934 100.043 0.865399C89.2903 0.334273 79.0306 0.382161 69.5462 1.00906C66.0703 1.2398 61.9756 1.83187 57.961 4.49621C57.9037 4.53104 52.7242 8.00513 53.4156 11.1527C53.4194 11.1571 53.4232 11.1614 53.4232 11.1658C53.4232 11.1745 53.4194 11.1745 53.4194 11.1832C52.961 13.1858 52.7853 15.7326 52.7395 18.3055C52.3231 18.0051 51.8762 17.7221 51.3873 17.5132C48.4309 16.2507 44.848 16.7034 42.029 18.6755C38.8816 20.8784 38.1826 23.6647 38.1444 25.615C38.0183 32.5937 45.7838 38.7582 46.67 39.4374C47.2047 39.8466 47.7586 40.2428 48.3124 40.6389C50.8487 42.45 53.0336 44.0129 53.5302 46.9776C53.9007 49.224 53.1902 49.4939 52.8541 49.6202C52.5905 49.7203 52.4263 49.6637 52.4186 49.6463C52.1589 48.4839 51.1238 47.783 50.0924 48.0791C49.0726 48.3794 48.4576 49.568 48.7212 50.7303C48.9885 51.9188 49.6455 52.8897 50.5699 53.4687C51.1696 53.8387 51.8571 54.0303 52.5676 54.0303C53.0604 54.0303 53.5646 53.9389 54.0535 53.7517C56.4561 52.8461 57.5944 50.3733 57.327 47.1213C57.5103 47.5305 57.6631 47.9789 57.8579 48.3794C61.5134 55.8587 66.3186 59.7116 70.5623 63.1117C74.5539 66.3115 77.9993 69.0716 79.8442 74.261C81.4561 78.8147 81.5134 80.9828 81.1505 86.2679C79.4011 86.6292 77.5715 87.3606 76.0283 87.9832L75.2987 88.2749C72.5982 89.3458 70.738 91.1525 69.932 93.3815C69.1872 95.5757 68.4347 100.948 68.9504 103.678C69.3132 105.597 69.8136 108.223 71.9183 110.169C76.6051 114.5 82.56 114.992 88.259 115.127C88.4462 115.132 88.641 115.132 88.8396 115.132C91.437 115.132 94.5233 114.74 98.2476 113.939C101.151 113.307 106.303 111.557 108.156 106.89C108.805 105.267 108.954 103.277 109.084 101.518L109.168 100.473C109.321 98.8713 109.107 95.7324 108.897 92.9157L108.859 92.3802C108.84 92.1495 108.763 91.9449 108.687 91.7446C108.423 90.2427 107.816 88.8234 106.811 87.5827C104.859 85.1839 102.484 84.7398 100.57 84.3785C99.8289 84.2392 99.1452 84.0825 98.5111 83.8604C98.4385 80.4995 98.9924 77.6001 99.68 74.0607C101.101 66.7425 105.478 61.5357 109.711 56.4944C112.953 52.6415 116.017 48.9976 117.82 44.4961C117.885 44.3394 117.927 44.2088 117.984 44.0564C117.866 47.4609 119.199 49.9206 121.724 50.6215C122.102 50.726 122.484 50.7782 122.858 50.7782C123.694 50.7782 124.504 50.517 125.177 50.0164C126.059 49.3546 126.643 48.3228 126.827 47.1126C127.002 45.9284 126.311 44.8009 125.276 44.6006C124.172 44.3916 123.255 45.1927 123.08 46.3768C123.057 46.3986 122.9 46.4726 122.629 46.3899C122.277 46.2941 121.555 46.0939 121.769 43.8213C122.048 40.8218 124.115 39.063 126.51 37.0255C127.037 36.5771 127.56 36.1287 128.064 35.6716C128.901 34.9097 136.204 28.0573 135.581 21.1048C135.406 19.1631 134.512 16.4509 131.219 14.5484Z" fill="#334580"/>
<path fill-rule="evenodd" clip-rule="evenodd" d="M177.322 56.9275L174.512 56.4603C173.254 56.2479 172.165 55.4706 171.572 54.3621L170.25 51.8817C170.172 51.733 170.051 51.6183 169.904 51.5376C169.502 51.3337 169.009 51.4867 168.797 51.8817L167.479 54.3621C166.886 55.4706 165.797 56.2479 164.539 56.4603L161.729 56.9275C161.56 56.9529 161.414 57.0294 161.292 57.1441C160.973 57.4541 160.964 57.9638 161.279 58.2824L163.272 60.2828C164.167 61.179 164.582 62.4362 164.396 63.6764L163.981 66.4499C163.955 66.6113 163.986 66.7727 164.059 66.9256C164.262 67.3206 164.751 67.482 165.157 67.2824L167.708 66.0422C168.853 65.4858 170.198 65.4858 171.339 66.0422L173.894 67.2824C174.045 67.3589 174.209 67.3843 174.378 67.3589C174.823 67.2951 175.135 66.8874 175.07 66.4499L174.655 63.6764C174.469 62.4362 174.884 61.179 175.779 60.2828L177.771 58.2824C177.884 58.1634 177.962 58.0148 177.988 57.8534C178.065 57.4159 177.767 57.0039 177.322 56.9275Z" fill="#F2D038"/>
<path fill-rule="evenodd" clip-rule="evenodd" d="M166.011 44.5164C166.083 44.7619 166.252 44.9601 166.473 45.0376C166.855 45.1798 167.261 44.9429 167.383 44.5164L168.824 39.5198L173.257 37.8916C173.479 37.8141 173.654 37.6159 173.727 37.3704C173.849 36.944 173.639 36.4831 173.257 36.3452L168.824 34.717L167.383 29.7204C167.314 29.4706 167.142 29.2768 166.92 29.1992C166.542 29.0571 166.133 29.294 166.011 29.7204L164.566 34.717L160.133 36.3452C159.911 36.4228 159.739 36.6209 159.67 36.8664C159.548 37.2929 159.751 37.7538 160.133 37.8916L164.566 39.5198L166.011 44.5164Z" fill="#F2D038"/>
<path fill-rule="evenodd" clip-rule="evenodd" d="M89.0351 40.4849C88.3442 40.1594 87.5498 40.2757 86.9582 40.7872C86.3045 41.3592 85.7253 41.7871 85.1667 42.201C83.5987 43.3683 81.9769 44.5681 79.5524 48.0188C78.8491 49.0279 79.0021 50.4882 79.8999 51.2834C80.7977 52.0787 82.101 51.9113 82.8043 50.8974C84.24 48.8512 85.2412 47.8328 86.2342 47.0143C86.1845 48.1676 86.0935 49.3488 85.9983 50.558C85.8328 52.7111 85.6591 54.9341 85.7129 57.1524C85.7501 58.4127 86.6686 59.4079 87.7815 59.4079H87.8436C88.9855 59.3707 89.8833 58.3011 89.8502 57.0175C89.8005 55.0736 89.9536 53.0785 90.1191 50.9626C90.3342 48.1583 90.5618 45.2564 90.2846 42.3777C90.2018 41.5406 89.7261 40.8151 89.0351 40.4849Z" fill="#F2D038"/>
<path fill-rule="evenodd" clip-rule="evenodd" d="M133.599 116.724C132.532 116.724 131.465 116.697 130.414 116.632C129.331 116.57 128.497 115.536 128.559 114.327C128.619 113.122 129.493 112.145 130.63 112.259C133.469 112.434 136.504 112.299 139.441 112.172C141.76 112.071 144.086 111.974 146.33 112.005C150.791 112.097 157.85 111.773 161.936 111.146C163.29 110.936 164.353 110.581 165.279 110.025C166.853 109.074 167.653 107.041 167.412 105.736C167.349 105.394 167.153 104.356 165.263 104.172C164.361 104.084 163.633 103.326 163.487 102.336C163.346 101.341 163.826 100.373 164.657 99.9744C167.145 98.7827 168.412 97.9196 168.412 96.4738C168.412 94.7783 167.286 94.1167 164.889 93.1003L164.168 92.7892C163.476 92.4826 162.999 91.7684 162.936 90.936C162.877 90.1123 163.235 89.315 163.873 88.8856C165.554 87.7509 166.842 86.0466 167.011 84.741C167.066 84.3336 167.062 83.7027 166.412 82.9097C165.401 81.6742 162.208 81.6873 159.94 81.6961C158.586 81.7311 157.362 81.7005 156.393 81.5471C155.842 81.4595 155.354 81.1221 155.043 80.6139C154.728 80.1101 154.625 79.4748 154.747 78.8746C155.334 76.0882 155.641 71.7333 155.133 69.2929C154.669 67.0542 153.413 63.9041 151.771 62.2874C151.326 62.2568 151.094 62.3619 151.027 62.673L150.799 63.7244C149.763 68.4824 148.787 72.9775 145.984 76.7191C142.39 81.5033 135.835 82.1342 130.528 82.1473H130.524C129.437 82.1473 128.559 81.1747 128.556 79.9611C128.552 78.7563 129.43 77.7705 130.52 77.7662C134.977 77.753 140.413 77.3061 142.961 73.9151C145.173 70.9578 146.008 67.1286 146.968 62.6905L147.204 61.6302C147.575 59.9391 148.74 58.5634 150.244 58.042C151.712 57.5338 153.255 57.8931 154.377 59.0059C156.842 61.4287 158.389 65.5295 158.968 68.3028C159.519 70.9622 159.354 74.546 159.003 77.3193C159.31 77.3237 159.613 77.3193 159.924 77.3149C163.133 77.3105 167.141 77.2842 169.326 79.9567C170.613 81.5384 171.164 83.4091 170.912 85.3675C170.656 87.3128 169.7 88.9294 168.664 90.1605C170.534 91.269 172.349 93.0828 172.349 96.4738C172.349 98.958 171.227 100.636 169.83 101.828C170.55 102.634 171.046 103.659 171.267 104.851C171.896 108.211 170.121 112.088 167.145 113.88C165.798 114.686 164.314 115.199 162.476 115.484C158.047 116.163 150.811 116.474 146.279 116.386C144.071 116.36 141.846 116.452 139.595 116.548C137.618 116.632 135.603 116.724 133.599 116.724Z" fill="#28BBB4"/>
<mask id="mask0_5_461" style="mask-type:alpha" maskUnits="userSpaceOnUse" x="115" y="72" width="19" height="50">
<path fill-rule="evenodd" clip-rule="evenodd" d="M115.967 72.589H133.941V121.5H115.967V72.589Z" fill="white"/>
</mask>
<g mask="url(#mask0_5_461)">
<path fill-rule="evenodd" clip-rule="evenodd" d="M129.905 113.302L129.862 115.058C129.846 115.605 129.834 116.143 129.822 116.637C128.299 116.721 126.907 116.797 125.218 116.926L124.7 116.97C121.864 117.215 121.828 117.01 121.721 116.29C121.721 116.285 121.717 116.281 121.717 116.272C120.97 111.439 120.815 106.286 120.661 101.297L120.633 100.319C120.574 98.2778 120.436 96.1613 120.301 94.0093C119.941 88.3492 119.629 82.5378 120.57 77.3534C121.531 77.2467 122.651 77.2556 123.683 77.2689C124.51 77.2734 125.305 77.2823 126.021 77.2467L126.954 77.1667C127.532 77.1089 128.865 76.9088 129.565 76.9755C129.965 81.0572 130.044 98.1355 129.905 113.302ZM132.678 73.8631C131.365 72.3869 129.15 72.4847 126.602 72.7381L125.831 72.8093C125.19 72.836 124.47 72.8271 123.731 72.8226C122.077 72.8004 120.242 72.8137 118.66 73.245C118.6 73.2495 118.545 73.2628 118.482 73.2761C118.434 73.2895 118.371 73.285 118.319 73.3028C118.244 73.3295 118.189 73.3873 118.118 73.4184C117.983 73.4851 117.857 73.5474 117.742 73.6407C117.643 73.7208 117.564 73.8053 117.477 73.9031C117.386 74.0053 117.299 74.1165 117.224 74.241C117.153 74.361 117.109 74.49 117.062 74.6234C117.026 74.7123 116.971 74.7834 116.951 74.8768C116.927 74.9702 116.927 75.068 116.903 75.1658V75.1747C115.547 81.3062 115.95 87.9179 116.354 94.325C116.488 96.4192 116.623 98.4823 116.678 100.474L116.71 101.448C116.864 106.579 117.026 111.892 117.817 117.019V117.046C118.406 120.865 120.982 121.501 123.228 121.501C123.857 121.501 124.462 121.448 124.992 121.403L125.495 121.363C127.156 121.234 128.521 121.163 130.024 121.074L131.788 120.976C132.733 120.918 133.513 120.114 133.639 119.055C133.738 118.268 133.778 116.752 133.813 115.174L133.861 113.4C134.201 75.5882 133.398 74.6723 132.678 73.8631Z" fill="#5C78B0"/>
</g>
<path fill-rule="evenodd" clip-rule="evenodd" d="M38.968 92.2215C37.6202 93.7291 37.0763 94.0467 35.4366 95.0086C33.7569 96.0018 31.5333 97.2007 29.2016 97.6928C24.4864 98.6502 19.3153 96.5297 16.3238 92.3512C15.6759 91.452 15.34 90.7183 15.296 90.1099C15.204 88.8841 14.2442 87.9983 13.1363 88.0698C12.0325 88.1772 11.2167 89.2554 11.3086 90.4857C11.4646 92.5167 12.4685 94.1273 13.2043 95.1518C16.4678 99.7015 21.7189 102.395 26.934 102.395C27.9419 102.395 28.9457 102.296 29.9375 102.086C32.797 101.487 35.3766 100.104 37.4803 98.8605C39.06 97.9344 40.0158 97.3707 41.7955 95.3844C42.5754 94.512 42.5754 93.0938 41.7995 92.2215C41.0157 91.3491 39.7479 91.3491 38.968 92.2215Z" fill="#D8EAD2"/>
<path fill-rule="evenodd" clip-rule="evenodd" d="M47.4637 74.3144C43.783 64.5922 34.4281 59.4271 29.4777 57.9051C28.3693 57.559 27.2362 58.2512 26.9219 59.4271C26.6075 60.6074 27.2403 61.8321 28.3404 62.1694C32.2817 63.3808 40.5447 67.8225 43.6299 75.9828C45.3669 80.571 47.5381 87.3602 46.3967 93.3595C46.1651 94.562 46.8888 95.7335 48.0055 95.9819C48.1461 96.013 48.2867 96.0263 48.4232 96.0263C49.3827 96.0263 50.247 95.2986 50.4455 94.2514C51.7979 87.1516 49.5605 79.8699 47.4637 74.3144Z" fill="#D8EAD2"/>
<mask id="mask1_5_461" style="mask-type:alpha" maskUnits="userSpaceOnUse" x="0" y="57" width="49" height="58">
<path fill-rule="evenodd" clip-rule="evenodd" d="M0 57.0266H48.809V114.068H0V57.0266Z" fill="white"/>
</mask>
<g mask="url(#mask1_5_461)">
<path fill-rule="evenodd" clip-rule="evenodd" d="M43.4784 94.5066C40.8655 104.105 29.7252 111.383 21.0078 109.179C12.7392 107.101 6.18589 99.2158 4.307 89.0866C2.62208 79.9874 5.28067 71.3244 11.4232 65.9044C13.2793 64.2672 18.7334 61.519 25.009 61.519C28.4853 61.519 32.2127 62.3646 35.7194 64.708C47.4073 72.5388 45.5969 86.7387 43.4784 94.5066ZM37.5945 60.7948C25.9941 53.027 12.6859 59.1801 9.14875 62.2971C1.77772 68.8011 -1.42475 79.1777 0.591058 90.0491C2.78943 101.901 10.4914 111.131 20.2167 113.578C21.5289 113.906 22.8829 114.068 24.2483 114.068C33.9128 114.068 44.2885 106.192 47.0993 95.8874C49.0923 88.5873 52.1502 70.5463 37.5945 60.7948Z" fill="#7FC689"/>
</g>
<path fill-rule="evenodd" clip-rule="evenodd" d="M37.8059 94.5068C35.8177 98.0288 32.7511 100.382 29.1747 101.121C24.7747 102.044 21.2336 100.049 19.0414 98.2228C16.4415 96.0548 14.8454 93.427 14.1748 91.8368C15.7552 91.4741 17.7003 90.93 19.5081 90.4154C20.5473 90.1201 21.4649 89.8544 22.0688 89.7025C30.308 87.6273 36.7079 86.674 39.8451 86.2016C39.9981 88.7788 39.2844 91.8832 37.8059 94.5068ZM41.1157 81.7474C41.053 81.7601 40.9902 81.7432 40.9236 81.7643C40.9118 81.7643 40.904 81.777 40.8883 81.7812C40.8726 81.7854 40.8608 81.7854 40.8451 81.7896C40.5902 81.8402 40.1 81.9119 39.4059 82.0132C36.2452 82.4772 29.6649 83.4557 21.1747 85.5985C20.5473 85.7587 19.5904 86.0287 18.5042 86.3366C16.2258 86.9862 13.1003 87.8762 11.8062 88.0196C10.8768 88.1208 10.2023 88.918 10.0964 89.8712C9.96309 90.1834 9.86897 90.5166 9.8925 90.8836C10.0376 93.486 12.6023 98.1891 16.6375 101.555C18.9669 103.499 22.4963 105.579 26.9276 105.579C27.8845 105.579 28.8805 105.482 29.9198 105.267C34.5981 104.292 38.5863 101.251 41.1589 96.6959C43.5118 92.5201 44.3353 87.6315 43.4412 83.7299C43.4412 83.7172 43.4373 83.7046 43.4373 83.6919C43.398 83.5274 43.4059 83.3461 43.3628 83.1816C43.351 83.1436 43.3196 83.1141 43.3079 83.0719C43.2608 82.9285 43.1902 82.8104 43.1157 82.6796C43.049 82.5742 42.9941 82.4687 42.9157 82.3759C42.8294 82.2747 42.7235 82.1946 42.6216 82.1144C42.5196 82.0343 42.4216 81.9541 42.3079 81.8993C42.2647 81.8782 42.2373 81.836 42.1941 81.8192C42.0961 81.777 41.9941 81.777 41.8922 81.7601C41.802 81.7348 41.7157 81.7095 41.6177 81.7011C41.4451 81.6884 41.2804 81.7095 41.1157 81.7474Z" fill="#7FC689"/>
<path fill-rule="evenodd" clip-rule="evenodd" d="M9.63948 84.8293C10.7757 84.5982 11.4801 83.2818 11.2621 82.1005C11.2579 82.1005 11.216 81.8738 11.216 81.8738C10.9938 80.6925 9.89944 79.8904 8.75899 80.1563C7.62274 80.383 6.88061 81.5294 7.10283 82.7108C7.10283 82.7151 7.21185 83.2949 7.21185 83.2949C7.40891 84.3062 8.21812 84.8816 9.15312 84.8816C9.31244 84.8816 9.47596 84.8641 9.63948 84.8293Z" fill="#7FC689"/>
<path fill-rule="evenodd" clip-rule="evenodd" d="M37.8934 78.4608C39.0297 78.2298 39.7341 76.9134 39.516 75.7321C39.5118 75.7321 39.4699 75.5054 39.4699 75.5054C39.2477 74.3241 38.1534 73.522 37.0129 73.7879C35.8767 74.0146 35.1345 75.161 35.3568 76.3423C35.3568 76.3467 35.4658 76.9264 35.4658 76.9264C35.6628 77.9378 36.4721 78.5132 37.4071 78.5132C37.5664 78.5132 37.7299 78.4957 37.8934 78.4608Z" fill="#7FC689"/>
</svg>
