<svg width="37" height="30" xmlns="http://www.w3.org/2000/svg"><path d="M9.886 24.16c.116-.005.231-.012.347-.019.07-.164.12-.278.16-.361l-.005-.002 1.164-2.752c-2.218-.71-4.422-1.626-6.376-2.904a11.727 11.727 0 01-1.759-1.375L0 18.138c1.636 4.055 5.74 6.406 9.886 6.022M.991 10.459a9.794 9.794 0 002.637 5.517c1.397 1.456 3.246 2.425 5.071 3.232a32.68 32.68 0 003.126 1.177c.19-.5.502-.97.425-1.533-.049-.35-.251-.642-.47-.91-.45-.549-.904-1.095-1.355-1.644-1.033-1.252-2.191-2.481-2.937-3.932-.767-1.493-1.231-3.255-1.153-4.943L1.673 5.447C1.01 7.007.748 8.776.99 10.46m35.22-4.667h-9.368c-.955 0-1.904-.01-2.852.134-2.295.346-4.506 1.395-6.127 3.076 0 0 0 .003.003.005-.846-.98-1.648-2-2.471-2.999l-3.954-4.8L10.529.1C7.727 2.414 6.447 6.253 7.274 9.794c.373 1.595 1.146 2.984 2.18 4.238l1.13 1.37 1.659 2.013c.268.324.516.666.635 1.077.224.779-.116 1.472-.419 2.17-.5 1.153-.98 2.314-1.47 3.471l-1.844 4.358-.053.127c2.185.928 4.802.827 7.041.145 1.976-.6 3.962-1.794 4.848-3.744.62-1.362 1.172-2.76 1.756-4.137l2.856-6.738.775-1.827c.554-1.307 1.388-2.537 2.499-3.43 1.59-1.278 3.627-1.725 5.626-1.776.556-.014 1.113-.006 1.67-.006.227 0 .453-.021.628-.185a.647.647 0 00.16-.7c-.118-.3-.436-.428-.74-.428" fill="#FFF" fill-rule="evenodd"/></svg>