<svg xmlns="http://www.w3.org/2000/svg" xmlns:xlink="http://www.w3.org/1999/xlink" width="146" height="159" viewBox="0 0 146 159">
    <defs>
        <path id="4ql455r09a" d="M0.063 0.431L82.87 0.431 82.87 83.152 0.063 83.152z"/>
        <path id="vtjnf7kmdc" d="M0 0.526L60.774 0.526 60.774 61.449 0 61.449z"/>
        <path id="d1nssnq8le" d="M0.247 0.288L64.753 0.288 64.753 64.455 0.247 64.455z"/>
    </defs>
    <g fill="none" fill-rule="evenodd">
        <path fill="#CADCE7" d="M117.407 9.508l-1.803-1.296c-4.094-2.975-8.725-6.342-15.67-7.197-.868-.124-1.808.544-1.92 1.483-.117.934.553 1.79 1.497 1.9 6.05.748 10.115 3.702 14.052 6.565l1.852 1.328c5.772 4.056 8.387 9.476 9.468 14.521-1.064.052-1.92 1.042-1.92 2.112 0 1.101.896 1.988 2.008 1.988.181 0 .338-.056.503-.1.28 3.71-.113 6.855-.438 8.637-.788-.414-1.78-.298-2.41.377-.426.462-.591 1.062-.507 1.627-.084.568.08 1.169.506 1.626.33.358.768.533 1.218.592-1.278 3.758-3.487 9.07-7.078 11.846-.752.58-.884 1.654-.294 2.397.338.43.523-.894 1.033-.894.373 0 .847-.454 1.165-.696 5.427-4.2 8.227-10.728 9.392-14.517.064-.207 5.531-20.943-10.654-32.3"/>
        <path fill="#CADCE7" d="M121.981 36h.089c1.027 0 1.881-.751 1.927-1.723.028-.585-.162-1.137-.556-1.6-.668-.776-1.88-.906-2.715-.281-.711.53-.912 1.434-.549 2.17.178.784.908 1.39 1.804 1.434"/>
        <path fill="#C7E7E9" d="M81.777 151c-.12 0-.248-.012-.372-.04-.956-.196-1.572-1.087-1.365-2.003.405-1.79 1.166-4.43 2.519-6.854.723-1.292 1.964-3.119 4.367-4.046 1.24-.479 2.548-.546 3.701-.6.637-.032 1.27-.056 1.87-.173 1.261-.248 2.353-.986 3.647-1.929.77-.57 1.89-.444 2.486.306.6.735.455 1.795-.323 2.361-1.236.907-2.932 2.145-5.099 2.569-.765.15-1.58.192-2.394.232-.96.05-1.866.094-2.548.357-1.046.405-1.812 1.155-2.572 2.506-.902 1.622-1.68 3.743-2.18 5.978-.178.79-.918 1.336-1.737 1.336"/>
        <path fill="#CADCE7" d="M134.058 118c1.072 0 1.942-.847 1.942-1.89 0-.594-.404-1.377-.89-1.736-.854-.62-2.074-.454-2.723.382-.481.628-.505 1.448-.12 2.087.291.68.987 1.157 1.79 1.157"/>
        <path fill="#CADCE7" d="M141.91 108.91c-1.794-7.333-6.393-13.244-10.563-18.22-1.404-1.666-8.975-8.85-17.78-10.936-11.848-2.803-22.399-2.244-31.355 1.662-1.018.443-1.488 1.633-1.046 2.66.446 1.026 1.623 1.494 2.654 1.046 8.136-3.546 17.832-4.03 28.824-1.43 7.778 1.838 14.602 8.396 15.62 9.61 3.847 4.577 8.073 10.005 9.688 16.419-.482.088-.931.335-1.253.759-.494.663-.514 1.53-.124 2.204.299.72 1.01 1.223 1.834 1.223.088 0 .163-.04.251-.052.255 2.144.354 4.305.23 6.458-.099-.02-.194-.076-.302-.084-.998-.06-2.06.711-2.16 1.81-.056.59.183 1.265.597 1.685.35.351.88.555 1.384.583-.322 1.865-.756 3.678-1.384 5.36-2.03 5.464-6.155 10.304-10.145 14.99l-1.711 2.016c-.72.85-.609 2.129.242 2.848.374.32.836.479 1.297.479.57 0 1.142-.244 1.536-.723l1.695-1.993c4.221-4.948 8.582-10.069 10.865-16.203 2.471-6.638 2.88-14.93 1.106-22.17"/>
        <path fill="#CADCE7" d="M104.439 128c-.96 0-1.929-.112-2.865-.352-1.111-.273-1.79-1.41-1.512-2.531.27-1.13 1.402-1.829 2.501-1.531 1.9.472 4.009.182 5.721-.765.45-.596 1.201-.91 1.97-.799 1.127.182 1.9 1.254 1.72 2.396-.123.765-.564 1.394-1.32 1.853-1.876 1.137-4.045 1.729-6.215 1.729"/>
        <path fill="#334580" d="M112.59 125.03c.15-.645.264-1.231.39-1.821 1.015-.77 1.915-1.647 2.644-2.66.656-.913.432-2.173-.501-2.81-.933-.646-2.216-.427-2.872.49-2.729 3.8-7.837 4.234-9.902 4.242-2.224.06-3.715-.407-4.652-1.28-1.74-1.606-1.666-4.872-1.47-6.67.374-3.33 1.4-6.635 2.969-9.561.53-.989.139-2.209-.868-2.727-1.002-.518-2.252-.144-2.786.85-1.804 3.372-2.986 7.176-3.413 11.003-.497 4.458.452 7.93 2.733 10.04 1.08.997 2.46 1.642 4.11 2.01.008 2.826-1.238 5.477-3.61 7.232-.907.674-1.087 1.937-.402 2.83.403.527 1.022.802 1.645.802.436 0 .872-.136 1.247-.41 3.34-2.473 5.242-6.169 5.316-10.156 1.82-.075 3.51-.402 5.091-.905-.24 1.093-.456 2.181-.505 3.182-.057 1.144-.077 2.372.342 3.604.457 1.316 1.328 2.44 2.591 3.35.367.258.794.39 1.218.39.631 0 1.263-.291 1.666-.83.672-.9.468-2.164-.448-2.822-.574-.41-.937-.857-1.116-1.372-.192-.574-.175-1.331-.135-2.117.057-1.072.396-2.5.717-3.883"/>
        <path fill="#7FC689" d="M121.945 104.513c-.337-3.517-2.217-6.368-3.934-7.637-2.387-1.759-5.926-2.421-8.922-2.425-.19-.84-.547-1.696-1.136-2.449-.899-1.151-2.166-1.83-3.663-1.963-2.306-.229-4.08.58-5.26 1.782-.72-.465-1.557-.745-2.433-.773-2.717-.233-4.721 1.964-5.345 4.018-.004.008 0 .016-.004.024 0 .007-.008.011-.008.02-.83 2.933.547 6.497 3.26 8.476 2.004 1.463 4.624 2.126 7.942 1.988.972-.036 1.941-.13 2.91-.221 1.373-.134 2.663-.26 3.966-.205 1.081.043 1.43.264 1.554.394.403.438.814 1.55-.233 2.914-.67.867-.52 2.121.337 2.8.357.287.783.425 1.206.425.585 0 1.159-.264 1.546-.769 2.334-3.032 1.64-6.328.012-8.098-1.41-1.538-3.558-1.629-4.264-1.656-1.57-.071-3.046.082-4.492.22-.891.087-1.787.17-2.682.205-2.446.087-4.244-.315-5.512-1.246-1.337-.973-2.131-2.807-1.779-4.108.136-.418.698-1.19 1.438-1.19h.031c.365.011.78.354.865.717.209.88.973 1.506 1.86 1.526.02 0 .035.004.05.004.865 0 1.632-.58 1.88-1.432.392-1.356 1.341-1.967 2.807-1.84.422.039.713.184.941.476.38.485.508 1.278.435 1.806-.086.615.12 1.234.554 1.68.43.441 1.05.666 1.64.571 2.957-.386 6.472.292 8.197 1.566.81.595 2.1 2.362 2.33 4.79.275 2.867-.942 5.804-3.62 8.738-.741.812-.694 2.074.1 2.823.38.359.86.536 1.337.536.524 0 1.05-.217 1.438-.639 4.33-4.74 4.919-9.06 4.651-11.848"/>
        <path fill="#28BBB4" d="M127.862 146.406c-.036-1.112-.08-2.223-.224-3.319-.355-2.684-1.301-4.787-2.823-6.251-2.016-1.935-4.684-2.452-7.032-2.906l-1.034-.208c-1.466-.301-2.672-.775-3.478-1.357-.088-.064-.188-.084-.284-.128-.115-.064-.227-.132-.355-.168-.144-.04-.288-.045-.431-.053-.112-.008-.22-.024-.328-.012-.147.016-.28.069-.415.113-.116.036-.224.064-.323.12-.12.06-.212.157-.32.24-.084.073-.18.117-.256.201-1.745 2.027-5.21 3.985-7.595 3.728-.73-.088-3.058-.991-4.232-2.628-.004-.004-.012-.008-.016-.016-.008-.004-.008-.016-.012-.024-.088-.12-.208-.185-.312-.281-.092-.076-.171-.177-.275-.24-.092-.057-.196-.073-.296-.11-.148-.06-.287-.132-.439-.152-.068-.008-.132.008-.204.004-.187-.008-.38-.012-.567.032-.104.025-.183.093-.28.125-.143.06-.29.1-.423.196-.008.004-.008.012-.016.016-.007.005-.015.005-.023.013-.875.666-1.865 1.187-2.943 1.544-.58.197-1.446.145-2.368.085-1.61-.093-3.43-.201-5.052.878-3.57 2.38-6.305 11.472-6.42 11.858-.32 1.075.287 2.207 1.36 2.528.192.06.388.088.58.088.866 0 1.673-.574 1.937-1.457 1.13-3.8 3.37-8.691 4.775-9.63.496-.325 1.55-.277 2.588-.205 1.194.057 2.556.145 3.865-.284.915-.301 1.765-.719 2.584-1.184 1.88 1.71 4.289 2.712 5.718 2.88.3.033.603.049.907.049 3.194 0 6.696-1.838 9.064-3.985 1.015.494 2.133.923 3.466 1.196l1.082.217c1.981.381 3.854.742 5.008 1.854 1.046 1.007 1.45 2.648 1.61 3.848.131.967.155 1.942.19 2.921.033.875.06 1.75.145 2.62.103 1.048.982 1.838 2.008 1.838.068 0 .136-.004.2-.012 1.11-.108 1.929-1.104 1.817-2.219-.072-.782-.1-1.577-.128-2.363"/>
        <g transform="translate(63 75)">
            <mask id="h3kew781pb" fill="#fff">
                <use xlink:href="#4ql455r09a"/>
            </mask>
            <path fill="#334580" d="M4.097 40.905c-.036 9.896 3.334 19.382 9.247 26.028 9.399 10.562 18.765 11.794 27.55 12.157 12.855.466 23.95-7.683 25.606-9.322 9.546-9.45 13.588-20.159 12.015-31.833-1.6-11.897-9.263-23.133-19.517-28.627-5.022-2.692-12.043-4.67-17.069-4.817-16.75-.558-28.692 7.337-35.016 22.595-1.824 4.398-2.8 9.175-2.816 13.82m37.98 42.247c-.45 0-.896-.008-1.346-.028-9.231-.379-19.952-1.766-30.397-13.504C3.767 62.244.024 51.77.063 40.89c.02-5.168 1.1-10.475 3.122-15.35C10.107 8.84 23.885-.07 42.045.451 47.724.62 55.298 2.745 60.9 5.747c11.362 6.085 19.844 18.508 21.612 31.65 1.725 12.81-2.831 24.999-13.177 35.246-2.175 2.149-13.632 10.51-27.26 10.51" mask="url(#h3kew781pb)"/>
        </g>
        <path fill="#5C78B0" d="M24.31 81c-.17 0-7.948-.259-9.596-2.092-1.09-1.196-1.13-6.87 1.29-12.677.838-2.014 3.123-5.313 5.971-6.156.925-.274 1.92.224 2.207 1.11.292.885-.23 1.83-1.163 2.104-1.299.387-3.045 2.527-3.736 4.184-1.878 4.507-1.828 8.092-1.676 9.322 1.192.369 5.396.894 6.55.847.958-.102 1.796.678 1.841 1.606.041.93-.715 1.713-1.689 1.752z"/>
        <path fill="#CADCE7" d="M49.978 67h.093c1.023 0 1.876-.751 1.927-1.723.027-.585-.167-1.137-.56-1.6-.664-.776-1.877-.906-2.715-.281-.706.53-.91 1.434-.544 2.17.178.784.903 1.39 1.8 1.434"/>
        <path fill="#CADCE7" d="M55.02 59.259c-.425-.702-1.561-2.313-2.324-3.39l-.501-.714c-.598-.858-1.329-1.571-1.895-2.096-4.885-4.505-13.84-9.057-21.526-9.057-.995-.044-1.778.753-1.774 1.727.004.946.775 1.711 1.722 1.711h.008c6.069.056 14.1 3.41 19.23 8.144.245.232.49.537.743.813-.028.02-.069.024-.097.048-.843.722-.939 1.984-.216 2.826.216.252.481.436.77.557.317.188.675.284 1.04.284.361 0 .714-.128 1.04-.324.345.5.658.965.834 1.254 1.18 1.948 1.827 4.34 2.172 6.861-.45-.004-.9.112-1.277.409-.734.589-.947 1.59-.566 2.408.185.874.94 1.547 1.87 1.591h.097c.06 0 .109-.028.165-.032.004 4.833-.867 9.538-1.686 12.107-1.14 3.575-3.918 6.517-5.94 8.66-.884.934-1.594 1.7-1.98 2.277-.525.79-.312 1.86.482 2.388.293.197.626.289.952.289.558 0 1.103-.269 1.437-.765.309-.47.903-1.074 1.613-1.824 2.127-2.256 5.342-5.659 6.72-9.983 1.32-4.136 3.945-17.826-1.113-26.17M28.993 83c-.565 0-1.134-.06-1.69-.174-.893-.188-1.458-1.035-1.265-1.89.196-.858 1.072-1.398 1.964-1.213.803.167 1.683.122 2.471-.13.423-.136.823-.321 1.222-.506.054-.026.085-.026.093-.004.23-.662.93-1.128 1.66-1.08.911.056 1.603.807 1.55 1.683-.059.965-.697 1.731-1.892 2.271-.515.237-1.042.473-1.587.651-.82.259-1.672.392-2.526.392"/>
        <path fill="#B1DEF6" d="M16.759 101c-.542 0-1.057-.39-1.305-1.053-.648-1.775-.454-3.694-.31-5.1.157-1.536.357-3.442 1.24-5.064.451-.824 1.344-1.032 1.996-.459.653.573.816 1.703.365 2.535-.488.896-.622 2.2-.752 3.46-.134 1.287-.211 2.331.066 3.087.335.913.024 1.995-.695 2.42-.194.115-.401.174-.605.174"/>
        <path fill="#334580" d="M43.26 88.413c-1.191-.81-2.634-1.357-4.289-1.617-1.526-.244-2.63-.743-3.188-1.447-.228-.28-.383-.708-.523-1.13-.494-1.506-.725-2.465-.8-3.81 1.255-.783 2.303-1.818 3.152-3.112.51-.783.283-1.829-.506-2.332-.801-.512-1.858-.291-2.368.5-1.184 1.8-2.814 2.8-5.29 3.244-1.008.177-2.734 0-3.703-.558-1.128-.65-1.654-2.164-1.897-3.316-.821-3.914.379-9.015 1.965-11.143.562-.752.399-1.81-.363-2.36-.765-.559-1.833-.394-2.391.358-2.352 3.15-3.5 9.357-2.56 13.83.547 2.619 1.767 4.534 3.52 5.545.052.032.12.04.172.063-.036 1.609-.494 3.713-.746 4.158-.526.708-2.403 1.31-3.774 1.75-.758.248-1.48.48-2.07.732-.74.31-1.426.743-2.036 1.29-.702.621-.758 1.691-.124 2.383.335.37.801.559 1.268.559.41 0 .821-.146 1.148-.437.33-.29.697-.527 1.088-.692.51-.216 1.132-.409 1.786-.621 2.017-.65 4.297-1.385 5.477-2.97.673-.916 1.208-3.249 1.375-5.231.327.031.67.106.977.106.55 0 1.064-.043 1.498-.122.391-.07.722-.197 1.085-.291.155 1.164.426 2.19.86 3.516.228.689.535 1.483 1.089 2.18 1.116 1.396 2.91 2.304 5.337 2.694 1.148.177 2.117.539 2.89 1.062.295.2.634.299.969.299.546 0 1.08-.256 1.411-.732.534-.77.339-1.817-.438-2.348"/>
        <path fill="#3F94D0" d="M43.652 88.327c-.012-.008-.02-.02-.032-.027-.012-.008-.024-.02-.036-.028-.075-.047-.158-.059-.233-.098-.115-.055-.226-.117-.348-.145-.103-.023-.206-.012-.309-.02-.115-.003-.226-.019-.344 0-.111.016-.21.071-.32.106-.092.032-.187.044-.274.094-6.63 3.864-16.835 4.071-23.735.467-.012-.008-.024-.008-.04-.012-.126-.063-.261-.086-.396-.114-.079-.015-.154-.05-.233-.058-.138-.012-.277.023-.411.047-.08.011-.159.007-.23.03-.099.028-.182.095-.273.146-.107.055-.218.098-.309.18-.011.004-.023.008-.031.016-2.12 1.884-3.296 5.11-3.07 8.42.059.885.807 1.567 1.693 1.567.04 0 .079-.004.115-.004.937-.062 1.646-.866 1.582-1.794-.126-1.846.38-3.636 1.29-4.898 3.55 1.595 7.617 2.425 11.72 2.425 4.565 0 9.092-1.022 12.902-2.958 1.207 1.183 1.947 3.005 2.287 5.846.103.854.835 1.485 1.681 1.485.068 0 .135-.004.206-.012.93-.113 1.595-.948 1.484-1.873-.352-2.934-1.167-6.582-4.336-8.788"/>
        <g transform="translate(0 43)">
            <mask id="uwhteyfx4d" fill="#fff">
                <use xlink:href="#vtjnf7kmdc"/>
            </mask>
            <path fill="#334580" d="M31.212 3.973c-3.573 0-8.351 1.066-11.88 2.678-7.638 3.485-13.678 11.247-15.395 19.773-1.685 8.357.718 16.297 7.138 23.597 1.11 1.258 8.687 7.718 17.95 7.951 6.332.117 13.134-.29 20.393-7.469 4.567-4.522 7.437-11.223 7.884-18.387.204-3.356-.267-6.858-1.369-10.122C52.108 10.658 43.776 4.428 31.835 3.985c-.203-.008-.41-.012-.623-.012zm-.475 57.476c-.606 0-1.205-.012-1.796-.028-10.44-.265-18.9-7.368-20.433-9.117C1.438 44.268-1.305 35.08.575 25.737c1.929-9.58 8.736-18.303 17.339-22.23C22.158 1.573 27.815.404 31.963.537c13.29.494 22.96 7.721 27.216 20.348 1.245 3.682 1.776 7.642 1.54 11.444v.004c-.49 8-3.736 15.521-8.898 20.63-7.494 7.421-14.736 8.486-21.084 8.486z" mask="url(#uwhteyfx4d)"/>
        </g>
        <path fill="#5C78B0" d="M29.75 60.068l.088.019c6.356 1.441 9.82 7.468 9.757 16.973l-.004 1.438c1.766-.152 3.337-.32 5.011-.873.75-.25.91-.382.937-.417.032-2.423-1.603-10.304-2.77-12.586-.982-1.933-4.055-6.269-11.192-5.06-.698.12-1.304.3-1.826.506M37.872 82c-.422 0-.833-.156-1.148-.432-.359-.32-.566-.772-.562-1.243l.008-3.288c.04-5.5-1.164-12.345-7.105-13.693-.781-.176-3.712-.791-3.716-.791-.558-.117-1.017-.499-1.228-1.02-.211-.519-.143-1.107.184-1.567.083-.12 2.109-2.914 6.682-3.7 9.696-1.648 13.81 4.834 14.847 6.864 1.527 2.995 3.158 11.398 3.166 13.72.008 2.852-2.229 3.588-3.301 3.942-2.225.737-4.215.904-6.32 1.083l-1.34.117c-.055.004-.11.008-.167.008"/>
        <path fill="#CADCE7" d="M94.65 42c-.733 0-1.406-.516-1.598-1.292-.227-.92.308-1.851 1.192-2.087 2.21-.588 4.304-1.703 6.049-3.223.695-.604 1.733-.512 2.32.216.589.728.493 1.811-.203 2.42-2.125 1.847-4.665 3.198-7.352 3.914-.138.036-.273.052-.407.052"/>
        <path fill="#FAEBAC" d="M77.783 58c-.951 0-1.722-.75-1.722-1.677l-.024-.528c-.08-1.29-.224-3.69 1.906-5.456 1.689-1.408 4.393-1.814 7.526-2.283 1.753-.262 3.57-.536 5.364-1 .939-.235 1.865.3 2.11 1.191.24.895-.305 1.814-1.223 2.053-1.974.512-3.968.809-5.73 1.074-2.503.372-4.866.727-5.816 1.517-.763.637-.77 1.485-.698 2.709.016.266.028.508.028.723 0 .926-.77 1.677-1.721 1.677"/>
        <path fill="#334580" d="M106.587 45.565c-.486-.084-1.297-.946-1.38-1.92-.115-1.422.4-4.401.81-6.797.246-1.381.455-2.63.546-3.531.004-.009.004-.017.004-.02l.016-.11c.008-.08-.02-.152-.02-.233-.008-.129-.008-.254-.04-.382-.023-.105-.074-.198-.126-.294-.047-.105-.083-.202-.15-.294-.075-.1-.17-.177-.265-.262-.063-.052-.103-.12-.17-.165-.016-.012-.036-.012-.052-.02-.095-.06-.21-.085-.316-.125-.107-.04-.21-.089-.324-.105-.016-.004-.032-.012-.056-.016-.075-.008-.146.02-.221.024-.135.004-.257.004-.384.04-.083.025-.15.065-.23.101-.122.053-.245.105-.355.19-.076.06-.13.14-.198.209-.071.076-.154.133-.21.221-1.32 2.102-4.877 5.472-10.047 4.804-.937-.125-1.724-.709-1.938-1.204-.142-.334-.087-.858-.004-1.41l.071-.51c.61-4.196 1.238-8.533 3.267-12.173.467-.83.178-1.884-.636-2.355-.807-.476-1.848-.182-2.314.648-2.346 4.204-3.022 8.866-3.675 13.376l-.075.511c-.139.987-.245 2.135.26 3.306.72 1.671 2.576 2.972 4.613 3.238.534.072 1.052.096 1.57.104-.087.383-.178.794-.34 1.402-.32 1.208-.724 2.71-3.73 3.168-.93.141-1.57 1.02-1.432 1.965.13.858.85 1.47 1.677 1.47.087 0 .17-.004.258-.016 5.201-.797 6.119-4.22 6.558-5.863.21-.777.32-1.332.447-1.969l.122-.604c1.602-.426 3.026-1.119 4.264-1.977-.367 2.223-.676 4.466-.557 5.948.197 2.407 2.076 4.67 4.189 5.04.098.017.193.025.292.025.811 0 1.527-.596 1.67-1.437.158-.943-.467-1.837-1.389-1.998"/>
        <path fill="#3F94D0" d="M104.197 35c-.642 0-1.252-.378-1.539-1.021-.386-.88-.012-1.913.838-2.316 3.543-1.668 4.515-5.72 4.88-7.243.331-1.298.292-2.258-.023-3.068-.795-2.042-1.822-2.205-4.073-2.368-1.587-.114-3.554-.256-5.247-1.685-1.18-.997-1.708-2.4-1.897-3.662-.767.187-1.468.57-2.094 1.14-1.173 1.066-1.621 2.384-1.645 2.823-.051.88.004 1.299.398 1.88.397.578 1.448 1.242 2.499 1.571.598.187 1.204.301 1.814.42.587.113 1.17.227 1.744.386 1.834.492 3.2 1.367 4.062 2.592 1.263 1.819 1.153 4.358-.26 5.79-.665.684-1.732.672-2.385-.016-.658-.688-.646-1.795.02-2.47.2-.208.188-.826-.119-1.257-.381-.55-1.117-.977-2.172-1.262-.5-.138-1.004-.232-1.508-.33-.736-.142-1.464-.284-2.18-.508-1.417-.448-3.283-1.445-4.278-2.905-1.051-1.547-1.075-2.926-1.012-4.098.087-1.42.976-3.585 2.783-5.237 1.7-1.55 3.837-2.303 6.096-2.132.477.032.917.268 1.213.65.299.383.425.88.35 1.364 0 .004-.217 1.774.708 2.555.862.729 2.011.81 3.342.908 2.263.163 5.356.386 6.978 4.545.582 1.506.67 3.251.244 4.907-.508 2.092-1.81 7.52-6.837 9.888-.228.11-.464.159-.7.159"/>
        <path fill="#F2D038" d="M118.825 48.951c-1.95-1.493-4.905-1.943-7.509-2.339-1.536-.235-3.12-.474-3.995-.883-.112-.053-.24-.057-.356-.082l-.045-.012c-.204-.033-.4-.038-.597 0-.024.004-.04.004-.056.008-.185.041-.353.111-.51.206-.048.025-.084.05-.128.083-.12.082-.225.185-.317.3-.04.046-.092.07-.124.124-.016.021-1.649 2.249-7.148 2.249-3.461 0-5.796-2.876-5.868-2.962-.044-.062-.116-.095-.172-.153-.089-.082-.165-.165-.265-.23-.104-.063-.213-.104-.329-.145-.088-.033-.18-.074-.273-.09-.128-.026-.252-.017-.377-.013-.08.004-.148-.02-.224-.009-4.148.751-11.283 2.166-12.442 3.243-1.653 1.526-2.09 5.04-2.09 6.69 0 .978.77 1.77 1.72 1.77.951 0 1.725-.792 1.725-1.77 0-1.955.61-3.74.762-3.918.819-.438 5.824-1.568 10.012-2.356 1.243 1.246 3.995 3.482 7.821 3.482 5.162 0 7.834-1.65 9.093-2.801 1.107.326 2.334.565 3.682.771 2.202.339 4.7.718 5.768 1.494.47.73 1.059 4.537 1.115 5.944.036.952.477.09 1.396.09.024 0-.02.004 0 0 .95-.037 1.945-.903 1.905-1.88 0-.067-.22-5.318-2.174-6.81"/>
        <path fill="#E3DFD8" d="M32.07 111.25c-.39 0-.779-.118-1.12-.366-.893-.638-1.263-2.015-.642-2.933.618-.923 1.687-1.264 2.583-.618l.303.22c.893.637 1.113 1.905.492 2.827-.386.565-.995.87-1.616.87m4.828 3.462c-.386 0-.775-.118-1.117-.362-.892-.642-1.266-2.011-.653-2.938.618-.922 1.687-1.267 2.587-.621l.303.215c.893.642 1.117 1.906.5 2.828-.386.569-.995.878-1.62.878m4.828 3.453c-.39 0-.783-.118-1.125-.366-.888-.637-1.262-2.015-.64-2.933.62-.922 1.694-1.26 2.586-.618l.303.22c.888.638 1.109 1.905.487 2.828-.38.564-.99.87-1.611.87m4.827 3.46c-.389 0-.778-.117-1.12-.36-.893-.639-1.266-2.012-.649-2.938.617-.923 1.683-1.268 2.583-.622l.307.22c.892.637 1.112 1.901.495 2.823-.381.573-.994.878-1.616.878m4.824 3.458c-.389 0-.778-.118-1.12-.366-.893-.638-1.262-2.015-.641-2.934.617-.922 1.687-1.255 2.583-.617l.303.22c.892.637 1.112 1.905.491 2.827-.381.565-.994.87-1.616.87m4.828 3.457c-.381 0-.762-.113-1.1-.35-.9-.629-1.286-2.002-.677-2.933.61-.922 1.679-1.275 2.58-.646l.302.216c.9.63 1.132 1.897.523 2.823-.378.577-.999.89-1.628.89M61.033 132c-.39 0-.782-.118-1.12-.362-.893-.642-1.266-2.019-.645-2.937.621-.923 1.694-1.264 2.587-.614l.303.216c.888.637 1.112 1.905.487 2.832-.381.56-.99.865-1.612.865M61.84 29.12c-.55 0-1.086-.203-1.45-.638-.71-.849-.762-2.006.064-2.738l.284-.252c.821-.73 2.073-.637 2.783.212.711.849.62 2.132-.205 2.864-.407.361-.948.552-1.477.552m-4.461 3.97c-.549 0-1.082-.204-1.445-.63-.715-.85-.766-2.007.055-2.743l.28-.252c.818-.727 2.07-.645 2.784.204.719.845.632 2.128-.194 2.864-.406.365-.951.556-1.48.556m-4.462 3.973c-.548 0-1.085-.207-1.449-.638-.714-.849-.762-2.006.064-2.738l.28-.252c.821-.73 2.073-.641 2.787.212.711.849.62 2.132-.205 2.864-.407.361-.948.552-1.477.552m-4.461 3.97c-.549 0-1.086-.208-1.45-.639-.714-.849-.761-2.007.064-2.738l.284-.252c.822-.73 2.065-.641 2.784.212.71.849.62 2.132-.205 2.864-.407.361-.948.552-1.477.552M43.993 45c-.548 0-1.085-.203-1.449-.638-.71-.849-.762-2.007.064-2.738l.284-.248c.817-.739 2.073-.646 2.783.208.711.849.62 2.132-.205 2.864-.407.361-.948.552-1.477.552M130.84 52.219c-.908 0-1.697-.733-1.823-1.743-.136-1.1.543-2.303 1.553-2.452 1.007-.153 1.914.43 2.05 1.534l.048.378c.137 1.1-.568 2.114-1.578 2.267-.081.012-.17.016-.25.016m.715 5.962c-.915 0-1.708-.745-1.826-1.763-.125-1.1.568-2.295 1.579-2.436 1.017-.145 1.91.46 2.039 1.562l.04.37c.13 1.104-.586 2.11-1.596 2.251-.081.008-.155.016-.236.016m.722 5.962c-.907 0-1.696-.728-1.821-1.739-.14-1.103.542-2.303 1.549-2.456 1.014-.14 1.917.431 2.054 1.538l.048.375c.136 1.099-.572 2.113-1.579 2.266-.08.012-.17.016-.25.016m.719 5.966c-.908 0-1.697-.732-1.822-1.743-.137-1.099.542-2.302 1.552-2.451 1.022-.15 1.914.43 2.05 1.533l.049.375c.136 1.103-.568 2.117-1.579 2.266-.08.012-.17.02-.25.02m.719 5.963c-.908 0-1.697-.733-1.822-1.744-.137-1.099.546-2.302 1.552-2.451 1.01-.153 1.918.43 2.055 1.534l.044.374c.136 1.103-.568 2.118-1.575 2.267-.085.012-.17.02-.254.02m.719 5.962c-.915 0-1.708-.745-1.83-1.76-.125-1.103.572-2.298 1.579-2.44 1.018-.116 1.914.46 2.04 1.559l.044.378c.125 1.103-.59 2.11-1.6 2.247-.078.012-.156.016-.233.016m.719 5.966c-.907 0-1.7-.733-1.822-1.743-.136-1.103.546-2.307 1.556-2.456.978-.14 1.91.43 2.047 1.538l.048.374c.137 1.107-.568 2.118-1.578 2.267-.085.016-.17.02-.251.02"/>
        <g transform="translate(66)">
            <mask id="kmikrupulf" fill="#fff">
                <use xlink:href="#d1nssnq8le"/>
            </mask>
            <path fill="#334580" d="M3.812 34.954c.85 7.575 4.274 14.529 9.392 19.084 8.12 7.235 15.415 7.354 22.167 6.84 9.886-.737 17.647-7.995 18.767-9.392 6.467-8.078 8.616-16.627 6.38-25.413-2.288-8.956-9.15-16.867-17.485-20.156-4.089-1.611-9.637-2.51-13.5-2.165C16.801 4.86 8.225 11.909 4.738 24.142c-1.005 3.522-1.326 7.262-.926 10.812m27.462 29.5c-6.134 0-13-1.353-20.33-7.879C5.209 51.47 1.378 43.728.432 35.335c-.443-3.99-.087-8.181 1.041-12.127C5.323 9.7 15.183 1.587 29.236.368c4.397-.376 10.445.578 15.04 2.387C53.6 6.427 61.261 15.253 63.81 25.235c2.477 9.735.047 19.546-7.021 28.372-1.528 1.915-10.112 9.835-21.162 10.662-1.405.103-2.858.186-4.354.186" mask="url(#kmikrupulf)"/>
        </g>
    </g>
</svg>
