<?xml version="1.0" encoding="UTF-8"?>
<svg width="19px" height="20px" viewBox="0 0 19 20" version="1.1" xmlns="http://www.w3.org/2000/svg" xmlns:xlink="http://www.w3.org/1999/xlink">
    <g id="Page-1" stroke="none" stroke-width="1" fill="none" fill-rule="evenodd">
        <g id="google_icon" fill-rule="nonzero">
            <path d="M1.02158859,5.41364562 C1.62138493,4.16374745 2.4688391,3.10733198 3.53686354,2.22892057 C4.98411405,1.03319756 6.64419552,0.313441955 8.50549898,0.0928716904 C10.6918534,-0.166395112 12.7466395,0.247657841 14.6466395,1.38533605 C15.1187373,1.66782077 15.5598778,1.98900204 15.9816701,2.33727088 C16.0861507,2.42240326 16.0745418,2.47270876 15.9855397,2.55784114 C15.1226069,3.41690428 14.2596741,4.27596741 13.4044807,5.14276986 C13.3038697,5.24338086 13.2496945,5.23564155 13.1413442,5.15437882 C10.6338086,3.22342159 6.97698574,3.74582485 5.10794297,6.29979633 C4.7790224,6.74867617 4.51201629,7.23238289 4.32627291,7.7586558 C4.3107943,7.80509165 4.27983707,7.84765784 4.25661914,7.89409369 C3.75743381,7.51486762 3.25437882,7.13564155 2.75906314,6.75254582 C2.17861507,6.30753564 1.59816701,5.86252546 1.02158859,5.41364562 Z" id="Path" fill="#E94335"></path>
            <path d="M4.25661914,11.5238289 C4.42301426,11.891446 4.56232179,12.2745418 4.7712831,12.6189409 C5.6496945,14.0584521 6.90346232,14.9832994 8.55580448,15.31222 C10.0456212,15.6101833 11.4773931,15.4089613 12.8124236,14.6621181 C12.8588595,14.6389002 12.9052953,14.6156823 12.9478615,14.5924644 C12.9710794,14.6156823 12.9904277,14.6427699 13.0136456,14.6621181 C14.0120163,15.4360489 15.0142566,16.2099796 16.0126273,16.9839104 C15.5327902,17.4598778 14.987169,17.8429735 14.406721,18.1757637 C12.7234216,19.1354379 10.9008147,19.5224033 8.9814664,19.3753564 C6.59002037,19.189613 4.52749491,18.2454175 2.82484725,16.5427699 C2.07800407,15.7959267 1.46272912,14.9523422 1.01771894,13.9887984 C1.43177189,13.6714868 1.84582485,13.3580448 2.2598778,13.0407332 C2.92545825,12.5338086 3.5910387,12.0307536 4.25661914,11.5238289 Z" id="Path" fill="#34A853"></path>
            <path d="M16.0164969,16.9839104 C15.0181263,16.2099796 14.0158859,15.4360489 13.0175153,14.6621181 C12.9942974,14.6427699 12.9710794,14.6156823 12.9517312,14.5924644 C13.2961303,14.3254582 13.6482688,14.0661914 13.9307536,13.7256619 C14.4028513,13.1606925 14.7162933,12.5221996 14.8788187,11.8063136 C14.898167,11.7173116 14.8826884,11.6863544 14.7936864,11.690224 C14.7472505,11.6940937 14.7046843,11.690224 14.6582485,11.690224 C13.0794297,11.690224 11.4967413,11.6863544 9.91792261,11.6940937 C9.74378819,11.6940937 9.70509165,11.6476578 9.7089613,11.4812627 C9.71670061,10.3590631 9.71670061,9.23686354 9.7089613,8.11466395 C9.7089613,7.97148676 9.74765784,7.93279022 9.89083503,7.93279022 C12.785336,7.93665988 15.6798371,7.93665988 18.5782077,7.93279022 C18.7020367,7.93279022 18.7523422,7.96374745 18.7832994,8.09531568 C19.0193483,9.15947047 19.0038697,10.2274949 18.8606925,11.3032587 C18.7446029,12.1623218 18.5356415,12.9942974 18.2144603,13.7991853 C17.7384929,14.987169 17.0380855,16.0242363 16.1171079,16.9142566 C16.0822811,16.9413442 16.0474542,16.9606925 16.0164969,16.9839104 Z" id="Path" fill="#4285F3"></path>
            <path d="M4.25661914,11.5238289 C3.5910387,12.0307536 2.92545825,12.5338086 2.2598778,13.0407332 C1.84582485,13.3541752 1.43177189,13.6714868 1.01771894,13.9887984 C0.696537678,13.3928717 0.487576375,12.7621181 0.317311609,12.1120163 C-0.00773930754,10.8543788 -0.0580448065,9.57739308 0.119959267,8.29653768 C0.259266802,7.2904277 0.549490835,6.32301426 1.01771894,5.41751527 C1.59816701,5.86252546 2.17474542,6.3114053 2.75519348,6.75641548 C3.25437882,7.1395112 3.75356415,7.51873727 4.25274949,7.89796334 C4.16761711,8.31201629 4.04765784,8.71832994 4.0089613,9.14399185 C3.93930754,9.91792261 4.01283096,10.6725051 4.23340122,11.4154786 C4.24887984,11.4464358 4.25274949,11.4851324 4.25661914,11.5238289 Z" id="Path" fill="#FABB06"></path>
        </g>
    </g>
</svg>