<?xml version="1.0" encoding="UTF-8"?>
<svg width="19px" height="19px" viewBox="0 0 19 19" version="1.1" xmlns="http://www.w3.org/2000/svg" xmlns:xlink="http://www.w3.org/1999/xlink">
    <g id="Page-2" stroke="none" stroke-width="1" fill="none" fill-rule="evenodd">
        <g id="microsoft_icon" fill-rule="nonzero">
            <path d="M9.9073431,8.94546234 L18.7988264,8.94546234 L18.7988264,0.624376569 C18.7988264,0.296050209 18.5333033,0.0298117155 18.2060105,0.0298117155 L9.9073431,0.0298117155 L9.9073431,8.94546234 Z" id="Path" fill="#5ACF5F"></path>
            <path d="M8.9073431,8.94546234 L8.9073431,0.0298117155 L0.608675732,0.0298117155 C0.281303347,0.0298117155 0.0157803347,0.296050209 0.0157803347,0.624376569 L0.0157803347,8.94546234 L8.9073431,8.94546234 Z" id="Path" fill="#F84437"></path>
            <path d="M8.9073431,9.94546234 L0.0157803347,9.94546234 L0.0157803347,18.2666276 C0.0157803347,18.5945962 0.281303347,18.8610335 0.608675732,18.8610335 L8.9073431,18.8610335 L8.9073431,9.94546234 Z" id="Path" fill="#2299F8"></path>
            <path d="M9.9073431,9.94546234 L9.9073431,18.8610335 L18.2060105,18.8610335 C18.5333033,18.8610335 18.7988264,18.5945962 18.7988264,18.2666276 L18.7988264,9.94546234 L9.9073431,9.94546234 Z" id="Path" fill="#FFC107"></path>
        </g>
    </g>
</svg>