<svg version="1.1" id="Layer_1" xmlns="http://www.w3.org/2000/svg" xmlns:xlink="http://www.w3.org/1999/xlink" x="0px" y="0px" viewBox="0 0 450 153" style="enable-background:new 0 0 450 153;" xml:space="preserve">
									<style type="text/css">
										.st0{fill-rule:evenodd;clip-rule:evenodd;fill:#6FD78A;}
										.st1{fill-rule:evenodd;clip-rule:evenodd;fill:#0CBEB8;}
										.st2{fill-rule:evenodd;clip-rule:evenodd;fill:#1AA799;}
										.st3{fill-rule:evenodd;clip-rule:evenodd;fill:#F4D138;}
										.st4{fill-rule:evenodd;clip-rule:evenodd;fill:#029CEF;}
										.st5{fill-rule:evenodd;clip-rule:evenodd;fill:#1E778B;}
										.st6{fill-rule:evenodd;clip-rule:evenodd;fill:#5A76B1;}
										.st7{fill-rule:evenodd;clip-rule:evenodd;fill:#33457C;}
										.st8{fill:#33457C;stroke:#33457C;stroke-miterlimit:10;}
									</style>
									<g>
										<path class="st0" d="M64.5,104.1c0,0-23.3-6.3-38.8-17.9c0,0-3-2.3-3.8-3.1L0.7,91.7c8.3,20.6,29.3,32.6,50.4,30.7
											c1.9-0.1,3.9-0.3,5.8-0.6L64.5,104.1z"></path>
										<path class="st1" d="M49.8,71.8l-2-2.5c-7.4-9-11.1-19.9-11.2-30.8L9.2,27.1C0.8,47,6.5,69.4,21.8,83.2L49.8,71.8z"></path>
										<path class="st2" d="M63.9,88.8l-14-17h0l0,0L21.8,83.2c0,0,0,0,0,0c0,0,0.1,0.1,0.1,0.1c1.1,1,2.3,1.9,3.5,2.8
											c15.6,11.6,38.9,18,39,18l0,0C67.2,98.6,68.2,94.2,63.9,88.8"></path>
										<path class="st3" d="M185.5,28.8h-53.2c-17.1,0-31.3,6.9-40.4,16.3c0,0,11.2,13.5,11.5,13.8c4.6,5.4,7.6,6.2,15.5,5
											c0,0,16.7-2.6,16.7-2.6l0,0l0,0c8.1-17.6,21.2-25.9,43.3-25.9h6.9C190.6,35.5,190.9,28.8,185.5,28.8"></path>
										<path class="st4" d="M83.1,58.4L83.1,58.4l0.4-0.9c1.8-4.3,4.7-8.5,8.4-12.4L54.4-0.1c-12,9.9-18.1,24.3-17.9,38.8L83.1,58.4z"></path>
										<path class="st5" d="M36.6,38.6C36.6,38.6,36.6,38.7,36.6,38.6c0.1,10.9,3.8,21.8,11.2,30.8l2,2.5l33.3-13.4L36.6,38.6z"></path>
										<path class="st6" d="M57,121.8L47.1,145c19.4,8.3,52.5,1.1,60.9-18.9c0,0,1-2.4,1.3-3c0,0-11.6-8.9-11.7-8.9
											c-5.6-4.2-8.5-5-16.7-1.7l-0.1,0C79.2,113.3,60.8,121.3,57,121.8L57,121.8z"></path>
										<path class="st7" d="M119,64c-8,1.2-11,0.4-15.7-5L91.9,45.2c-3.7,3.8-6.5,8-8.4,12.4l-0.4,0.9L49.8,71.8l14.1,17
											c4.3,5.4,3.4,9.7,0.6,15.3l0,0h0L57,121.8c3.9-0.5,22.3-8.5,23.8-9.2c0.1,0,0.1,0,0.1,0c8.3-3.3,11.2-2.4,16.9,1.8
											c0.9,0.7,11.5,8.7,11.5,8.7l26.2-61.7L119,64z"></path>
										<path class="st8" d="M448.3,94.9c0-15.2-9.4-31.7-29.9-31.7c-9.6,0-17.5,3.6-22.9,10.3c-4.6,5.9-7.2,14-7.2,22.9
											c0,11.5,3.3,20.1,9.8,25.8c6.7,5.8,15.1,7.1,21,7.1c12.9,0,25.6-6,25.6-12c0-3-2.3-5.3-5.2-5.3c-1.1,0-2.2,0.3-3.3,0.9
											c-5.2,3.5-10,5.3-14.5,5.3c-12.1,0-19.6-6.1-21.1-17.3h41.3C445.7,101,448.3,98.4,448.3,94.9z M400.7,90.8c0.9-11.8,9.5-17,17.6-17
											c11.3,0,17.1,8.7,17.8,17H400.7z"></path>
										<path class="st8" d="M377.5,113.2c-1,0-1.7,0.1-3,0.8c-4.1,2.1-7.6,3.9-14,3.9c-13.7,0-22.2-8.3-22.2-21.8
											c0-13.4,8.5-21.7,22.2-21.7c6.4,0,9.7,1.7,14,3.9c1.2,0.7,1.9,0.8,2.9,0.8c2.9,0,5.2-2.9,5.2-5.4c0-1.9-1-3.6-2.7-4.7
											c-4.3-2.8-10.6-6-20.4-6c-9,0-17.3,3.1-23.4,8.8c-6.6,6.1-10.1,14.6-10.1,24.5c0,9.9,3.5,18.4,10.1,24.5c6.1,5.7,14.4,8.8,23.4,8.8
											c9.9,0,16.1-3.2,20.4-6c1.7-1.2,2.7-2.8,2.7-4.7C382.7,116.1,380.4,113.2,377.5,113.2z"></path>
										<path class="st8" d="M227.1,120.7c-0.8-1.5-1.7-4.3-1.7-8.9c-0.4-9,0-23.9,0-24.1c0-6.6-2.2-12.7-6.3-17.1
											c-4.7-5.1-11.7-7.8-20.1-7.8c-7.5,0-14.4,1.4-21.6,4.5c-2.2,0.9-3.5,2.8-3.5,5.2c0,2.9,2.2,5.2,5.1,5.2c0.5,0,1-0.1,1.7-0.3
											c4.8-1.6,9.7-3,16.4-3c11.3,0,16.1,4.4,16.1,14.9v0.5h-14.5c-18.2,0-29,7.7-29,20.6c0,12.5,10.4,19.1,20.7,19.1
											c9.2,0,16.9-3,23-8.9c0.6,2.3,2.8,8.3,8.9,8.3c0.4,0,0.8,0,1.2-0.1c1.6-0.3,2.9-1.4,3.7-2.9C227.9,124.3,227.9,122.3,227.1,120.7z
											 M181.9,109.2c0-6.3,6-9.3,18.2-9.3h13v9.7c-3.9,4.4-10.7,9-18.6,9C186.2,118.6,181.9,115.4,181.9,109.2z"></path>
										<path class="st8" d="M272,152.2c0.6,0.1,1.2,0.1,1.8,0.1c1,0,2.1-0.1,3.1-0.2c0.1,0,0.2,0,0.3-0.1c1.2-0.2,2.3-0.5,3.4-0.9
											c0.2-0.1,0.4-0.1,0.6-0.2c3.9-1.4,7.1-3.7,9.7-7l0,0c0,0,0-0.1,0.1-0.1c0.3-0.4,0.7-0.9,0.9-1.2c0,0,0.1-0.1,0.1-0.2
											c0.3-0.5,0.6-1,0.8-1.4c0-0.1,0.1-0.2,0.1-0.3l0-0.1c0-0.1,0.1-0.2,0.1-0.3c0.1-0.3,0.3-0.6,0.4-0.9c5.4-12,28.2-67,28.4-67.5
											c0.3-0.7,0.4-1.5,0.4-2.3c0-3.4-2.7-6.2-6.1-6.2c-2.5,0-4.5,1.4-5.7,4l-19,46l-18.6-46.2c-1-2.3-3.2-3.8-5.7-3.8
											c-3.4,0-6.1,2.8-6.1,6.2c0,1.1,0.3,2.1,0.5,2.5l23.5,56.9c-0.2,2.2-3.1,6.8-3.1,6.9c-0.3,0.4-0.6,0.8-1,1.2l-0.1,0.1v0
											c-1.2,1.3-2.7,2.3-4.3,2.9c-0.1,0-0.2,0.1-0.3,0.1l0,0h0l-0.1,0c-0.7,0.2-1.3,0.4-2,0.5c-0.1,0-0.1,0-0.2,0
											c-0.6,0.1-1.2,0.1-1.8,0.1c-0.5,0-1,0-1.4-0.1l0,0l-0.1,0l-0.1,0h0l0,0c-0.3,0-0.5-0.1-0.7-0.1c-0.3-0.1-0.8-0.2-1.7-0.6
											c-0.6-0.3-1.3-0.4-2-0.4c-1.4,0-2.8,0.6-3.8,1.6c-0.9,1-1.4,2.2-1.3,3.5c0,0.2,0,0.4,0.1,0.6c0,0,0,0.1,0,0.2c0,0,0,0,0,0.1
											c0.2,1.2,0.5,1.9,1,2.5c0.5,0.6,1.1,1.2,1.8,1.6c1.7,1,3.6,1.7,5.7,2.1c0.5,0.1,1,0.2,1.4,0.2c0,0,0.1,0,0.1,0 M266.2,140.3
											C266.2,140.3,266.3,140.3,266.2,140.3C266.3,140.3,266.3,140.3,266.2,140.3C266.3,140.3,266.2,140.3,266.2,140.3z"></path>
										<path class="st8" d="M252.1,120.7L252.1,120.7L252.1,120.7l-0.2-0.4c-1.3-2-2-3.1-2-7.5V33.4c0-3.3-2.7-5.9-6.2-5.9
											c-3.4,0-6.1,2.6-6.1,5.9v84.1c0,2.4,0.6,4.7,1.7,6.7c1.3,2.3,3.3,4.7,7.9,4.7c0.4,0,0.8,0,1.2-0.1c1.6-0.3,2.9-1.4,3.7-2.9
											C252.9,124.3,252.9,122.3,252.1,120.7z"></path>
									</g>
								</svg>